<?xml version="1.0" encoding="utf-8"?>
<svg xmlns="http://www.w3.org/2000/svg" width="30.48mm" height="128.50mm" viewBox="0 0 30.48 128.50">
    <g id="PanelLayer">
        <defs>
            <linearGradient id="memory_gradient" x1="0" y1="13" x2="0" y2="53" gradientUnits="userSpaceOnUse">
                <stop style="stop-color:#3068ff;stop-opacity:1;" offset="0" />
                <stop style="stop-color:#4f8df2;stop-opacity:1;" offset="1" />
            </linearGradient>
            <linearGradient id="morph_gradient" x1="0" y1="70" x2="0" y2="86" gradientUnits="userSpaceOnUse">
                <stop style="stop-color:#a06de4;stop-opacity:1;" offset="0" />
                <stop style="stop-color:#4f8df2;stop-opacity:1;" offset="1" />
            </linearGradient>
            <linearGradient id="cruise_gradient" x1="0" y1="87" x2="0" y2="103" gradientUnits="userSpaceOnUse">
                <stop style="stop-color:#3068ff;stop-opacity:1;" offset="0" />
                <stop style="stop-color:#4f8df2;stop-opacity:1;" offset="1" />
            </linearGradient>
            <linearGradient id="freeze_gradient" x1="0" y1="104" x2="0" y2="124.5" gradientUnits="userSpaceOnUse">
                <stop style="stop-color:#29aab4;stop-opacity:1;" offset="0" />
                <stop style="stop-color:#4f8df2;stop-opacity:1;" offset="1" />
            </linearGradient>
        </defs>
        <rect id="border_rect" width="30.48" height="128.5" x="0" y="0" style="display:inline;fill:#4f8df2;fill-opacity:1;stroke:none;" />
        <path id="memory_artwork" d="M 0.38,53.00 L 0.38,17.00 A 4 4 0 0 1 4.38 13 L 26.10,13.00 A 4 4 0 0 1 30.1 17 L 30.10,13.00 L 30.10,53.00 z" style="fill:url(#memory_gradient);fill-opacity:1;stroke-width:0;" />
        <path id="morph_artwork" d="M 0.38,86.00 L 0.38,74.00 A 4 4 0 0 1 4.38 70 L 26.10,70.00 A 4 4 0 0 1 30.1 74 L 30.10,70.00 L 30.10,86.00 z" style="fill:url(#morph_gradient);fill-opacity:1;stroke-width:0;" />
        <path id="cruise_artwork" d="M 0.38,103.00 L 0.38,91.00 A 4 4 0 0 1 4.38 87 L 26.10,87.00 A 4 4 0 0 1 30.1 91 L 30.10,87.00 L 30.10,103.00 z" style="fill:url(#cruise_gradient);fill-opacity:1;stroke-width:0;" />
        <path id="freeze_artwork" d="M 0.38,124.50 L 0.38,108.00 A 4 4 0 0 1 4.38 104 L 26.10,104.00 A 4 4 0 0 1 30.1 108 L 30.10,104.00 L 30.10,124.50 z" style="fill:url(#freeze_gradient);fill-opacity:1;stroke-width:0;" />
        <path id="sapphire_gemstone" d="m 17.955,122.900 q 0,0.34175 -0.242534,0.63114 -0.0441,0.0524 -0.20395,0.21497 -0.187413,0.19017 -0.785481,0.81304 l -1.444183,1.51309 q -0.01929,0.003 -0.0441,0.003 -0.02756,0 -0.04134,-0.003 -0.08268,-0.0827 -0.647678,-0.67524 -0.468532,-0.47404 -0.934309,-0.94809 -0.556727,-0.56775 -0.89848,-0.98116 -0.132292,-0.15985 -0.168121,-0.29766 -0.02756,-0.10197 -0.02756,-0.34175 0,-0.11024 0.07166,-0.28939 0.06614,-0.16536 0.140559,-0.26458 0.118512,-0.1571 0.42168,-0.42444 0.283875,-0.2508 0.474044,-0.37482 0.272852,-0.17915 0.818555,-0.36656 0.09646,-0.0331 0.110243,-0.0331 h 1.3615 q 0.01102,0 0.104731,0.0331 0.567751,0.20119 0.824066,0.36656 0.165365,0.10473 0.474045,0.37758 0.322461,0.28388 0.421679,0.42168 0.214974,0.2949 0.214974,0.62563 z m -0.16812,-0.27285 q -0.03307,-0.10749 -0.135048,-0.30868 -0.07166,-0.0937 -0.209462,-0.19844 -0.118511,-0.0854 -0.234266,-0.17088 0.245291,0.3638 0.578776,0.678 z m -0.573264,-0.52366 -0.358289,-0.44648 v 0.41065 z m 0.636653,0.75792 q 0,-0.0524 -0.341753,-0.39412 l 0.228754,0.7028 h 0.04961 q 0.06339,-0.21773 0.06339,-0.30868 z m -0.23151,0.27285 -0.316948,-0.90399 -0.410655,-0.0634 -0.159853,0.61461 z m 0.0028,0.15434 -0.771701,-0.3197 h -0.03032 l 0.344509,0.60634 q 0.07993,-0.003 0.234266,-0.0469 0.02481,-0.0138 0.223242,-0.23978 z m -0.857139,-1.05006 -0.719335,0.28388 0.60358,0.22599 z m 0,-0.16261 v -0.51538 l -0.917773,-0.38034 h -1.223697 l -0.917772,0.38034 v 0.51538 l 0.89848,0.4079 h 1.254014 z m 0.573264,1.53789 q -0.0689,0.011 -0.198438,0.0524 -0.08544,0.0551 -0.259071,0.16261 0.01929,0 0.06339,0.003 0.04134,0 0.06339,0 0.118511,0 0.190169,-0.0689 0.07166,-0.0717 0.14056,-0.14883 z m -0.289388,0.003 -0.347266,-0.63114 -0.363801,0.87918 q 0.0248,-0.0165 0.06615,-0.0165 0.03032,0 0.08544,0.011 0.05788,0.008 0.08819,0.008 0.04961,0 0.228754,-0.10749 0.228754,-0.1378 0.242535,-0.14331 z m -0.440972,-0.74139 -0.683507,-0.2756 -0.592556,0.54845 0.903993,0.65595 z m -0.854383,-0.28387 h -1.036284 l 0.523654,0.47404 z m 0.749652,1.36701 q -0.228754,-0.0303 -0.228754,-0.0303 -0.03583,0 -0.272851,0.0937 l 0.190169,0.0193 q 0.01102,0 0.311436,-0.0827 z m -0.388606,-0.0882 -0.843359,-0.61185 v 0.67524 l 0.471289,0.0827 z m 0.854383,0.0496 q -0.09922,0.006 -0.2949,0.0386 -0.01102,0.003 -0.377583,0.17639 -0.129535,0.34726 -0.380338,1.0418 z m -2.543857,-1.39733 -0.719335,-0.28388 0.124023,0.51814 z m -0.802018,-0.45476 v -0.41065 l -0.366557,0.44648 z m 1.515841,1.07212 -0.592556,-0.54019 -0.683506,0.2756 0.380338,0.9288 z m 0.369314,0.94257 q -0.03307,-0.003 -0.135047,-0.0248 -0.08544,-0.0165 -0.137804,-0.0165 -0.05237,0 -0.137804,0.0165 -0.101975,0.0221 -0.135047,0.0248 0.264583,0.0469 0.272851,0.0469 0.0083,0 0.272851,-0.0469 z m -0.30868,-0.1378 v -0.68626 l -0.843359,0.61185 0.37207,0.14607 z m 0.950846,0.20671 -0.396875,-0.0551 -0.479557,0.14056 v 1.27607 z m -2.888366,-2.20211 q -0.118512,0.0854 -0.234267,0.17364 -0.146072,0.10748 -0.209461,0.19568 -0.0441,0.10473 -0.135048,0.31419 0.369314,-0.3638 0.578776,-0.68351 z m 0.476801,0.83234 -0.159853,-0.61461 -0.410655,0.0634 -0.316948,0.90399 z m 0.394118,1.08313 -0.363802,-0.87918 -0.355533,0.63114 q 0.43546,0.2508 0.451996,0.2508 0.09095,0 0.267339,-0.003 z m 1.821765,0.82958 q -0.132291,0.21222 -0.405143,0.6339 -0.07717,0.10749 -0.220486,0.32797 -0.05788,0.10473 -0.05512,0.226 0.159852,-0.15158 0.432704,-0.49609 0.07717,-0.12954 0.140559,-0.339 0.05512,-0.17639 0.107486,-0.35278 z m -1.493792,-0.66146 -0.270095,-0.0882 -0.0083,-0.011 q -0.02481,0 -0.107487,0.011 -0.06615,0.006 -0.107487,0.006 0.272851,0.091 0.311436,0.091 0.02481,0 0.181901,-0.008 z m -0.810286,-1.06384 h -0.03032 l -0.7717,0.3197 q 0.06615,0.0965 0.223242,0.23978 0.07717,0.0138 0.234266,0.0469 z m -0.689018,-0.50161 q -0.341754,0.34727 -0.341754,0.39412 0,0.0799 0.06339,0.30868 h 0.04961 z m 2.235176,3.04547 v -1.27607 l -0.479557,-0.14056 -0.396875,0.0551 z m -1.606791,-1.6757 q -0.256315,-0.1819 -0.457509,-0.22324 0.06615,0.0772 0.20395,0.22324 z m 1.609547,2.04501 v -0.1378 l -0.683507,-1.05007 q 0.05237,0.17639 0.107487,0.35278 0.06339,0.20946 0.14056,0.339 0.0689,0.11851 0.20395,0.25907 0.115755,0.11851 0.23151,0.23702 z m -0.644921,-0.70555 q -0.115756,-0.32798 -0.380339,-1.0418 -0.135047,-0.0662 -0.272851,-0.12954 -0.159852,-0.0716 -0.289388,-0.0716 -0.05237,0 -0.110243,-0.0138 z" style="stroke-width:0;fill:#0000ff;stroke:#2e2114;stroke-linecap:square;stroke-opacity:1" />
        <path id="model_name" d="M6.03144 4.70533Q6.03144 4.76741 5.98876 4.81398Q5.94607 4.86055 5.88398 4.86055Q5.81413 4.86055 5.77921 4.83726Q5.74428 4.81398 5.68219 4.75189Q5.5813 4.63547 5.47264 4.58115Q5.19324 4.44921 4.68101 4.44921Q4.23863 4.44921 3.86221 4.68204Q3.4858 4.91488 3.26461 5.31457Q3.04341 5.71427 3.04341 6.1877Q3.04341 6.68441 3.24908 7.08411Q3.45475 7.4838 3.83117 7.70887Q4.20758 7.93395 4.68101 7.93395Q4.99145 7.93395 5.16996 7.87962Q5.34846 7.82529 5.52697 7.7244Q5.65115 7.64679 5.74428 7.55365Q5.78309 7.51485 5.82189 7.48768Q5.8607 7.46052 5.8995 7.46052Q5.96159 7.46052 5.99652 7.49932Q6.03144 7.53813 6.03144 7.60022Q6.03144 7.70887 5.85294 7.86022Q5.67443 8.01156 5.36011 8.12021Q5.04578 8.22887 4.65773 8.22887Q4.09893 8.22887 3.66042 7.96499Q3.22192 7.70111 2.97744 7.23545Q2.73297 6.76978 2.73297 6.1877Q2.73297 5.64442 2.97744 5.17875Q3.22192 4.71309 3.66818 4.43369Q4.11445 4.15429 4.68877 4.15429Q5.0225 4.15429 5.33682 4.2319Q5.65115 4.30951 5.84129 4.43757Q6.03144 4.56562 6.03144 4.70533ZM10.0595 5.72979V7.99604Q10.0595 8.05812 10.0129 8.10469Q9.96633 8.15126 9.90424 8.15126Q9.83439 8.15126 9.7917 8.10469Q9.74901 8.05812 9.74901 7.99604V5.72979Q9.74901 5.19427 9.48514 4.86055Q9.22126 4.52682 8.67798 4.52682Q8.34425 4.52682 8.02217 4.6898Q7.70008 4.85279 7.49829 5.13219Q7.2965 5.41159 7.2965 5.72979V7.99604Q7.2965 8.05812 7.24994 8.10469Q7.20337 8.15126 7.14128 8.15126Q7.07143 8.15126 7.02874 8.10469Q6.98606 8.05812 6.98606 7.99604V2.56326Q6.98606 2.50117 7.03263 2.4546Q7.07919 2.40804 7.14128 2.40804Q7.21113 2.40804 7.25382 2.4546Q7.2965 2.50117 7.2965 2.56326V5.01577Q7.51381 4.67428 7.89799 4.45309Q8.28216 4.2319 8.67798 4.2319Q9.34544 4.2319 9.70245 4.65488Q10.0595 5.07786 10.0595 5.72979ZM14.6773 4.43369V7.99604Q14.6773 8.05812 14.6308 8.10469Q14.5842 8.15126 14.5221 8.15126Q14.4522 8.15126 14.4096 8.10469Q14.3669 8.05812 14.3669 7.99604V7.29754Q14.1728 7.69335 13.7693 7.96111Q13.3657 8.22887 12.8767 8.22887Q12.3645 8.22887 11.9532 7.96111Q11.5418 7.69335 11.309 7.22381Q11.0762 6.75426 11.0762 6.17217Q11.0762 5.59785 11.3129 5.13607Q11.5496 4.67428 11.9609 4.41428Q12.3723 4.15429 12.8767 4.15429Q13.3812 4.15429 13.7848 4.41816Q14.1884 4.68204 14.3669 5.12443V4.43369Q14.3669 4.3716 14.4096 4.32503Q14.4522 4.27846 14.5221 4.27846Q14.5919 4.27846 14.6346 4.32503Q14.6773 4.3716 14.6773 4.43369ZM14.3979 6.17217Q14.3979 5.69875 14.2039 5.30293Q14.0099 4.90711 13.6645 4.67816Q13.3191 4.44921 12.8923 4.44921Q12.4654 4.44921 12.12 4.6704Q11.7747 4.89159 11.5806 5.28353Q11.3866 5.67546 11.3866 6.17217Q11.3866 6.66889 11.5806 7.07246Q11.7747 7.47604 12.1162 7.70499Q12.4576 7.93395 12.8923 7.93395Q13.3191 7.93395 13.6645 7.70499Q14.0099 7.47604 14.2039 7.07246Q14.3979 6.66889 14.3979 6.17217ZM17.611 8.22887Q17.0755 8.22887 16.637 7.96111Q16.1985 7.69335 15.9463 7.22769Q15.694 6.76202 15.694 6.19546Q15.694 5.62114 15.9463 5.15547Q16.1985 4.6898 16.6331 4.42204Q17.0677 4.15429 17.611 4.15429Q18.1465 4.15429 18.585 4.42204Q19.0235 4.6898 19.2719 5.15547Q19.5203 5.62114 19.5203 6.19546Q19.5203 6.76978 19.2719 7.23157Q19.0235 7.69335 18.585 7.96111Q18.1465 8.22887 17.611 8.22887ZM17.611 4.44921Q17.1609 4.44921 16.7922 4.67816Q16.4236 4.90711 16.214 5.30293Q16.0045 5.69875 16.0045 6.19546Q16.0045 6.68441 16.214 7.08022Q16.4236 7.47604 16.7922 7.70499Q17.1609 7.93395 17.611 7.93395Q18.0689 7.93395 18.4337 7.70887Q18.7985 7.4838 19.0041 7.08411Q19.2098 6.68441 19.2098 6.19546Q19.2098 5.69875 19.0041 5.30293Q18.7985 4.90711 18.4337 4.67816Q18.0689 4.44921 17.611 4.44921ZM24.1381 6.21098Q24.1381 6.76978 23.9014 7.22381Q23.6647 7.67783 23.2533 7.93783Q22.842 8.19782 22.3375 8.19782Q21.8719 8.19782 21.4838 7.96499Q21.0958 7.73216 20.8474 7.3053V9.54826Q20.8474 9.61035 20.8047 9.65691Q20.762 9.70348 20.6922 9.70348Q20.6301 9.70348 20.5835 9.65691Q20.537 9.61035 20.537 9.54826V4.38712Q20.537 4.32503 20.5796 4.27846Q20.6223 4.2319 20.6922 4.2319Q20.762 4.2319 20.8047 4.27846Q20.8474 4.32503 20.8474 4.38712V5.10114Q21.0802 4.65876 21.4683 4.44533Q21.8563 4.2319 22.3375 4.2319Q22.8498 4.2319 23.2611 4.48801Q23.6724 4.74413 23.9053 5.19428Q24.1381 5.64442 24.1381 6.21098ZM23.8277 6.21098Q23.8277 5.72979 23.6298 5.34562Q23.4319 4.96144 23.0904 4.74413Q22.7489 4.52682 22.322 4.52682Q21.8874 4.52682 21.542 4.74025Q21.1967 4.95368 21.0065 5.33786Q20.8164 5.72203 20.8164 6.21098Q20.8164 6.69993 21.0065 7.08411Q21.1967 7.46828 21.542 7.68559Q21.8874 7.9029 22.322 7.9029Q22.7489 7.9029 23.0904 7.68559Q23.4319 7.46828 23.6298 7.08022Q23.8277 6.69217 23.8277 6.21098ZM24.8832 7.38291Q24.8832 7.32858 24.9453 7.28201Q24.9841 7.24321 25.0384 7.24321Q25.116 7.24321 25.1626 7.3053Q25.6127 7.94947 26.4199 7.94947Q26.8312 7.94947 27.1417 7.7438Q27.4521 7.53813 27.4521 7.18888Q27.4521 6.83187 27.1805 6.65336Q26.9088 6.47486 26.4354 6.35844Q25.8068 6.20322 25.4459 5.94322Q25.085 5.68323 25.085 5.2098Q25.085 4.75189 25.4497 4.45309Q25.8145 4.15429 26.3888 4.15429Q26.707 4.15429 27.0214 4.27846Q27.3357 4.40264 27.5918 4.67428Q27.6461 4.72085 27.6461 4.78294Q27.6461 4.85279 27.5918 4.90711Q27.5297 4.93816 27.4909 4.93816Q27.4366 4.93816 27.3978 4.89159Q26.9942 4.44921 26.3578 4.44921Q25.9465 4.44921 25.6632 4.651Q25.3799 4.85279 25.3799 5.2098Q25.4032 5.54352 25.6865 5.72591Q25.9697 5.9083 26.5208 6.048Q26.9166 6.14889 27.1766 6.26919Q27.4366 6.38949 27.5918 6.6068Q27.747 6.82411 27.747 7.17336Q27.747 7.66231 27.3706 7.94559Q26.9942 8.22887 26.3888 8.22887Q25.5041 8.22887 24.9375 7.53037Q24.8832 7.445 24.8832 7.38291Z" style="display:inline;stroke:#000000;stroke-width:0.35;stroke-linecap:round;stroke-linejoin:bevel" />
        <path id="store_line_art" d="M 29.48,66.00 L 14.24,66.00 A 7 7 0 0 1 7.24 59 L 7.24,34.50 A 1.5 1.5 0 0 1 8.74 33 L 10.49,33.00 M 10.49,33.00 L 8.79,32.30 M 10.49,33.00 L 8.79,33.70 " style="stroke:#66065c;stroke-width:0.5;stroke-linecap:round;stroke-linejoin:round;stroke-dasharray:none" fill="none" />
        <path id="recall_line_art" d="M 29.48,59.00 L 25.74,59.00 A 2.5 2.5 0 0 1 23.24 56.5 L 23.24,35.50 A 2.5 2.5 0 0 0 20.74 33 L 19.99,33.00 M 29.48,59.00 L 27.78,58.30 M 29.48,59.00 L 27.78,59.70 " style="stroke:#66065c;stroke-width:0.5;stroke-linecap:round;stroke-linejoin:round;stroke-dasharray:none" fill="none" />
        <path d="M10.3964 15.8499V18.1783Q10.3964 18.2065 10.3734 18.2277Q10.3505 18.2488 10.3223 18.2488Q10.2905 18.2488 10.2694 18.2277Q10.2482 18.2065 10.2482 18.1783V16.0687L9.33803 17.4445Q9.32039 17.4727 9.28864 17.4727Q9.24983 17.4727 9.23219 17.4445L8.3185 16.0651V18.1783Q8.3185 18.2065 8.29733 18.2277Q8.27617 18.2488 8.24794 18.2488Q8.21619 18.2488 8.19679 18.2277Q8.17739 18.2065 8.17739 18.1783V15.8499Q8.17739 15.8253 8.19679 15.8023Q8.21619 15.7794 8.24442 15.7794Q8.29028 15.7794 8.31144 15.8111L9.28864 17.2646L10.2658 15.8111Q10.2941 15.7723 10.3329 15.7794Q10.3611 15.7829 10.3787 15.8023Q10.3964 15.8217 10.3964 15.8499ZM12.573 18.1783Q12.573 18.21 12.5518 18.2294Q12.5307 18.2488 12.5024 18.2488H11.1725Q11.1443 18.2488 11.1231 18.2277Q11.1019 18.2065 11.1019 18.1783V15.8499Q11.1019 15.8217 11.1231 15.8006Q11.1443 15.7794 11.1725 15.7794H12.5024Q12.5307 15.7794 12.5518 15.8006Q12.573 15.8217 12.573 15.8499Q12.573 15.8817 12.5518 15.9011Q12.5307 15.9205 12.5024 15.9205H11.2501V16.9047H12.3437Q12.3719 16.9047 12.3931 16.9259Q12.4143 16.9471 12.4143 16.9753Q12.4143 17.0071 12.3931 17.0265Q12.3719 17.0459 12.3437 17.0459H11.2501V18.1077H12.5024Q12.5307 18.1077 12.5518 18.1289Q12.573 18.1501 12.573 18.1783ZM15.3211 15.8499V18.1783Q15.3211 18.2065 15.2982 18.2277Q15.2753 18.2488 15.2471 18.2488Q15.2153 18.2488 15.1941 18.2277Q15.173 18.2065 15.173 18.1783V16.0687L14.2628 17.4445Q14.2452 17.4727 14.2134 17.4727Q14.1746 17.4727 14.157 17.4445L13.2433 16.0651V18.1783Q13.2433 18.2065 13.2221 18.2277Q13.2009 18.2488 13.1727 18.2488Q13.141 18.2488 13.1216 18.2277Q13.1022 18.2065 13.1022 18.1783V15.8499Q13.1022 15.8253 13.1216 15.8023Q13.141 15.7794 13.1692 15.7794Q13.2151 15.7794 13.2362 15.8111L14.2134 17.2646L15.1906 15.8111Q15.2188 15.7723 15.2576 15.7794Q15.2859 15.7829 15.3035 15.8023Q15.3211 15.8217 15.3211 15.8499ZM17.0286 18.2841Q16.6864 18.2841 16.4183 18.1236Q16.1502 17.9631 16.0002 17.6738Q15.8503 17.3845 15.8503 17.0141Q15.8503 16.6437 16.0002 16.3544Q16.1502 16.0651 16.4183 15.9046Q16.6864 15.7441 17.0286 15.7441Q17.3708 15.7441 17.6389 15.9046Q17.907 16.0651 18.0569 16.3544Q18.2069 16.6437 18.2069 17.0141Q18.2069 17.3845 18.0569 17.6738Q17.907 17.9631 17.6389 18.1236Q17.3708 18.2841 17.0286 18.2841ZM17.0286 15.8852Q16.7287 15.8852 16.4941 16.0263Q16.2595 16.1674 16.129 16.425Q15.9985 16.6825 15.9985 17.0141Q15.9985 17.3457 16.129 17.6032Q16.2595 17.8608 16.4941 18.0019Q16.7287 18.143 17.0286 18.143Q17.3284 18.143 17.563 18.0019Q17.7976 17.8608 17.9282 17.6032Q18.0587 17.3457 18.0587 17.0141Q18.0587 16.6825 17.9282 16.425Q17.7976 16.1674 17.563 16.0263Q17.3284 15.8852 17.0286 15.8852ZM20.5317 18.1747Q20.5317 18.2065 20.5123 18.2259Q20.4929 18.2453 20.4646 18.2453Q20.4435 18.2453 20.4329 18.2383Q20.3376 18.1853 20.2812 18.0601Q20.2248 17.9349 20.2248 17.6491Q20.2248 17.3598 20.0695 17.2522Q19.9143 17.1446 19.7097 17.1446H18.8842V18.1783Q18.8842 18.2065 18.863 18.2277Q18.8419 18.2488 18.8101 18.2488Q18.7784 18.2488 18.7572 18.2277Q18.736 18.2065 18.736 18.1783V15.8499Q18.736 15.8217 18.7572 15.8006Q18.7784 15.7794 18.8066 15.7794H19.7379Q19.9425 15.7794 20.1013 15.8623Q20.26 15.9452 20.3482 16.0898Q20.4364 16.2345 20.4364 16.4179Q20.4364 16.6543 20.3112 16.8236Q20.1859 16.9929 19.9849 17.0529Q20.1542 17.1058 20.2636 17.2628Q20.3729 17.4198 20.3729 17.6491Q20.3729 17.8855 20.4029 17.979Q20.4329 18.0724 20.4929 18.1113Q20.5317 18.1359 20.5317 18.1747ZM19.7556 17.0035Q19.9778 16.9824 20.133 16.8271Q20.2883 16.6719 20.2883 16.4214Q20.2883 16.2027 20.133 16.0616Q19.9778 15.9205 19.7203 15.9205H18.8842V17.0035ZM22.5707 15.8782 21.7664 16.9718V18.1783Q21.7664 18.2065 21.7452 18.2277Q21.7241 18.2488 21.6923 18.2488Q21.6606 18.2488 21.6394 18.2277Q21.6182 18.2065 21.6182 18.1783V16.9859L20.8104 15.8782Q20.7962 15.8605 20.7962 15.8323Q20.7962 15.8076 20.8192 15.7864Q20.8421 15.7653 20.8703 15.7653Q20.9091 15.7653 20.9303 15.797L21.6923 16.8377L22.4543 15.797Q22.4755 15.7653 22.5143 15.7653Q22.546 15.7653 22.5654 15.7882Q22.5848 15.8111 22.5848 15.8323Q22.5848 15.8499 22.5707 15.8782Z" style="stroke:#000000;stroke-width:0.25;stroke-linecap:round;stroke-linejoin:bevel" />
        <path d="M11.5058 72.8499V75.1783Q11.5058 75.2065 11.4829 75.2277Q11.46 75.2488 11.4318 75.2488Q11.4 75.2488 11.3788 75.2277Q11.3577 75.2065 11.3577 75.1783V73.0687L10.4475 74.4445Q10.4299 74.4727 10.3981 74.4727Q10.3593 74.4727 10.3417 74.4445L9.42799 73.0651V75.1783Q9.42799 75.2065 9.40682 75.2277Q9.38565 75.2488 9.35743 75.2488Q9.32568 75.2488 9.30628 75.2277Q9.28688 75.2065 9.28688 75.1783V72.8499Q9.28688 72.8253 9.30628 72.8023Q9.32568 72.7794 9.3539 72.7794Q9.39976 72.7794 9.42093 72.8111L10.3981 74.2646L11.3753 72.8111Q11.4035 72.7723 11.4423 72.7794Q11.4706 72.7829 11.4882 72.8023Q11.5058 72.8217 11.5058 72.8499ZM13.2133 75.2841Q12.8711 75.2841 12.603 75.1236Q12.3349 74.9631 12.1849 74.6738Q12.035 74.3845 12.035 74.0141Q12.035 73.6437 12.1849 73.3544Q12.3349 73.0651 12.603 72.9046Q12.8711 72.7441 13.2133 72.7441Q13.5555 72.7441 13.8236 72.9046Q14.0917 73.0651 14.2416 73.3544Q14.3916 73.6437 14.3916 74.0141Q14.3916 74.3845 14.2416 74.6738Q14.0917 74.9631 13.8236 75.1236Q13.5555 75.2841 13.2133 75.2841ZM13.2133 72.8852Q12.9134 72.8852 12.6788 73.0263Q12.4442 73.1674 12.3137 73.425Q12.1832 73.6825 12.1832 74.0141Q12.1832 74.3457 12.3137 74.6033Q12.4442 74.8608 12.6788 75.0019Q12.9134 75.143 13.2133 75.143Q13.5132 75.143 13.7477 75.0019Q13.9823 74.8608 14.1129 74.6033Q14.2434 74.3457 14.2434 74.0141Q14.2434 73.6825 14.1129 73.425Q13.9823 73.1674 13.7477 73.0263Q13.5132 72.8852 13.2133 72.8852ZM16.7164 75.1748Q16.7164 75.2065 16.697 75.2259Q16.6776 75.2453 16.6493 75.2453Q16.6282 75.2453 16.6176 75.2383Q16.5223 75.1853 16.4659 75.0601Q16.4095 74.9349 16.4095 74.6491Q16.4095 74.3598 16.2542 74.2522Q16.099 74.1446 15.8944 74.1446H15.0689V75.1783Q15.0689 75.2065 15.0477 75.2277Q15.0266 75.2488 14.9948 75.2488Q14.9631 75.2488 14.9419 75.2277Q14.9207 75.2065 14.9207 75.1783V72.8499Q14.9207 72.8217 14.9419 72.8006Q14.9631 72.7794 14.9913 72.7794H15.9226Q16.1272 72.7794 16.286 72.8623Q16.4447 72.9452 16.5329 73.0898Q16.6211 73.2345 16.6211 73.4179Q16.6211 73.6543 16.4959 73.8236Q16.3707 73.9929 16.1696 74.0529Q16.3389 74.1058 16.4483 74.2628Q16.5576 74.4198 16.5576 74.6491Q16.5576 74.8855 16.5876 74.979Q16.6176 75.0724 16.6776 75.1112Q16.7164 75.1359 16.7164 75.1748ZM15.9403 74.0035Q16.1625 73.9824 16.3177 73.8271Q16.473 73.6719 16.473 73.4214Q16.473 73.2027 16.3177 73.0616Q16.1625 72.9205 15.905 72.9205H15.0689V74.0035ZM18.8472 73.4532Q18.8472 73.6508 18.7642 73.8113Q18.6813 73.9718 18.5297 74.0617Q18.378 74.1517 18.1804 74.1517H17.4113V75.1783Q17.4113 75.2065 17.3884 75.2277Q17.3655 75.2488 17.3373 75.2488Q17.3055 75.2488 17.2843 75.2277Q17.2632 75.2065 17.2632 75.1783V72.8499Q17.2632 72.8217 17.2843 72.8006Q17.3055 72.7794 17.3337 72.7794H18.1804Q18.4803 72.7794 18.6637 72.9664Q18.8472 73.1533 18.8472 73.4532ZM18.699 73.4532Q18.699 73.2098 18.5596 73.0651Q18.4203 72.9205 18.1804 72.9205H17.4113V74.0106H18.1804Q18.4168 74.0106 18.5579 73.8536Q18.699 73.6966 18.699 73.4532ZM21.1931 72.8535V75.1748Q21.1896 75.2065 21.1684 75.2277Q21.1473 75.2488 21.119 75.2488Q21.0838 75.2488 21.0644 75.2277Q21.045 75.2065 21.045 75.1748V74.0494H19.5068V75.1748Q19.5033 75.2065 19.4822 75.2277Q19.461 75.2488 19.4328 75.2488Q19.3975 75.2488 19.3781 75.2277Q19.3587 75.2065 19.3587 75.1748V72.8535Q19.3587 72.8217 19.3798 72.8006Q19.401 72.7794 19.4328 72.7794Q19.4645 72.7794 19.4857 72.8006Q19.5068 72.8217 19.5068 72.8535V73.9083H21.045V72.8535Q21.045 72.8217 21.0661 72.8006Q21.0873 72.7794 21.119 72.7794Q21.1508 72.7794 21.172 72.8006Q21.1931 72.8217 21.1931 72.8535Z" style="stroke:#000000;stroke-width:0.25;stroke-linecap:round;stroke-linejoin:bevel" />
        <path d="M11.4547 90.0404Q11.4547 90.0687 11.4406 90.0863Q11.4194 90.1145 11.3877 90.1145Q11.3736 90.1145 11.3453 90.1004Q11.0173 89.8782 10.6504 89.8782Q10.354 89.8782 10.1053 90.0246Q9.85661 90.171 9.71197 90.4303Q9.56733 90.6896 9.56733 91.0141Q9.56733 91.3387 9.71197 91.598Q9.85661 91.8573 10.1053 92.0037Q10.354 92.1501 10.6504 92.1501Q11.0208 92.1501 11.3418 91.9313Q11.3594 91.9172 11.3841 91.9172Q11.4194 91.9172 11.4406 91.9454Q11.4547 91.9631 11.4547 91.9878Q11.4547 92.0231 11.4265 92.0442Q11.2889 92.143 11.0719 92.2136Q10.855 92.2841 10.6504 92.2841Q10.3152 92.2841 10.033 92.1183Q9.75078 91.9525 9.58497 91.6615Q9.41917 91.3704 9.41917 91.0141Q9.41917 90.6578 9.58497 90.3668Q9.75078 90.0757 10.033 89.9099Q10.3152 89.7441 10.6504 89.7441Q10.862 89.7441 11.0613 89.8076Q11.2607 89.8711 11.4229 89.984Q11.4547 90.0087 11.4547 90.0404ZM13.7266 92.1748Q13.7266 92.2065 13.7072 92.2259Q13.6878 92.2453 13.6596 92.2453Q13.6384 92.2453 13.6278 92.2383Q13.5326 92.1853 13.4761 92.0601Q13.4197 91.9349 13.4197 91.6491Q13.4197 91.3598 13.2644 91.2522Q13.1092 91.1446 12.9046 91.1446H12.0791V92.1783Q12.0791 92.2065 12.0579 92.2277Q12.0368 92.2488 12.005 92.2488Q11.9733 92.2488 11.9521 92.2277Q11.9309 92.2065 11.9309 92.1783V89.8499Q11.9309 89.8217 11.9521 89.8006Q11.9733 89.7794 12.0015 89.7794H12.9328Q13.1374 89.7794 13.2962 89.8623Q13.4549 89.9452 13.5431 90.0898Q13.6313 90.2345 13.6313 90.4179Q13.6313 90.6543 13.5061 90.8236Q13.3809 90.9929 13.1798 91.0529Q13.3491 91.1058 13.4585 91.2628Q13.5678 91.4198 13.5678 91.6491Q13.5678 91.8855 13.5978 91.979Q13.6278 92.0724 13.6878 92.1112Q13.7266 92.1359 13.7266 92.1748ZM12.9505 91.0035Q13.1727 90.9824 13.3279 90.8271Q13.4832 90.6719 13.4832 90.4214Q13.4832 90.2027 13.3279 90.0616Q13.1727 89.9205 12.9152 89.9205H12.0791V91.0035ZM16.0902 89.8499V91.3739Q16.0902 91.6209 15.9667 91.829Q15.8433 92.0372 15.6351 92.1606Q15.427 92.2841 15.1836 92.2841Q14.9366 92.2841 14.7285 92.1606Q14.5203 92.0372 14.3969 91.829Q14.2734 91.6209 14.2734 91.3739V89.8499Q14.2734 89.8182 14.2946 89.7988Q14.3157 89.7794 14.3475 89.7794Q14.3792 89.7794 14.4004 89.8006Q14.4216 89.8217 14.4216 89.8499V91.3739Q14.4216 91.5821 14.5239 91.7585Q14.6262 91.9349 14.8008 92.0389Q14.9754 92.143 15.1836 92.143Q15.3917 92.143 15.5663 92.0389Q15.7409 91.9349 15.845 91.7585Q15.9491 91.5821 15.9491 91.3739V89.8499Q15.9491 89.8217 15.9685 89.8006Q15.9879 89.7794 16.0196 89.7794Q16.0514 89.7794 16.0708 89.8006Q16.0902 89.8217 16.0902 89.8499ZM16.8698 92.2488Q16.8346 92.2488 16.8152 92.2277Q16.7958 92.2065 16.7958 92.1748V89.8535Q16.7958 89.8217 16.8169 89.8006Q16.8381 89.7794 16.8698 89.7794Q16.9016 89.7794 16.9228 89.8006Q16.9439 89.8217 16.9439 89.8535V92.1748Q16.9404 92.2065 16.9192 92.2277Q16.8981 92.2488 16.8698 92.2488ZM17.4413 91.9137Q17.4202 91.8925 17.4202 91.8608Q17.4202 91.8326 17.4449 91.8061Q17.4696 91.7796 17.4978 91.7796Q17.5295 91.7796 17.5577 91.8114Q17.6953 91.9737 17.8841 92.0583Q18.0728 92.143 18.2809 92.143Q18.5526 92.143 18.729 92.0125Q18.9054 91.8819 18.9054 91.6668Q18.9018 91.4974 18.8136 91.3881Q18.7254 91.2787 18.5967 91.2134Q18.4679 91.1482 18.2457 91.067Q18.0023 90.9753 17.8664 90.9048Q17.7306 90.8342 17.6336 90.7037Q17.5366 90.5731 17.5366 90.3615Q17.5366 90.1886 17.6318 90.0475Q17.7271 89.9064 17.9035 89.8253Q18.0799 89.7441 18.3127 89.7441Q18.5208 89.7441 18.7078 89.82Q18.8948 89.8958 19.0041 90.0334Q19.0394 90.0828 19.0394 90.1075Q19.0394 90.1357 19.013 90.1586Q18.9865 90.1816 18.9548 90.1816Q18.9265 90.1816 18.9089 90.1604Q18.8101 90.0334 18.6549 89.9593Q18.4997 89.8852 18.3127 89.8852Q18.0446 89.8852 17.8664 90.0122Q17.6883 90.1392 17.6883 90.3579Q17.6883 90.5096 17.7747 90.6155Q17.8611 90.7213 17.9917 90.7866Q18.1222 90.8518 18.3162 90.9224Q18.5632 91.0106 18.7078 91.0847Q18.8524 91.1587 18.9548 91.2999Q19.0571 91.441 19.0571 91.6738Q19.0571 91.8361 18.9618 91.9772Q18.8666 92.1183 18.6884 92.2012Q18.5102 92.2841 18.2809 92.2841Q18.0199 92.2841 17.8259 92.1942Q17.6318 92.1042 17.4413 91.9137ZM21.0608 92.1783Q21.0608 92.21 21.0397 92.2294Q21.0185 92.2488 20.9903 92.2488H19.6603Q19.6321 92.2488 19.6109 92.2277Q19.5897 92.2065 19.5897 92.1783V89.8499Q19.5897 89.8217 19.6109 89.8006Q19.6321 89.7794 19.6603 89.7794H20.9903Q21.0185 89.7794 21.0397 89.8006Q21.0608 89.8217 21.0608 89.8499Q21.0608 89.8817 21.0397 89.9011Q21.0185 89.9205 20.9903 89.9205H19.7379V90.9048H20.8315Q20.8597 90.9048 20.8809 90.9259Q20.9021 90.9471 20.9021 90.9753Q20.9021 91.0071 20.8809 91.0265Q20.8597 91.0459 20.8315 91.0459H19.7379V92.1077H20.9903Q21.0185 92.1077 21.0397 92.1289Q21.0608 92.1501 21.0608 92.1783Z" style="stroke:#000000;stroke-width:0.25;stroke-linecap:round;stroke-linejoin:bevel" />
        <path id="memory_vline" d="M 15.24,24.00 L 15.24,33.00 " style="stroke:#000000;stroke-width:0.25;stroke-linecap:round;stroke-linejoin:bevel;stroke-dasharray:none" fill="none" />
        <path d="M 6.24,24.00 L 24.24,24.00 z " style="stroke:#000000;stroke-width:0.25;stroke-linecap:round;stroke-linejoin:bevel;stroke-dasharray:none" />
        <path d="M10.758 106.85Q10.758 106.882 10.7368 106.901Q10.7156 106.921 10.6874 106.921H9.42799V107.894H10.5287Q10.5569 107.894 10.578 107.915Q10.5992 107.937 10.5992 107.965Q10.5992 107.996 10.578 108.016Q10.5569 108.035 10.5287 108.035H9.42799V109.178Q9.42799 109.207 9.40858 109.228Q9.38918 109.249 9.35743 109.249Q9.32568 109.249 9.30628 109.228Q9.28688 109.207 9.28688 109.178V106.85Q9.28688 106.822 9.30804 106.801Q9.32921 106.779 9.35743 106.779H10.6874Q10.7156 106.779 10.7368 106.801Q10.758 106.822 10.758 106.85ZM13.0828 109.175Q13.0828 109.207 13.0634 109.226Q13.044 109.245 13.0157 109.245Q12.9946 109.245 12.984 109.238Q12.8887 109.185 12.8323 109.06Q12.7758 108.935 12.7758 108.649Q12.7758 108.36 12.6206 108.252Q12.4654 108.145 12.2608 108.145H11.4353V109.178Q11.4353 109.207 11.4141 109.228Q11.393 109.249 11.3612 109.249Q11.3295 109.249 11.3083 109.228Q11.2871 109.207 11.2871 109.178V106.85Q11.2871 106.822 11.3083 106.801Q11.3295 106.779 11.3577 106.779H12.289Q12.4936 106.779 12.6524 106.862Q12.8111 106.945 12.8993 107.09Q12.9875 107.234 12.9875 107.418Q12.9875 107.654 12.8623 107.824Q12.737 107.993 12.536 108.053Q12.7053 108.106 12.8147 108.263Q12.924 108.42 12.924 108.649Q12.924 108.885 12.954 108.979Q12.984 109.072 13.044 109.111Q13.0828 109.136 13.0828 109.175ZM12.3067 108.004Q12.5289 107.982 12.6841 107.827Q12.8393 107.672 12.8393 107.421Q12.8393 107.203 12.6841 107.062Q12.5289 106.921 12.2714 106.921H11.4353V108.004ZM15.1007 109.178Q15.1007 109.21 15.0795 109.229Q15.0583 109.249 15.0301 109.249H13.7001Q13.6719 109.249 13.6507 109.228Q13.6296 109.207 13.6296 109.178V106.85Q13.6296 106.822 13.6507 106.801Q13.6719 106.779 13.7001 106.779H15.0301Q15.0583 106.779 15.0795 106.801Q15.1007 106.822 15.1007 106.85Q15.1007 106.882 15.0795 106.901Q15.0583 106.921 15.0301 106.921H13.7777V107.905H14.8713Q14.8996 107.905 14.9207 107.926Q14.9419 107.947 14.9419 107.975Q14.9419 108.007 14.9207 108.026Q14.8996 108.046 14.8713 108.046H13.7777V109.108H15.0301Q15.0583 109.108 15.0795 109.129Q15.1007 109.15 15.1007 109.178ZM17.1009 109.178Q17.1009 109.21 17.0797 109.229Q17.0586 109.249 17.0303 109.249H15.7004Q15.6722 109.249 15.651 109.228Q15.6298 109.207 15.6298 109.178V106.85Q15.6298 106.822 15.651 106.801Q15.6722 106.779 15.7004 106.779H17.0303Q17.0586 106.779 17.0797 106.801Q17.1009 106.822 17.1009 106.85Q17.1009 106.882 17.0797 106.901Q17.0586 106.921 17.0303 106.921H15.778V107.905H16.8716Q16.8998 107.905 16.921 107.926Q16.9422 107.947 16.9422 107.975Q16.9422 108.007 16.921 108.026Q16.8998 108.046 16.8716 108.046H15.778V109.108H17.0303Q17.0586 109.108 17.0797 109.129Q17.1009 109.15 17.1009 109.178ZM19.3657 109.182Q19.3657 109.21 19.3446 109.229Q19.3234 109.249 19.2952 109.249H17.5595Q17.5278 109.249 17.5084 109.226Q17.489 109.203 17.489 109.175Q17.489 109.15 17.5031 109.132L19.1682 106.913H17.6301Q17.6018 106.913 17.5807 106.894Q17.5595 106.875 17.5595 106.846Q17.5595 106.818 17.5807 106.799Q17.6018 106.779 17.6301 106.779H19.2881Q19.3305 106.779 19.3499 106.801Q19.3693 106.822 19.3693 106.85Q19.3693 106.875 19.3552 106.892L17.6936 109.115H19.2952Q19.3234 109.115 19.3446 109.136Q19.3657 109.157 19.3657 109.182ZM21.3695 109.178Q21.3695 109.21 21.3483 109.229Q21.3272 109.249 21.299 109.249H19.969Q19.9408 109.249 19.9196 109.228Q19.8984 109.207 19.8984 109.178V106.85Q19.8984 106.822 19.9196 106.801Q19.9408 106.779 19.969 106.779H21.299Q21.3272 106.779 21.3483 106.801Q21.3695 106.822 21.3695 106.85Q21.3695 106.882 21.3483 106.901Q21.3272 106.921 21.299 106.921H20.0466V107.905H21.1402Q21.1684 107.905 21.1896 107.926Q21.2108 107.947 21.2108 107.975Q21.2108 108.007 21.1896 108.026Q21.1684 108.046 21.1402 108.046H20.0466V109.108H21.299Q21.3272 109.108 21.3483 109.129Q21.3695 109.15 21.3695 109.178Z" style="stroke:#000000;stroke-width:0.25;stroke-linecap:round;stroke-linejoin:bevel" />
        <path id="freeze_line_art" d="M 8.24,115.00 L 22.24,115.00 " style="stroke:#000000;stroke-width:0.25;stroke-linecap:round;stroke-linejoin:bevel;stroke-dasharray:none" fill="none" />
        <path d="M 6.24,81.00 L 24.24,81.00 z " style="stroke:#000000;stroke-width:0.25;stroke-linecap:round;stroke-linejoin:bevel;stroke-dasharray:none" />
        <path d="M 6.24,98.00 L 24.24,98.00 z " style="stroke:#000000;stroke-width:0.25;stroke-linecap:round;stroke-linejoin:bevel;stroke-dasharray:none" />
    </g>
</svg>
