<?xml version="1.0" encoding="UTF-8" standalone="no"?>
<!-- Created with Inkscape (http://www.inkscape.org/) -->

<svg
   sodipodi:docname="SplitStack-dark.svg"
   inkscape:version="1.1.2 (0a00cf5339, 2022-02-04)"
   id="svg8"
   version="1.1"
   viewBox="0 0 45.720005 128.50002"
   height="128.5mm"
   width="45.720001mm"
   xmlns:inkscape="http://www.inkscape.org/namespaces/inkscape"
   xmlns:sodipodi="http://sodipodi.sourceforge.net/DTD/sodipodi-0.dtd"
   xmlns="http://www.w3.org/2000/svg"
   xmlns:svg="http://www.w3.org/2000/svg"
   xmlns:rdf="http://www.w3.org/1999/02/22-rdf-syntax-ns#"
   xmlns:cc="http://creativecommons.org/ns#"
   xmlns:dc="http://purl.org/dc/elements/1.1/">
  <defs
     id="defs2">
    <rect
       x="-70.970581"
       y="37.014709"
       width="345.07355"
       height="457.39703"
       id="rect67894" />
    <marker
       style="overflow:visible"
       id="marker1392"
       refX="0"
       refY="0"
       orient="auto"
       inkscape:stockid="Arrow2Mend"
       inkscape:isstock="true">
      <path
         transform="scale(-0.6)"
         d="M 8.7185878,4.0337352 -2.2072895,0.01601326 8.7185884,-4.0017078 c -1.7454984,2.3720609 -1.7354408,5.6174519 -6e-7,8.035443 z"
         style="fill:context-stroke;fill-rule:evenodd;stroke:context-stroke;stroke-width:0.625;stroke-linejoin:round"
         id="path1142" />
    </marker>
    <marker
       style="overflow:visible"
       id="Arrow1Mend"
       refX="0"
       refY="0"
       orient="auto"
       inkscape:stockid="Arrow1Mend"
       inkscape:isstock="true">
      <path
         transform="matrix(-0.4,0,0,-0.4,-4,0)"
         style="fill:context-stroke;fill-rule:evenodd;stroke:context-stroke;stroke-width:1pt"
         d="M 0,0 5,-5 -12.5,0 5,5 Z"
         id="path1124" />
    </marker>
    <marker
       style="overflow:visible"
       id="Arrow1Send"
       refX="0"
       refY="0"
       orient="auto"
       inkscape:stockid="Arrow1Send"
       inkscape:isstock="true">
      <path
         transform="matrix(-0.2,0,0,-0.2,-1.2,0)"
         style="fill:context-stroke;fill-rule:evenodd;stroke:context-stroke;stroke-width:1pt"
         d="M 0,0 5,-5 -12.5,0 5,5 Z"
         id="path1130" />
    </marker>
    <inkscape:path-effect
       effect="fillet_chamfer"
       id="path-effect1113"
       is_visible="true"
       lpeversion="1"
       satellites_param="F,0,0,1,0,0,0,1 @ F,0,0,1,0,2.6458333,0,1 @ F,0,0,1,0,2.6458333,0,1"
       unit="px"
       method="auto"
       mode="F"
       radius="10"
       chamfer_steps="1"
       flexible="false"
       use_knot_distance="true"
       apply_no_radius="true"
       apply_with_radius="true"
       only_selected="false"
       hide_knots="false" />
    <marker
       style="overflow:visible"
       id="Arrow2Mend"
       refX="0"
       refY="0"
       orient="auto"
       inkscape:stockid="Arrow2Mend"
       inkscape:isstock="true">
      <path
         transform="scale(-0.6)"
         d="M 8.7185878,4.0337352 -2.2072895,0.01601326 8.7185884,-4.0017078 c -1.7454984,2.3720609 -1.7354408,5.6174519 -6e-7,8.035443 z"
         style="fill:context-stroke;fill-rule:evenodd;stroke:context-stroke;stroke-width:0.625;stroke-linejoin:round"
         id="path59252" />
    </marker>
    <marker
       style="overflow:visible"
       id="Arrow1Lend"
       refX="0"
       refY="0"
       orient="auto"
       inkscape:stockid="Arrow1Lend"
       inkscape:isstock="true">
      <path
         transform="matrix(-0.8,0,0,-0.8,-10,0)"
         style="fill:context-stroke;fill-rule:evenodd;stroke:context-stroke;stroke-width:1pt"
         d="M 0,0 5,-5 -12.5,0 5,5 Z"
         id="path59228" />
    </marker>
    <marker
       style="overflow:visible"
       id="Arrow1Lstart"
       refX="0"
       refY="0"
       orient="auto"
       inkscape:stockid="Arrow1Lstart"
       inkscape:isstock="true">
      <path
         transform="matrix(0.8,0,0,0.8,10,0)"
         style="fill:context-stroke;fill-rule:evenodd;stroke:context-stroke;stroke-width:1pt"
         d="M 0,0 5,-5 -12.5,0 5,5 Z"
         id="path59225" />
    </marker>
    <linearGradient
       id="SVGID_1_"
       gradientUnits="userSpaceOnUse"
       x1="14.17379"
       y1="1.9999999e-05"
       x2="14.17379"
       y2="28.347719">
      <stop
         offset="0"
         style="stop-color:#B0ACAE"
         id="stop17727" />
      <stop
         offset="1"
         style="stop-color:#000000"
         id="stop17729" />
    </linearGradient>
    <linearGradient
       id="SVGID_2_"
       gradientUnits="userSpaceOnUse"
       x1="5.12815"
       y1="-4117.3818"
       x2="27.655621"
       y2="-4117.3818"
       gradientTransform="rotate(90,-2050.495,-2052.713)">
      <stop
         offset="0"
         style="stop-color:#232223"
         id="stop17738" />
      <stop
         offset="1"
         style="stop-color:#1F1E1F"
         id="stop17740" />
    </linearGradient>
  </defs>
  <sodipodi:namedview
     id="base"
     pagecolor="#ffffff"
     bordercolor="#666666"
     borderopacity="1.0"
     inkscape:pageopacity="0.0"
     inkscape:pageshadow="2"
     inkscape:zoom="2.8284271"
     inkscape:cx="100.40916"
     inkscape:cy="201.34866"
     inkscape:document-units="mm"
     inkscape:current-layer="layer1"
     showgrid="false"
     units="mm"
     inkscape:snap-bbox="true"
     inkscape:snap-page="true"
     inkscape:bbox-nodes="false"
     inkscape:snap-bbox-edge-midpoints="false"
     inkscape:window-width="2560"
     inkscape:window-height="1379"
     inkscape:window-x="0"
     inkscape:window-y="0"
     inkscape:window-maximized="1"
     inkscape:snap-bbox-midpoints="true"
     inkscape:snap-nodes="false"
     inkscape:pagecheckerboard="0"
     width="30.48mm"
     showguides="true"
     inkscape:guide-bbox="true"
     inkscape:lockguides="true"
     inkscape:snap-text-baseline="true" />
  <metadata
     id="metadata5">
    <rdf:RDF>
      <cc:Work
         rdf:about="">
        <dc:format>image/svg+xml</dc:format>
        <dc:type
           rdf:resource="http://purl.org/dc/dcmitype/StillImage" />
      </cc:Work>
    </rdf:RDF>
  </metadata>
  <g
     inkscape:label="Layer 1"
     inkscape:groupmode="layer"
     id="layer1"
     transform="translate(0,-168.49998)"
     style="display:inline">
    <rect
       style="display:inline;opacity:1;vector-effect:none;fill:#191919;fill-opacity:1;fill-rule:evenodd;stroke:none;stroke-width:0.795297;stroke-linecap:butt;stroke-linejoin:miter;stroke-miterlimit:4;stroke-dasharray:none;stroke-dashoffset:0;stroke-opacity:1;paint-order:normal"
       id="rect420"
       width="45.719997"
       height="128.5"
       x="-1.7733063e-06"
       y="168.49998"
       sodipodi:insensitive="true" />
    <path
       id="rect59210"
       style="display:inline;fill:#e5e5e5;stroke-width:1.12908;stroke-linecap:round;stroke-linejoin:round"
       d="m 18.850684,208.45113 h 23.258623 c 1.492574,0 2.694177,1.2016 2.694177,2.69417 v 77.31101 c 0,1.49258 -1.201603,2.69418 -2.694177,2.69418 H 18.850684 c -1.492574,0 -2.694177,-1.2016 -2.694177,-2.69418 V 211.1453 c 0,-1.49257 1.201603,-2.69417 2.694177,-2.69417 z" />
    <g
       id="text65289"
       style="font-size:10.5833px;line-height:1.25;stroke-width:0.264583" />
    <g
       id="text80285"
       style="font-size:10.5833px;line-height:1.25;stroke-width:0.264583" />
    <g
       id="text24631"
       style="font-size:10.5833px;line-height:1.25;stroke-width:0.264583" />
    <g
       id="text36741"
       style="font-size:10.5833px;line-height:1.25;stroke-width:0.264583" />
    <g
       aria-label="MUS-X"
       id="text38608"
       style="font-style:italic;font-weight:bold;font-size:2.82222px;line-height:1.25;-inkscape-font-specification:'sans-serif Bold Italic';fill:#e5e5e5;fill-opacity:1;stroke-width:0.264583"
       transform="translate(7.4277629,0.15202)">
      <path
         d="m 10.684896,293.10906 h 0.675238 l 0.248047,1.10106 0.691775,-1.10106 h 0.67386 l -0.412033,2.05741 h -0.501606 l 0.300412,-1.50481 -0.695908,1.10932 h -0.336242 l -0.25218,-1.10932 -0.300412,1.50481 h -0.502984 z"
         id="path53546"
         style="fill:#e5e5e5;fill-opacity:1" />
      <path
         d="m 13.493336,293.10906 h 0.530544 l -0.246668,1.23335 q -0.05099,0.25493 0.0096,0.36518 0.06201,0.10886 0.250803,0.10886 0.190169,0 0.294899,-0.10886 0.106109,-0.11025 0.157097,-0.36518 l 0.246668,-1.23335 h 0.530545 l -0.246669,1.23335 q -0.08819,0.43683 -0.350021,0.65043 -0.261827,0.2136 -0.711068,0.2136 -0.447862,0 -0.62425,-0.2136 -0.176389,-0.2136 -0.08819,-0.65043 z"
         id="path53548"
         style="fill:#e5e5e5;fill-opacity:1" />
      <path
         d="m 17.203012,293.17383 -0.08682,0.43546 q -0.15434,-0.0758 -0.308681,-0.11438 -0.152962,-0.0386 -0.296278,-0.0386 -0.190169,0 -0.292143,0.0524 -0.100597,0.0524 -0.122646,0.16261 -0.01654,0.0827 0.03583,0.12954 0.05237,0.0455 0.206706,0.0786 l 0.216352,0.0455 q 0.329351,0.0689 0.445106,0.20946 0.117133,0.14056 0.06615,0.39963 -0.0689,0.34038 -0.304546,0.50712 -0.234266,0.16537 -0.649055,0.16537 -0.195682,0 -0.385851,-0.0372 -0.188791,-0.0372 -0.370692,-0.11024 l 0.08957,-0.44787 q 0.17501,0.10474 0.348643,0.15848 0.173633,0.0524 0.344509,0.0524 0.173633,0 0.276986,-0.0579 0.104731,-0.0579 0.125401,-0.16537 0.01929,-0.0965 -0.03307,-0.14883 -0.05099,-0.0524 -0.230132,-0.0937 l -0.197059,-0.0455 q -0.2949,-0.0661 -0.409277,-0.21084 -0.112999,-0.14469 -0.06477,-0.38998 0.06201,-0.3073 0.293522,-0.47267 0.23151,-0.16536 0.60358,-0.16536 0.169499,0 0.343132,0.0262 0.17501,0.0248 0.355533,0.0758 z"
         id="path53550"
         style="fill:#e5e5e5;fill-opacity:1" />
      <path
         d="m 17.502046,294.15362 h 0.865407 l -0.07993,0.401 h -0.865408 z"
         id="path53552"
         style="fill:#e5e5e5;fill-opacity:1" />
      <path
         d="m 19.702771,294.11641 0.504361,1.05006 H 19.65454 l -0.340376,-0.7028 -0.61736,0.7028 h -0.555349 l 0.923285,-1.05006 -0.483691,-1.00735 h 0.553971 l 0.316948,0.66284 0.58291,-0.66284 h 0.556727 z"
         id="path53554"
         style="fill:#e5e5e5;fill-opacity:1" />
    </g>
    <g
       aria-label="Split/Stack"
       id="text7857"
       style="font-weight:bold;font-size:4.9389px;line-height:1.25;-inkscape-font-specification:'sans-serif Bold';fill:#e5e5e5;stroke-width:0.264583">
      <path
         d="m 10.541686,174.40641 v 0.76205 q -0.296623,-0.13263 -0.5787773,-0.20016 -0.2821539,-0.0675 -0.5329574,-0.0675 -0.332797,0 -0.4919608,0.0916 -0.1591638,0.0916 -0.1591638,0.28456 0,0.1447 0.1061092,0.22669 0.1085208,0.0796 0.3906747,0.13746 l 0.3954979,0.0796 q 0.6004815,0.12058 0.8536965,0.36656 0.253215,0.24598 0.253215,0.69936 0,0.59566 -0.354501,0.88746 -0.35209,0.28939 -1.0779728,0.28939 -0.3424432,0 -0.6872981,-0.0651 -0.3448548,-0.0651 -0.6897096,-0.19292 v -0.78376 q 0.3448548,0.18328 0.6655939,0.27733 0.3231507,0.0916 0.6221857,0.0916 0.3038581,0 0.4654334,-0.10129 0.1615753,-0.10129 0.1615753,-0.28939 0,-0.16881 -0.1109323,-0.26045 -0.1085207,-0.0916 -0.4364946,-0.16399 l -0.3593242,-0.0796 Q 8.4363835,176.2802 8.18558,176.02698 q -0.248392,-0.25321 -0.248392,-0.68247 0,-0.53778 0.3472664,-0.82717 0.3472664,-0.28939 0.9983909,-0.28939 0.2966234,0 0.6101278,0.0458 0.3135049,0.0434 0.6487129,0.13264 z"
         id="path184627" />
      <path
         d="m 12.417889,177.50286 v 1.41801 h -0.863343 v -3.72829 h 0.863343 v 0.3955 q 0.178457,-0.23634 0.395498,-0.34727 0.217042,-0.11334 0.499196,-0.11334 0.499195,0 0.819934,0.39791 0.320739,0.39549 0.320739,1.02009 0,0.6246 -0.320739,1.02251 -0.320739,0.3955 -0.819934,0.3955 -0.282154,0 -0.499196,-0.11094 -0.217041,-0.11334 -0.395498,-0.34968 z m 0.573954,-1.74839 q -0.27733,0 -0.426848,0.20499 -0.147106,0.20257 -0.147106,0.58601 0,0.38344 0.147106,0.58842 0.149518,0.20258 0.426848,0.20258 0.277331,0 0.422026,-0.20258 0.147106,-0.20257 0.147106,-0.58842 0,-0.38585 -0.147106,-0.58842 -0.144695,-0.20258 -0.422026,-0.20258 z"
         id="path184629" />
      <path
         d="m 15.089911,174.14113 h 0.863343 v 3.75241 h -0.863343 z"
         id="path184631" />
      <path
         d="m 16.782835,175.19258 h 0.863343 v 2.70096 h -0.863343 z m 0,-1.05145 h 0.863343 v 0.70418 h -0.863343 z"
         id="path184633" />
      <path
         d="m 19.418683,174.4257 v 0.76688 h 0.88987 v 0.61736 h -0.88987 v 1.1455 q 0,0.1881 0.07476,0.25562 0.07476,0.0651 0.296623,0.0651 h 0.44373 v 0.61736 h -0.740353 q -0.511253,0 -0.725883,-0.21222 -0.212219,-0.21463 -0.212219,-0.72588 v -1.1455 h -0.42926 v -0.61736 h 0.42926 v -0.76688 z"
         id="path184635" />
      <path
         d="m 21.690384,174.29306 h 0.535369 l -1.270898,4.05868 h -0.532958 z"
         id="path184637" />
      <path
         d="m 25.184752,174.40641 v 0.76205 q -0.296623,-0.13263 -0.578777,-0.20016 -0.282154,-0.0675 -0.532957,-0.0675 -0.332797,0 -0.491961,0.0916 -0.159164,0.0916 -0.159164,0.28456 0,0.1447 0.106109,0.22669 0.108521,0.0796 0.390675,0.13746 l 0.395498,0.0796 q 0.600481,0.12058 0.853696,0.36656 0.253216,0.24598 0.253216,0.69936 0,0.59566 -0.354502,0.88746 -0.352089,0.28939 -1.077972,0.28939 -0.342444,0 -0.687298,-0.0651 -0.344855,-0.0651 -0.68971,-0.19292 v -0.78376 q 0.344855,0.18328 0.665594,0.27733 0.32315,0.0916 0.622185,0.0916 0.303859,0 0.465434,-0.10129 0.161575,-0.10129 0.161575,-0.28939 0,-0.16881 -0.110932,-0.26045 -0.108521,-0.0916 -0.436495,-0.16399 l -0.359324,-0.0796 q -0.540192,-0.11575 -0.790996,-0.36897 -0.248392,-0.25321 -0.248392,-0.68247 0,-0.53778 0.347267,-0.82717 0.347266,-0.28939 0.998391,-0.28939 0.296623,0 0.610128,0.0458 0.313504,0.0434 0.648712,0.13264 z"
         id="path184639" />
      <path
         d="m 27.140538,174.4257 v 0.76688 h 0.88987 v 0.61736 h -0.88987 v 1.1455 q 0,0.1881 0.07476,0.25562 0.07476,0.0651 0.296623,0.0651 h 0.44373 v 0.61736 h -0.740353 q -0.511253,0 -0.725883,-0.21222 -0.212219,-0.21463 -0.212219,-0.72588 v -1.1455 h -0.429259 v -0.61736 h 0.429259 v -0.76688 z"
         id="path184641" />
      <path
         d="m 29.769152,176.67811 q -0.270096,0 -0.407555,0.0916 -0.135048,0.0916 -0.135048,0.27009 0,0.16399 0.10852,0.25804 0.110933,0.0916 0.30627,0.0916 0.243569,0 0.409967,-0.17363 0.166399,-0.17605 0.166399,-0.43891 v -0.0989 z m 1.31913,-0.32557 v 1.541 h -0.870577 v -0.40032 q -0.173633,0.24598 -0.390675,0.35932 -0.217041,0.11094 -0.528134,0.11094 -0.419614,0 -0.682475,-0.24357 -0.26045,-0.24598 -0.26045,-0.63666 0,-0.47508 0.325562,-0.69694 0.327974,-0.22187 1.02733,-0.22187 h 0.508842 v -0.0675 q 0,-0.20499 -0.161576,-0.29904 -0.161575,-0.0965 -0.504018,-0.0965 -0.277331,0 -0.516077,0.0555 -0.238745,0.0555 -0.443729,0.16639 v -0.65835 q 0.277331,-0.0675 0.557073,-0.10129 0.279743,-0.0362 0.559485,-0.0362 0.730706,0 1.053857,0.28938 0.325562,0.28698 0.325562,0.93569 z"
         id="path184643" />
      <path
         d="m 34.073808,175.27698 v 0.70418 q -0.176045,-0.12058 -0.354501,-0.17845 -0.176045,-0.0579 -0.366559,-0.0579 -0.361736,0 -0.564308,0.21222 -0.20016,0.2098 -0.20016,0.58842 0,0.37862 0.20016,0.59084 0.202572,0.2098 0.564308,0.2098 0.202572,0 0.38344,-0.0603 0.18328,-0.0603 0.33762,-0.17845 v 0.70659 q -0.202572,0.0748 -0.412379,0.11093 -0.207395,0.0386 -0.417202,0.0386 -0.730706,0 -1.143085,-0.3738 -0.412379,-0.3762 -0.412379,-1.04421 0,-0.668 0.412379,-1.0418 0.412379,-0.3762 1.143085,-0.3762 0.212219,0 0.417202,0.0386 0.207396,0.0362 0.412379,0.11093 z"
         id="path184645" />
      <path
         d="m 34.818984,174.14113 h 0.863343 v 2.0426 l 0.993567,-0.99115 h 1.003215 l -1.31913,1.23955 1.422827,1.46141 h -1.046622 l -1.053857,-1.1262 v 1.1262 h -0.863343 z"
         id="path184647" />
    </g>
    <g
       aria-label="Switch A↔B"
       id="text32865"
       style="font-size:3.52778px;line-height:1.25;-inkscape-font-specification:sans-serif;display:inline;fill:#e5e5e5;stroke-width:0.264583">
      <path
         d="m 3.0394697,202.99398 v 0.33934 q -0.1980931,-0.0947 -0.3737931,-0.14125 -0.1757,-0.0465 -0.3393421,-0.0465 -0.2842206,0 -0.43925,0.11025 -0.1533069,0.11024 -0.1533069,0.3135 0,0.17053 0.1016304,0.25838 0.103353,0.0861 0.3892961,0.13953 l 0.2101509,0.0431 q 0.3892961,0.0741 0.5736088,0.26183 0.1860353,0.18603 0.1860353,0.49954 0,0.37379 -0.2514922,0.56672 -0.2497695,0.19292 -0.7338058,0.19292 -0.1825901,0 -0.389296,-0.0413 -0.2049833,-0.0413 -0.4254696,-0.1223 v -0.35829 q 0.2118735,0.11886 0.4151343,0.17915 0.2032608,0.0603 0.3996313,0.0603 0.298001,0 0.4599206,-0.11713 0.1619196,-0.11713 0.1619196,-0.33417 0,-0.18948 -0.1171334,-0.29628 -0.1154107,-0.1068 -0.3806833,-0.1602 l -0.2118735,-0.0413 q -0.389296,-0.0775 -0.5632734,-0.24288 -0.1739775,-0.16536 -0.1739775,-0.45992 0,-0.34106 0.2394343,-0.53744 0.2411569,-0.19637 0.6631813,-0.19637 0.1808677,0 0.3686255,0.0327 0.1877578,0.0327 0.3841284,0.0982 z"
         id="path184608" />
      <path
         d="m 3.5390089,203.55208 h 0.316949 l 0.3961863,1.50551 0.3944637,-1.50551 H 5.020401 l 0.3961862,1.50551 0.3944637,-1.50551 h 0.316949 l -0.5047068,1.92926 H 5.2495 l -0.4151343,-1.5813 -0.4168568,1.5813 H 4.0437158 Z"
         id="path184610" />
      <path
         d="m 6.6085913,203.55208 h 0.316949 v 1.92926 h -0.316949 z m 0,-0.75103 h 0.316949 v 0.40136 h -0.316949 z"
         id="path184612" />
      <path
         d="m 7.9022254,203.00431 v 0.54777 h 0.652846 v 0.24633 h -0.652846 v 1.04731 q 0,0.23599 0.063734,0.30317 0.065457,0.0672 0.26355,0.0672 h 0.3255617 v 0.26527 H 8.2295097 q -0.3669029,0 -0.5064294,-0.13608 -0.1395264,-0.13781 -0.1395264,-0.49954 v -1.04731 H 7.3510098 v -0.24633 h 0.2325441 v -0.54777 z"
         id="path184614" />
      <path
         d="m 10.360302,203.62615 v 0.29628 q -0.134359,-0.0741 -0.27044,-0.11024 -0.1343587,-0.0379 -0.2721626,-0.0379 -0.3083363,0 -0.4788686,0.19637 -0.1705324,0.19465 -0.1705324,0.54777 0,0.35313 0.1705324,0.5495 0.1705323,0.19464 0.4788686,0.19464 0.1378039,0 0.2721626,-0.0362 0.136081,-0.0379 0.27044,-0.11196 v 0.29283 q -0.132636,0.062 -0.275608,0.093 -0.1412486,0.031 -0.3014456,0.031 -0.4358049,0 -0.6924647,-0.27388 -0.2566597,-0.27389 -0.2566597,-0.73898 0,-0.47197 0.2583823,-0.74241 0.2601049,-0.27045 0.7114127,-0.27045 0.1464166,0 0.285943,0.031 0.139527,0.0293 0.27044,0.0896 z"
         id="path184616" />
      <path
         d="m 12.515211,204.3169 v 1.16444 h -0.316949 v -1.15411 q 0,-0.27388 -0.106798,-0.40997 -0.106798,-0.13608 -0.320394,-0.13608 -0.25666,0 -0.404799,0.16364 -0.148139,0.16365 -0.148139,0.44615 v 1.09037 H 10.89946 v -2.68029 h 0.318672 v 1.05076 q 0.113688,-0.17398 0.266995,-0.26011 0.155029,-0.0861 0.356568,-0.0861 0.332452,0 0.502984,0.20671 0.170532,0.20498 0.170532,0.60462 z"
         id="path184618" />
      <path
         d="m 15.142098,203.25236 -0.471978,1.27985 h 0.945679 z m -0.196371,-0.34279 h 0.394464 l 0.98013,2.57177 h -0.361735 l -0.234267,-0.65974 h -1.159275 l -0.234267,0.65974 h -0.366902 z"
         id="path184620" />
      <path
         d="m 16.52186,204.45298 v -0.15503 l 0.676961,-0.67696 0.206706,0.2067 -0.401354,0.40136 h 1.646757 l -0.401354,-0.40136 0.206706,-0.2067 0.676962,0.67696 v 0.15503 l -0.676962,0.67696 -0.206706,-0.20671 0.401354,-0.40135 h -1.646757 l 0.401354,0.40135 -0.206706,0.20671 z"
         id="path184622" />
      <path
         d="m 19.999685,204.25316 v 0.94224 h 0.558106 q 0.280776,0 0.415135,-0.11542 0.136081,-0.11713 0.136081,-0.35656 0,-0.24116 -0.136081,-0.35485 -0.134359,-0.11541 -0.415135,-0.11541 z m 0,-1.05764 v 0.77514 h 0.515043 q 0.254937,0 0.37896,-0.0947 0.125746,-0.0965 0.125746,-0.29283 0,-0.19465 -0.125746,-0.29111 -0.124023,-0.0965 -0.37896,-0.0965 z m -0.347954,-0.28595 h 0.888835 q 0.397909,0 0.613227,0.16537 0.215319,0.16536 0.215319,0.47025 0,0.23599 -0.110243,0.37552 -0.110243,0.13953 -0.32384,0.17398 0.25666,0.0551 0.397909,0.23082 0.142972,0.17398 0.142972,0.4358 0,0.34451 -0.234267,0.53227 -0.234266,0.18776 -0.666626,0.18776 h -0.923286 z"
         id="path184624" />
    </g>
    <g
       aria-label="V/Oct"
       id="text21469"
       style="font-size:3.52778px;line-height:1.25;-inkscape-font-specification:sans-serif;display:inline;fill:#e5e5e5;stroke-width:0.264583">
      <path
         d="m 3.8071403,228.48901 -0.9818529,-2.57176 h 0.3634578 l 0.8147656,2.16524 0.8164882,-2.16524 h 0.3617352 l -0.9801303,2.57176 z"
         id="path184597" />
      <path
         d="M 6.106743,225.91725 H 6.3995763 L 5.5038509,228.8163 H 5.2110176 Z"
         id="path184599" />
      <path
         d="m 7.7896731,226.15324 q -0.3789607,0 -0.6028921,0.2825 -0.2222088,0.28249 -0.2222088,0.76997 0,0.48576 0.2222088,0.76826 0.2239314,0.2825 0.6028921,0.2825 0.3789608,0 0.599447,-0.2825 0.2222088,-0.2825 0.2222088,-0.76826 0,-0.48748 -0.2222088,-0.76997 -0.2204862,-0.2825 -0.599447,-0.2825 z m 0,-0.2825 q 0.5408804,0 0.8647195,0.36346 0.3238392,0.36173 0.3238392,0.97151 0,0.60806 -0.3238392,0.97152 -0.3238391,0.36174 -0.8647195,0.36174 -0.5426029,0 -0.8681646,-0.36174 -0.3238392,-0.36173 -0.3238392,-0.97152 0,-0.60978 0.3238392,-0.97151 0.3255617,-0.36346 0.8681646,-0.36346 z"
         id="path184601" />
      <path
         d="m 10.897151,226.63383 v 0.29628 q -0.134359,-0.0741 -0.27044,-0.11025 -0.134359,-0.0379 -0.272163,-0.0379 -0.308336,0 -0.4788683,0.19637 -0.1705324,0.19465 -0.1705324,0.54777 0,0.35312 0.1705324,0.54949 0.1705323,0.19465 0.4788683,0.19465 0.137804,0 0.272163,-0.0362 0.136081,-0.0379 0.27044,-0.11197 v 0.29283 q -0.132636,0.062 -0.275608,0.093 -0.141249,0.031 -0.301446,0.031 -0.4358046,0 -0.6924644,-0.27389 -0.2566597,-0.27388 -0.2566597,-0.73897 0,-0.47198 0.2583823,-0.74242 0.2601049,-0.27044 0.7114128,-0.27044 0.146417,0 0.285943,0.031 0.139526,0.0293 0.27044,0.0896 z"
         id="path184603" />
      <path
         d="m 11.761871,226.01199 v 0.54777 h 0.652846 v 0.24632 h -0.652846 v 1.04731 q 0,0.23599 0.06373,0.30317 0.06546,0.0672 0.26355,0.0672 h 0.325562 v 0.26527 h -0.325562 q -0.366903,0 -0.506429,-0.13608 -0.139526,-0.1378 -0.139526,-0.49954 v -1.04731 h -0.232545 v -0.24632 H 11.4432 v -0.54777 z"
         id="path184605" />
    </g>
    <g
       aria-label="Gate"
       id="text26509"
       style="font-size:3.52778px;line-height:1.25;-inkscape-font-specification:sans-serif;display:inline;fill:#e5e5e5;stroke-width:0.264583">
      <path
         d="m 5.4900704,243.12588 v -0.69074 H 4.9216293 v -0.28595 h 0.9129509 v 1.10416 q -0.2015382,0.14297 -0.4444176,0.21704 -0.2428794,0.0724 -0.5184872,0.0724 -0.6028921,0 -0.9439568,-0.3514 -0.3393421,-0.35313 -0.3393421,-0.98186 0,-0.63045 0.3393421,-0.98185 0.3410647,-0.35312 0.9439568,-0.35312 0.2514921,0 0.477146,0.062 0.2273764,0.062 0.4185794,0.18259 v 0.37035 q -0.1929255,-0.16364 -0.4099667,-0.24633 -0.2170411,-0.0827 -0.4564754,-0.0827 -0.4719784,0 -0.7096901,0.26355 -0.2359892,0.26355 -0.2359892,0.78548 0,0.52021 0.2359892,0.78376 0.2377117,0.26355 0.7096901,0.26355 0.1843127,0 0.3290068,-0.031 0.1446941,-0.0327 0.2601049,-0.0999 z"
         id="path184588" />
      <path
         d="m 7.3331977,242.52299 q -0.3841284,0 -0.5322676,0.0879 -0.1481392,0.0879 -0.1481392,0.29972 0,0.16881 0.1102431,0.26872 0.1119657,0.0982 0.3031686,0.0982 0.26355,0 0.4220245,-0.18603 0.160197,-0.18776 0.160197,-0.49782 v -0.0706 z m 0.6321754,-0.13092 v 1.10071 h -0.316949 v -0.29283 q -0.1085206,0.1757 -0.2704402,0.2601 -0.1619196,0.0827 -0.3961862,0.0827 -0.2962784,0 -0.4719784,-0.16537 -0.1739774,-0.16709 -0.1739774,-0.44614 0,-0.32556 0.2170411,-0.49092 0.2187637,-0.16537 0.6511235,-0.16537 h 0.4444176 v -0.031 q 0,-0.21876 -0.1446941,-0.33761 -0.1429716,-0.12058 -0.4030764,-0.12058 -0.1653647,0 -0.3221167,0.0396 -0.1567519,0.0396 -0.301446,0.11885 v -0.29283 q 0.1739774,-0.0672 0.3376196,-0.0999 0.1636421,-0.0344 0.3186715,-0.0344 0.4185794,0 0.6252852,0.21704 0.2067059,0.21704 0.2067059,0.65801 z"
         id="path184590" />
      <path
         d="m 8.9317231,241.01576 v 0.54777 h 0.6528461 v 0.24632 H 8.9317231 v 1.04731 q 0,0.23599 0.063734,0.30317 0.065457,0.0672 0.26355,0.0672 h 0.3255618 v 0.26527 H 9.2590074 q -0.3669029,0 -0.5064293,-0.13608 -0.1395265,-0.1378 -0.1395265,-0.49954 v -1.04731 H 8.3805075 v -0.24632 h 0.2325441 v -0.54777 z"
         id="path184592" />
      <path
         d="m 11.651627,242.44892 v 0.15503 h -1.457276 q 0.02067,0.32728 0.196371,0.49954 0.177422,0.17053 0.492649,0.17053 0.18259,0 0.353122,-0.0448 0.172255,-0.0448 0.341065,-0.13436 v 0.29973 q -0.170533,0.0723 -0.349678,0.11024 -0.179145,0.0379 -0.363457,0.0379 -0.461644,0 -0.732084,-0.26872 -0.2687173,-0.26872 -0.2687173,-0.72692 0,-0.4737 0.2549373,-0.75103 0.25666,-0.27905 0.690742,-0.27905 0.389296,0 0.61495,0.25149 0.227376,0.24977 0.227376,0.68041 z m -0.316949,-0.093 q -0.0034,-0.2601 -0.146416,-0.41513 -0.141249,-0.15503 -0.375516,-0.15503 -0.265272,0 -0.425469,0.14986 -0.158475,0.14986 -0.182591,0.42202 z"
         id="path184594" />
    </g>
    <g
       aria-label="Vel "
       id="text29905"
       style="font-size:3.52778px;line-height:1.25;-inkscape-font-specification:sans-serif;display:inline;fill:#e5e5e5;stroke-width:0.264583">
      <path
         d="M 6.1360249,258.49652 5.154172,255.92476 h 0.3634578 l 0.8147656,2.16524 0.8164882,-2.16524 h 0.3617352 l -0.9801303,2.57176 z"
         id="path184581" />
      <path
         d="m 9.2486707,257.45266 v 0.15503 H 7.7913944 q 0.020671,0.32728 0.1963705,0.49953 0.1774226,0.17054 0.492649,0.17054 0.1825902,0 0.3531225,-0.0448 0.1722549,-0.0448 0.3410647,-0.13436 v 0.29973 q -0.1705323,0.0723 -0.3496774,0.11024 -0.1791451,0.0379 -0.3634578,0.0379 -0.4616431,0 -0.7320833,-0.26871 -0.2687176,-0.26872 -0.2687176,-0.72692 0,-0.4737 0.2549372,-0.75103 0.2566598,-0.27905 0.6907421,-0.27905 0.389296,0 0.6149499,0.25149 0.2273765,0.24977 0.2273765,0.68041 z m -0.316949,-0.093 q -0.00345,-0.26011 -0.1464166,-0.41514 -0.1412491,-0.15502 -0.3755157,-0.15502 -0.2652725,0 -0.4254696,0.14986 -0.1584745,0.14986 -0.1825901,0.42202 z"
         id="path184583" />
      <path
         d="m 9.7688805,255.81623 h 0.3169485 v 2.68029 H 9.7688805 Z"
         id="path184585" />
    </g>
    <g
       aria-label="Split A|B"
       id="text32767"
       style="font-size:3.52778px;line-height:1.25;-inkscape-font-specification:sans-serif;display:inline;fill:#e5e5e5;stroke-width:0.264583">
      <path
         d="m 28.703774,190.10563 v 0.33934 q -0.198093,-0.0947 -0.373793,-0.14125 -0.1757,-0.0465 -0.339342,-0.0465 -0.28422,0 -0.43925,0.11024 -0.153307,0.11025 -0.153307,0.31351 0,0.17053 0.101631,0.25838 0.103353,0.0861 0.389296,0.13953 l 0.210151,0.0431 q 0.389296,0.0741 0.573608,0.26183 0.186036,0.18603 0.186036,0.49954 0,0.37379 -0.251492,0.56672 -0.24977,0.19292 -0.733806,0.19292 -0.18259,0 -0.389296,-0.0413 -0.204984,-0.0413 -0.42547,-0.1223 v -0.35829 q 0.211874,0.11885 0.415134,0.17914 0.203261,0.0603 0.399632,0.0603 0.298001,0 0.45992,-0.11713 0.16192,-0.11713 0.16192,-0.33417 0,-0.18949 -0.117133,-0.29628 -0.115411,-0.1068 -0.380684,-0.1602 l -0.211873,-0.0413 q -0.389296,-0.0775 -0.563274,-0.24288 -0.173977,-0.16537 -0.173977,-0.45992 0,-0.34107 0.239434,-0.53744 0.241157,-0.19637 0.663181,-0.19637 0.180868,0 0.368626,0.0327 0.187758,0.0327 0.384128,0.0982 z"
         id="path184564" />
      <path
         d="m 29.69424,192.3036 v 1.02319 h -0.318672 v -2.66306 h 0.318672 v 0.29284 q 0.09991,-0.17226 0.251492,-0.25494 0.153307,-0.0844 0.36518,-0.0844 0.3514,0 0.570164,0.27906 0.220486,0.27905 0.220486,0.7338 0,0.45476 -0.220486,0.73381 -0.218764,0.27905 -0.570164,0.27905 -0.211873,0 -0.36518,-0.0827 -0.151584,-0.0844 -0.251492,-0.25666 z m 1.078316,-0.67352 q 0,-0.34968 -0.144695,-0.54777 -0.142971,-0.19981 -0.394463,-0.19981 -0.251492,0 -0.396186,0.19981 -0.142972,0.19809 -0.142972,0.54777 0,0.34968 0.142972,0.5495 0.144694,0.19809 0.396186,0.19809 0.251492,0 0.394463,-0.19809 0.144695,-0.19982 0.144695,-0.5495 z"
         id="path184566" />
      <path
         d="m 31.62694,189.9127 h 0.316949 v 2.68029 H 31.62694 Z"
         id="path184568" />
      <path
         d="m 32.60707,190.66373 h 0.316949 v 1.92926 H 32.60707 Z m 0,-0.75103 h 0.316949 v 0.40135 H 32.60707 Z"
         id="path184570" />
      <path
         d="m 33.900704,190.11596 v 0.54777 h 0.652846 v 0.24633 h -0.652846 v 1.04731 q 0,0.23599 0.06373,0.30317 0.06546,0.0672 0.26355,0.0672 h 0.325562 v 0.26528 h -0.325562 q -0.366902,0 -0.506429,-0.13608 -0.139526,-0.13781 -0.139526,-0.49954 v -1.04731 h -0.232544 v -0.24633 h 0.232544 v -0.54777 z"
         id="path184572" />
      <path
         d="m 36.965119,190.36401 -0.471979,1.27985 h 0.94568 z m -0.196371,-0.34279 h 0.394464 l 0.98013,2.57177 h -0.361735 l -0.234267,-0.65974 h -1.159275 l -0.234267,0.65974 h -0.366903 z"
         id="path184574" />
      <path
         d="m 38.913322,189.8972 v 3.52778 h -0.292834 v -3.52778 z"
         id="path184576" />
      <path
         d="m 40.055371,191.36481 v 0.94223 h 0.558106 q 0.280776,0 0.415134,-0.11541 0.136082,-0.11713 0.136082,-0.35656 0,-0.24116 -0.136082,-0.35485 -0.134358,-0.11541 -0.415134,-0.11541 z m 0,-1.05765 v 0.77515 h 0.515042 q 0.254938,0 0.378961,-0.0947 0.125746,-0.0965 0.125746,-0.29283 0,-0.19465 -0.125746,-0.29111 -0.124023,-0.0965 -0.378961,-0.0965 z m -0.347955,-0.28594 h 0.888836 q 0.397908,0 0.613227,0.16537 0.215319,0.16536 0.215319,0.47025 0,0.23599 -0.110243,0.37552 -0.110244,0.13952 -0.32384,0.17398 0.25666,0.0551 0.397909,0.23082 0.142972,0.17397 0.142972,0.4358 0,0.34451 -0.234267,0.53227 -0.234267,0.18776 -0.666626,0.18776 h -0.923287 z"
         id="path184578" />
    </g>
    <g
       aria-label="Stack A+B"
       id="text32825"
       style="font-size:3.52778px;line-height:1.25;-inkscape-font-specification:sans-serif;display:inline;fill:#e5e5e5;stroke-width:0.264583">
      <path
         d="m 3.9877327,190.10564 v 0.33934 q -0.1980931,-0.0947 -0.3737931,-0.14125 -0.1757,-0.0465 -0.3393421,-0.0465 -0.2842206,0 -0.43925,0.11024 -0.1533068,0.11024 -0.1533068,0.3135 0,0.17054 0.1016304,0.25839 0.1033529,0.0861 0.389296,0.13952 l 0.210151,0.0431 q 0.389296,0.0741 0.5736087,0.26182 0.1860353,0.18604 0.1860353,0.49954 0,0.3738 -0.2514921,0.56672 -0.2497696,0.19293 -0.7338058,0.19293 -0.1825902,0 -0.3892961,-0.0413 -0.2049833,-0.0413 -0.4254695,-0.12231 v -0.35829 q 0.2118735,0.11886 0.4151342,0.17915 0.2032608,0.0603 0.3996314,0.0603 0.2980009,0 0.4599205,-0.11714 0.1619196,-0.11713 0.1619196,-0.33417 0,-0.18948 -0.1171333,-0.29628 -0.1154108,-0.1068 -0.3806833,-0.1602 l -0.2118735,-0.0413 q -0.3892961,-0.0775 -0.5632735,-0.24288 -0.1739774,-0.16536 -0.1739774,-0.45992 0,-0.34106 0.2394343,-0.53743 0.2411568,-0.19637 0.6631813,-0.19637 0.1808676,0 0.3686254,0.0327 0.1877579,0.0327 0.3841284,0.0982 z"
         id="path184547" />
      <path
         d="m 4.9850886,190.11598 v 0.54777 h 0.652846 v 0.24632 h -0.652846 v 1.04731 q 0,0.23599 0.063734,0.30317 0.065457,0.0672 0.26355,0.0672 H 5.6379346 V 192.593 H 5.3123729 q -0.3669029,0 -0.5064294,-0.13608 -0.1395264,-0.1378 -0.1395264,-0.49954 v -1.04731 H 4.433873 v -0.24632 h 0.2325441 v -0.54777 z"
         id="path184549" />
      <path
         d="m 6.9315689,191.62321 q -0.3841284,0 -0.5322676,0.0879 -0.1481392,0.0879 -0.1481392,0.29972 0,0.16881 0.1102432,0.26872 0.1119656,0.0982 0.3031686,0.0982 0.2635499,0 0.4220244,-0.18603 0.1601971,-0.18776 0.1601971,-0.49782 v -0.0706 z m 0.6321755,-0.13092 v 1.10071 h -0.316949 v -0.29283 q -0.1085206,0.1757 -0.2704402,0.2601 -0.1619196,0.0827 -0.3961862,0.0827 -0.2962784,0 -0.4719784,-0.16537 -0.1739775,-0.16709 -0.1739775,-0.44614 0,-0.32556 0.2170412,-0.49093 0.2187637,-0.16536 0.6511235,-0.16536 h 0.4444176 v -0.031 q 0,-0.21876 -0.1446941,-0.33762 -0.1429716,-0.12057 -0.4030765,-0.12057 -0.1653647,0 -0.3221166,0.0396 -0.156752,0.0396 -0.3014461,0.11885 v -0.29283 q 0.1739775,-0.0672 0.3376196,-0.0999 0.1636422,-0.0344 0.3186716,-0.0344 0.4185793,0 0.6252852,0.21704 0.2067059,0.21704 0.2067059,0.65801 z"
         id="path184551" />
      <path
         d="m 9.6049644,190.73782 v 0.29628 q -0.1343588,-0.0741 -0.2704402,-0.11025 -0.1343588,-0.0379 -0.2721627,-0.0379 -0.3083362,0 -0.4788686,0.19637 -0.1705323,0.19464 -0.1705323,0.54777 0,0.35312 0.1705323,0.54949 0.1705324,0.19465 0.4788686,0.19465 0.1378039,0 0.2721627,-0.0362 0.1360814,-0.0379 0.2704402,-0.11197 v 0.29283 q -0.1326362,0.062 -0.2756078,0.093 -0.141249,0.031 -0.3014461,0.031 -0.4358048,0 -0.6924646,-0.27389 -0.2566598,-0.27388 -0.2566598,-0.73897 0,-0.47198 0.2583824,-0.74242 0.2601048,-0.27044 0.7114126,-0.27044 0.1464167,0 0.2859431,0.031 0.1395265,0.0293 0.2704402,0.0896 z"
         id="path184553" />
      <path
         d="m 10.144122,189.91272 h 0.318672 v 1.58302 l 0.945679,-0.83199 h 0.404799 l -1.023194,0.90261 1.066258,1.02664 h -0.413412 l -0.98013,-0.94223 v 0.94223 h -0.318672 z"
         id="path184555" />
      <path
         d="m 14.193835,190.36402 -0.471979,1.27986 h 0.94568 z m -0.196371,-0.34278 h 0.394464 l 0.98013,2.57176 h -0.361735 l -0.234267,-0.65973 h -1.159275 l -0.234267,0.65973 h -0.366903 z"
         id="path184557" />
      <path
         d="m 17.023982,190.38125 v 0.95946 h 0.95946 v 0.29283 h -0.95946 v 0.95946 h -0.289388 v -0.95946 h -0.959459 v -0.29283 h 0.959459 v -0.95946 z"
         id="path184559" />
      <path
         d="m 19.051422,191.36482 v 0.94224 h 0.558106 q 0.280775,0 0.415134,-0.11541 0.136082,-0.11713 0.136082,-0.35657 0,-0.24116 -0.136082,-0.35484 -0.134359,-0.11542 -0.415134,-0.11542 z m 0,-1.05764 v 0.77515 h 0.515042 q 0.254937,0 0.378961,-0.0947 0.125746,-0.0965 0.125746,-0.29284 0,-0.19464 -0.125746,-0.29111 -0.124024,-0.0965 -0.378961,-0.0965 z m -0.347955,-0.28594 h 0.888835 q 0.397909,0 0.613228,0.16536 0.215318,0.16537 0.215318,0.47026 0,0.23599 -0.110243,0.37551 -0.110243,0.13953 -0.323839,0.17398 0.25666,0.0551 0.397909,0.23082 0.142972,0.17398 0.142972,0.43581 0,0.34451 -0.234267,0.53226 -0.234267,0.18776 -0.666627,0.18776 h -0.923286 z"
         id="path184561" />
    </g>
    <g
       aria-label="V/Oct"
       id="text59927"
       style="font-size:3.52778px;line-height:1.25;-inkscape-font-specification:sans-serif;display:inline;fill:#060606;stroke-width:0.264583">
      <path
         d="m 19.047139,228.48901 -0.981853,-2.57176 h 0.363458 l 0.814766,2.16524 0.816488,-2.16524 h 0.361735 l -0.98013,2.57176 z"
         id="path184536" />
      <path
         d="m 21.346742,225.91725 h 0.292833 l -0.895725,2.89905 h -0.292834 z"
         id="path184538" />
      <path
         d="m 23.029672,226.15324 q -0.378961,0 -0.602892,0.2825 -0.222209,0.28249 -0.222209,0.76997 0,0.48576 0.222209,0.76826 0.223931,0.2825 0.602892,0.2825 0.378961,0 0.599447,-0.2825 0.222209,-0.2825 0.222209,-0.76826 0,-0.48748 -0.222209,-0.76997 -0.220486,-0.2825 -0.599447,-0.2825 z m 0,-0.2825 q 0.54088,0 0.864719,0.36346 0.32384,0.36173 0.32384,0.97151 0,0.60806 -0.32384,0.97152 -0.323839,0.36174 -0.864719,0.36174 -0.542603,0 -0.868165,-0.36174 -0.323839,-0.36173 -0.323839,-0.97152 0,-0.60978 0.323839,-0.97151 0.325562,-0.36346 0.868165,-0.36346 z"
         id="path184540" />
      <path
         d="m 26.13715,226.63383 v 0.29628 q -0.134359,-0.0741 -0.27044,-0.11025 -0.134359,-0.0379 -0.272163,-0.0379 -0.308336,0 -0.478869,0.19637 -0.170532,0.19465 -0.170532,0.54777 0,0.35312 0.170532,0.54949 0.170533,0.19465 0.478869,0.19465 0.137804,0 0.272163,-0.0362 0.136081,-0.0379 0.27044,-0.11197 v 0.29283 q -0.132636,0.062 -0.275608,0.093 -0.141249,0.031 -0.301446,0.031 -0.435805,0 -0.692465,-0.27389 -0.256659,-0.27388 -0.256659,-0.73897 0,-0.47198 0.258382,-0.74242 0.260105,-0.27044 0.711413,-0.27044 0.146416,0 0.285943,0.031 0.139526,0.0293 0.27044,0.0896 z"
         id="path184542" />
      <path
         d="m 27.00187,226.01199 v 0.54777 h 0.652846 v 0.24632 H 27.00187 v 1.04731 q 0,0.23599 0.06373,0.30317 0.06546,0.0672 0.26355,0.0672 h 0.325562 v 0.26527 h -0.325562 q -0.366903,0 -0.506429,-0.13608 -0.139527,-0.1378 -0.139527,-0.49954 v -1.04731 h -0.232544 v -0.24632 h 0.232544 v -0.54777 z"
         id="path184544" />
    </g>
    <g
       aria-label="Gate"
       id="text59931"
       style="font-size:3.52778px;line-height:1.25;-inkscape-font-specification:sans-serif;display:inline;fill:#060606;stroke-width:0.264583">
      <path
         d="m 20.730069,243.12588 v -0.69074 h -0.568442 v -0.28595 h 0.912951 v 1.10416 q -0.201538,0.14297 -0.444417,0.21704 -0.24288,0.0724 -0.518488,0.0724 -0.602892,0 -0.943956,-0.3514 -0.339342,-0.35313 -0.339342,-0.98186 0,-0.63045 0.339342,-0.98185 0.341064,-0.35312 0.943956,-0.35312 0.251493,0 0.477146,0.062 0.227377,0.062 0.41858,0.18259 v 0.37035 q -0.192926,-0.16364 -0.409967,-0.24633 -0.217041,-0.0827 -0.456475,-0.0827 -0.471979,0 -0.70969,0.26355 -0.23599,0.26355 -0.23599,0.78548 0,0.52021 0.23599,0.78376 0.237711,0.26355 0.70969,0.26355 0.184313,0 0.329007,-0.031 0.144694,-0.0327 0.260105,-0.0999 z"
         id="path184527" />
      <path
         d="m 22.573196,242.52299 q -0.384129,0 -0.532268,0.0879 -0.148139,0.0879 -0.148139,0.29972 0,0.16881 0.110243,0.26872 0.111966,0.0982 0.303169,0.0982 0.26355,0 0.422024,-0.18603 0.160197,-0.18776 0.160197,-0.49782 v -0.0706 z m 0.632175,-0.13092 v 1.10071 h -0.316949 v -0.29283 q -0.10852,0.1757 -0.27044,0.2601 -0.16192,0.0827 -0.396186,0.0827 -0.296279,0 -0.471979,-0.16537 -0.173977,-0.16709 -0.173977,-0.44614 0,-0.32556 0.217041,-0.49092 0.218764,-0.16537 0.651124,-0.16537 h 0.444417 v -0.031 q 0,-0.21876 -0.144694,-0.33761 -0.142971,-0.12058 -0.403076,-0.12058 -0.165365,0 -0.322117,0.0396 -0.156752,0.0396 -0.301446,0.11885 v -0.29283 q 0.173977,-0.0672 0.33762,-0.0999 0.163642,-0.0344 0.318671,-0.0344 0.418579,0 0.625285,0.21704 0.206706,0.21704 0.206706,0.65801 z"
         id="path184529" />
      <path
         d="m 24.171721,241.01576 v 0.54777 h 0.652846 v 0.24632 h -0.652846 v 1.04731 q 0,0.23599 0.06373,0.30317 0.06546,0.0672 0.26355,0.0672 h 0.325561 v 0.26527 h -0.325561 q -0.366903,0 -0.50643,-0.13608 -0.139526,-0.1378 -0.139526,-0.49954 v -1.04731 h -0.232544 v -0.24632 h 0.232544 v -0.54777 z"
         id="path184531" />
      <path
         d="m 26.891626,242.44892 v 0.15503 h -1.457277 q 0.02067,0.32728 0.196371,0.49954 0.177422,0.17053 0.492649,0.17053 0.18259,0 0.353122,-0.0448 0.172255,-0.0448 0.341065,-0.13436 v 0.29973 q -0.170532,0.0723 -0.349677,0.11024 -0.179146,0.0379 -0.363458,0.0379 -0.461643,0 -0.732084,-0.26872 -0.268717,-0.26872 -0.268717,-0.72692 0,-0.4737 0.254937,-0.75103 0.25666,-0.27905 0.690742,-0.27905 0.389296,0 0.61495,0.25149 0.227377,0.24977 0.227377,0.68041 z m -0.316949,-0.093 q -0.0034,-0.2601 -0.146417,-0.41513 -0.141249,-0.15503 -0.375516,-0.15503 -0.265272,0 -0.425469,0.14986 -0.158475,0.14986 -0.182591,0.42202 z"
         id="path184533" />
    </g>
    <g
       aria-label="Vel "
       id="text59937"
       style="font-size:3.52778px;line-height:1.25;-inkscape-font-specification:sans-serif;display:inline;fill:#060606;stroke-width:0.264583">
      <path
         d="m 21.376023,258.49652 -0.981853,-2.57176 h 0.363458 l 0.814766,2.16524 0.816488,-2.16524 h 0.361735 l -0.98013,2.57176 z"
         id="path184520" />
      <path
         d="m 24.488669,257.45266 v 0.15503 h -1.457276 q 0.02067,0.32728 0.19637,0.49953 0.177423,0.17054 0.492649,0.17054 0.18259,0 0.353123,-0.0448 0.172255,-0.0448 0.341064,-0.13436 v 0.29973 q -0.170532,0.0723 -0.349677,0.11024 -0.179145,0.0379 -0.363458,0.0379 -0.461643,0 -0.732083,-0.26871 -0.268718,-0.26872 -0.268718,-0.72692 0,-0.4737 0.254938,-0.75103 0.256659,-0.27905 0.690742,-0.27905 0.389296,0 0.61495,0.25149 0.227376,0.24977 0.227376,0.68041 z m -0.316949,-0.093 q -0.0034,-0.26011 -0.146417,-0.41514 -0.141249,-0.15502 -0.375515,-0.15502 -0.265273,0 -0.42547,0.14986 -0.158474,0.14986 -0.18259,0.42202 z"
         id="path184522" />
      <path
         d="m 25.008879,255.81623 h 0.316949 v 2.68029 h -0.316949 z"
         id="path184524" />
    </g>
    <g
       aria-label="V/Oct"
       id="text60013"
       style="font-size:3.52778px;line-height:1.25;-inkscape-font-specification:sans-serif;display:inline;fill:#060606;stroke-width:0.264583">
      <path
         d="m 34.287135,228.48901 -0.981853,-2.57176 h 0.363458 l 0.814766,2.16524 0.816488,-2.16524 h 0.361735 l -0.98013,2.57176 z"
         id="path184509" />
      <path
         d="m 36.586738,225.91725 h 0.292833 l -0.895725,2.89905 h -0.292834 z"
         id="path184511" />
      <path
         d="m 38.269668,226.15324 q -0.378961,0 -0.602892,0.2825 -0.222209,0.28249 -0.222209,0.76997 0,0.48576 0.222209,0.76826 0.223931,0.2825 0.602892,0.2825 0.378961,0 0.599447,-0.2825 0.222209,-0.2825 0.222209,-0.76826 0,-0.48748 -0.222209,-0.76997 -0.220486,-0.2825 -0.599447,-0.2825 z m 0,-0.2825 q 0.54088,0 0.864719,0.36346 0.32384,0.36173 0.32384,0.97151 0,0.60806 -0.32384,0.97152 -0.323839,0.36174 -0.864719,0.36174 -0.542603,0 -0.868165,-0.36174 -0.323839,-0.36173 -0.323839,-0.97152 0,-0.60978 0.323839,-0.97151 0.325562,-0.36346 0.868165,-0.36346 z"
         id="path184513" />
      <path
         d="m 41.377146,226.63383 v 0.29628 q -0.134359,-0.0741 -0.27044,-0.11025 -0.134359,-0.0379 -0.272163,-0.0379 -0.308336,0 -0.478869,0.19637 -0.170532,0.19465 -0.170532,0.54777 0,0.35312 0.170532,0.54949 0.170533,0.19465 0.478869,0.19465 0.137804,0 0.272163,-0.0362 0.136081,-0.0379 0.27044,-0.11197 v 0.29283 q -0.132636,0.062 -0.275608,0.093 -0.141249,0.031 -0.301446,0.031 -0.435805,0 -0.692465,-0.27389 -0.256659,-0.27388 -0.256659,-0.73897 0,-0.47198 0.258382,-0.74242 0.260105,-0.27044 0.711413,-0.27044 0.146416,0 0.285943,0.031 0.139526,0.0293 0.27044,0.0896 z"
         id="path184515" />
      <path
         d="m 42.241866,226.01199 v 0.54777 h 0.652846 v 0.24632 h -0.652846 v 1.04731 q 0,0.23599 0.06373,0.30317 0.06546,0.0672 0.26355,0.0672 h 0.325562 v 0.26527 H 42.56915 q -0.366903,0 -0.506429,-0.13608 -0.139527,-0.1378 -0.139527,-0.49954 v -1.04731 H 41.69065 v -0.24632 h 0.232544 v -0.54777 z"
         id="path184517" />
    </g>
    <g
       aria-label="Gate"
       id="text60017"
       style="font-size:3.52778px;line-height:1.25;-inkscape-font-specification:sans-serif;display:inline;fill:#060606;stroke-width:0.264583">
      <path
         d="m 35.970064,243.12588 v -0.69074 h -0.568441 v -0.28595 h 0.912951 v 1.10416 q -0.201538,0.14297 -0.444417,0.21704 -0.24288,0.0724 -0.518488,0.0724 -0.602892,0 -0.943956,-0.3514 -0.339342,-0.35313 -0.339342,-0.98186 0,-0.63045 0.339342,-0.98185 0.341064,-0.35312 0.943956,-0.35312 0.251493,0 0.477146,0.062 0.227377,0.062 0.41858,0.18259 v 0.37035 q -0.192926,-0.16364 -0.409967,-0.24633 -0.217041,-0.0827 -0.456475,-0.0827 -0.471979,0 -0.70969,0.26355 -0.23599,0.26355 -0.23599,0.78548 0,0.52021 0.23599,0.78376 0.237711,0.26355 0.70969,0.26355 0.184312,0 0.329007,-0.031 0.144694,-0.0327 0.260104,-0.0999 z"
         id="path184500" />
      <path
         d="m 37.813192,242.52299 q -0.384129,0 -0.532268,0.0879 -0.148139,0.0879 -0.148139,0.29972 0,0.16881 0.110243,0.26872 0.111966,0.0982 0.303169,0.0982 0.26355,0 0.422024,-0.18603 0.160197,-0.18776 0.160197,-0.49782 v -0.0706 z m 0.632175,-0.13092 v 1.10071 h -0.316949 v -0.29283 q -0.10852,0.1757 -0.27044,0.2601 -0.16192,0.0827 -0.396186,0.0827 -0.296279,0 -0.471979,-0.16537 -0.173977,-0.16709 -0.173977,-0.44614 0,-0.32556 0.217041,-0.49092 0.218764,-0.16537 0.651124,-0.16537 h 0.444417 v -0.031 q 0,-0.21876 -0.144694,-0.33761 -0.142972,-0.12058 -0.403076,-0.12058 -0.165365,0 -0.322117,0.0396 -0.156752,0.0396 -0.301446,0.11885 v -0.29283 q 0.173977,-0.0672 0.33762,-0.0999 0.163642,-0.0344 0.318671,-0.0344 0.418579,0 0.625285,0.21704 0.206706,0.21704 0.206706,0.65801 z"
         id="path184502" />
      <path
         d="m 39.411717,241.01576 v 0.54777 h 0.652846 v 0.24632 h -0.652846 v 1.04731 q 0,0.23599 0.06373,0.30317 0.06546,0.0672 0.263549,0.0672 h 0.325562 v 0.26527 h -0.325562 q -0.366902,0 -0.506429,-0.13608 -0.139526,-0.1378 -0.139526,-0.49954 v -1.04731 h -0.232544 v -0.24632 h 0.232544 v -0.54777 z"
         id="path184504" />
      <path
         d="m 42.131621,242.44892 v 0.15503 h -1.457276 q 0.02067,0.32728 0.196371,0.49954 0.177422,0.17053 0.492649,0.17053 0.18259,0 0.353122,-0.0448 0.172255,-0.0448 0.341065,-0.13436 v 0.29973 q -0.170532,0.0723 -0.349678,0.11024 -0.179145,0.0379 -0.363457,0.0379 -0.461643,0 -0.732084,-0.26872 -0.268717,-0.26872 -0.268717,-0.72692 0,-0.4737 0.254937,-0.75103 0.25666,-0.27905 0.690742,-0.27905 0.389296,0 0.61495,0.25149 0.227376,0.24977 0.227376,0.68041 z m -0.316949,-0.093 q -0.0034,-0.2601 -0.146416,-0.41513 -0.141249,-0.15503 -0.375516,-0.15503 -0.265272,0 -0.425469,0.14986 -0.158475,0.14986 -0.182591,0.42202 z"
         id="path184506" />
    </g>
    <g
       aria-label="Vel "
       id="text60023"
       style="font-size:3.52778px;line-height:1.25;-inkscape-font-specification:sans-serif;display:inline;fill:#060606;stroke-width:0.264583">
      <path
         d="m 36.616019,258.49652 -0.981853,-2.57176 h 0.363458 l 0.814766,2.16524 0.816488,-2.16524 h 0.361735 l -0.98013,2.57176 z"
         id="path184493" />
      <path
         d="m 39.728665,257.45266 v 0.15503 h -1.457276 q 0.02067,0.32728 0.19637,0.49953 0.177423,0.17054 0.492649,0.17054 0.18259,0 0.353123,-0.0448 0.172255,-0.0448 0.341064,-0.13436 v 0.29973 q -0.170532,0.0723 -0.349677,0.11024 -0.179145,0.0379 -0.363458,0.0379 -0.461643,0 -0.732083,-0.26871 -0.268718,-0.26872 -0.268718,-0.72692 0,-0.4737 0.254938,-0.75103 0.256659,-0.27905 0.690742,-0.27905 0.389296,0 0.61495,0.25149 0.227376,0.24977 0.227376,0.68041 z m -0.316949,-0.093 q -0.0034,-0.26011 -0.146417,-0.41514 -0.141249,-0.15502 -0.375515,-0.15502 -0.265273,0 -0.42547,0.14986 -0.158474,0.14986 -0.18259,0.42202 z"
         id="path184495" />
      <path
         d="m 40.248875,255.81623 h 0.316949 v 2.68029 h -0.316949 z"
         id="path184497" />
    </g>
    <g
       aria-label="A"
       id="text60277"
       style="font-size:4.23333px;line-height:1.25;-inkscape-font-specification:sans-serif;display:inline;fill:#060606;stroke-width:0.264583">
      <path
         d="m 22.859996,211.2291 -0.566373,1.53582 h 1.134813 z m -0.235644,-0.41134 h 0.473356 l 1.176154,3.08611 h -0.434081 l -0.28112,-0.79168 h -1.391128 l -0.28112,0.79168 H 21.44613 Z"
         id="path184490" />
    </g>
    <g
       aria-label="B"
       id="text61411"
       style="font-size:4.23333px;line-height:1.25;-inkscape-font-specification:sans-serif;display:inline;fill:#060606;stroke-width:0.264583">
      <path
         d="m 37.48608,212.43006 v 1.13068 h 0.669726 q 0.336931,0 0.498161,-0.13849 0.163297,-0.14056 0.163297,-0.42788 0,-0.28939 -0.163297,-0.42582 -0.16123,-0.13849 -0.498161,-0.13849 z m 0,-1.26917 v 0.93017 h 0.61805 q 0.305924,0 0.454752,-0.11369 0.150895,-0.11575 0.150895,-0.3514 0,-0.23357 -0.150895,-0.34933 -0.148828,-0.11575 -0.454752,-0.11575 z m -0.417545,-0.34313 h 1.066601 q 0.47749,0 0.735872,0.19843 0.258382,0.19844 0.258382,0.56431 0,0.28319 -0.132292,0.45062 -0.132291,0.16743 -0.388606,0.20877 0.307991,0.0661 0.477489,0.27699 0.171566,0.20877 0.171566,0.52296 0,0.41341 -0.281119,0.63872 -0.28112,0.22531 -0.799951,0.22531 h -1.107942 z"
         id="path184487" />
    </g>
    <g
       aria-label="Aft"
       id="text4427"
       style="font-size:3.52778px;line-height:1.25;-inkscape-font-specification:sans-serif;display:inline;fill:#e5e5e5;stroke-width:0.264583">
      <path
         d="m 6.4288582,271.27182 -0.4719784,1.27985 h 0.9456793 z m -0.1963706,-0.34279 h 0.3944637 l 0.9801303,2.57176 H 7.2453463 L 7.0110797,272.84106 H 5.8518043 l -0.2342667,0.65973 H 5.2506347 Z"
         id="path184480" />
      <path
         d="m 8.8197561,270.82051 v 0.26355 H 8.5165875 q -0.1705324,0 -0.2377118,0.0689 -0.065457,0.0689 -0.065457,0.24805 v 0.17053 h 0.5219323 v 0.24632 H 8.2134189 v 1.68293 H 7.8947473 v -1.68293 H 7.5915787 v -0.24632 h 0.3031686 v -0.13436 q 0,-0.32212 0.1498618,-0.46853 0.1498617,-0.14814 0.4754235,-0.14814 z"
         id="path184482" />
      <path
         d="m 9.3365207,271.02377 v 0.54777 h 0.652846 v 0.24632 h -0.652846 v 1.04731 q 0,0.23599 0.063734,0.30317 0.065457,0.0672 0.26355,0.0672 h 0.3255617 v 0.26527 H 9.663805 q -0.3669029,0 -0.5064294,-0.13608 -0.1395264,-0.1378 -0.1395264,-0.49954 v -1.04731 H 8.7853051 v -0.24632 h 0.2325441 v -0.54777 z"
         id="path184484" />
    </g>
    <g
       aria-label="Retrig "
       id="text4433"
       style="font-size:3.52778px;line-height:1.25;-inkscape-font-specification:sans-serif;display:inline;fill:#e5e5e5;stroke-width:0.264583">
      <path
         d="m 3.9147997,287.29892 q 0.1119657,0.0379 0.2170412,0.16192 0.106798,0.12402 0.2135961,0.34106 l 0.3531225,0.7028 H 4.3247664 l -0.3290069,-0.65974 q -0.1274686,-0.25838 -0.248047,-0.34278 -0.1188559,-0.0844 -0.3255617,-0.0844 H 3.04319 v 1.08693 H 2.6952352 v -2.57177 h 0.7854822 q 0.4409725,0 0.6580137,0.18432 0.2170412,0.18431 0.2170412,0.55638 0,0.24288 -0.1136883,0.40308 -0.1119656,0.16019 -0.3272843,0.22221 z M 3.04319,286.21888 v 0.91295 h 0.4375274 q 0.2514922,0 0.3789608,-0.11541 0.1291911,-0.11714 0.1291911,-0.34279 0,-0.22565 -0.1291911,-0.33934 -0.1274686,-0.11541 -0.3789608,-0.11541 z"
         id="path184467" />
      <path
         d="m 6.624369,287.46084 v 0.15502 H 5.1670927 q 0.020671,0.32729 0.1963706,0.49954 0.1774225,0.17054 0.4926489,0.17054 0.1825902,0 0.3531225,-0.0448 0.1722549,-0.0448 0.3410647,-0.13436 v 0.29972 q -0.1705323,0.0723 -0.3496774,0.11025 -0.1791451,0.0379 -0.3634578,0.0379 -0.4616431,0 -0.7320833,-0.26871 -0.2687176,-0.26872 -0.2687176,-0.72692 0,-0.4737 0.2549372,-0.75103 0.2566598,-0.27905 0.6907421,-0.27905 0.3892961,0 0.61495,0.25149 0.2273764,0.24977 0.2273764,0.68041 z m -0.316949,-0.093 q -0.00345,-0.26011 -0.1464166,-0.41514 -0.141249,-0.15503 -0.3755157,-0.15503 -0.2652725,0 -0.4254695,0.14987 -0.1584745,0.14986 -0.1825902,0.42202 z"
         id="path184469" />
      <path
         d="m 7.4580829,286.02767 v 0.54777 H 8.110929 v 0.24633 H 7.4580829 v 1.04731 q 0,0.23599 0.063734,0.30317 0.065457,0.0672 0.26355,0.0672 H 8.110929 v 0.26527 H 7.7853672 q -0.3669029,0 -0.5064293,-0.13608 -0.1395265,-0.13781 -0.1395265,-0.49954 v -1.04731 H 6.9068673 v -0.24633 h 0.2325441 v -0.54777 z"
         id="path184471" />
      <path
         d="m 9.6457196,286.87172 q -0.053399,-0.031 -0.1171333,-0.0448 -0.062012,-0.0155 -0.1378039,-0.0155 -0.2687176,0 -0.4134117,0.1757 -0.1429716,0.17398 -0.1429716,0.50127 v 1.0163 H 8.5157276 v -1.92926 h 0.3186715 v 0.29973 q 0.099908,-0.1757 0.2601049,-0.26011 0.160197,-0.0861 0.389296,-0.0861 0.032728,0 0.072347,0.005 0.039619,0.003 0.08785,0.0121 z"
         id="path184473" />
      <path
         d="M 9.9781715,286.57544 H 10.29512 v 1.92926 H 9.9781715 Z m 0,-0.75103 H 10.29512 v 0.40136 H 9.9781715 Z"
         id="path184475" />
      <path
         d="m 12.22782,287.51768 q 0,-0.34451 -0.142971,-0.53399 -0.141249,-0.18948 -0.397909,-0.18948 -0.254937,0 -0.397909,0.18948 -0.141249,0.18948 -0.141249,0.53399 0,0.34279 0.141249,0.53227 0.142972,0.18948 0.397909,0.18948 0.25666,0 0.397909,-0.18948 0.142971,-0.18948 0.142971,-0.53227 z m 0.316949,0.74759 q 0,0.49264 -0.218764,0.73208 -0.218763,0.24116 -0.670071,0.24116 -0.167087,0 -0.315227,-0.0258 -0.148139,-0.0241 -0.287665,-0.0758 v -0.30834 q 0.139526,0.0758 0.275608,0.11196 0.136081,0.0362 0.27733,0.0362 0.311781,0 0.466811,-0.16364 0.155029,-0.16192 0.155029,-0.49093 v -0.15675 q -0.09818,0.17053 -0.251492,0.25493 -0.153307,0.0844 -0.366903,0.0844 -0.354845,0 -0.571886,-0.27044 -0.217041,-0.27044 -0.217041,-0.71658 0,-0.44786 0.217041,-0.7183 0.217041,-0.27044 0.571886,-0.27044 0.213596,0 0.366903,0.0844 0.153307,0.0844 0.251492,0.25494 v -0.29284 h 0.316949 z"
         id="path184477" />
    </g>
    <g
       aria-label="Aft"
       id="text4437"
       style="font-size:3.52778px;line-height:1.25;-inkscape-font-specification:sans-serif;display:inline;fill:#060606;stroke-width:0.264583">
      <path
         d="m 21.668856,271.27182 -0.471978,1.27985 h 0.945679 z m -0.196371,-0.34279 h 0.394464 l 0.98013,2.57176 h -0.361735 l -0.234266,-0.65973 h -1.159276 l -0.234266,0.65973 h -0.366903 z"
         id="path184460" />
      <path
         d="m 24.059754,270.82051 v 0.26355 h -0.303169 q -0.170532,0 -0.237711,0.0689 -0.06546,0.0689 -0.06546,0.24805 v 0.17053 h 0.521932 v 0.24632 h -0.521932 v 1.68293 h -0.318672 v -1.68293 h -0.303168 v -0.24632 h 0.303168 v -0.13436 q 0,-0.32212 0.149862,-0.46853 0.149862,-0.14814 0.475423,-0.14814 z"
         id="path184462" />
      <path
         d="m 24.576519,271.02377 v 0.54777 h 0.652846 v 0.24632 h -0.652846 v 1.04731 q 0,0.23599 0.06373,0.30317 0.06546,0.0672 0.26355,0.0672 h 0.325562 v 0.26527 h -0.325562 q -0.366903,0 -0.50643,-0.13608 -0.139526,-0.1378 -0.139526,-0.49954 v -1.04731 h -0.232544 v -0.24632 h 0.232544 v -0.54777 z"
         id="path184464" />
    </g>
    <g
       aria-label="Retrig "
       id="text4443"
       style="font-size:3.52778px;line-height:1.25;-inkscape-font-specification:sans-serif;display:inline;fill:#060606;stroke-width:0.264583">
      <path
         d="m 19.154798,287.29892 q 0.111965,0.0379 0.217041,0.16192 0.106798,0.12402 0.213596,0.34106 l 0.353122,0.7028 h -0.373793 l -0.329007,-0.65974 q -0.127468,-0.25838 -0.248047,-0.34278 -0.118855,-0.0844 -0.325561,-0.0844 h -0.378961 v 1.08693 h -0.347955 v -2.57177 h 0.785482 q 0.440973,0 0.658014,0.18432 0.217041,0.18431 0.217041,0.55638 0,0.24288 -0.113688,0.40308 -0.111966,0.16019 -0.327284,0.22221 z m -0.87161,-1.08004 v 0.91295 h 0.437527 q 0.251492,0 0.378961,-0.11541 0.129191,-0.11714 0.129191,-0.34279 0,-0.22565 -0.129191,-0.33934 -0.127469,-0.11541 -0.378961,-0.11541 z"
         id="path184447" />
      <path
         d="m 21.864367,287.46084 v 0.15502 h -1.457276 q 0.02067,0.32729 0.19637,0.49954 0.177423,0.17054 0.492649,0.17054 0.18259,0 0.353123,-0.0448 0.172254,-0.0448 0.341064,-0.13436 v 0.29972 q -0.170532,0.0723 -0.349677,0.11025 -0.179145,0.0379 -0.363458,0.0379 -0.461643,0 -0.732083,-0.26871 -0.268718,-0.26872 -0.268718,-0.72692 0,-0.4737 0.254937,-0.75103 0.25666,-0.27905 0.690742,-0.27905 0.389297,0 0.61495,0.25149 0.227377,0.24977 0.227377,0.68041 z m -0.316949,-0.093 q -0.0034,-0.26011 -0.146417,-0.41514 -0.141249,-0.15503 -0.375515,-0.15503 -0.265273,0 -0.42547,0.14987 -0.158474,0.14986 -0.18259,0.42202 z"
         id="path184449" />
      <path
         d="m 22.698081,286.02767 v 0.54777 h 0.652846 v 0.24633 h -0.652846 v 1.04731 q 0,0.23599 0.06373,0.30317 0.06546,0.0672 0.26355,0.0672 h 0.325562 v 0.26527 h -0.325562 q -0.366903,0 -0.506429,-0.13608 -0.139527,-0.13781 -0.139527,-0.49954 v -1.04731 h -0.232544 v -0.24633 h 0.232544 v -0.54777 z"
         id="path184451" />
      <path
         d="m 24.885717,286.87172 q -0.0534,-0.031 -0.117133,-0.0448 -0.06201,-0.0155 -0.137804,-0.0155 -0.268717,0 -0.413411,0.1757 -0.142972,0.17398 -0.142972,0.50127 v 1.0163 h -0.318672 v -1.92926 h 0.318672 v 0.29973 q 0.09991,-0.1757 0.260105,-0.26011 0.160197,-0.0861 0.389296,-0.0861 0.03273,0 0.07235,0.005 0.03962,0.003 0.08785,0.0121 z"
         id="path184453" />
      <path
         d="m 25.218169,286.57544 h 0.316949 v 1.92926 h -0.316949 z m 0,-0.75103 h 0.316949 v 0.40136 h -0.316949 z"
         id="path184455" />
      <path
         d="m 27.467818,287.51768 q 0,-0.34451 -0.142972,-0.53399 -0.141249,-0.18948 -0.397908,-0.18948 -0.254938,0 -0.397909,0.18948 -0.141249,0.18948 -0.141249,0.53399 0,0.34279 0.141249,0.53227 0.142971,0.18948 0.397909,0.18948 0.256659,0 0.397908,-0.18948 0.142972,-0.18948 0.142972,-0.53227 z m 0.316949,0.74759 q 0,0.49264 -0.218764,0.73208 -0.218763,0.24116 -0.670071,0.24116 -0.167087,0 -0.315227,-0.0258 -0.148139,-0.0241 -0.287665,-0.0758 v -0.30834 q 0.139526,0.0758 0.275608,0.11196 0.136081,0.0362 0.27733,0.0362 0.311781,0 0.466811,-0.16364 0.155029,-0.16192 0.155029,-0.49093 v -0.15675 q -0.09819,0.17053 -0.251492,0.25493 -0.153307,0.0844 -0.366903,0.0844 -0.354845,0 -0.571886,-0.27044 -0.217041,-0.27044 -0.217041,-0.71658 0,-0.44786 0.217041,-0.7183 0.217041,-0.27044 0.571886,-0.27044 0.213596,0 0.366903,0.0844 0.153307,0.0844 0.251492,0.25494 v -0.29284 h 0.316949 z"
         id="path184457" />
    </g>
    <g
       aria-label="Aft"
       id="text4447"
       style="font-size:3.52778px;line-height:1.25;-inkscape-font-specification:sans-serif;display:inline;fill:#060606;stroke-width:0.264583">
      <path
         d="m 36.908856,271.27182 -0.471979,1.27985 h 0.94568 z m -0.196371,-0.34279 h 0.394464 l 0.98013,2.57176 h -0.361735 l -0.234267,-0.65973 h -1.159275 l -0.234267,0.65973 h -0.366903 z"
         id="path184440" />
      <path
         d="m 39.299754,270.82051 v 0.26355 h -0.303169 q -0.170532,0 -0.237712,0.0689 -0.06546,0.0689 -0.06546,0.24805 v 0.17053 h 0.521933 v 0.24632 h -0.521933 v 1.68293 h -0.318671 v -1.68293 h -0.303169 v -0.24632 h 0.303169 v -0.13436 q 0,-0.32212 0.149862,-0.46853 0.149861,-0.14814 0.475423,-0.14814 z"
         id="path184442" />
      <path
         d="m 39.816518,271.02377 v 0.54777 h 0.652846 v 0.24632 h -0.652846 v 1.04731 q 0,0.23599 0.06374,0.30317 0.06546,0.0672 0.26355,0.0672 h 0.325561 v 0.26527 h -0.325561 q -0.366903,0 -0.50643,-0.13608 -0.139526,-0.1378 -0.139526,-0.49954 v -1.04731 h -0.232544 v -0.24632 h 0.232544 v -0.54777 z"
         id="path184444" />
    </g>
    <g
       aria-label="Retrig "
       id="text4453"
       style="font-size:3.52778px;line-height:1.25;-inkscape-font-specification:sans-serif;display:inline;fill:#060606;stroke-width:0.264583">
      <path
         d="m 34.394792,287.29892 q 0.111965,0.0379 0.217041,0.16192 0.106798,0.12402 0.213596,0.34106 l 0.353122,0.7028 h -0.373793 l -0.329007,-0.65974 q -0.127468,-0.25838 -0.248047,-0.34278 -0.118855,-0.0844 -0.325561,-0.0844 h -0.378961 v 1.08693 h -0.347955 v -2.57177 h 0.785482 q 0.440973,0 0.658014,0.18432 0.217041,0.18431 0.217041,0.55638 0,0.24288 -0.113688,0.40308 -0.111966,0.16019 -0.327284,0.22221 z m -0.87161,-1.08004 v 0.91295 h 0.437527 q 0.251492,0 0.378961,-0.11541 0.129191,-0.11714 0.129191,-0.34279 0,-0.22565 -0.129191,-0.33934 -0.127469,-0.11541 -0.378961,-0.11541 z"
         id="path184427" />
      <path
         d="m 37.104361,287.46084 v 0.15502 h -1.457276 q 0.02067,0.32729 0.19637,0.49954 0.177423,0.17054 0.492649,0.17054 0.18259,0 0.353123,-0.0448 0.172255,-0.0448 0.341064,-0.13436 v 0.29972 q -0.170532,0.0723 -0.349677,0.11025 -0.179145,0.0379 -0.363458,0.0379 -0.461643,0 -0.732083,-0.26871 -0.268718,-0.26872 -0.268718,-0.72692 0,-0.4737 0.254937,-0.75103 0.25666,-0.27905 0.690743,-0.27905 0.389296,0 0.614949,0.25149 0.227377,0.24977 0.227377,0.68041 z m -0.316949,-0.093 q -0.0034,-0.26011 -0.146417,-0.41514 -0.141249,-0.15503 -0.375515,-0.15503 -0.265273,0 -0.42547,0.14987 -0.158474,0.14986 -0.18259,0.42202 z"
         id="path184429" />
      <path
         d="m 37.938075,286.02767 v 0.54777 h 0.652846 v 0.24633 h -0.652846 v 1.04731 q 0,0.23599 0.06373,0.30317 0.06546,0.0672 0.26355,0.0672 h 0.325562 v 0.26527 h -0.325562 q -0.366903,0 -0.506429,-0.13608 -0.139527,-0.13781 -0.139527,-0.49954 v -1.04731 h -0.232544 v -0.24633 h 0.232544 v -0.54777 z"
         id="path184431" />
      <path
         d="m 40.125712,286.87172 q -0.0534,-0.031 -0.117134,-0.0448 -0.06201,-0.0155 -0.137804,-0.0155 -0.268717,0 -0.413411,0.1757 -0.142972,0.17398 -0.142972,0.50127 v 1.0163 h -0.318672 v -1.92926 h 0.318672 v 0.29973 q 0.09991,-0.1757 0.260105,-0.26011 0.160197,-0.0861 0.389296,-0.0861 0.03273,0 0.07235,0.005 0.03962,0.003 0.08785,0.0121 z"
         id="path184433" />
      <path
         d="m 40.458163,286.57544 h 0.316949 v 1.92926 h -0.316949 z m 0,-0.75103 h 0.316949 v 0.40136 h -0.316949 z"
         id="path184435" />
      <path
         d="m 42.707812,287.51768 q 0,-0.34451 -0.142971,-0.53399 -0.141249,-0.18948 -0.397909,-0.18948 -0.254937,0 -0.397909,0.18948 -0.141249,0.18948 -0.141249,0.53399 0,0.34279 0.141249,0.53227 0.142972,0.18948 0.397909,0.18948 0.25666,0 0.397909,-0.18948 0.142971,-0.18948 0.142971,-0.53227 z m 0.316949,0.74759 q 0,0.49264 -0.218764,0.73208 -0.218763,0.24116 -0.670071,0.24116 -0.167087,0 -0.315227,-0.0258 -0.148139,-0.0241 -0.287665,-0.0758 v -0.30834 q 0.139526,0.0758 0.275608,0.11196 0.136081,0.0362 0.27733,0.0362 0.311781,0 0.466811,-0.16364 0.155029,-0.16192 0.155029,-0.49093 v -0.15675 q -0.09818,0.17053 -0.251492,0.25493 -0.153307,0.0844 -0.366903,0.0844 -0.354845,0 -0.571886,-0.27044 -0.217041,-0.27044 -0.217041,-0.71658 0,-0.44786 0.217041,-0.7183 0.217041,-0.27044 0.571886,-0.27044 0.213596,0 0.366903,0.0844 0.153307,0.0844 0.251492,0.25494 v -0.29284 h 0.316949 z"
         id="path184437" />
    </g>
    <g
       transform="matrix(0.26458333,0,0,0.26458333,0,168.49998)"
       id="text67892"
       style="font-weight:bold;font-size:13.3333px;line-height:1.25;-inkscape-font-specification:'sans-serif Bold';white-space:pre;shape-inside:url(#rect67894)" />
    <g
       id="text172020"
       style="font-weight:bold;font-size:3.52777px;line-height:1.25;-inkscape-font-specification:'sans-serif Bold';stroke-width:0.264583" />
    <path
       id="rect184001"
       style="fill:#1a1a1a;stroke-width:1.16799;stroke-linecap:round;stroke-linejoin:round;fill-opacity:1;stroke:#e5e5e5;stroke-opacity:1"
       d="m 27.858154,193.98563 h 12.872779 c 1.367494,0 2.4684,1.1009 2.4684,2.4684 v 8.26507 c 0,1.36749 -1.100906,2.4684 -2.4684,2.4684 H 27.858154 c -1.367494,0 -2.468401,-1.10091 -2.468401,-2.4684 v -8.26507 c 0,-1.3675 1.100907,-2.4684 2.468401,-2.4684 z" />
  </g>
  <g
     inkscape:groupmode="layer"
     id="layer2"
     inkscape:label="components"
     style="display:none">
    <circle
       style="display:inline;opacity:1;vector-effect:none;fill:#00ffff;fill-opacity:1;fill-rule:evenodd;stroke:none;stroke-width:1.13364;stroke-linecap:butt;stroke-linejoin:miter;stroke-miterlimit:4;stroke-dasharray:none;stroke-dashoffset:0;stroke-opacity:1;paint-order:normal"
       id="Shape"
       cx="34.289997"
       cy="16.062016"
       r="4.5345535"
       inkscape:label="Split" />
    <circle
       r="3.5674729"
       cy="66.460472"
       cx="7.6199989"
       id="circle4956"
       style="display:inline;opacity:1;vector-effect:none;fill:#ff00ff;fill-opacity:1;fill-rule:evenodd;stroke:none;stroke-width:0.891868;stroke-linecap:butt;stroke-linejoin:miter;stroke-miterlimit:4;stroke-dasharray:none;stroke-dashoffset:0;stroke-opacity:1;paint-order:normal"
       inkscape:label="Gate" />
    <circle
       style="display:inline;opacity:1;vector-effect:none;fill:#ffff00;fill-opacity:1;fill-rule:evenodd;stroke:none;stroke-width:0.890544;stroke-linecap:butt;stroke-linejoin:miter;stroke-miterlimit:4;stroke-dasharray:none;stroke-dashoffset:0;stroke-opacity:1;paint-order:normal"
       id="circle4958"
       cx="22.859997"
       cy="81.464699"
       r="3.5621772"
       inkscape:label="Vel_A" />
    <circle
       r="3.6186819"
       cy="51.456306"
       cx="7.6199989"
       id="circle18804"
       style="display:inline;opacity:1;vector-effect:none;fill:#ff00ff;fill-opacity:1;fill-rule:evenodd;stroke:none;stroke-width:0.904671;stroke-linecap:butt;stroke-linejoin:miter;stroke-miterlimit:4;stroke-dasharray:none;stroke-dashoffset:0;stroke-opacity:1;paint-order:normal"
       inkscape:label="VOct" />
    <circle
       style="display:inline;opacity:1;vector-effect:none;fill:#00ffff;fill-opacity:1;fill-rule:evenodd;stroke:none;stroke-width:1.15205;stroke-linecap:butt;stroke-linejoin:miter;stroke-miterlimit:4;stroke-dasharray:none;stroke-dashoffset:0;stroke-opacity:1;paint-order:normal"
       id="circle1004"
       cx="11.429998"
       cy="16.062016"
       r="4.6081934"
       inkscape:label="Stack" />
    <circle
       r="3.1482081"
       cy="81.464699"
       cx="7.6199989"
       id="circle59597"
       style="display:inline;opacity:1;vector-effect:none;fill:#ff00ff;fill-opacity:1;fill-rule:evenodd;stroke:none;stroke-width:0.787052;stroke-linecap:butt;stroke-linejoin:miter;stroke-miterlimit:4;stroke-dasharray:none;stroke-dashoffset:0;stroke-opacity:1;paint-order:normal"
       inkscape:label="Vel" />
    <circle
       style="display:inline;opacity:1;vector-effect:none;fill:#00ffff;fill-opacity:1;fill-rule:evenodd;stroke:none;stroke-width:0.734114;stroke-linecap:butt;stroke-linejoin:miter;stroke-miterlimit:4;stroke-dasharray:none;stroke-dashoffset:0;stroke-opacity:1;paint-order:normal"
       id="circle59599"
       cx="11.429998"
       cy="28.950008"
       r="2.936456"
       inkscape:label="Switch" />
    <circle
       style="display:inline;opacity:1;vector-effect:none;fill:#ffff00;fill-opacity:1;fill-rule:evenodd;stroke:none;stroke-width:0.890544;stroke-linecap:butt;stroke-linejoin:miter;stroke-miterlimit:4;stroke-dasharray:none;stroke-dashoffset:0;stroke-opacity:1;paint-order:normal"
       id="circle59835"
       cx="22.859997"
       cy="66.460472"
       r="3.5621772"
       inkscape:label="Gate_A" />
    <circle
       style="display:inline;opacity:1;vector-effect:none;fill:#ffff00;fill-opacity:1;fill-rule:evenodd;stroke:none;stroke-width:0.890544;stroke-linecap:butt;stroke-linejoin:miter;stroke-miterlimit:4;stroke-dasharray:none;stroke-dashoffset:0;stroke-opacity:1;paint-order:normal"
       id="circle59837"
       cx="22.859997"
       cy="51.456306"
       r="3.5621772"
       inkscape:label="VOct_A" />
    <circle
       style="display:inline;opacity:1;vector-effect:none;fill:#ffff00;fill-opacity:1;fill-rule:evenodd;stroke:none;stroke-width:0.890544;stroke-linecap:butt;stroke-linejoin:miter;stroke-miterlimit:4;stroke-dasharray:none;stroke-dashoffset:0;stroke-opacity:1;paint-order:normal"
       id="circle59919"
       cx="38.099995"
       cy="81.464699"
       r="3.5621772"
       inkscape:label="Vel_B" />
    <circle
       style="display:inline;opacity:1;vector-effect:none;fill:#ffff00;fill-opacity:1;fill-rule:evenodd;stroke:none;stroke-width:0.890544;stroke-linecap:butt;stroke-linejoin:miter;stroke-miterlimit:4;stroke-dasharray:none;stroke-dashoffset:0;stroke-opacity:1;paint-order:normal"
       id="circle59921"
       cx="38.099995"
       cy="66.460472"
       r="3.5621772"
       inkscape:label="Gate_B" />
    <circle
       style="display:inline;opacity:1;vector-effect:none;fill:#ffff00;fill-opacity:1;fill-rule:evenodd;stroke:none;stroke-width:0.890544;stroke-linecap:butt;stroke-linejoin:miter;stroke-miterlimit:4;stroke-dasharray:none;stroke-dashoffset:0;stroke-opacity:1;paint-order:normal"
       id="circle59923"
       cx="38.099995"
       cy="51.456306"
       r="3.5621772"
       inkscape:label="VOct_B" />
    <circle
       r="3.5674729"
       cy="96.468712"
       cx="7.6199989"
       id="circle4455"
       style="display:inline;opacity:1;vector-effect:none;fill:#ff00ff;fill-opacity:1;fill-rule:evenodd;stroke:none;stroke-width:0.891868;stroke-linecap:butt;stroke-linejoin:miter;stroke-miterlimit:4;stroke-dasharray:none;stroke-dashoffset:0;stroke-opacity:1;paint-order:normal"
       inkscape:label="Aft" />
    <circle
       style="display:inline;opacity:1;vector-effect:none;fill:#ffff00;fill-opacity:1;fill-rule:evenodd;stroke:none;stroke-width:0.890544;stroke-linecap:butt;stroke-linejoin:miter;stroke-miterlimit:4;stroke-dasharray:none;stroke-dashoffset:0;stroke-opacity:1;paint-order:normal"
       id="circle4457"
       cx="22.859997"
       cy="111.47297"
       r="3.5621772"
       inkscape:label="Retrig_A" />
    <circle
       r="3.1482081"
       cy="111.47297"
       cx="7.6199989"
       id="circle4459"
       style="display:inline;opacity:1;vector-effect:none;fill:#ff00ff;fill-opacity:1;fill-rule:evenodd;stroke:none;stroke-width:0.787052;stroke-linecap:butt;stroke-linejoin:miter;stroke-miterlimit:4;stroke-dasharray:none;stroke-dashoffset:0;stroke-opacity:1;paint-order:normal"
       inkscape:label="Retrig" />
    <circle
       style="display:inline;opacity:1;vector-effect:none;fill:#ffff00;fill-opacity:1;fill-rule:evenodd;stroke:none;stroke-width:0.890544;stroke-linecap:butt;stroke-linejoin:miter;stroke-miterlimit:4;stroke-dasharray:none;stroke-dashoffset:0;stroke-opacity:1;paint-order:normal"
       id="circle4461"
       cx="22.859997"
       cy="96.468712"
       r="3.5621772"
       inkscape:label="Aft_A" />
    <circle
       style="display:inline;opacity:1;vector-effect:none;fill:#ffff00;fill-opacity:1;fill-rule:evenodd;stroke:none;stroke-width:0.890544;stroke-linecap:butt;stroke-linejoin:miter;stroke-miterlimit:4;stroke-dasharray:none;stroke-dashoffset:0;stroke-opacity:1;paint-order:normal"
       id="circle4463"
       cx="38.099995"
       cy="111.47297"
       r="3.5621772"
       inkscape:label="Retrig_B" />
    <circle
       style="display:inline;opacity:1;vector-effect:none;fill:#ffff00;fill-opacity:1;fill-rule:evenodd;stroke:none;stroke-width:0.890544;stroke-linecap:butt;stroke-linejoin:miter;stroke-miterlimit:4;stroke-dasharray:none;stroke-dashoffset:0;stroke-opacity:1;paint-order:normal"
       id="circle4465"
       cx="38.099995"
       cy="96.468712"
       r="3.5621772"
       inkscape:label="Aft_B" />
  </g>
</svg>
