<?xml version="1.0" encoding="UTF-8" standalone="no"?>
<!-- Created with Inkscape (http://www.inkscape.org/) -->

<svg
   width="150"
   height="380"
   viewBox="0 0 39.687502 100.54167"
   version="1.1"
   id="svg8"
   inkscape:version="1.4.3 (0d15f75, 2025-12-25)"
   sodipodi:docname="AxeModule.svg"
   xmlns:inkscape="http://www.inkscape.org/namespaces/inkscape"
   xmlns:sodipodi="http://sodipodi.sourceforge.net/DTD/sodipodi-0.dtd"
   xmlns="http://www.w3.org/2000/svg"
   xmlns:svg="http://www.w3.org/2000/svg"
   xmlns:rdf="http://www.w3.org/1999/02/22-rdf-syntax-ns#"
   xmlns:cc="http://creativecommons.org/ns#"
   xmlns:dc="http://purl.org/dc/elements/1.1/">
  <title
     id="title4816">Autinn Axe</title>
  <defs
     id="defs2">
    <inkscape:path-effect
       effect="spiro"
       id="path-effect4535"
       is_visible="true"
       lpeversion="0" />
    <inkscape:path-effect
       effect="spiro"
       id="path-effect4101"
       is_visible="true"
       lpeversion="0" />
  </defs>
  <sodipodi:namedview
     id="base"
     pagecolor="#ffffff"
     bordercolor="#666666"
     borderopacity="1.0"
     inkscape:pageopacity="0.0"
     inkscape:pageshadow="2"
     inkscape:zoom="3.6680341"
     inkscape:cx="7.6335168"
     inkscape:cy="91.193263"
     inkscape:document-units="px"
     inkscape:current-layer="layer1"
     showgrid="true"
     units="px"
     inkscape:snap-bbox="true"
     inkscape:snap-page="true"
     inkscape:bbox-nodes="false"
     inkscape:snap-bbox-edge-midpoints="true"
     inkscape:window-width="1920"
     inkscape:window-height="1009"
     inkscape:window-x="-8"
     inkscape:window-y="-8"
     inkscape:window-maximized="1"
     inkscape:snap-grids="true"
     inkscape:snap-to-guides="true"
     inkscape:snap-global="false"
     inkscape:pagecheckerboard="true"
     inkscape:snap-others="false"
     inkscape:object-nodes="false"
     inkscape:snap-nodes="false"
     inkscape:showpageshadow="2"
     inkscape:deskcolor="#d1d1d1">
    <inkscape:grid
       type="xygrid"
       id="grid2601"
       originx="0"
       originy="0"
       spacingy="1"
       spacingx="1"
       units="px" />
  </sodipodi:namedview>
  <metadata
     id="metadata5">
    <rdf:RDF>
      <cc:Work
         rdf:about="">
        <dc:format>image/svg+xml</dc:format>
        <dc:type
           rdf:resource="http://purl.org/dc/dcmitype/StillImage" />
        <dc:title>Autinn Saw</dc:title>
      </cc:Work>
    </rdf:RDF>
  </metadata>
  <g
     inkscape:label="Layer 1"
     inkscape:groupmode="layer"
     id="layer1"
     transform="translate(0,-196.45832)">
    <path
       style="opacity:1;vector-effect:none;fill:#202020;fill-opacity:1;fill-rule:evenodd;stroke:none;stroke-width:0.627515;stroke-linecap:butt;stroke-linejoin:round;stroke-miterlimit:4;stroke-dasharray:none;stroke-dashoffset:0;stroke-opacity:1;paint-order:normal"
       d="M 0,196.45831 H 39.687502 V 296.99999 H 0 Z"
       id="rect817"
       inkscape:connector-curvature="0" />
    <path
       style="fill:none;stroke:#5e110a;stroke-width:4.23333;stroke-linecap:butt;stroke-linejoin:miter;stroke-miterlimit:4;stroke-dasharray:none;stroke-opacity:1"
       d="m 23.300958,298.14918 c -5.301665,-6.8287 -8.08307,-15.57026 -7.702235,-24.20703 0.361719,-8.20324 3.443325,-16.05188 4.401277,-24.20702 1.2227,-10.40896 -1.046686,-20.88373 -1.375399,-31.3591 -0.324761,-10.34944 1.269034,-20.75599 4.676357,-30.53385"
       id="path4533" />
    <g
       aria-label="Autinn"
       style="font-style:normal;font-weight:normal;font-size:7.05556px;line-height:1.25;font-family:sans-serif;letter-spacing:0px;word-spacing:0px;fill:#ffd700;fill-opacity:1;stroke:none;stroke-width:0.264583"
       id="text3739"
       transform="matrix(0.8,0,0,0.8,10.537488,58.029465)">
      <path
         d="m 5.0556776,289.41931 q -0.1756999,-0.37896 -0.3858507,-0.93706 -0.2101508,-0.55811 -0.4409722,-1.25057 -0.1171332,0.32728 -0.4375271,0.9095 -0.3169488,0.58223 -0.7820367,1.31948 0.106798,0.007 0.2239312,0.007 0.1205784,0 0.3617351,0 0.3927408,0 0.7544759,-0.0103 0.3651801,-0.0138 0.7062445,-0.0379 z m 0.1481391,0.35485 q -0.099908,0 -0.2480469,0.003 -0.144694,0.003 -0.1963704,0.003 -1.2057834,0 -1.6467556,0.13436 -0.4409722,0.13436 -0.7165798,0.50643 -0.3135037,0.4203 -0.6924642,1.01975 -0.3789605,0.596 -0.4719781,0.596 -0.041341,0 -0.065457,-0.0241 -0.027561,-0.0241 -0.027561,-0.0689 0,-0.0413 0.4478624,-0.75448 0.4478624,-0.71658 0.8371581,-1.38148 0.7544759,-1.30225 1.1368815,-2.09806 0.3858507,-0.79582 0.3858507,-1.05765 0,-0.0344 -0.010335,-0.0758 -0.010335,-0.0448 -0.010335,-0.0517 0,-0.0413 0.2342665,-0.1688 0.2377116,-0.12747 0.323839,-0.12747 0.037896,0 0.2308214,0.65801 0.1929253,0.65457 0.4616427,1.33325 0.757921,1.93615 1.0610894,2.43568 0.3066135,0.49954 0.6028917,0.49954 0.082682,0 0.1722548,-0.0448 0.089573,-0.0482 0.1033528,-0.0482 0.020671,0 0.048231,0.0379 0.031006,0.0379 0.031006,0.0689 0,0.0207 -0.1550293,0.11714 -0.1550292,0.0965 -0.2928331,0.19292 -0.1274685,0.0965 -0.2928331,0.24116 -0.1619195,0.14125 -0.2067057,0.14125 -0.075792,0 -0.2928331,-0.42375 -0.2135959,-0.42375 -0.7510308,-1.66398 z"
         style="font-style:normal;font-variant:normal;font-weight:normal;font-stretch:normal;font-family:'Calligraph421 BT';-inkscape-font-specification:'Calligraph421 BT';fill:#ffd700;fill-opacity:1;stroke-width:0.264583"
         id="path4612"
         inkscape:connector-curvature="0" />
      <path
         d="m 9.6410995,291.31067 q -0.2446018,0.12058 -0.6097819,0.31006 -0.4306369,0.22738 -0.5167643,0.22738 -0.4960938,0 -0.7269151,-0.31695 -0.2273763,-0.31695 -0.2273763,-1.00941 0,-0.16881 0.01378,-0.55811 0.01378,-0.39274 0.01378,-0.61323 0,-0.0482 -0.01378,-0.14469 -0.01378,-0.0999 -0.01378,-0.15159 0,-0.0276 0.1205783,-0.0654 0.096463,-0.031 0.1619195,-0.0551 0.1515842,-0.0551 0.3066135,-0.12058 0.1584744,-0.0689 0.1722547,-0.0689 0.051677,0 0.082682,0.0241 0.031006,0.0207 0.031006,0.0586 0,0.0413 -0.075792,0.11713 -0.072347,0.0758 -0.106798,0.13781 -0.082682,0.14124 -0.1205783,0.37551 -0.034451,0.23427 -0.034451,0.70969 0,0.65801 0.1584744,0.92329 0.1619195,0.26182 0.5477702,0.26182 0.1412489,0 0.3651801,-0.0654 0.2273763,-0.0655 0.4892035,-0.18604 v -1.5124 q 0,-0.40307 -0.1619194,-0.48575 -0.031006,-0.0138 -0.031006,-0.0276 0,-0.11025 0.082682,-0.13092 0.024116,-0.003 0.044786,-0.0103 0.1515842,-0.0551 0.323839,-0.14125 0.1722546,-0.0861 0.1998156,-0.0861 0.04479,0 0.103352,0.0551 0.05857,0.0551 0.05857,0.093 0,0.003 -0.0069,0.031 -0.04823,0.17914 -0.06546,0.43752 -0.01378,0.23771 -0.02067,0.63045 -0.0069,0.3893 -0.0069,0.86472 0,0.36863 0.02412,0.70625 0.0034,0.0517 0.0034,0.062 0,0.0792 -0.2377112,0.20671 -0.2377116,0.13091 -0.2962782,0.13091 -0.02067,0 -0.031006,-0.031 -0.00689,-0.0276 -0.00689,-0.0965 v -0.10335 q 0,-0.0758 0,-0.17226 0.00345,-0.0965 0.00689,-0.21015 z"
         style="font-style:normal;font-variant:normal;font-weight:normal;font-stretch:normal;font-family:'Calligraph421 BT';-inkscape-font-specification:'Calligraph421 BT';fill:#ffd700;fill-opacity:1;stroke-width:0.264583"
         id="path4614"
         inkscape:connector-curvature="0" />
      <path
         d="m 11.346421,291.48637 q 0.0034,-0.30661 0.0034,-0.60289 0.0034,-0.29628 0.0034,-0.65801 0,-0.21704 -0.0034,-0.46165 0,-0.2446 -0.0034,-0.51331 h -0.19637 q -0.04479,0 -0.05857,-0.0103 -0.01033,-0.0138 -0.01378,-0.0586 0.0034,-0.0723 0.06201,-0.11713 0.02067,-0.0172 0.02756,-0.0241 l 0.799263,-0.72002 q 0.05512,-0.0551 0.07924,-0.0689 0.02412,-0.0172 0.04823,-0.0172 0.02412,0 0.04479,0.0207 0.02067,0.0172 0.02067,0.0448 0,0.0103 -0.03445,0.0827 -0.120578,0.25494 -0.151584,0.50988 h 1.036973 q 0.04823,0 0.06546,0.0344 0.02067,0.0344 0.02067,0.12057 0,0.10336 -0.02412,0.13092 -0.02412,0.0241 -0.158474,0.0241 h -0.981852 q -0.02412,0.30317 -0.0379,0.58912 -0.01034,0.28249 -0.01034,0.53743 0,0.61323 0.16881,0.8785 0.172255,0.26527 0.558105,0.26527 0.199816,0 0.416857,-0.0861 0.217041,-0.0896 0.230821,-0.0896 0.01378,0 0.02412,0.0172 0.01033,0.0138 0.01033,0.031 v 0.0517 q 0,0.13436 -0.36518,0.2825 -0.36518,0.14814 -0.706244,0.14814 -0.268718,0 -0.499539,-0.0896 -0.230822,-0.0896 -0.375516,-0.25149 z"
         style="font-style:normal;font-variant:normal;font-weight:normal;font-stretch:normal;font-family:'Calligraph421 BT';-inkscape-font-specification:'Calligraph421 BT';fill:#ffd700;fill-opacity:1;stroke-width:0.264583"
         id="path4616"
         inkscape:connector-curvature="0" />
      <path
         d="m 14.677829,289.9223 v 1.55718 q 0,0.0482 -0.0069,0.10335 0,0.0138 0,0.0172 0,0.0482 -0.02412,0.0792 -0.02067,0.0276 -0.07579,0.0482 -0.124023,0.0413 -0.261827,0.0861 -0.137804,0.0482 -0.141249,0.0482 -0.02756,0 -0.04134,-0.062 -0.01378,-0.062 -0.01378,-0.31351 v -1.69843 q 0,-0.3893 -0.05512,-0.48576 -0.05512,-0.0999 -0.199816,-0.0999 -0.0379,0 -0.09991,0.0207 -0.05857,0.0207 -0.07579,0.0207 -0.0379,0 -0.06201,-0.0345 -0.02412,-0.0344 -0.02412,-0.093 0.0034,-0.0517 0.203261,-0.10336 0.141249,-0.0344 0.234266,-0.0654 0.16881,-0.0551 0.354845,-0.12747 0.186035,-0.0758 0.210151,-0.0758 0.03445,0 0.07235,0.0344 0.04134,0.0344 0.04134,0.0689 0,0.0138 -0.0034,0.0827 -0.03101,0.47887 -0.03101,0.99219 z m -0.347954,-3.00068 q 0.158474,0 0.268717,0.11369 0.113688,0.11369 0.113688,0.26872 0,0.15847 -0.110243,0.26527 -0.110243,0.1068 -0.272162,0.1068 -0.15503,0 -0.265273,-0.1068 -0.106798,-0.11024 -0.106798,-0.26527 0,-0.15848 0.106798,-0.26872 0.110243,-0.11369 0.265273,-0.11369 z"
         style="font-style:normal;font-variant:normal;font-weight:normal;font-stretch:normal;font-family:'Calligraph421 BT';-inkscape-font-specification:'Calligraph421 BT';fill:#ffd700;fill-opacity:1;stroke-width:0.264583"
         id="path4618"
         inkscape:connector-curvature="0" />
      <path
         d="m 16.014526,291.70686 v -1.5813 q 0,-0.48576 -0.106798,-0.7028 -0.103353,-0.22049 -0.33073,-0.22049 -0.03101,0 -0.07924,0.0103 -0.04479,0.0103 -0.06201,0.0103 -0.03445,0 -0.05512,-0.0276 -0.01722,-0.0276 -0.01722,-0.0792 0,-0.0344 0.130913,-0.0792 0.09646,-0.031 0.151584,-0.0551 0.210151,-0.0861 0.389296,-0.20671 0.04823,-0.031 0.05512,-0.031 0.07235,0 0.20326,0.14814 0.130914,0.14469 0.199816,0.3445 0.347954,-0.2067 0.689019,-0.32383 0.341064,-0.12058 0.575331,-0.12058 0.389296,0 0.56155,0.29628 0.172255,0.29283 0.172255,0.98874 0,0.32039 -0.02067,0.70624 -0.01723,0.38585 -0.01723,0.44097 0,0.0861 0.03101,0.11714 0.03101,0.031 0.110243,0.031 0.04134,0 0.120578,-0.031 0.08268,-0.031 0.120579,-0.031 0.02756,0 0.04479,0.031 0.01722,0.031 0.01722,0.0827 0,0.0724 -0.19637,0.12402 -0.165365,0.0448 -0.282498,0.0861 -0.16881,0.0655 -0.341064,0.15159 -0.16881,0.0896 -0.189481,0.0896 -0.03445,0 -0.05857,-0.0241 -0.02412,-0.0207 -0.02412,-0.0551 0,-0.007 0.01378,-0.0517 0.148139,-0.50987 0.148139,-1.25401 0,-0.68557 -0.18259,-1.00252 -0.18259,-0.31695 -0.571886,-0.31695 -0.1757,0 -0.3514,0.0827 -0.172255,0.0827 -0.327284,0.23771 0,0.0482 0.0034,0.20326 0.0034,0.15159 0.0034,0.25494 0,0.5271 -0.0069,0.97841 -0.0069,0.44786 -0.02067,0.75792 l -0.403076,0.14125 q -0.0034,0 -0.01378,0.003 -0.01033,0.003 -0.02756,0.003 -0.03101,0 -0.04479,-0.0276 -0.01034,-0.0276 -0.01034,-0.0999 z"
         style="font-style:normal;font-variant:normal;font-weight:normal;font-stretch:normal;font-family:'Calligraph421 BT';-inkscape-font-specification:'Calligraph421 BT';fill:#ffd700;fill-opacity:1;stroke-width:0.264583"
         id="path4620"
         inkscape:connector-curvature="0" />
      <path
         d="m 19.790351,291.70686 v -1.5813 q 0,-0.48576 -0.106798,-0.7028 -0.103353,-0.22049 -0.330729,-0.22049 -0.03101,0 -0.07924,0.0103 -0.04479,0.0103 -0.06201,0.0103 -0.03445,0 -0.05512,-0.0276 -0.01723,-0.0276 -0.01723,-0.0792 0,-0.0344 0.130914,-0.0792 0.09646,-0.031 0.151584,-0.0551 0.210151,-0.0861 0.389296,-0.20671 0.04823,-0.031 0.05512,-0.031 0.07235,0 0.203261,0.14814 0.130913,0.14469 0.199815,0.3445 0.347955,-0.2067 0.689019,-0.32383 0.341065,-0.12058 0.575331,-0.12058 0.389296,0 0.561551,0.29628 0.172255,0.29283 0.172255,0.98874 0,0.32039 -0.02067,0.70624 -0.01722,0.38585 -0.01722,0.44097 0,0.0861 0.03101,0.11714 0.03101,0.031 0.110244,0.031 0.04134,0 0.120578,-0.031 0.08268,-0.031 0.120578,-0.031 0.02756,0 0.04479,0.031 0.01723,0.031 0.01723,0.0827 0,0.0724 -0.196371,0.12402 -0.165364,0.0448 -0.282497,0.0861 -0.16881,0.0655 -0.341065,0.15159 -0.168809,0.0896 -0.18948,0.0896 -0.03445,0 -0.05857,-0.0241 -0.02412,-0.0207 -0.02412,-0.0551 0,-0.007 0.01378,-0.0517 0.148139,-0.50987 0.148139,-1.25401 0,-0.68557 -0.18259,-1.00252 -0.18259,-0.31695 -0.571886,-0.31695 -0.1757,0 -0.351399,0.0827 -0.172255,0.0827 -0.327285,0.23771 0,0.0482 0.0034,0.20326 0.0034,0.15159 0.0034,0.25494 0,0.5271 -0.0069,0.97841 -0.0069,0.44786 -0.02067,0.75792 l -0.403076,0.14125 q -0.0034,0 -0.01378,0.003 -0.01033,0.003 -0.02756,0.003 -0.03101,0 -0.04479,-0.0276 -0.01033,-0.0276 -0.01033,-0.0999 z"
         style="font-style:normal;font-variant:normal;font-weight:normal;font-stretch:normal;font-family:'Calligraph421 BT';-inkscape-font-specification:'Calligraph421 BT';fill:#ffd700;fill-opacity:1;stroke-width:0.264583"
         id="path4622"
         inkscape:connector-curvature="0" />
    </g>
    <g
       style="font-style:normal;font-weight:normal;font-size:3.52778px;line-height:1.25;font-family:sans-serif;letter-spacing:0px;word-spacing:0px;fill:#000000;fill-opacity:1;stroke:none;stroke-width:0.264583"
       id="text4707" />
    <g
       style="font-style:normal;font-weight:normal;font-size:13.3333px;line-height:1.25;font-family:sans-serif;letter-spacing:0px;word-spacing:0px;fill:#000000;fill-opacity:1;stroke:none"
       id="flowRoot4709" />
    <g
       aria-label="1V/OCT"
       style="font-style:normal;font-variant:normal;font-weight:500;font-stretch:normal;font-size:2.11667px;line-height:1.25;font-family:OldSansBlack;-inkscape-font-specification:'OldSansBlack, Medium';font-variant-ligatures:normal;font-variant-position:normal;font-variant-caps:normal;font-variant-numeric:normal;font-variant-alternates:normal;font-feature-settings:normal;text-indent:0;text-align:start;text-decoration:none;text-decoration-line:none;text-decoration-style:solid;text-decoration-color:#000000;letter-spacing:0px;word-spacing:0px;text-transform:none;writing-mode:lr-tb;direction:ltr;text-orientation:mixed;dominant-baseline:auto;baseline-shift:baseline;text-anchor:start;white-space:normal;shape-padding:0;opacity:1;vector-effect:none;fill:#ffffff;fill-opacity:1;stroke:none;stroke-width:0.264583;stroke-linecap:butt;stroke-linejoin:miter;stroke-miterlimit:4;stroke-dasharray:none;stroke-dashoffset:0;stroke-opacity:1"
       id="text852">
      <path
         d="m 6.7247001,260.60559 h 0.79375 v -0.25823 H 7.2792668 v -1.33774 H 7.0358501 q -0.067733,0.0635 -0.1629833,0.0847 -0.09525,0.019 -0.1841501,0.0212 v 0.22436 h 0.2730501 v 1.00754 H 6.7247001 Z"
         style="stroke-width:0.264583"
         id="path868" />
      <path
         d="m 8.2925053,260.60559 0.4191,-1.5748 H 8.3729386 l -0.2667,1.06045 -0.254,-1.06045 h -0.33655 l 0.4169834,1.5748 z"
         style="stroke-width:0.264583"
         id="path870" />
      <path
         d="m 8.8928282,260.62676 0.4910667,-1.61714 h -0.2794 l -0.4910667,1.61714 z"
         style="stroke-width:0.264583"
         id="path872" />
      <path
         d="m 10.493756,260.41086 q 0.169333,-0.20955 0.169333,-0.59267 0,-0.16298 -0.03598,-0.30903 -0.03387,-0.14817 -0.1143,-0.25824 -0.07832,-0.11218 -0.205317,-0.17568 -0.124883,-0.0656 -0.3090329,-0.0656 -0.18415,0 -0.31115,0.0656 -0.1270001,0.0635 -0.2074334,0.17568 -0.078317,0.11007 -0.1143,0.25824 -0.033867,0.14605 -0.033867,0.30903 0,0.16298 0.033867,0.31115 0.035983,0.14605 0.1143,0.25823 0.080433,0.11007 0.2074334,0.17569 0.127,0.0635 0.31115,0.0635 0.3238499,0 0.4952999,-0.2159 z m -0.249767,-0.98214 q 0.08043,0.13124 0.08043,0.38947 0,0.25823 -0.08043,0.38947 -0.0762,0.127 -0.2455329,0.127 -0.17145,0 -0.24765,-0.127 -0.080433,-0.13124 -0.080433,-0.38947 0,-0.25823 0.080433,-0.38947 0.0762,-0.127 0.24765,-0.127 0.1693329,0 0.2455329,0.127 z"
         style="stroke-width:0.264583"
         id="path874" />
      <path
         d="m 11.753107,260.52092 q 0.07408,-0.0529 0.129116,-0.13335 0.05715,-0.0804 0.103717,-0.20108 l -0.3175,-0.0825 q -0.02328,0.0508 -0.04868,0.0931 -0.0254,0.0423 -0.05715,0.0741 -0.03175,0.0296 -0.0762,0.0466 -0.04233,0.0169 -0.103717,0.0169 -0.156633,0 -0.224367,-0.12489 -0.07408,-0.12911 -0.07408,-0.381 0,-0.0466 0.0021,-0.10371 0.0042,-0.0571 0.01482,-0.1143 0.01058,-0.0593 0.02963,-0.1143 0.02117,-0.055 0.05292,-0.0974 0.03175,-0.0444 0.07832,-0.0698 0.04868,-0.0275 0.112183,-0.0275 0.110067,0 0.169334,0.0635 0.05927,0.0635 0.09313,0.16087 l 0.309033,-0.0741 q -0.04022,-0.13759 -0.09525,-0.22225 -0.05292,-0.0868 -0.127,-0.13124 -0.14605,-0.0889 -0.338666,-0.0889 -0.1778,0 -0.300567,0.0677 -0.122767,0.0677 -0.198967,0.18203 -0.07408,0.11218 -0.10795,0.25823 -0.03175,0.14605 -0.03175,0.30057 0,0.15663 0.03175,0.30268 0.03387,0.14394 0.10795,0.25824 0.07408,0.11218 0.19685,0.17991 0.122767,0.0677 0.300567,0.0677 0.224367,0 0.370417,-0.10584 z"
         style="stroke-width:0.264583"
         id="path876" />
      <path
         d="m 12.754984,259.32077 h 0.40005 v -0.28998 h -1.134533 v 0.28998 h 0.397933 v 1.28482 h 0.33655 z"
         style="stroke-width:0.264583"
         id="path878" />
    </g>
    <g
       aria-label="OUT"
       style="font-style:normal;font-variant:normal;font-weight:500;font-stretch:normal;font-size:2.11667px;line-height:1.25;font-family:OldSansBlack;-inkscape-font-specification:'OldSansBlack, Medium';font-variant-ligatures:normal;font-variant-position:normal;font-variant-caps:normal;font-variant-numeric:normal;font-variant-alternates:normal;font-feature-settings:normal;text-indent:0;text-align:start;text-decoration:none;text-decoration-line:none;text-decoration-style:solid;text-decoration-color:#000000;letter-spacing:0px;word-spacing:0px;text-transform:none;writing-mode:lr-tb;direction:ltr;text-orientation:mixed;dominant-baseline:auto;baseline-shift:baseline;text-anchor:start;white-space:normal;shape-padding:0;opacity:1;vector-effect:none;fill:#ffffff;fill-opacity:1;stroke:none;stroke-width:0.264583;stroke-linecap:butt;stroke-linejoin:miter;stroke-miterlimit:4;stroke-dasharray:none;stroke-dashoffset:0;stroke-opacity:1"
       id="text856">
      <path
         d="m 9.0544391,272.9581 q 0.1693334,-0.20955 0.1693334,-0.59267 0,-0.16298 -0.035983,-0.30903 -0.033867,-0.14817 -0.1143,-0.25824 -0.078317,-0.11218 -0.2053167,-0.17568 -0.1248833,-0.0656 -0.3090333,-0.0656 -0.18415,0 -0.31115,0.0656 -0.127,0.0635 -0.2074334,0.17568 -0.078317,0.11007 -0.1143,0.25824 -0.033867,0.14605 -0.033867,0.30903 0,0.16298 0.033867,0.31115 0.035983,0.14605 0.1143,0.25823 0.080433,0.11007 0.2074334,0.17569 0.127,0.0635 0.31115,0.0635 0.32385,0 0.4952996,-0.2159 z m -0.2497667,-0.98214 q 0.080433,0.13124 0.080433,0.38947 0,0.25823 -0.080433,0.38947 -0.0762,0.127 -0.2455333,0.127 -0.17145,0 -0.24765,-0.127 -0.080433,-0.13124 -0.080433,-0.38947 0,-0.25823 0.080433,-0.38947 0.0762,-0.127 0.24765,-0.127 0.1693333,0 0.2455333,0.127 z"
         style="stroke-width:0.264583"
         id="path881" />
      <path
         d="m 10.481006,273.01525 q 0.156634,-0.15875 0.156634,-0.45932 v -0.9779 h -0.33655 v 0.97367 q 0,0.18203 -0.06138,0.25611 -0.02963,0.036 -0.08255,0.055 -0.0508,0.019 -0.131233,0.019 -0.1502834,0 -0.2074334,-0.0762 -0.061383,-0.0741 -0.061383,-0.25824 v -0.96943 h -0.33655 v 0.99272 q 0,0.2921 0.15875,0.44873 0.1608667,0.15452 0.4508494,0.15452 0.294217,0 0.45085,-0.15875 z"
         style="stroke-width:0.264583"
         id="path883" />
      <path
         d="m 11.551312,271.86801 h 0.40005 v -0.28998 h -1.134533 v 0.28998 h 0.397933 v 1.28482 h 0.33655 z"
         style="stroke-width:0.264583"
         id="path885" />
    </g>
    <path
       d="m 18.439,206.59954 h -0.977904 l -0.253714,-0.74144 h -1.359707 l -0.253713,0.74144 h -0.953273 l 1.35478,-3.66776 h 1.088752 z m -1.460698,-1.4139 -0.450774,-1.31537 -0.450772,1.31537 z m 5.313202,1.4139 h -1.093677 l -0.790699,-1.20699 -0.805479,1.20699 h -1.044413 l 1.30059,-1.84743 -1.273495,-1.82033 h 1.091215 l 0.763603,1.14294 0.785773,-1.14294 h 1.046877 l -1.280884,1.78338 z m 3.18004,0 h -2.652907 v -3.66776 h 2.652907 v 0.70942 h -1.71195 v 0.63305 h 1.588788 v 0.70941 h -1.588788 v 0.90646 h 1.71195 z"
       id="text1"
       style="font-weight:bold;font-size:4.5861px;font-family:Sans;-inkscape-font-specification:'Sans Bold';fill:#ffffff;stroke-width:6.1204"
       aria-label="AXE" />
    <path
       d="m 28.377873,259.48685 h -0.480591 v 1.24127 h -0.396876 v -1.24127 h -0.480591 v -0.29766 h 1.358058 z m 1.59267,-0.29766 -0.567408,0.94362 v 0.59531 H 29.00626 v -0.57671 l -0.57671,-0.96222 h 0.450619 l 0.332797,0.59532 0.321428,-0.59532 z m 1.475881,0.48576 q 0,0.10335 -0.03617,0.20257 -0.03617,0.0982 -0.103353,0.16537 -0.09198,0.091 -0.205673,0.13746 -0.112654,0.0465 -0.28112,0.0465 h -0.247014 v 0.50126 h -0.396875 v -1.53893 h 0.653191 q 0.146761,0 0.247014,0.0258 0.101286,0.0248 0.1788,0.0754 0.09302,0.061 0.141594,0.15606 0.04961,0.0951 0.04961,0.22841 z m -0.410311,0.009 q 0,-0.0651 -0.03514,-0.11162 -0.03514,-0.0475 -0.08165,-0.0661 -0.06201,-0.0248 -0.120923,-0.0269 -0.05891,-0.003 -0.157097,-0.003 h -0.06821 v 0.46096 h 0.113689 q 0.101286,0 0.166398,-0.0124 0.06615,-0.0124 0.110588,-0.0496 0.03824,-0.0331 0.05478,-0.0785 0.01757,-0.0465 0.01757,-0.11266 z m 1.804544,1.04387 h -1.113112 v -1.53893 h 1.113112 v 0.29766 h -0.718304 v 0.26562 h 0.666627 v 0.29765 h -0.666627 v 0.38034 h 0.718304 z"
       id="text2"
       style="font-weight:bold;font-size:2.11667px;font-family:Sans;-inkscape-font-specification:'Sans Bold';fill:#ffffff;stroke-width:5.564"
       aria-label="TYPE" />
    <path
       d="m 28.167723,239.47882 q 0,0.18948 -0.161058,0.30834 -0.160197,0.11799 -0.435805,0.11799 -0.159336,0 -0.278192,-0.0276 -0.117994,-0.0284 -0.221347,-0.0715 v -0.30747 h 0.03617 q 0.102492,0.0818 0.229099,0.12575 0.127469,0.0439 0.244602,0.0439 0.03014,0 0.07924,-0.005 0.04909,-0.005 0.0801,-0.0172 0.0379,-0.0155 0.06201,-0.0388 0.02498,-0.0232 0.02498,-0.0689 0,-0.0422 -0.03617,-0.0724 -0.03531,-0.031 -0.104214,-0.0474 -0.07235,-0.0172 -0.153307,-0.0319 -0.0801,-0.0155 -0.150723,-0.0387 -0.16192,-0.0525 -0.233405,-0.14211 -0.07062,-0.0904 -0.07062,-0.22393 0,-0.17915 0.160197,-0.29198 0.161059,-0.11369 0.413412,-0.11369 0.126607,0 0.24977,0.025 0.124023,0.0241 0.214457,0.0611 v 0.29542 h -0.03531 q -0.07752,-0.062 -0.190342,-0.10335 -0.111966,-0.0422 -0.229099,-0.0422 -0.04134,0 -0.08268,0.006 -0.04048,0.005 -0.07838,0.0207 -0.03359,0.0129 -0.05771,0.0396 -0.02411,0.0258 -0.02411,0.0594 0,0.0508 0.03876,0.0784 0.03876,0.0267 0.146417,0.0491 0.07062,0.0146 0.13522,0.0284 0.06546,0.0138 0.140387,0.0379 0.147278,0.0482 0.217042,0.13177 0.07062,0.0827 0.07062,0.21532 z m 1.411629,0.40308 h -0.341926 l -0.08871,-0.25925 h -0.475424 l -0.08871,0.25925 h -0.333313 l 0.473701,-1.28244 h 0.380683 z m -0.510736,-0.49437 -0.157613,-0.45993 -0.157613,0.45993 z m 2.464967,-0.78807 -0.345371,1.28244 h -0.366041 l -0.229961,-0.83544 -0.223931,0.83544 h -0.366042 l -0.345371,-1.28244 h 0.345371 l 0.197232,0.88281 0.23599,-0.88281 h 0.329868 l 0.224792,0.88281 0.206706,-0.88281 z"
       id="text3"
       style="font-weight:bold;font-size:1.76389px;font-family:Sans;-inkscape-font-specification:'Sans Bold';fill:#ffffff;stroke-width:5.564"
       aria-label="SAW" />
    <path
       d="m 28.239853,243.44609 q 0,0.18948 -0.161058,0.30834 -0.160197,0.11799 -0.435805,0.11799 -0.159336,0 -0.278192,-0.0276 -0.117994,-0.0284 -0.221347,-0.0715 v -0.30747 h 0.03617 q 0.102492,0.0818 0.229099,0.12575 0.127469,0.0439 0.244602,0.0439 0.03015,0 0.07924,-0.005 0.04909,-0.005 0.0801,-0.0172 0.0379,-0.0155 0.06201,-0.0388 0.02498,-0.0232 0.02498,-0.0689 0,-0.0422 -0.03617,-0.0724 -0.03531,-0.031 -0.104214,-0.0474 -0.07235,-0.0172 -0.153307,-0.0319 -0.0801,-0.0155 -0.150723,-0.0387 -0.161919,-0.0525 -0.233405,-0.14211 -0.07062,-0.0904 -0.07062,-0.22393 0,-0.17915 0.160197,-0.29198 0.161059,-0.11369 0.413412,-0.11369 0.126607,0 0.24977,0.025 0.124023,0.0241 0.214457,0.0611 v 0.29542 h -0.03531 q -0.07751,-0.062 -0.190342,-0.10335 -0.111966,-0.0422 -0.229099,-0.0422 -0.04134,0 -0.08268,0.006 -0.04048,0.005 -0.07838,0.0207 -0.03359,0.0129 -0.05771,0.0396 -0.02411,0.0258 -0.02411,0.0594 0,0.0508 0.03876,0.0784 0.03876,0.0267 0.146417,0.0491 0.07062,0.0146 0.13522,0.0284 0.06546,0.0138 0.140388,0.0379 0.147278,0.0482 0.217041,0.13177 0.07062,0.0827 0.07062,0.21532 z m 1.035252,0.087 q 0.04823,-0.0586 0.07149,-0.1378 0.02325,-0.0801 0.02325,-0.18776 0,-0.11541 -0.0267,-0.19637 -0.0267,-0.081 -0.06976,-0.13092 -0.04392,-0.0517 -0.101631,-0.0749 -0.05684,-0.0232 -0.118856,-0.0232 -0.06287,0 -0.118856,0.0224 -0.05512,0.0224 -0.10163,0.0741 -0.04306,0.0482 -0.07062,0.1335 -0.0267,0.0844 -0.0267,0.19637 0,0.11455 0.02584,0.19551 0.0267,0.0801 0.06976,0.13091 0.04306,0.0508 0.10077,0.0749 0.0577,0.0241 0.121439,0.0241 0.06374,0 0.12144,-0.0241 0.0577,-0.025 0.100769,-0.0767 z m 0.03531,0.30058 q 0.0034,0.0853 0.04651,0.1223 0.04306,0.037 0.147278,0.037 0.03531,0 0.08354,-0.0121 0.04823,-0.0121 0.06718,-0.0215 h 0.03273 v 0.22738 q -0.04823,0.0112 -0.105076,0.0198 -0.05598,0.009 -0.172255,0.009 -0.102491,0 -0.179145,-0.0258 -0.07579,-0.025 -0.126607,-0.0715 -0.04995,-0.0456 -0.07493,-0.10765 -0.02498,-0.062 -0.02928,-0.13781 -0.287666,-0.0164 -0.448724,-0.19206 -0.160197,-0.17656 -0.160197,-0.47198 0,-0.3092 0.1757,-0.48834 0.1757,-0.18001 0.484897,-0.18001 0.308336,0 0.484898,0.18001 0.176561,0.17914 0.176561,0.48834 0,0.22824 -0.103353,0.39446 -0.103353,0.16537 -0.299724,0.23082 z m 1.778532,-0.44872 q 0,0.23771 -0.144694,0.36432 -0.144694,0.12661 -0.426331,0.12661 -0.281637,0 -0.426331,-0.12661 -0.143833,-0.12661 -0.143833,-0.36346 v -0.81907 h 0.332452 v 0.80012 q 0,0.1335 0.05598,0.19896 0.05598,0.0654 0.181729,0.0654 0.124024,0 0.180868,-0.0629 0.0577,-0.0629 0.0577,-0.20154 v -0.80012 h 0.332452 z m 1.494311,0.46423 h -0.341925 l -0.08871,-0.25925 H 31.6772 l -0.08871,0.25925 h -0.333313 l 0.473701,-1.28244 h 0.380684 z m -0.510735,-0.49437 -0.157614,-0.45993 -0.157613,0.45993 z m 1.414212,-0.39533 q 0,-0.0482 -0.01981,-0.0827 -0.01981,-0.0344 -0.06804,-0.0543 -0.03359,-0.0138 -0.07838,-0.0164 -0.04479,-0.003 -0.104214,-0.003 H 33.09658 v 0.34537 h 0.10163 q 0.07924,0 0.132637,-0.008 0.0534,-0.008 0.08957,-0.0353 0.03445,-0.0267 0.04995,-0.0586 0.01636,-0.0327 0.01636,-0.087 z m 0.515904,0.8897 h -0.403938 l -0.349678,-0.47026 H 33.09658 v 0.47026 h -0.329007 v -1.28244 h 0.554661 q 0.113688,0 0.195509,0.0129 0.08182,0.0129 0.153307,0.056 0.07235,0.0431 0.114549,0.11197 0.04306,0.068 0.04306,0.17139 0,0.14211 -0.06632,0.23168 -0.06546,0.0896 -0.187758,0.149 z m 1.072286,0 h -0.927593 v -1.28244 h 0.927593 v 0.24805 h -0.598586 v 0.22134 h 0.555522 v 0.24805 h -0.555522 v 0.31695 h 0.598586 z"
       id="text4"
       style="font-weight:bold;font-size:1.76389px;font-family:Sans;-inkscape-font-specification:'Sans Bold';fill:#ffffff;stroke-width:5.564"
       aria-label="SQUARE" />
    <path
       d="m 19.0745,218.67503 h -0.410312 l -0.106453,-0.31109 h -0.570509 l -0.106454,0.31109 h -0.399976 l 0.568442,-1.53892 h 0.45682 z m -0.612884,-0.59324 -0.189136,-0.55191 -0.189136,0.55191 z m 2.195218,0.50539 q -0.103353,0.0403 -0.273885,0.0806 -0.170533,0.0393 -0.340032,0.0393 -0.392741,0 -0.61495,-0.2129 -0.222209,-0.21394 -0.222209,-0.59015 0,-0.35863 0.224276,-0.57774 0.224276,-0.22015 0.625286,-0.22015 0.151929,0 0.289388,0.0279 0.13746,0.0269 0.305925,0.10852 v 0.3607 h -0.04444 q -0.02894,-0.0217 -0.08475,-0.061 -0.05581,-0.0403 -0.107487,-0.0682 -0.05994,-0.0331 -0.14056,-0.0568 -0.07958,-0.0238 -0.169499,-0.0238 -0.10542,0 -0.191203,0.031 -0.08578,0.031 -0.153996,0.0951 -0.06511,0.062 -0.103353,0.15813 -0.03721,0.0951 -0.03721,0.22014 0,0.25528 0.135392,0.39067 0.135392,0.1354 0.399976,0.1354 0.02274,0 0.04961,-0.001 0.02791,-0.001 0.05064,-0.003 v -0.30179 h -0.306959 v -0.29042 h 0.710035 z m 1.468647,0.0879 h -1.113112 v -1.53892 h 1.113112 v 0.29765 h -0.718304 v 0.26562 h 0.666627 v 0.29766 h -0.666627 v 0.38034 h 0.718304 z"
       id="text5"
       style="font-weight:bold;font-size:2.11667px;font-family:Sans;-inkscape-font-specification:'Sans Bold';fill:#ffffff;stroke-width:5.564"
       aria-label="AGE" />
    <path
       d="m 17.817419,228.03719 h -0.707968 v 0.28629 h 0.656292 v 0.29766 h -0.656292 v 0.65732 h -0.394808 v -1.53893 h 1.102776 z m 1.136884,0.17363 q 0,-0.0579 -0.02377,-0.0992 -0.02377,-0.0413 -0.08165,-0.0651 -0.04031,-0.0165 -0.09405,-0.0196 -0.05374,-0.004 -0.125057,-0.004 h -0.143661 v 0.41445 h 0.121957 q 0.09509,0 0.159164,-0.009 0.06408,-0.009 0.107487,-0.0424 0.04134,-0.032 0.05994,-0.0703 0.01964,-0.0393 0.01964,-0.10439 z m 0.619084,1.06764 h -0.484725 l -0.419614,-0.56431 h -0.182935 v 0.56431 h -0.394808 v -1.53893 h 0.665593 q 0.136426,0 0.234612,0.0155 0.09819,0.0155 0.183968,0.0672 0.08682,0.0517 0.13746,0.13436 0.05168,0.0816 0.05168,0.20567 0,0.17053 -0.07958,0.27802 -0.07855,0.10749 -0.225309,0.1788 z m 1.286745,0 H 19.74702 v -1.53893 h 1.113112 v 0.29766 h -0.718303 v 0.26562 h 0.666627 v 0.29766 h -0.666627 v 0.38033 h 0.718303 z m 1.303282,-0.3793 q 0.05788,-0.0703 0.08578,-0.16537 0.02791,-0.0961 0.02791,-0.22531 0,-0.13849 -0.03204,-0.23564 -0.03204,-0.0972 -0.08372,-0.1571 -0.05271,-0.062 -0.121956,-0.0899 -0.06821,-0.0279 -0.142628,-0.0279 -0.07545,0 -0.142627,0.0269 -0.06615,0.0269 -0.121956,0.0889 -0.05168,0.0579 -0.08475,0.1602 -0.03204,0.10129 -0.03204,0.23564 0,0.13746 0.03101,0.23462 0.03204,0.0961 0.08372,0.15709 0.05168,0.061 0.120923,0.0899 0.06925,0.0289 0.145727,0.0289 0.07648,0 0.145728,-0.0289 0.06925,-0.03 0.120923,-0.092 z m 0.04237,0.3607 q 0.0041,0.10232 0.05581,0.14676 0.05168,0.0444 0.176733,0.0444 0.04237,0 0.100253,-0.0145 0.05788,-0.0145 0.08062,-0.0258 h 0.03927 v 0.27285 q -0.05788,0.0134 -0.126091,0.0238 -0.06718,0.0103 -0.206706,0.0103 -0.12299,0 -0.214974,-0.031 -0.09095,-0.03 -0.151929,-0.0858 -0.05994,-0.0548 -0.08992,-0.12919 -0.02997,-0.0744 -0.03514,-0.16536 -0.345199,-0.0196 -0.538469,-0.23048 -0.192237,-0.21187 -0.192237,-0.56638 0,-0.37103 0.21084,-0.58601 0.210841,-0.216 0.581878,-0.216 0.370004,0 0.581877,0.216 0.211874,0.21498 0.211874,0.58601 0,0.27389 -0.124024,0.47336 -0.124023,0.19844 -0.359668,0.27699 z"
       id="text6"
       style="font-weight:bold;font-size:2.11667px;font-family:Sans;-inkscape-font-specification:'Sans Bold';fill:#ffffff;stroke-width:5.564"
       aria-label="FREQ" />
  </g>
</svg>
