<?xml version="1.0" encoding="UTF-8" standalone="no"?>
<svg
   width="50.799999mm"
   height="128.5mm"
   viewBox="0 0 50.8 128.5"
   version="1.1"
   id="svg23"
   sodipodi:docname="CoilModule.svg"
   inkscape:version="1.4.3 (0d15f75, 2025-12-25)"
   xmlns:inkscape="http://www.inkscape.org/namespaces/inkscape"
   xmlns:sodipodi="http://sodipodi.sourceforge.net/DTD/sodipodi-0.dtd"
   xmlns="http://www.w3.org/2000/svg"
   xmlns:svg="http://www.w3.org/2000/svg">
  <title
     id="title4876">Autinn Coil</title>
  <defs
     id="defs23">
    <inkscape:path-effect
       effect="fillet_chamfer"
       id="path-effect24"
       is_visible="true"
       lpeversion="1"
       nodesatellites_param="F,0,0,1,0,0,0,1 @ F,0,0,1,0,0,0,1 @ F,0,0,1,0,0,0,1 @ F,0,0,1,0,0,0,1 @ F,0,0,1,0,0,0,1 @ F,0,0,1,0,0,0,1 @ F,0,0,1,0,0,0,1 @ F,0,0,1,0,0,0,1 @ F,0,0,1,0,0,0,1 @ F,0,0,1,0,0,0,1 @ F,0,0,1,0,0,0,1"
       radius="0"
       unit="px"
       method="auto"
       mode="F"
       chamfer_steps="1"
       flexible="false"
       use_knot_distance="true"
       apply_no_radius="true"
       apply_with_radius="true"
       only_selected="false"
       hide_knots="false" />
    <inkscape:path-effect
       effect="fillet_chamfer"
       id="path-effect23"
       is_visible="true"
       lpeversion="1"
       nodesatellites_param="F,0,0,1,0,0,0,1 @ F,0,0,1,0,2.0812356,0,1 @ F,0,0,1,0,0,0,1 @ F,0,0,1,0,0,0,1 @ F,0,0,1,0,0,0,1 @ F,0,0,1,0,0,0,1 @ F,0,0,1,0,0,0,1 @ F,0,0,1,0,0,0,1 @ F,0,0,1,0,0,0,1 @ F,0,0,1,0,0,0,1 @ F,0,0,1,0,0,0,1"
       radius="0"
       unit="px"
       method="auto"
       mode="F"
       chamfer_steps="1"
       flexible="false"
       use_knot_distance="true"
       apply_no_radius="true"
       apply_with_radius="true"
       only_selected="false"
       hide_knots="false" />
  </defs>
  <sodipodi:namedview
     id="namedview23"
     pagecolor="#ffffff"
     bordercolor="#000000"
     borderopacity="0.25"
     inkscape:showpageshadow="2"
     inkscape:pageopacity="0.0"
     inkscape:pagecheckerboard="0"
     inkscape:deskcolor="#d1d1d1"
     inkscape:document-units="mm"
     inkscape:zoom="1.62"
     inkscape:cx="96.296296"
     inkscape:cy="236.7284"
     inkscape:window-width="1920"
     inkscape:window-height="1009"
     inkscape:window-x="-8"
     inkscape:window-y="-8"
     inkscape:window-maximized="1"
     inkscape:current-layer="svg23"
     showgrid="true">
    <inkscape:grid
       id="grid24"
       units="mm"
       originx="0"
       originy="-9.8892629e-08"
       spacingx="1"
       spacingy="1"
       empcolor="#0099e5"
       empopacity="0.30196078"
       color="#0099e5"
       opacity="0.14901961"
       empspacing="10"
       enabled="true"
       visible="true"
       dotted="false" />
  </sodipodi:namedview>
  <rect
     style="fill:#202020;stroke:none"
     width="50.799999"
     height="128.5"
     x="0"
     y="0"
     id="rect1" />
  <path
     style="fill:#202020;stroke:#5e110a;stroke-width:5.564;stroke-dasharray:none;stroke-opacity:1"
     d="m 42.730128,134.42667 c 0,0 -3.896794,-8.99275 -4.484173,-13.79076 -0.584245,-4.77241 -0.197712,-9.73664 1.019568,-14.38803 0.776029,-2.96531 3.076817,-5.37001 3.926552,-8.315043 C 44.611068,93.01484 47.106006,87.371655 45.039864,82.688572 41.719781,75.163328 31.552619,73.266539 24.945156,68.368205 21.196761,65.589394 16.432033,63.714322 13.85842,59.82218 11.664569,56.504362 10.797243,52.250614 10.855762,48.273496 c 0.05664,-3.849145 1.714919,-7.549417 3.233631,-11.086738 2.77671,-6.467398 9.169192,-11.360802 10.624789,-18.246918 1.586045,-7.503238 -2.54071,-22.8663925 -2.54071,-22.8663925"
     id="path23"
     sodipodi:nodetypes="caaaaaaaaac" />
  <g
     transform="matrix(1.2549264,0,0,1.2549264,10.308634,-246.30336)"
     id="text3739"
     style="font-style:normal;font-weight:normal;font-size:7.05556px;line-height:1.25;font-family:sans-serif;letter-spacing:0px;word-spacing:0px;fill:#ffd700;fill-opacity:1;stroke:none;stroke-width:0.264583"
     aria-label="Autinn">
    <path
       inkscape:connector-curvature="0"
       id="path4612"
       style="font-style:normal;font-variant:normal;font-weight:normal;font-stretch:normal;font-family:'Calligraph421 BT';-inkscape-font-specification:'Calligraph421 BT';fill:#ffd700;fill-opacity:1;stroke-width:0.264583"
       d="m 5.0556776,289.41931 q -0.1756999,-0.37896 -0.3858507,-0.93706 -0.2101508,-0.55811 -0.4409722,-1.25057 -0.1171332,0.32728 -0.4375271,0.9095 -0.3169488,0.58223 -0.7820367,1.31948 0.106798,0.007 0.2239312,0.007 0.1205784,0 0.3617351,0 0.3927408,0 0.7544759,-0.0103 0.3651801,-0.0138 0.7062445,-0.0379 z m 0.1481391,0.35485 q -0.099908,0 -0.2480469,0.003 -0.144694,0.003 -0.1963704,0.003 -1.2057834,0 -1.6467556,0.13436 -0.4409722,0.13436 -0.7165798,0.50643 -0.3135037,0.4203 -0.6924642,1.01975 -0.3789605,0.596 -0.4719781,0.596 -0.041341,0 -0.065457,-0.0241 -0.027561,-0.0241 -0.027561,-0.0689 0,-0.0413 0.4478624,-0.75448 0.4478624,-0.71658 0.8371581,-1.38148 0.7544759,-1.30225 1.1368815,-2.09806 0.3858507,-0.79582 0.3858507,-1.05765 0,-0.0344 -0.010335,-0.0758 -0.010335,-0.0448 -0.010335,-0.0517 0,-0.0413 0.2342665,-0.1688 0.2377116,-0.12747 0.323839,-0.12747 0.037896,0 0.2308214,0.65801 0.1929253,0.65457 0.4616427,1.33325 0.757921,1.93615 1.0610894,2.43568 0.3066135,0.49954 0.6028917,0.49954 0.082682,0 0.1722548,-0.0448 0.089573,-0.0482 0.1033528,-0.0482 0.020671,0 0.048231,0.0379 0.031006,0.0379 0.031006,0.0689 0,0.0207 -0.1550293,0.11714 -0.1550292,0.0965 -0.2928331,0.19292 -0.1274685,0.0965 -0.2928331,0.24116 -0.1619195,0.14125 -0.2067057,0.14125 -0.075792,0 -0.2928331,-0.42375 -0.2135959,-0.42375 -0.7510308,-1.66398 z" />
    <path
       inkscape:connector-curvature="0"
       id="path4614"
       style="font-style:normal;font-variant:normal;font-weight:normal;font-stretch:normal;font-family:'Calligraph421 BT';-inkscape-font-specification:'Calligraph421 BT';fill:#ffd700;fill-opacity:1;stroke-width:0.264583"
       d="m 9.6410995,291.31067 q -0.2446018,0.12058 -0.6097819,0.31006 -0.4306369,0.22738 -0.5167643,0.22738 -0.4960938,0 -0.7269151,-0.31695 -0.2273763,-0.31695 -0.2273763,-1.00941 0,-0.16881 0.01378,-0.55811 0.01378,-0.39274 0.01378,-0.61323 0,-0.0482 -0.01378,-0.14469 -0.01378,-0.0999 -0.01378,-0.15159 0,-0.0276 0.1205783,-0.0654 0.096463,-0.031 0.1619195,-0.0551 0.1515842,-0.0551 0.3066135,-0.12058 0.1584744,-0.0689 0.1722547,-0.0689 0.051677,0 0.082682,0.0241 0.031006,0.0207 0.031006,0.0586 0,0.0413 -0.075792,0.11713 -0.072347,0.0758 -0.106798,0.13781 -0.082682,0.14124 -0.1205783,0.37551 -0.034451,0.23427 -0.034451,0.70969 0,0.65801 0.1584744,0.92329 0.1619195,0.26182 0.5477702,0.26182 0.1412489,0 0.3651801,-0.0654 0.2273763,-0.0655 0.4892035,-0.18604 v -1.5124 q 0,-0.40307 -0.1619194,-0.48575 -0.031006,-0.0138 -0.031006,-0.0276 0,-0.11025 0.082682,-0.13092 0.024116,-0.003 0.044786,-0.0103 0.1515842,-0.0551 0.323839,-0.14125 0.1722546,-0.0861 0.1998156,-0.0861 0.04479,0 0.103352,0.0551 0.05857,0.0551 0.05857,0.093 0,0.003 -0.0069,0.031 -0.04823,0.17914 -0.06546,0.43752 -0.01378,0.23771 -0.02067,0.63045 -0.0069,0.3893 -0.0069,0.86472 0,0.36863 0.02412,0.70625 0.0034,0.0517 0.0034,0.062 0,0.0792 -0.2377112,0.20671 -0.2377116,0.13091 -0.2962782,0.13091 -0.02067,0 -0.031006,-0.031 -0.00689,-0.0276 -0.00689,-0.0965 v -0.10335 q 0,-0.0758 0,-0.17226 0.00345,-0.0965 0.00689,-0.21015 z" />
    <path
       inkscape:connector-curvature="0"
       id="path4616"
       style="font-style:normal;font-variant:normal;font-weight:normal;font-stretch:normal;font-family:'Calligraph421 BT';-inkscape-font-specification:'Calligraph421 BT';fill:#ffd700;fill-opacity:1;stroke-width:0.264583"
       d="m 11.346421,291.48637 q 0.0034,-0.30661 0.0034,-0.60289 0.0034,-0.29628 0.0034,-0.65801 0,-0.21704 -0.0034,-0.46165 0,-0.2446 -0.0034,-0.51331 h -0.19637 q -0.04479,0 -0.05857,-0.0103 -0.01033,-0.0138 -0.01378,-0.0586 0.0034,-0.0723 0.06201,-0.11713 0.02067,-0.0172 0.02756,-0.0241 l 0.799263,-0.72002 q 0.05512,-0.0551 0.07924,-0.0689 0.02412,-0.0172 0.04823,-0.0172 0.02412,0 0.04479,0.0207 0.02067,0.0172 0.02067,0.0448 0,0.0103 -0.03445,0.0827 -0.120578,0.25494 -0.151584,0.50988 h 1.036973 q 0.04823,0 0.06546,0.0344 0.02067,0.0344 0.02067,0.12057 0,0.10336 -0.02412,0.13092 -0.02412,0.0241 -0.158474,0.0241 h -0.981852 q -0.02412,0.30317 -0.0379,0.58912 -0.01034,0.28249 -0.01034,0.53743 0,0.61323 0.16881,0.8785 0.172255,0.26527 0.558105,0.26527 0.199816,0 0.416857,-0.0861 0.217041,-0.0896 0.230821,-0.0896 0.01378,0 0.02412,0.0172 0.01033,0.0138 0.01033,0.031 v 0.0517 q 0,0.13436 -0.36518,0.2825 -0.36518,0.14814 -0.706244,0.14814 -0.268718,0 -0.499539,-0.0896 -0.230822,-0.0896 -0.375516,-0.25149 z" />
    <path
       inkscape:connector-curvature="0"
       id="path4618"
       style="font-style:normal;font-variant:normal;font-weight:normal;font-stretch:normal;font-family:'Calligraph421 BT';-inkscape-font-specification:'Calligraph421 BT';fill:#ffd700;fill-opacity:1;stroke-width:0.264583"
       d="m 14.677829,289.9223 v 1.55718 q 0,0.0482 -0.0069,0.10335 0,0.0138 0,0.0172 0,0.0482 -0.02412,0.0792 -0.02067,0.0276 -0.07579,0.0482 -0.124023,0.0413 -0.261827,0.0861 -0.137804,0.0482 -0.141249,0.0482 -0.02756,0 -0.04134,-0.062 -0.01378,-0.062 -0.01378,-0.31351 v -1.69843 q 0,-0.3893 -0.05512,-0.48576 -0.05512,-0.0999 -0.199816,-0.0999 -0.0379,0 -0.09991,0.0207 -0.05857,0.0207 -0.07579,0.0207 -0.0379,0 -0.06201,-0.0345 -0.02412,-0.0344 -0.02412,-0.093 0.0034,-0.0517 0.203261,-0.10336 0.141249,-0.0344 0.234266,-0.0654 0.16881,-0.0551 0.354845,-0.12747 0.186035,-0.0758 0.210151,-0.0758 0.03445,0 0.07235,0.0344 0.04134,0.0344 0.04134,0.0689 0,0.0138 -0.0034,0.0827 -0.03101,0.47887 -0.03101,0.99219 z m -0.347954,-3.00068 q 0.158474,0 0.268717,0.11369 0.113688,0.11369 0.113688,0.26872 0,0.15847 -0.110243,0.26527 -0.110243,0.1068 -0.272162,0.1068 -0.15503,0 -0.265273,-0.1068 -0.106798,-0.11024 -0.106798,-0.26527 0,-0.15848 0.106798,-0.26872 0.110243,-0.11369 0.265273,-0.11369 z" />
    <path
       inkscape:connector-curvature="0"
       id="path4620"
       style="font-style:normal;font-variant:normal;font-weight:normal;font-stretch:normal;font-family:'Calligraph421 BT';-inkscape-font-specification:'Calligraph421 BT';fill:#ffd700;fill-opacity:1;stroke-width:0.264583"
       d="m 16.014526,291.70686 v -1.5813 q 0,-0.48576 -0.106798,-0.7028 -0.103353,-0.22049 -0.33073,-0.22049 -0.03101,0 -0.07924,0.0103 -0.04479,0.0103 -0.06201,0.0103 -0.03445,0 -0.05512,-0.0276 -0.01722,-0.0276 -0.01722,-0.0792 0,-0.0344 0.130913,-0.0792 0.09646,-0.031 0.151584,-0.0551 0.210151,-0.0861 0.389296,-0.20671 0.04823,-0.031 0.05512,-0.031 0.07235,0 0.20326,0.14814 0.130914,0.14469 0.199816,0.3445 0.347954,-0.2067 0.689019,-0.32383 0.341064,-0.12058 0.575331,-0.12058 0.389296,0 0.56155,0.29628 0.172255,0.29283 0.172255,0.98874 0,0.32039 -0.02067,0.70624 -0.01723,0.38585 -0.01723,0.44097 0,0.0861 0.03101,0.11714 0.03101,0.031 0.110243,0.031 0.04134,0 0.120578,-0.031 0.08268,-0.031 0.120579,-0.031 0.02756,0 0.04479,0.031 0.01722,0.031 0.01722,0.0827 0,0.0724 -0.19637,0.12402 -0.165365,0.0448 -0.282498,0.0861 -0.16881,0.0655 -0.341064,0.15159 -0.16881,0.0896 -0.189481,0.0896 -0.03445,0 -0.05857,-0.0241 -0.02412,-0.0207 -0.02412,-0.0551 0,-0.007 0.01378,-0.0517 0.148139,-0.50987 0.148139,-1.25401 0,-0.68557 -0.18259,-1.00252 -0.18259,-0.31695 -0.571886,-0.31695 -0.1757,0 -0.3514,0.0827 -0.172255,0.0827 -0.327284,0.23771 0,0.0482 0.0034,0.20326 0.0034,0.15159 0.0034,0.25494 0,0.5271 -0.0069,0.97841 -0.0069,0.44786 -0.02067,0.75792 l -0.403076,0.14125 q -0.0034,0 -0.01378,0.003 -0.01033,0.003 -0.02756,0.003 -0.03101,0 -0.04479,-0.0276 -0.01034,-0.0276 -0.01034,-0.0999 z" />
    <path
       inkscape:connector-curvature="0"
       id="path4622"
       style="font-style:normal;font-variant:normal;font-weight:normal;font-stretch:normal;font-family:'Calligraph421 BT';-inkscape-font-specification:'Calligraph421 BT';fill:#ffd700;fill-opacity:1;stroke-width:0.264583"
       d="m 19.790351,291.70686 v -1.5813 q 0,-0.48576 -0.106798,-0.7028 -0.103353,-0.22049 -0.330729,-0.22049 -0.03101,0 -0.07924,0.0103 -0.04479,0.0103 -0.06201,0.0103 -0.03445,0 -0.05512,-0.0276 -0.01723,-0.0276 -0.01723,-0.0792 0,-0.0344 0.130914,-0.0792 0.09646,-0.031 0.151584,-0.0551 0.210151,-0.0861 0.389296,-0.20671 0.04823,-0.031 0.05512,-0.031 0.07235,0 0.203261,0.14814 0.130913,0.14469 0.199815,0.3445 0.347955,-0.2067 0.689019,-0.32383 0.341065,-0.12058 0.575331,-0.12058 0.389296,0 0.561551,0.29628 0.172255,0.29283 0.172255,0.98874 0,0.32039 -0.02067,0.70624 -0.01722,0.38585 -0.01722,0.44097 0,0.0861 0.03101,0.11714 0.03101,0.031 0.110244,0.031 0.04134,0 0.120578,-0.031 0.08268,-0.031 0.120578,-0.031 0.02756,0 0.04479,0.031 0.01723,0.031 0.01723,0.0827 0,0.0724 -0.196371,0.12402 -0.165364,0.0448 -0.282497,0.0861 -0.16881,0.0655 -0.341065,0.15159 -0.168809,0.0896 -0.18948,0.0896 -0.03445,0 -0.05857,-0.0241 -0.02412,-0.0207 -0.02412,-0.0551 0,-0.007 0.01378,-0.0517 0.148139,-0.50987 0.148139,-1.25401 0,-0.68557 -0.18259,-1.00252 -0.18259,-0.31695 -0.571886,-0.31695 -0.1757,0 -0.351399,0.0827 -0.172255,0.0827 -0.327285,0.23771 0,0.0482 0.0034,0.20326 0.0034,0.15159 0.0034,0.25494 0,0.5271 -0.0069,0.97841 -0.0069,0.44786 -0.02067,0.75792 l -0.403076,0.14125 q -0.0034,0 -0.01378,0.003 -0.01033,0.003 -0.02756,0.003 -0.03101,0 -0.04479,-0.0276 -0.01033,-0.0276 -0.01033,-0.0999 z" />
  </g>
  <text
     xml:space="preserve"
     style="font-weight:bold;font-size:5.64444px;font-family:sans-serif;-inkscape-font-specification:'sans-serif Bold';writing-mode:lr-tb;direction:ltr;fill:#202020;stroke:#5e110a;stroke-width:5.564;stroke-dasharray:none;stroke-opacity:1"
     x="16.168982"
     y="11.105967"
     id="text24"><tspan
       sodipodi:role="line"
       id="tspan24"
       style="stroke-width:5.564"
       x="16.168982"
       y="11.105967" /></text>
  <g
     aria-label="IN"
     style="font-style:normal;font-variant:normal;font-weight:500;font-stretch:normal;font-size:2.11667px;line-height:1.25;font-family:OldSansBlack;-inkscape-font-specification:'OldSansBlack, Medium';font-variant-ligatures:normal;font-variant-position:normal;font-variant-caps:normal;font-variant-numeric:normal;font-variant-alternates:normal;font-feature-settings:normal;text-indent:0;text-align:start;text-decoration:none;text-decoration-line:none;text-decoration-style:solid;text-decoration-color:#000000;letter-spacing:0px;word-spacing:0px;text-transform:none;writing-mode:lr-tb;direction:ltr;text-orientation:mixed;dominant-baseline:auto;baseline-shift:baseline;text-anchor:start;white-space:normal;shape-padding:0;vector-effect:none;fill:#ffffff;fill-opacity:1;stroke:none;stroke-width:0.264583;stroke-linecap:butt;stroke-linejoin:miter;stroke-miterlimit:4;stroke-dasharray:none;stroke-dashoffset:0;stroke-opacity:1"
     id="text893"
     transform="matrix(1.3,0,0,1.3,5.410701,-256.73299)">
    <path
       d="m 5.092253,273.23038 h 0.3386667 v -1.5748 H 5.092253 Z"
       style="stroke-width:0.264583"
       id="path1716" />
    <path
       d="m 6.582618,273.23038 h 0.3153833 v -1.5748 H 6.576268 v 0.98636 L 6.0068846,271.65558 H 5.6661012 v 1.5748 h 0.3217334 v -1.03294 z"
       style="stroke-width:0.264583"
       id="path1718" />
  </g>
  <g
     aria-label="OUT"
     style="font-style:normal;font-variant:normal;font-weight:500;font-stretch:normal;font-size:2.11667px;line-height:1.25;font-family:OldSansBlack;-inkscape-font-specification:'OldSansBlack, Medium';font-variant-ligatures:normal;font-variant-position:normal;font-variant-caps:normal;font-variant-numeric:normal;font-variant-alternates:normal;font-feature-settings:normal;text-indent:0;text-align:start;text-decoration:none;text-decoration-line:none;text-decoration-style:solid;text-decoration-color:#000000;letter-spacing:0px;word-spacing:0px;text-transform:none;writing-mode:lr-tb;direction:ltr;text-orientation:mixed;dominant-baseline:auto;baseline-shift:baseline;text-anchor:start;white-space:normal;shape-padding:0;vector-effect:none;fill:#ffffff;fill-opacity:1;stroke:none;stroke-width:0.264583;stroke-linecap:butt;stroke-linejoin:miter;stroke-miterlimit:4;stroke-dasharray:none;stroke-dashoffset:0;stroke-opacity:1"
     id="text897"
     transform="matrix(1.3,0,0,1.3,0.7929385,-256.21676)">
    <path
       d="m 28.686384,272.94809 q 0.169334,-0.20955 0.169334,-0.59267 0,-0.16298 -0.03598,-0.30903 -0.03387,-0.14817 -0.1143,-0.25824 -0.07832,-0.11218 -0.205316,-0.17568 -0.124884,-0.0656 -0.309034,-0.0656 -0.18415,0 -0.31115,0.0656 -0.127,0.0635 -0.207433,0.17568 -0.07832,0.11007 -0.1143,0.25824 -0.03387,0.14605 -0.03387,0.30903 0,0.16298 0.03387,0.31115 0.03598,0.14605 0.1143,0.25823 0.08043,0.11007 0.207433,0.17569 0.127,0.0635 0.31115,0.0635 0.32385,0 0.4953,-0.2159 z m -0.249766,-0.98214 q 0.08043,0.13124 0.08043,0.38947 0,0.25823 -0.08043,0.38947 -0.0762,0.127 -0.245534,0.127 -0.17145,0 -0.24765,-0.127 -0.08043,-0.13124 -0.08043,-0.38947 0,-0.25823 0.08043,-0.38947 0.0762,-0.127 0.24765,-0.127 0.169334,0 0.245534,0.127 z"
       style="stroke-width:0.264583"
       id="path1721" />
    <path
       d="m 30.112951,273.00524 q 0.156634,-0.15875 0.156634,-0.45932 v -0.9779 h -0.33655 v 0.97367 q 0,0.18203 -0.06138,0.25611 -0.02963,0.036 -0.08255,0.055 -0.0508,0.019 -0.131233,0.019 -0.150283,0 -0.207433,-0.0762 -0.06138,-0.0741 -0.06138,-0.25824 v -0.96943 h -0.33655 v 0.99272 q 0,0.2921 0.15875,0.44873 0.160867,0.15452 0.45085,0.15452 0.294217,0 0.45085,-0.15875 z"
       style="stroke-width:0.264583"
       id="path1723" />
    <path
       d="m 31.183257,271.858 h 0.40005 v -0.28998 h -1.134533 v 0.28998 h 0.397933 v 1.28482 h 0.33655 z"
       style="stroke-width:0.264583"
       id="path1725" />
  </g>
  <path
     d="m 6.2469025,20.518376 h 0.7455181 q 0.2521808,0 0.3844723,0.03859 0.1777668,0.05236 0.3045462,0.186035 0.1267795,0.133669 0.1929252,0.327972 0.066146,0.192926 0.066146,0.476801 0,0.249425 -0.062012,0.429948 -0.075792,0.220486 -0.2163519,0.356912 -0.1061088,0.103352 -0.2866317,0.16123 -0.1350476,0.04272 -0.3610457,0.04272 H 6.2469025 Z m 0.407899,0.341753 v 1.338074 h 0.3045462 q 0.1708766,0 0.2466686,-0.01929 0.099219,-0.0248 0.1639864,-0.08406 0.066146,-0.05926 0.1074869,-0.194303 0.041341,-0.136426 0.041341,-0.370692 0,-0.234266 -0.041341,-0.359668 -0.041341,-0.125401 -0.1157551,-0.195681 -0.074414,-0.07028 -0.1887911,-0.09509 -0.085438,-0.01929 -0.334863,-0.01929 z m 1.632974,1.678449 v -2.020202 h 0.8585171 q 0.323839,0 0.469911,0.05512 0.14745,0.05374 0.235644,0.192925 0.08819,0.139182 0.08819,0.318327 0,0.227376 -0.133669,0.376204 -0.13367,0.14745 -0.399631,0.186035 0.132292,0.07717 0.21773,0.169499 0.08682,0.09233 0.232888,0.327972 l 0.2466694,0.394119 H 9.6161996 l -0.2949,-0.439594 q -0.157096,-0.235644 -0.214974,-0.296278 -0.05788,-0.06201 -0.122645,-0.08406 -0.06477,-0.02343 -0.205328,-0.02343 h -0.08268 v 0.843359 z m 0.4078991,-1.165819 h 0.30179 q 0.293522,0 0.366558,-0.0248 0.07304,-0.02481 0.114377,-0.08544 0.04134,-0.06063 0.04134,-0.151584 0,-0.101975 -0.05512,-0.163987 -0.05374,-0.06339 -0.152963,-0.07993 -0.04961,-0.0069 -0.297656,-0.0069 h -0.318326 z m 1.6164374,1.165819 v -2.020202 h 0.407899 v 2.020202 z m 1.311892,0 -0.722091,-2.020202 h 0.44235 l 0.511251,1.49517 0.494716,-1.49517 h 0.432703 l -0.723469,2.020202 z m 1.367013,0 v -2.020202 h 1.497926 v 0.341753 h -1.090027 v 0.447862 h 1.014235 v 0.340375 h -1.014235 v 0.549837 h 1.128612 v 0.340375 z"
     id="text2"
     style="font-weight:bold;font-size:2.82222px;font-family:Arial;-inkscape-font-specification:'Arial Bold';fill:#ffffff;stroke-width:5.564"
     aria-label="DRIVE" />
  <path
     d="m 21.765346,22.53858 v -2.020202 h 0.858517 q 0.323838,0 0.46991,0.05512 0.14745,0.05374 0.235645,0.192925 0.08819,0.139181 0.08819,0.318326 0,0.227376 -0.133669,0.376204 -0.13367,0.14745 -0.399631,0.186035 0.132291,0.07717 0.21773,0.169499 0.08682,0.09233 0.232888,0.327973 l 0.246669,0.394118 h -0.487826 l -0.2949,-0.439593 q -0.157096,-0.235645 -0.214973,-0.296278 -0.05788,-0.06201 -0.122646,-0.08406 -0.06477,-0.02343 -0.205327,-0.02343 h -0.08268 v 0.843358 z m 0.407899,-1.165819 h 0.30179 q 0.293522,0 0.366558,-0.0248 0.07304,-0.0248 0.114377,-0.08544 0.04134,-0.06063 0.04134,-0.151584 0,-0.101975 -0.05512,-0.163986 -0.05374,-0.06339 -0.152962,-0.07993 -0.04961,-0.0069 -0.297656,-0.0069 h -0.318326 z m 1.62884,1.165819 v -2.020202 h 1.497926 v 0.341753 h -1.090028 v 0.447862 h 1.014236 v 0.340375 h -1.014236 v 0.549837 h 1.128613 v 0.340375 z m 1.885154,0 v -2.020202 h 1.384928 v 0.341753 h -0.977029 v 0.478179 h 0.843359 v 0.341753 h -0.843359 v 0.858517 z m 1.732193,0 v -2.003666 h 0.407899 v 1.663291 h 1.014235 v 0.340375 z"
     id="text3"
     style="font-weight:bold;font-size:2.82222px;font-family:Arial;-inkscape-font-specification:'Arial Bold';fill:#ffffff;stroke-width:5.564"
     aria-label="REFL" />
  <path
     d="m 38.090763,22.53858 v -2.020203 h 0.61047 l 0.366558,1.378038 0.362424,-1.378038 h 0.611849 v 2.020203 h -0.378961 v -1.590255 l -0.401008,1.590255 h -0.392741 l -0.399631,-1.590255 v 1.590255 z m 2.344041,0 v -2.020203 h 0.407899 v 2.020203 z m 0.591178,0 0.690397,-1.054198 -0.625629,-0.966005 h 0.476801 l 0.405143,0.649056 0.396874,-0.649056 h 0.472667 l -0.628385,0.981163 0.690397,1.03904 h -0.491959 l -0.447863,-0.698665 -0.44924,0.698665 z"
     id="text4"
     style="font-weight:bold;font-size:2.82222px;font-family:Arial;-inkscape-font-specification:'Arial Bold';fill:#ffffff;stroke-width:5.564"
     aria-label="MIX" />
  <path
     d="M 4.7431559,42.62731 V 40.94886 H 4.1437097 V 40.607107 H 5.749123 V 40.94886 H 5.1510549 v 1.67845 z m 1.2691723,0 v -2.020203 h 1.497926 v 0.341753 h -1.090027 v 0.447863 h 1.014235 v 0.340375 h -1.014235 v 0.549837 h 1.128612 v 0.340375 z m 1.886533,0 v -2.020203 h 0.396874 l 0.8268214,1.349099 v -1.349099 h 0.378961 V 42.62731 H 9.0922406 L 8.2778212,41.309906 v 1.317404 z m 1.9306294,-0.657324 0.3968744,-0.03859 q 0.03583,0.199815 0.144694,0.293522 0.110243,0.09371 0.296278,0.09371 0.197059,0 0.296278,-0.08268 0.100597,-0.08406 0.100597,-0.195681 0,-0.07166 -0.04272,-0.121267 -0.04134,-0.05099 -0.146072,-0.0882 -0.07166,-0.0248 -0.326595,-0.08819 -0.327973,-0.0813 -0.460264,-0.199816 -0.1860354,-0.166742 -0.1860354,-0.40652 0,-0.154341 0.08682,-0.28801 0.08819,-0.135048 0.2521814,-0.205328 0.165364,-0.07028 0.398252,-0.07028 0.380339,0 0.571886,0.166743 0.192925,0.166742 0.202571,0.445106 l -0.407899,0.01791 q -0.02618,-0.155718 -0.112999,-0.223242 -0.08544,-0.0689 -0.257693,-0.0689 -0.177767,0 -0.278363,0.07304 -0.06477,0.04685 -0.06477,0.125402 0,0.07166 0.06063,0.122645 0.07717,0.06477 0.374826,0.135048 0.297656,0.07028 0.439594,0.146072 0.143315,0.07441 0.223242,0.205327 0.0813,0.129536 0.0813,0.321083 0,0.173633 -0.09646,0.325217 -0.09646,0.151584 -0.272851,0.225998 -0.176389,0.07304 -0.439594,0.07304 -0.383094,0 -0.588422,-0.176389 Q 9.8694496,42.308989 9.8294866,41.969992 Z M 11.80284,42.62731 v -2.020203 h 0.407899 v 2.020203 z m 0.713823,-0.997699 q 0,-0.308681 0.09233,-0.518142 0.0689,-0.15434 0.187413,-0.276986 0.119889,-0.122645 0.261827,-0.181901 0.188791,-0.07993 0.43546,-0.07993 0.446484,0 0.713823,0.276986 0.268717,0.276985 0.268717,0.770323 0,0.489203 -0.265961,0.766188 -0.265961,0.275608 -0.711067,0.275608 -0.450618,0 -0.716579,-0.27423 -0.265961,-0.275607 -0.265961,-0.75792 z m 0.420301,-0.01378 q 0,0.343132 0.158474,0.520898 0.158474,0.176389 0.402387,0.176389 0.243913,0 0.399631,-0.17501 0.157096,-0.176389 0.157096,-0.527789 0,-0.347265 -0.152962,-0.518142 -0.151584,-0.170876 -0.403765,-0.170876 -0.252181,0 -0.406521,0.173632 -0.15434,0.172255 -0.15434,0.520898 z m 1.861728,1.01148 v -2.020203 h 0.396875 l 0.826822,1.349099 v -1.349099 h 0.37896 v 2.020203 h -0.409277 l -0.81442,-1.317404 v 1.317404 z"
     id="text5"
     style="font-weight:bold;font-size:2.82222px;font-family:Arial;-inkscape-font-specification:'Arial Bold';fill:#ffffff;stroke-width:5.564"
     aria-label="TENSION" />
  <path
     d="m 19.955012,42.627314 v -2.020203 h 0.407899 v 2.020203 z m 0.80064,0 v -2.020203 h 0.396875 l 0.826822,1.349098 v -1.349098 h 0.37896 v 2.020203 h -0.409277 l -0.81442,-1.317404 v 1.317404 z m 2.033983,0 v -2.020203 h 1.497926 v 0.341753 h -1.090027 v 0.447862 h 1.014235 v 0.340376 h -1.014235 v 0.549836 h 1.128612 v 0.340376 z m 1.883777,0 v -2.020203 h 0.858517 q 0.323839,0 0.469911,0.05512 0.14745,0.05374 0.235644,0.192925 0.08819,0.139181 0.08819,0.318326 0,0.227376 -0.133669,0.376204 -0.13367,0.14745 -0.399631,0.186035 0.132291,0.07717 0.21773,0.169499 0.08682,0.09233 0.232888,0.327973 l 0.246669,0.394119 h -0.487825 l -0.2949,-0.439594 q -0.157097,-0.235645 -0.214974,-0.296278 -0.05788,-0.06201 -0.122646,-0.08406 -0.06477,-0.02343 -0.205327,-0.02343 h -0.08268 v 0.843359 z m 0.407899,-1.16582 h 0.30179 q 0.293522,0 0.366558,-0.02481 0.07304,-0.0248 0.114377,-0.08544 0.04134,-0.06063 0.04134,-0.151584 0,-0.101975 -0.05512,-0.163986 -0.05374,-0.06339 -0.152962,-0.07993 -0.04961,-0.0069 -0.297656,-0.0069 h -0.318326 z m 2.083592,1.16582 v -1.67845 h -0.599446 v -0.341753 h 1.605413 v 0.341753 h -0.598068 v 1.67845 z m 1.25677,0 v -2.020203 h 0.407899 v 2.020203 z m 2.61827,0 h -0.443728 l -0.176389,-0.458887 h -0.80753 l -0.166742,0.458887 H 29.01285 l 0.786859,-2.020203 h 0.431326 z m -0.75103,-0.799262 -0.278364,-0.749652 -0.272851,0.749652 z"
     id="text6"
     style="font-weight:bold;font-size:2.82222px;font-family:Arial;-inkscape-font-specification:'Arial Bold';fill:#ffffff;stroke-width:5.564"
     aria-label="INERTIA" />
  <path
     d="m 37.114958,40.607115 h 0.745518 q 0.252181,0 0.384472,0.03858 0.177767,0.05237 0.304546,0.186035 0.12678,0.13367 0.192925,0.327973 0.06615,0.192925 0.06615,0.476801 0,0.249424 -0.06201,0.429947 -0.07579,0.220486 -0.216352,0.356912 -0.106109,0.103353 -0.286632,0.16123 -0.135048,0.04272 -0.361046,0.04272 h -0.767571 z m 0.407899,0.341753 v 1.338074 h 0.304546 q 0.170876,0 0.246668,-0.01929 0.09922,-0.02481 0.163987,-0.08406 0.06615,-0.05926 0.107487,-0.194303 0.04134,-0.136426 0.04134,-0.370692 0,-0.234266 -0.04134,-0.359668 -0.04134,-0.125401 -0.115755,-0.195681 -0.07441,-0.07028 -0.188791,-0.09508 -0.08544,-0.01929 -0.334863,-0.01929 z m 3.453361,1.678449 H 40.53249 l -0.176389,-0.458886 h -0.80753 l -0.166742,0.458886 h -0.432704 l 0.786859,-2.020202 h 0.431326 z m -0.751031,-0.799261 -0.278363,-0.749652 -0.272851,0.749652 z m 0.96187,0.799261 v -2.020202 h 0.610471 l 0.366558,1.378037 0.362423,-1.378037 h 0.611849 v 2.020202 h -0.37896 v -1.590255 l -0.401009,1.590255 h -0.392741 l -0.39963,-1.590255 v 1.590255 z m 2.356444,0 v -2.020202 h 0.654567 q 0.37207,0 0.485069,0.03032 0.173633,0.04548 0.290766,0.198437 0.117133,0.151584 0.117133,0.392741 0,0.186035 -0.06752,0.312814 -0.06752,0.126779 -0.172255,0.199815 -0.103353,0.07166 -0.21084,0.09508 -0.146072,0.02894 -0.423057,0.02894 h -0.265961 v 0.762054 z M 43.9514,40.948868 v 0.573264 h 0.223242 q 0.241156,0 0.32246,-0.03169 0.0813,-0.0317 0.12678,-0.09922 0.04685,-0.06752 0.04685,-0.157096 0,-0.110243 -0.06477,-0.181901 -0.06477,-0.07166 -0.163986,-0.08957 -0.07304,-0.01378 -0.293522,-0.01378 z"
     id="text7"
     style="font-weight:bold;font-size:2.82222px;font-family:Arial;-inkscape-font-specification:'Arial Bold';fill:#ffffff;stroke-width:5.564"
     aria-label="DAMP" />
  <path
     d="m 7.9762895,64.212088 h 0.7455181 q 0.2521808,0 0.3844723,0.03859 0.1777668,0.05236 0.3045462,0.186035 0.1267795,0.133669 0.1929252,0.327972 0.066146,0.192926 0.066146,0.476801 0,0.249425 -0.062012,0.429948 -0.075792,0.220486 -0.2163519,0.356912 -0.1061088,0.103352 -0.2866317,0.16123 -0.1350476,0.04272 -0.3610457,0.04272 H 7.9762895 Z m 0.407899,0.341753 v 1.338074 h 0.3045462 q 0.1708766,0 0.2466686,-0.01929 0.099219,-0.0248 0.1639864,-0.08406 0.066146,-0.05926 0.1074869,-0.194303 0.041341,-0.136426 0.041341,-0.370692 0,-0.234266 -0.041341,-0.359668 -0.041341,-0.125401 -0.1157551,-0.195681 -0.074414,-0.07028 -0.1887911,-0.09509 -0.085438,-0.01929 -0.334863,-0.01929 z m 1.6329745,1.678449 v -2.020202 h 0.858517 q 0.323839,0 0.469911,0.05512 0.14745,0.05374 0.235644,0.192925 0.08819,0.139182 0.08819,0.318327 0,0.227376 -0.133669,0.376204 -0.13367,0.14745 -0.399631,0.186035 0.132292,0.07717 0.21773,0.169499 0.08682,0.09233 0.232888,0.327972 l 0.246669,0.394119 h -0.487825 l -0.2949,-0.439594 q -0.157096,-0.235644 -0.214974,-0.296278 -0.05788,-0.06201 -0.122645,-0.08406 -0.06477,-0.02343 -0.205328,-0.02343 h -0.08268 v 0.843359 z m 0.407899,-1.165819 h 0.30179 q 0.293522,0 0.366558,-0.0248 0.07304,-0.02481 0.114377,-0.08544 0.04134,-0.06063 0.04134,-0.151584 0,-0.101975 -0.05512,-0.163987 -0.05374,-0.06339 -0.152963,-0.07993 -0.04961,-0.0069 -0.297656,-0.0069 h -0.318326 z m 1.616437,1.165819 v -2.020202 h 0.407899 v 2.020202 z m 1.311892,0 -0.722091,-2.020202 h 0.44235 l 0.511251,1.49517 0.494716,-1.49517 h 0.432703 l -0.723469,2.020202 z m 1.367013,0 v -2.020202 h 1.497926 v 0.341753 h -1.090027 v 0.447862 h 1.014235 v 0.340375 h -1.014235 v 0.549837 h 1.128612 v 0.340375 z"
     id="text2-5"
     style="font-weight:bold;font-size:2.82222px;font-family:Arial;-inkscape-font-specification:'Arial Bold';fill:#ffffff;stroke-width:5.564"
     aria-label="DRIVE" />
  <path
     d="M 22.188149,66.232292 V 64.21209 h 0.858517 q 0.323838,0 0.46991,0.05512 0.14745,0.05374 0.235645,0.192925 0.08819,0.139181 0.08819,0.318326 0,0.227376 -0.133669,0.376204 -0.13367,0.14745 -0.399631,0.186035 0.132291,0.07717 0.21773,0.169499 0.08682,0.09233 0.232888,0.327973 l 0.246669,0.394118 h -0.487826 l -0.2949,-0.439593 q -0.157096,-0.235645 -0.214973,-0.296278 -0.05788,-0.06201 -0.122646,-0.08406 -0.06477,-0.02343 -0.205327,-0.02343 h -0.08268 v 0.843358 z m 0.407899,-1.165819 h 0.30179 q 0.293522,0 0.366558,-0.0248 0.07304,-0.0248 0.114377,-0.08544 0.04134,-0.06063 0.04134,-0.151584 0,-0.101975 -0.05512,-0.163986 -0.05374,-0.06339 -0.152962,-0.07993 -0.04961,-0.0069 -0.297656,-0.0069 h -0.318326 z m 1.62884,1.165819 V 64.21209 h 1.497926 v 0.341753 h -1.090028 v 0.447862 h 1.014236 v 0.340375 h -1.014236 v 0.549837 h 1.128613 v 0.340375 z m 1.885154,0 V 64.21209 h 1.384928 v 0.341753 h -0.977029 v 0.478179 H 27.3613 v 0.341753 h -0.843359 v 0.858517 z m 1.732193,0 v -2.003666 h 0.407899 v 1.663291 h 1.014235 v 0.340375 z"
     id="text3-1"
     style="font-weight:bold;font-size:2.82222px;font-family:Arial;-inkscape-font-specification:'Arial Bold';fill:#ffffff;stroke-width:5.564"
     aria-label="REFL" />
  <path
     d="m 35.900397,66.232292 v -2.020203 h 0.61047 l 0.366558,1.378038 0.362424,-1.378038 h 0.611849 v 2.020203 h -0.378961 v -1.590255 l -0.401008,1.590255 h -0.392741 l -0.399631,-1.590255 v 1.590255 z m 2.344041,0 v -2.020203 h 0.407899 v 2.020203 z m 0.591178,0 0.690397,-1.054198 -0.625629,-0.966005 h 0.476801 l 0.405143,0.649056 0.396874,-0.649056 h 0.472667 l -0.628385,0.981163 0.690397,1.03904 h -0.491959 l -0.447863,-0.698665 -0.44924,0.698665 z"
     id="text4-7"
     style="font-weight:bold;font-size:2.82222px;font-family:Arial;-inkscape-font-specification:'Arial Bold';fill:#ffffff;stroke-width:5.564"
     aria-label="MIX" />
  <path
     d="m 6.3092199,78.318193 v -1.67845 H 5.7097737 V 76.29799 H 7.315187 v 0.341753 H 6.7171189 v 1.67845 z m 1.2691723,0 V 76.29799 h 1.497926 v 0.341753 h -1.090027 v 0.447863 h 1.014235 v 0.340375 h -1.014235 v 0.549837 h 1.128612 v 0.340375 z m 1.886533,0 V 76.29799 h 0.396874 l 0.8268218,1.349099 V 76.29799 h 0.378961 v 2.020203 H 10.658305 L 9.8438852,77.000789 v 1.317404 z m 1.9306298,-0.657324 0.396874,-0.03859 q 0.03583,0.199815 0.144694,0.293522 0.110243,0.09371 0.296278,0.09371 0.197059,0 0.296278,-0.08268 0.100597,-0.08406 0.100597,-0.195681 0,-0.07166 -0.04272,-0.121267 -0.04134,-0.05099 -0.146072,-0.0882 -0.07166,-0.0248 -0.326595,-0.08819 -0.327973,-0.0813 -0.460264,-0.199816 -0.186035,-0.166742 -0.186035,-0.40652 0,-0.154341 0.08682,-0.28801 0.08819,-0.135048 0.252181,-0.205328 0.165364,-0.07028 0.398252,-0.07028 0.380339,0 0.571886,0.166743 0.192925,0.166742 0.202571,0.445106 l -0.407899,0.01791 q -0.02618,-0.155718 -0.112999,-0.223242 -0.08544,-0.0689 -0.257693,-0.0689 -0.177767,0 -0.278363,0.07304 -0.06477,0.04685 -0.06477,0.125402 0,0.07166 0.06063,0.122645 0.07717,0.06477 0.374826,0.135048 0.297656,0.07028 0.439594,0.146072 0.143315,0.07441 0.223242,0.205327 0.0813,0.129536 0.0813,0.321083 0,0.173633 -0.09646,0.325217 -0.09646,0.151584 -0.272851,0.225998 -0.176389,0.07304 -0.439594,0.07304 -0.383094,0 -0.588422,-0.176389 -0.205327,-0.177767 -0.24529,-0.516764 z m 1.973349,0.657324 V 76.29799 h 0.407899 v 2.020203 z m 0.713823,-0.997699 q 0,-0.308681 0.09233,-0.518142 0.0689,-0.15434 0.187413,-0.276986 0.119889,-0.122645 0.261827,-0.181901 0.188791,-0.07993 0.43546,-0.07993 0.446484,0 0.713823,0.276986 0.268717,0.276985 0.268717,0.770323 0,0.489203 -0.265961,0.766188 -0.265961,0.275608 -0.711067,0.275608 -0.450618,0 -0.716579,-0.27423 -0.265961,-0.275607 -0.265961,-0.75792 z m 0.420301,-0.01378 q 0,0.343132 0.158474,0.520898 0.158474,0.176389 0.402387,0.176389 0.243913,0 0.399631,-0.17501 0.157096,-0.176389 0.157096,-0.527789 0,-0.347265 -0.152962,-0.518142 -0.151584,-0.170876 -0.403765,-0.170876 -0.252181,0 -0.406521,0.173632 -0.15434,0.172255 -0.15434,0.520898 z m 1.861728,1.01148 v -2.020203 h 0.396875 l 0.826822,1.349099 v -1.349099 h 0.37896 v 2.020203 h -0.409277 l -0.81442,-1.317404 v 1.317404 z"
     id="text5-1"
     style="font-weight:bold;font-size:2.82222px;font-family:Arial;-inkscape-font-specification:'Arial Bold';fill:#ffffff;stroke-width:5.564"
     aria-label="TENSION" />
  <path
     d="m 19.887846,78.318197 v -2.020203 h 0.407899 v 2.020203 z m 0.80064,0 v -2.020203 h 0.396875 l 0.826822,1.349098 v -1.349098 h 0.37896 v 2.020203 h -0.409277 l -0.81442,-1.317404 v 1.317404 z m 2.033983,0 v -2.020203 h 1.497926 v 0.341753 h -1.090027 v 0.447862 h 1.014235 v 0.340376 h -1.014235 v 0.549836 h 1.128612 v 0.340376 z m 1.883777,0 v -2.020203 h 0.858517 q 0.323839,0 0.469911,0.05512 0.14745,0.05374 0.235644,0.192925 0.08819,0.139181 0.08819,0.318326 0,0.227376 -0.133669,0.376204 -0.13367,0.14745 -0.399631,0.186035 0.132291,0.07717 0.21773,0.169499 0.08682,0.09233 0.232888,0.327973 l 0.246669,0.394119 H 25.93467 l -0.2949,-0.439594 q -0.157097,-0.235645 -0.214974,-0.296278 -0.05788,-0.06201 -0.122646,-0.08406 -0.06477,-0.02343 -0.205327,-0.02343 h -0.08268 v 0.843359 z m 0.407899,-1.16582 h 0.30179 q 0.293522,0 0.366558,-0.02481 0.07304,-0.0248 0.114377,-0.08544 0.04134,-0.06063 0.04134,-0.151584 0,-0.101975 -0.05512,-0.163986 -0.05374,-0.06339 -0.152962,-0.07993 -0.04961,-0.0069 -0.297656,-0.0069 h -0.318326 z m 2.083592,1.16582 v -1.67845 h -0.599446 v -0.341753 h 1.605413 v 0.341753 h -0.598068 v 1.67845 z m 1.25677,0 v -2.020203 h 0.407899 v 2.020203 z m 2.61827,0 H 30.529049 L 30.35266,77.85931 h -0.80753 l -0.166742,0.458887 h -0.432704 l 0.786859,-2.020203 h 0.431326 z m -0.75103,-0.799262 -0.278364,-0.749652 -0.272851,0.749652 z"
     id="text6-1"
     style="font-weight:bold;font-size:2.82222px;font-family:Arial;-inkscape-font-specification:'Arial Bold';fill:#ffffff;stroke-width:5.564"
     aria-label="INERTIA" />
  <path
     d="m 34.107977,76.297998 h 0.745518 q 0.252181,0 0.384472,0.03858 0.177767,0.05237 0.304546,0.186035 0.12678,0.13367 0.192925,0.327973 0.06615,0.192925 0.06615,0.476801 0,0.249424 -0.06201,0.429947 -0.07579,0.220486 -0.216352,0.356912 -0.106109,0.103353 -0.286632,0.16123 -0.135048,0.04272 -0.361046,0.04272 h -0.767571 z m 0.407899,0.341753 v 1.338074 h 0.304546 q 0.170876,0 0.246668,-0.01929 0.09922,-0.02481 0.163987,-0.08406 0.06615,-0.05926 0.107487,-0.194303 0.04134,-0.136426 0.04134,-0.370692 0,-0.234266 -0.04134,-0.359668 -0.04134,-0.125401 -0.115755,-0.195681 -0.07441,-0.07028 -0.188791,-0.09508 -0.08544,-0.01929 -0.334863,-0.01929 z M 37.969237,78.3182 H 37.525509 L 37.34912,77.859314 H 36.54159 L 36.374848,78.3182 h -0.432704 l 0.786859,-2.020202 h 0.431326 z m -0.751031,-0.799261 -0.278363,-0.749652 -0.272851,0.749652 z m 0.96187,0.799261 v -2.020202 h 0.610471 l 0.366558,1.378037 0.362423,-1.378037 h 0.611849 V 78.3182 h -0.37896 V 76.727945 L 39.351408,78.3182 h -0.392741 l -0.39963,-1.590255 V 78.3182 Z m 2.356444,0 v -2.020202 h 0.654567 q 0.37207,0 0.485069,0.03032 0.173633,0.04548 0.290766,0.198437 0.117133,0.151584 0.117133,0.392741 0,0.186035 -0.06752,0.312814 -0.06752,0.126779 -0.172255,0.199815 -0.103353,0.07166 -0.21084,0.09508 -0.146072,0.02894 -0.423057,0.02894 h -0.265961 v 0.762054 z m 0.407899,-1.678449 v 0.573264 h 0.223242 q 0.241156,0 0.32246,-0.03169 0.0813,-0.0317 0.12678,-0.09922 0.04685,-0.06752 0.04685,-0.157096 0,-0.110243 -0.06477,-0.181901 -0.06477,-0.07166 -0.163986,-0.08957 -0.07304,-0.01378 -0.293522,-0.01378 z"
     id="text7-5"
     style="font-weight:bold;font-size:2.82222px;font-family:Arial;-inkscape-font-specification:'Arial Bold';fill:#ffffff;stroke-width:5.564"
     aria-label="DAMP" />
  <path
     d="m 32.378589,36.197381 h 0.59474 q 0.201178,0 0.306713,0.03546 0.141815,0.04813 0.242954,0.170996 0.101138,0.122863 0.153907,0.301459 0.05277,0.177328 0.05277,0.438255 0,0.229262 -0.04947,0.39519 -0.06046,0.202662 -0.172595,0.328059 -0.08465,0.095 -0.228662,0.148196 -0.107734,0.03926 -0.288025,0.03926 h -0.612329 z m 0.325403,0.314125 v 1.229902 h 0.242953 q 0.136317,0 0.19678,-0.01773 0.07915,-0.0228 0.130821,-0.07727 0.05277,-0.05447 0.08574,-0.178595 0.03298,-0.125398 0.03298,-0.340725 0,-0.215329 -0.03298,-0.330592 -0.03298,-0.115264 -0.09235,-0.179862 -0.05936,-0.0646 -0.150608,-0.08739 -0.06815,-0.01773 -0.267138,-0.01773 z m 1.30271,1.542761 v -1.856886 h 0.684885 q 0.258344,0 0.374874,0.05067 0.117628,0.04939 0.187985,0.177329 0.07036,0.127931 0.07036,0.292593 0,0.208995 -0.106636,0.345791 -0.106635,0.135531 -0.318807,0.170996 0.105536,0.07093 0.173695,0.155797 0.06926,0.08486 0.185788,0.301458 l 0.196781,0.362258 h -0.389161 l -0.235257,-0.404056 q -0.125324,-0.216593 -0.171496,-0.272326 -0.04617,-0.05699 -0.09784,-0.07727 -0.05167,-0.02153 -0.1638,-0.02153 h -0.06595 v 0.77518 z m 0.325404,-1.071572 h 0.240753 q 0.234159,0 0.292423,-0.02281 0.05827,-0.02281 0.09125,-0.07854 0.03298,-0.05573 0.03298,-0.139328 0,-0.09373 -0.04397,-0.15073 -0.04287,-0.05826 -0.122026,-0.07347 -0.03958,-0.0064 -0.237457,-0.0064 h -0.253945 z m 1.639105,1.071572 V 37.272754 L 35.38087,36.197381 h 0.381468 l 0.379271,0.734648 0.371574,-0.734648 h 0.374873 l -0.59254,1.077906 v 0.77898 z"
     id="text8"
     style="font-weight:bold;font-size:2.82223px;font-family:Arial;-inkscape-font-specification:'Arial Bold';fill:#ffffff;stroke-width:4.76448"
     aria-label="DRY" />
  <path
     d="m 43.98491,38.054264 -0.368013,-2.02021 h 0.318594 l 0.232375,1.387689 0.281794,-1.387689 h 0.370117 l 0.270227,1.411115 0.236581,-1.411115 h 0.313337 l -0.374323,2.02021 h -0.330161 l -0.307029,-1.510334 -0.305977,1.510334 z m 1.813784,0 v -2.02021 h 1.142946 v 0.341755 h -0.831712 v 0.447864 h 0.773881 v 0.340376 h -0.773881 v 0.549839 h 0.861153 v 0.340376 z m 1.78329,0 v -1.678455 h -0.457388 v -0.341755 h 1.224961 v 0.341755 h -0.456338 v 1.678455 z"
     id="text9"
     style="font-weight:bold;font-size:2.82223px;font-family:Arial;-inkscape-font-specification:'Arial Bold';fill:#ffffff;stroke-width:4.8602"
     aria-label="WET" />
  <path
     d="m 20.956765,12.544817 q 0.234598,-0.167569 0.40887,-0.422275 0.180975,-0.254706 0.328436,-0.636764 L 20.688654,11.22437 q -0.07373,0.160866 -0.154164,0.294922 -0.08043,0.134055 -0.180975,0.234597 -0.100542,0.09384 -0.2413,0.147461 -0.134056,0.05362 -0.328436,0.05362 -0.496006,0 -0.710495,-0.395464 -0.234597,-0.408869 -0.234597,-1.2065 0,-0.147461 0.0067,-0.328436 0.01341,-0.1809751 0.04692,-0.3619502 0.03351,-0.1876778 0.09384,-0.3619501 0.06703,-0.1742723 0.16757,-0.3083279 0.100541,-0.1407583 0.248002,-0.2211917 0.154164,-0.087136 0.355248,-0.087136 0.348544,0 0.536222,0.2010834 0.187678,0.2010834 0.294922,0.5094112 L 21.566718,9.1599133 Q 21.439365,8.7242326 21.265093,8.4561215 21.097524,8.1813075 20.862926,8.0405491 20.400435,7.7590324 19.790482,7.7590324 q -0.563034,0 -0.951795,0.2144889 -0.388761,0.214489 -0.630061,0.5764391 -0.234598,0.3552473 -0.341842,0.8177391 -0.100542,0.4624918 -0.100542,0.9517945 0,0.496006 0.100542,0.958498 0.107244,0.455789 0.341842,0.817739 0.234597,0.355247 0.623358,0.569736 0.388761,0.214489 0.951795,0.214489 0.710494,0 1.172986,-0.335139 z m 4.584702,-0.348544 q 0.536223,-0.663576 0.536223,-1.876779 0,-0.5161138 -0.113948,-0.9786056 Q 25.856498,8.8716938 25.601792,8.5231493 25.353789,8.1679019 24.951623,7.9668185 24.556158,7.7590324 23.973017,7.7590324 q -0.583142,0 -0.985309,0.2077861 -0.402167,0.2010834 -0.656872,0.5563308 -0.248003,0.3485445 -0.36195,0.8177391 -0.107245,0.4624918 -0.107245,0.9786056 0,0.516114 0.107245,0.985309 0.113947,0.462492 0.36195,0.817739 0.254705,0.348545 0.656872,0.556331 0.402167,0.201083 0.985309,0.201083 1.025525,0 1.56845,-0.683683 z M 24.750539,9.0861828 q 0.254706,0.4155723 0.254706,1.2333112 0,0.817739 -0.254706,1.233312 -0.2413,0.402166 -0.777522,0.402166 -0.542926,0 -0.784226,-0.402166 -0.254705,-0.415573 -0.254705,-1.233312 0,-0.8177389 0.254705,-1.2333112 0.2413,-0.4021668 0.784226,-0.4021668 0.536222,0 0.777522,0.4021668 z m 2.030941,3.7267452 h 1.072445 V 7.8260602 H 26.78148 Z m 1.809748,0 h 3.170414 V 11.887945 H 29.65697 V 7.8260602 h -1.065742 z"
     id="text10"
     style="font-size:6.70278px;font-family:OldSansBlack;-inkscape-font-specification:OldSansBlack;fill:#ffffff;stroke-width:5.564"
     aria-label="COIL" />
</svg>
