<?xml version="1.0" encoding="UTF-8" standalone="no"?>
<!-- Created with Inkscape (http://www.inkscape.org/) -->

<svg
   width="300"
   height="380"
   viewBox="0 0 79.375012 100.54169"
   version="1.1"
   id="svg8"
   inkscape:version="1.4.3 (0d15f75, 2025-12-25)"
   sodipodi:docname="ExcaviModule.svg"
   xmlns:inkscape="http://www.inkscape.org/namespaces/inkscape"
   xmlns:sodipodi="http://sodipodi.sourceforge.net/DTD/sodipodi-0.dtd"
   xmlns="http://www.w3.org/2000/svg"
   xmlns:svg="http://www.w3.org/2000/svg"
   xmlns:rdf="http://www.w3.org/1999/02/22-rdf-syntax-ns#"
   xmlns:cc="http://creativecommons.org/ns#"
   xmlns:dc="http://purl.org/dc/elements/1.1/">
  <title
     id="title4816">Autinn Bunker</title>
  <defs
     id="defs2">
    <inkscape:path-effect
       effect="spiro"
       id="path-effect4535"
       is_visible="true"
       lpeversion="0" />
    <inkscape:path-effect
       effect="spiro"
       id="path-effect4101"
       is_visible="true"
       lpeversion="0" />
  </defs>
  <sodipodi:namedview
     id="base"
     pagecolor="#ffffff"
     bordercolor="#666666"
     borderopacity="1.0"
     inkscape:pageopacity="0.0"
     inkscape:pageshadow="2"
     inkscape:zoom="1.8526198"
     inkscape:cx="158.69419"
     inkscape:cy="197.28819"
     inkscape:document-units="px"
     inkscape:current-layer="layer1"
     showgrid="true"
     units="px"
     inkscape:snap-bbox="true"
     inkscape:snap-page="true"
     inkscape:bbox-nodes="false"
     inkscape:snap-bbox-edge-midpoints="true"
     inkscape:window-width="1920"
     inkscape:window-height="1009"
     inkscape:window-x="-8"
     inkscape:window-y="-8"
     inkscape:window-maximized="1"
     inkscape:snap-grids="true"
     inkscape:snap-to-guides="true"
     inkscape:snap-global="false"
     inkscape:pagecheckerboard="true"
     inkscape:snap-others="false"
     inkscape:object-nodes="false"
     inkscape:snap-nodes="false"
     inkscape:showpageshadow="2"
     inkscape:deskcolor="#d1d1d1"
     showguides="true">
    <inkscape:grid
       type="xygrid"
       id="grid2601"
       originx="0"
       originy="0"
       spacingy="3.9687508"
       spacingx="3.9687508"
       units="px"
       enabled="true"
       empspacing="5" />
  </sodipodi:namedview>
  <metadata
     id="metadata5">
    <rdf:RDF>
      <cc:Work
         rdf:about="">
        <dc:format>image/svg+xml</dc:format>
        <dc:type
           rdf:resource="http://purl.org/dc/dcmitype/StillImage" />
        <dc:title>Autinn Saw</dc:title>
      </cc:Work>
    </rdf:RDF>
  </metadata>
  <g
     inkscape:label="Layer 1"
     inkscape:groupmode="layer"
     id="layer1"
     transform="translate(0,-196.45832)">
    <path
       style="opacity:1;vector-effect:none;fill:#202020;fill-opacity:1;fill-rule:evenodd;stroke:none;stroke-width:0.88744;stroke-linecap:butt;stroke-linejoin:round;stroke-miterlimit:4;stroke-dasharray:none;stroke-dashoffset:0;stroke-opacity:1;paint-order:normal"
       d="M 0,196.45831 H 79.375003 V 296.99999 H 0 Z"
       id="rect817"
       inkscape:connector-curvature="0" />
    <path
       d="m 34.762019,256.28333 q 0.07408,-0.0529 0.129117,-0.13335 0.05715,-0.0804 0.103717,-0.20109 l -0.3175,-0.0825 q -0.02328,0.0508 -0.04868,0.0931 -0.0254,0.0423 -0.05715,0.0741 -0.03175,0.0296 -0.0762,0.0466 -0.04233,0.0169 -0.103717,0.0169 -0.156633,0 -0.224367,-0.12489 -0.07408,-0.12911 -0.07408,-0.381 0,-0.0466 0.0021,-0.10371 0.0042,-0.0571 0.01482,-0.1143 0.01058,-0.0593 0.02963,-0.1143 0.02117,-0.055 0.05292,-0.0974 0.03175,-0.0445 0.07832,-0.0699 0.04868,-0.0275 0.112183,-0.0275 0.110067,0 0.169334,0.0635 0.05927,0.0635 0.09313,0.16087 l 0.309034,-0.0741 q -0.04022,-0.13759 -0.09525,-0.22225 -0.05292,-0.0868 -0.127,-0.13124 -0.14605,-0.0889 -0.338667,-0.0889 -0.177801,0 -0.300567,0.0677 -0.122767,0.0677 -0.198967,0.18203 -0.07408,0.11218 -0.10795,0.25823 -0.03175,0.14605 -0.03175,0.30057 0,0.15663 0.03175,0.30268 0.03387,0.14394 0.10795,0.25824 0.07408,0.11218 0.19685,0.17992 0.122767,0.0677 0.300567,0.0677 0.224367,0 0.370417,-0.10583 z m 1.227669,0.0847 h 0.376767 l -0.3429,-0.69215 q 0.131233,-0.0466 0.201083,-0.14817 0.07197,-0.10371 0.07197,-0.24341 0,-0.12065 -0.0381,-0.21167 -0.03598,-0.0931 -0.103717,-0.15452 -0.06562,-0.0614 -0.160867,-0.0931 -0.09525,-0.0318 -0.211667,-0.0318 H 35.14937 v 1.5748 h 0.336551 v -0.6223 h 0.2159 z m -0.09102,-1.24248 q 0.02752,0.0233 0.04233,0.0614 0.01482,0.0381 0.01482,0.0931 0,0.0614 -0.02328,0.0974 -0.02328,0.036 -0.06138,0.055 -0.0381,0.019 -0.08678,0.0254 -0.04868,0.004 -0.09737,0.004 h -0.201083 v -0.38524 h 0.23495 q 0.122767,0 0.1778,0.0487 z m 1.722969,1.04775 q 0.169334,-0.20955 0.169334,-0.59267 0,-0.16298 -0.03598,-0.30903 -0.03387,-0.14817 -0.1143,-0.25824 -0.07832,-0.11218 -0.205317,-0.17568 -0.124883,-0.0656 -0.309034,-0.0656 -0.18415,0 -0.31115,0.0656 -0.127,0.0635 -0.207434,0.17568 -0.07832,0.11007 -0.1143,0.25824 -0.03387,0.14605 -0.03387,0.30903 0,0.16298 0.03387,0.31115 0.03598,0.14605 0.1143,0.25824 0.08043,0.11006 0.207434,0.17568 0.127,0.0635 0.31115,0.0635 0.323851,0 0.495301,-0.2159 z m -0.249767,-0.98214 q 0.08043,0.13124 0.08043,0.38947 0,0.25823 -0.08043,0.38947 -0.0762,0.127 -0.245534,0.127 -0.17145,0 -0.24765,-0.127 -0.08043,-0.13124 -0.08043,-0.38947 0,-0.25823 0.08043,-0.38947 0.0762,-0.127 0.24765,-0.127 0.169334,0 0.245534,0.127 z m 1.517652,1.07527 q 0.148167,-0.127 0.148167,-0.35772 0,-0.21378 -0.150284,-0.32596 -0.141816,-0.11007 -0.321733,-0.17145 -0.127001,-0.0444 -0.228601,-0.1016 -0.04868,-0.0275 -0.06985,-0.0572 -0.01905,-0.0296 -0.01905,-0.0614 0,-0.0402 0.01693,-0.0677 0.01905,-0.0296 0.04657,-0.0444 0.02963,-0.0169 0.0635,-0.0233 0.03598,-0.008 0.06985,-0.008 0.105834,0 0.162984,0.0572 0.05927,0.055 0.09737,0.14605 l 0.31115,-0.0952 q -0.04657,-0.10795 -0.103717,-0.1778 -0.05715,-0.0699 -0.131233,-0.1143 -0.148167,-0.091 -0.334434,-0.091 -0.22225,0 -0.370417,0.12277 -0.148167,0.12277 -0.148167,0.31115 0,0.1905 0.127,0.29845 0.12065,0.0995 0.366184,0.19262 0.124884,0.0466 0.213784,0.10583 0.08043,0.0529 0.08043,0.13123 0,0.0529 -0.01905,0.0889 -0.01905,0.0339 -0.05292,0.055 -0.03175,0.019 -0.07408,0.0275 -0.04233,0.008 -0.08678,0.008 -0.0635,0 -0.1143,-0.0169 -0.04868,-0.019 -0.08678,-0.0508 -0.0381,-0.0317 -0.06773,-0.0762 -0.02963,-0.0466 -0.05503,-0.1016 l -0.281517,0.12276 q 0.04868,0.1143 0.112183,0.18839 0.0635,0.072 0.150284,0.11853 0.162983,0.091 0.334434,0.091 0.2667,0 0.414867,-0.12277 z m 1.293285,0 q 0.148167,-0.127 0.148167,-0.35772 0,-0.21378 -0.150283,-0.32596 -0.141817,-0.11007 -0.321734,-0.17145 -0.127,-0.0444 -0.2286,-0.1016 -0.04868,-0.0275 -0.06985,-0.0572 -0.01905,-0.0296 -0.01905,-0.0614 0,-0.0402 0.01693,-0.0677 0.01905,-0.0296 0.04657,-0.0444 0.02963,-0.0169 0.0635,-0.0233 0.03598,-0.008 0.06985,-0.008 0.105833,0 0.162983,0.0572 0.05927,0.055 0.09737,0.14605 l 0.311151,-0.0952 q -0.04657,-0.10795 -0.103717,-0.1778 -0.05715,-0.0699 -0.131234,-0.1143 -0.148167,-0.091 -0.334434,-0.091 -0.22225,0 -0.370417,0.12277 -0.148167,0.12277 -0.148167,0.31115 0,0.1905 0.127,0.29845 0.120651,0.0995 0.366184,0.19262 0.124884,0.0466 0.213784,0.10583 0.08043,0.0529 0.08043,0.13123 0,0.0529 -0.01905,0.0889 -0.01905,0.0339 -0.05292,0.055 -0.03175,0.019 -0.07408,0.0275 -0.04233,0.008 -0.08678,0.008 -0.0635,0 -0.1143,-0.0169 -0.04868,-0.019 -0.08678,-0.0508 -0.0381,-0.0317 -0.06773,-0.0762 -0.02963,-0.0466 -0.05503,-0.1016 l -0.281517,0.12276 q 0.04868,0.1143 0.112184,0.18839 0.0635,0.072 0.150283,0.11853 0.162984,0.091 0.334434,0.091 0.266701,0 0.414867,-0.12277 z m 2.194988,0.1016 h 0.300567 v -1.5748 h -0.455084 l -0.281517,1.01177 -0.279401,-1.01177 h -0.45085 v 1.5748 h 0.300567 V 255.297 l 0.302684,1.07103 h 0.256117 l 0.306917,-1.07315 z m 1.651003,-0.19473 q 0.169333,-0.20955 0.169333,-0.59267 0,-0.16298 -0.03598,-0.30903 -0.03387,-0.14817 -0.1143,-0.25824 -0.07832,-0.11218 -0.205317,-0.17568 -0.124884,-0.0656 -0.309034,-0.0656 -0.18415,0 -0.31115,0.0656 -0.127001,0.0635 -0.207434,0.17568 -0.07832,0.11007 -0.1143,0.25824 -0.03387,0.14605 -0.03387,0.30903 0,0.16298 0.03387,0.31115 0.03598,0.14605 0.1143,0.25824 0.08043,0.11006 0.207434,0.17568 0.127,0.0635 0.31115,0.0635 0.323851,0 0.495301,-0.2159 z m -0.249767,-0.98214 q 0.08043,0.13124 0.08043,0.38947 0,0.25823 -0.08043,0.38947 -0.0762,0.127 -0.245534,0.127 -0.17145,0 -0.24765,-0.127 -0.08043,-0.13124 -0.08043,-0.38947 0,-0.25823 0.08043,-0.38947 0.0762,-0.127 0.24765,-0.127 0.169334,0 0.245534,0.127 z m 1.657352,0.97156 q 0.09525,-0.10161 0.1397,-0.24554 0.04445,-0.14605 0.04445,-0.33443 0,-0.17992 -0.04233,-0.32385 -0.04233,-0.14605 -0.131234,-0.24977 -0.0889,-0.10372 -0.226483,-0.15875 -0.135467,-0.0572 -0.323851,-0.0572 h -0.516467 v 1.5748 h 0.520701 q 0.351367,0 0.535517,-0.20531 z m -0.251884,-0.95462 q 0.04657,0.0614 0.06985,0.15451 0.0254,0.091 0.0254,0.2159 0,0.1016 -0.01693,0.19262 -0.01693,0.0889 -0.06138,0.15875 -0.04233,0.0677 -0.118534,0.10795 -0.07408,0.0381 -0.1905,0.0381 h -0.173567 v -0.9906 h 0.1778 q 0.194734,0 0.287867,0.12277 z"
       id="text1-9"
       style="font-weight:500;font-size:2.11667px;font-family:OldSansBlack;-inkscape-font-specification:'OldSansBlack, Medium';fill:#ffffff;stroke-width:5.39988"
       aria-label="CROSS MOD" />
    <path
       style="fill:none;stroke:#5e110a;stroke-width:4.23333;stroke-linecap:butt;stroke-linejoin:miter;stroke-miterlimit:4;stroke-dasharray:none;stroke-opacity:1"
       d="m 56.770295,188.29944 c -5.301665,6.8287 -16.594669,36.63286 -16.213834,45.26963 0.361719,8.20324 13.397568,21.82246 14.35552,29.9776 1.2227,10.40896 -6.09594,5.88023 -6.424653,16.3556 -0.324761,10.34944 4.875644,8.92631 8.282967,18.70417"
       id="path4533"
       sodipodi:nodetypes="csssc" />
    <g
       aria-label="1V/OCT"
       style="font-style:normal;font-variant:normal;font-weight:500;font-stretch:normal;font-size:2.11667px;line-height:1.25;font-family:OldSansBlack;-inkscape-font-specification:'OldSansBlack, Medium';font-variant-ligatures:normal;font-variant-position:normal;font-variant-caps:normal;font-variant-numeric:normal;font-variant-alternates:normal;font-feature-settings:normal;text-indent:0;text-align:start;text-decoration:none;text-decoration-line:none;text-decoration-style:solid;text-decoration-color:#000000;letter-spacing:0px;word-spacing:0px;text-transform:none;writing-mode:lr-tb;direction:ltr;text-orientation:mixed;dominant-baseline:auto;baseline-shift:baseline;text-anchor:start;white-space:normal;shape-padding:0;opacity:1;vector-effect:none;fill:#ffffff;fill-opacity:1;stroke:none;stroke-width:0.264583;stroke-linecap:butt;stroke-linejoin:miter;stroke-miterlimit:4;stroke-dasharray:none;stroke-dashoffset:0;stroke-opacity:1"
       id="text852"
       transform="translate(6.086262,-4.2375914)">
      <path
         d="m 6.7247001,260.60559 h 0.79375 v -0.25823 H 7.2792668 v -1.33774 H 7.0358501 q -0.067733,0.0635 -0.1629833,0.0847 -0.09525,0.019 -0.1841501,0.0212 v 0.22436 h 0.2730501 v 1.00754 H 6.7247001 Z"
         style="stroke-width:0.264583"
         id="path868" />
      <path
         d="m 8.2925053,260.60559 0.4191,-1.5748 H 8.3729386 l -0.2667,1.06045 -0.254,-1.06045 h -0.33655 l 0.4169834,1.5748 z"
         style="stroke-width:0.264583"
         id="path870" />
      <path
         d="m 8.8928282,260.62676 0.4910667,-1.61714 h -0.2794 l -0.4910667,1.61714 z"
         style="stroke-width:0.264583"
         id="path872" />
      <path
         d="m 10.493756,260.41086 q 0.169333,-0.20955 0.169333,-0.59267 0,-0.16298 -0.03598,-0.30903 -0.03387,-0.14817 -0.1143,-0.25824 -0.07832,-0.11218 -0.205317,-0.17568 -0.124883,-0.0656 -0.3090329,-0.0656 -0.18415,0 -0.31115,0.0656 -0.1270001,0.0635 -0.2074334,0.17568 -0.078317,0.11007 -0.1143,0.25824 -0.033867,0.14605 -0.033867,0.30903 0,0.16298 0.033867,0.31115 0.035983,0.14605 0.1143,0.25823 0.080433,0.11007 0.2074334,0.17569 0.127,0.0635 0.31115,0.0635 0.3238499,0 0.4952999,-0.2159 z m -0.249767,-0.98214 q 0.08043,0.13124 0.08043,0.38947 0,0.25823 -0.08043,0.38947 -0.0762,0.127 -0.2455329,0.127 -0.17145,0 -0.24765,-0.127 -0.080433,-0.13124 -0.080433,-0.38947 0,-0.25823 0.080433,-0.38947 0.0762,-0.127 0.24765,-0.127 0.1693329,0 0.2455329,0.127 z"
         style="stroke-width:0.264583"
         id="path874" />
      <path
         d="m 11.753107,260.52092 q 0.07408,-0.0529 0.129116,-0.13335 0.05715,-0.0804 0.103717,-0.20108 l -0.3175,-0.0825 q -0.02328,0.0508 -0.04868,0.0931 -0.0254,0.0423 -0.05715,0.0741 -0.03175,0.0296 -0.0762,0.0466 -0.04233,0.0169 -0.103717,0.0169 -0.156633,0 -0.224367,-0.12489 -0.07408,-0.12911 -0.07408,-0.381 0,-0.0466 0.0021,-0.10371 0.0042,-0.0571 0.01482,-0.1143 0.01058,-0.0593 0.02963,-0.1143 0.02117,-0.055 0.05292,-0.0974 0.03175,-0.0444 0.07832,-0.0698 0.04868,-0.0275 0.112183,-0.0275 0.110067,0 0.169334,0.0635 0.05927,0.0635 0.09313,0.16087 l 0.309033,-0.0741 q -0.04022,-0.13759 -0.09525,-0.22225 -0.05292,-0.0868 -0.127,-0.13124 -0.14605,-0.0889 -0.338666,-0.0889 -0.1778,0 -0.300567,0.0677 -0.122767,0.0677 -0.198967,0.18203 -0.07408,0.11218 -0.10795,0.25823 -0.03175,0.14605 -0.03175,0.30057 0,0.15663 0.03175,0.30268 0.03387,0.14394 0.10795,0.25824 0.07408,0.11218 0.19685,0.17991 0.122767,0.0677 0.300567,0.0677 0.224367,0 0.370417,-0.10584 z"
         style="stroke-width:0.264583"
         id="path876" />
      <path
         d="m 12.754984,259.32077 h 0.40005 v -0.28998 h -1.134533 v 0.28998 h 0.397933 v 1.28482 h 0.33655 z"
         style="stroke-width:0.264583"
         id="path878" />
    </g>
    <g
       aria-label="1V/OCT"
       style="font-style:normal;font-variant:normal;font-weight:500;font-stretch:normal;font-size:2.11667px;line-height:1.25;font-family:OldSansBlack;-inkscape-font-specification:'OldSansBlack, Medium';font-variant-ligatures:normal;font-variant-position:normal;font-variant-caps:normal;font-variant-numeric:normal;font-variant-alternates:normal;font-feature-settings:normal;text-indent:0;text-align:start;text-decoration:none;text-decoration-line:none;text-decoration-style:solid;text-decoration-color:#000000;letter-spacing:0px;word-spacing:0px;text-transform:none;writing-mode:lr-tb;direction:ltr;text-orientation:mixed;dominant-baseline:auto;baseline-shift:baseline;text-anchor:start;white-space:normal;shape-padding:0;vector-effect:none;fill:#ffffff;fill-opacity:1;stroke:none;stroke-width:0.264583;stroke-linecap:butt;stroke-linejoin:miter;stroke-miterlimit:4;stroke-dasharray:none;stroke-dashoffset:0;stroke-opacity:1"
       id="text852-8"
       transform="translate(53.507893,-4.2375914)">
      <path
         d="m 6.7247001,260.60559 h 0.79375 v -0.25823 H 7.2792668 v -1.33774 H 7.0358501 q -0.067733,0.0635 -0.1629833,0.0847 -0.09525,0.019 -0.1841501,0.0212 v 0.22436 h 0.2730501 v 1.00754 H 6.7247001 Z"
         style="stroke-width:0.264583"
         id="path868-2" />
      <path
         d="m 8.2925053,260.60559 0.4191,-1.5748 H 8.3729386 l -0.2667,1.06045 -0.254,-1.06045 h -0.33655 l 0.4169834,1.5748 z"
         style="stroke-width:0.264583"
         id="path870-4" />
      <path
         d="m 8.8928282,260.62676 0.4910667,-1.61714 h -0.2794 l -0.4910667,1.61714 z"
         style="stroke-width:0.264583"
         id="path872-5" />
      <path
         d="m 10.493756,260.41086 q 0.169333,-0.20955 0.169333,-0.59267 0,-0.16298 -0.03598,-0.30903 -0.03387,-0.14817 -0.1143,-0.25824 -0.07832,-0.11218 -0.205317,-0.17568 -0.124883,-0.0656 -0.3090329,-0.0656 -0.18415,0 -0.31115,0.0656 -0.1270001,0.0635 -0.2074334,0.17568 -0.078317,0.11007 -0.1143,0.25824 -0.033867,0.14605 -0.033867,0.30903 0,0.16298 0.033867,0.31115 0.035983,0.14605 0.1143,0.25823 0.080433,0.11007 0.2074334,0.17569 0.127,0.0635 0.31115,0.0635 0.3238499,0 0.4952999,-0.2159 z m -0.249767,-0.98214 q 0.08043,0.13124 0.08043,0.38947 0,0.25823 -0.08043,0.38947 -0.0762,0.127 -0.2455329,0.127 -0.17145,0 -0.24765,-0.127 -0.080433,-0.13124 -0.080433,-0.38947 0,-0.25823 0.080433,-0.38947 0.0762,-0.127 0.24765,-0.127 0.1693329,0 0.2455329,0.127 z"
         style="stroke-width:0.264583"
         id="path874-5" />
      <path
         d="m 11.753107,260.52092 q 0.07408,-0.0529 0.129116,-0.13335 0.05715,-0.0804 0.103717,-0.20108 l -0.3175,-0.0825 q -0.02328,0.0508 -0.04868,0.0931 -0.0254,0.0423 -0.05715,0.0741 -0.03175,0.0296 -0.0762,0.0466 -0.04233,0.0169 -0.103717,0.0169 -0.156633,0 -0.224367,-0.12489 -0.07408,-0.12911 -0.07408,-0.381 0,-0.0466 0.0021,-0.10371 0.0042,-0.0571 0.01482,-0.1143 0.01058,-0.0593 0.02963,-0.1143 0.02117,-0.055 0.05292,-0.0974 0.03175,-0.0444 0.07832,-0.0698 0.04868,-0.0275 0.112183,-0.0275 0.110067,0 0.169334,0.0635 0.05927,0.0635 0.09313,0.16087 l 0.309033,-0.0741 q -0.04022,-0.13759 -0.09525,-0.22225 -0.05292,-0.0868 -0.127,-0.13124 -0.14605,-0.0889 -0.338666,-0.0889 -0.1778,0 -0.300567,0.0677 -0.122767,0.0677 -0.198967,0.18203 -0.07408,0.11218 -0.10795,0.25823 -0.03175,0.14605 -0.03175,0.30057 0,0.15663 0.03175,0.30268 0.03387,0.14394 0.10795,0.25824 0.07408,0.11218 0.19685,0.17991 0.122767,0.0677 0.300567,0.0677 0.224367,0 0.370417,-0.10584 z"
         style="stroke-width:0.264583"
         id="path876-1" />
      <path
         d="m 12.754984,259.32077 h 0.40005 v -0.28998 h -1.134533 v 0.28998 h 0.397933 v 1.28482 h 0.33655 z"
         style="stroke-width:0.264583"
         id="path878-7" />
    </g>
    <g
       aria-label="OUT"
       style="font-style:normal;font-variant:normal;font-weight:500;font-stretch:normal;font-size:2.11667px;line-height:1.25;font-family:OldSansBlack;-inkscape-font-specification:'OldSansBlack, Medium';font-variant-ligatures:normal;font-variant-position:normal;font-variant-caps:normal;font-variant-numeric:normal;font-variant-alternates:normal;font-feature-settings:normal;text-indent:0;text-align:start;text-decoration:none;text-decoration-line:none;text-decoration-style:solid;text-decoration-color:#000000;letter-spacing:0px;word-spacing:0px;text-transform:none;writing-mode:lr-tb;direction:ltr;text-orientation:mixed;dominant-baseline:auto;baseline-shift:baseline;text-anchor:start;white-space:normal;shape-padding:0;opacity:1;vector-effect:none;fill:#ffffff;fill-opacity:1;stroke:none;stroke-width:0.264583;stroke-linecap:butt;stroke-linejoin:miter;stroke-miterlimit:4;stroke-dasharray:none;stroke-dashoffset:0;stroke-opacity:1"
       id="text856"
       transform="translate(41.84168,5.9673659)">
      <path
         d="m 9.0544391,272.9581 q 0.1693334,-0.20955 0.1693334,-0.59267 0,-0.16298 -0.035983,-0.30903 -0.033867,-0.14817 -0.1143,-0.25824 -0.078317,-0.11218 -0.2053167,-0.17568 -0.1248833,-0.0656 -0.3090333,-0.0656 -0.18415,0 -0.31115,0.0656 -0.127,0.0635 -0.2074334,0.17568 -0.078317,0.11007 -0.1143,0.25824 -0.033867,0.14605 -0.033867,0.30903 0,0.16298 0.033867,0.31115 0.035983,0.14605 0.1143,0.25823 0.080433,0.11007 0.2074334,0.17569 0.127,0.0635 0.31115,0.0635 0.32385,0 0.4952996,-0.2159 z m -0.2497667,-0.98214 q 0.080433,0.13124 0.080433,0.38947 0,0.25823 -0.080433,0.38947 -0.0762,0.127 -0.2455333,0.127 -0.17145,0 -0.24765,-0.127 -0.080433,-0.13124 -0.080433,-0.38947 0,-0.25823 0.080433,-0.38947 0.0762,-0.127 0.24765,-0.127 0.1693333,0 0.2455333,0.127 z"
         style="stroke-width:0.264583"
         id="path881" />
      <path
         d="m 10.481006,273.01525 q 0.156634,-0.15875 0.156634,-0.45932 v -0.9779 h -0.33655 v 0.97367 q 0,0.18203 -0.06138,0.25611 -0.02963,0.036 -0.08255,0.055 -0.0508,0.019 -0.131233,0.019 -0.1502834,0 -0.2074334,-0.0762 -0.061383,-0.0741 -0.061383,-0.25824 v -0.96943 h -0.33655 v 0.99272 q 0,0.2921 0.15875,0.44873 0.1608667,0.15452 0.4508494,0.15452 0.294217,0 0.45085,-0.15875 z"
         style="stroke-width:0.264583"
         id="path883" />
      <path
         d="m 11.551312,271.86801 h 0.40005 v -0.28998 h -1.134533 v 0.28998 h 0.397933 v 1.28482 h 0.33655 z"
         style="stroke-width:0.264583"
         id="path885" />
    </g>
    <path
       d="m 38.95887,227.07269 h -0.410312 l -0.106453,-0.31109 h -0.570509 l -0.106454,0.31109 h -0.399976 l 0.568442,-1.53892 h 0.45682 z m -0.612884,-0.59324 -0.189136,-0.55191 -0.189136,0.55191 z m 2.195218,0.50539 q -0.103353,0.0403 -0.273885,0.0806 -0.170533,0.0393 -0.340032,0.0393 -0.392741,0 -0.61495,-0.2129 -0.222209,-0.21394 -0.222209,-0.59015 0,-0.35863 0.224276,-0.57774 0.224276,-0.22015 0.625286,-0.22015 0.151929,0 0.289388,0.0279 0.13746,0.0269 0.305925,0.10852 v 0.3607 h -0.04444 q -0.02894,-0.0217 -0.08475,-0.061 -0.05581,-0.0403 -0.107487,-0.0682 -0.05994,-0.0331 -0.14056,-0.0568 -0.07958,-0.0238 -0.169499,-0.0238 -0.10542,0 -0.191203,0.031 -0.08578,0.031 -0.153996,0.0951 -0.06511,0.062 -0.103353,0.15813 -0.03721,0.0951 -0.03721,0.22014 0,0.25528 0.135392,0.39067 0.135392,0.1354 0.399976,0.1354 0.02274,0 0.04961,-0.001 0.02791,-0.001 0.05064,-0.003 v -0.30179 h -0.306959 v -0.29042 h 0.710035 z m 1.468647,0.0879 h -1.113112 v -1.53892 h 1.113112 v 0.29765 h -0.718304 v 0.26562 h 0.666627 v 0.29766 h -0.666627 v 0.38034 h 0.718304 z"
       id="text5"
       style="font-weight:bold;font-size:2.11667px;font-family:Sans;-inkscape-font-specification:'Sans Bold';fill:#ffffff;stroke-width:5.564"
       aria-label="AGE" />
    <path
       d="m 38.95887,266.79763 h -0.410312 l -0.106453,-0.31109 h -0.570509 l -0.106454,0.31109 h -0.399976 l 0.568442,-1.53892 h 0.45682 z m -0.612884,-0.59324 -0.189136,-0.55191 -0.189136,0.55191 z m 2.195218,0.50539 q -0.103353,0.0403 -0.273885,0.0806 -0.170533,0.0393 -0.340032,0.0393 -0.392741,0 -0.61495,-0.2129 -0.222209,-0.21394 -0.222209,-0.59015 0,-0.35863 0.224276,-0.57774 0.224276,-0.22015 0.625286,-0.22015 0.151929,0 0.289388,0.0279 0.13746,0.0269 0.305925,0.10852 v 0.3607 h -0.04444 q -0.02894,-0.0217 -0.08475,-0.061 -0.05581,-0.0403 -0.107487,-0.0682 -0.05994,-0.0331 -0.14056,-0.0568 -0.07958,-0.0238 -0.169499,-0.0238 -0.10542,0 -0.191203,0.031 -0.08578,0.031 -0.153996,0.0951 -0.06511,0.062 -0.103353,0.15813 -0.03721,0.0951 -0.03721,0.22014 0,0.25528 0.135392,0.39067 0.135392,0.1354 0.399976,0.1354 0.02274,0 0.04961,-10e-4 0.02791,-10e-4 0.05064,-0.003 v -0.30179 h -0.306959 v -0.29042 h 0.710035 z m 1.468647,0.0879 h -1.113112 v -1.53892 h 1.113112 v 0.29765 h -0.718304 v 0.26562 h 0.666627 v 0.29766 h -0.666627 v 0.38034 h 0.718304 z"
       id="text5-1"
       style="font-weight:bold;font-size:2.11667px;font-family:Sans;-inkscape-font-specification:'Sans Bold';fill:#ffffff;stroke-width:5.564"
       aria-label="AGE" />
    <g
       aria-label="Autinn"
       style="font-style:normal;font-weight:normal;font-size:7.05556px;line-height:1.25;font-family:sans-serif;letter-spacing:0px;word-spacing:0px;fill:#ffd700;fill-opacity:1;stroke:none;stroke-width:0.264583"
       id="text3739"
       transform="matrix(0.8,0,0,0.8,30.162496,58.029465)">
      <path
         d="m 5.0556776,289.41931 q -0.1756999,-0.37896 -0.3858507,-0.93706 -0.2101508,-0.55811 -0.4409722,-1.25057 -0.1171332,0.32728 -0.4375271,0.9095 -0.3169488,0.58223 -0.7820367,1.31948 0.106798,0.007 0.2239312,0.007 0.1205784,0 0.3617351,0 0.3927408,0 0.7544759,-0.0103 0.3651801,-0.0138 0.7062445,-0.0379 z m 0.1481391,0.35485 q -0.099908,0 -0.2480469,0.003 -0.144694,0.003 -0.1963704,0.003 -1.2057834,0 -1.6467556,0.13436 -0.4409722,0.13436 -0.7165798,0.50643 -0.3135037,0.4203 -0.6924642,1.01975 -0.3789605,0.596 -0.4719781,0.596 -0.041341,0 -0.065457,-0.0241 -0.027561,-0.0241 -0.027561,-0.0689 0,-0.0413 0.4478624,-0.75448 0.4478624,-0.71658 0.8371581,-1.38148 0.7544759,-1.30225 1.1368815,-2.09806 0.3858507,-0.79582 0.3858507,-1.05765 0,-0.0344 -0.010335,-0.0758 -0.010335,-0.0448 -0.010335,-0.0517 0,-0.0413 0.2342665,-0.1688 0.2377116,-0.12747 0.323839,-0.12747 0.037896,0 0.2308214,0.65801 0.1929253,0.65457 0.4616427,1.33325 0.757921,1.93615 1.0610894,2.43568 0.3066135,0.49954 0.6028917,0.49954 0.082682,0 0.1722548,-0.0448 0.089573,-0.0482 0.1033528,-0.0482 0.020671,0 0.048231,0.0379 0.031006,0.0379 0.031006,0.0689 0,0.0207 -0.1550293,0.11714 -0.1550292,0.0965 -0.2928331,0.19292 -0.1274685,0.0965 -0.2928331,0.24116 -0.1619195,0.14125 -0.2067057,0.14125 -0.075792,0 -0.2928331,-0.42375 -0.2135959,-0.42375 -0.7510308,-1.66398 z"
         style="font-style:normal;font-variant:normal;font-weight:normal;font-stretch:normal;font-family:'Calligraph421 BT';-inkscape-font-specification:'Calligraph421 BT';fill:#ffd700;fill-opacity:1;stroke-width:0.264583"
         id="path4612"
         inkscape:connector-curvature="0" />
      <path
         d="m 9.6410995,291.31067 q -0.2446018,0.12058 -0.6097819,0.31006 -0.4306369,0.22738 -0.5167643,0.22738 -0.4960938,0 -0.7269151,-0.31695 -0.2273763,-0.31695 -0.2273763,-1.00941 0,-0.16881 0.01378,-0.55811 0.01378,-0.39274 0.01378,-0.61323 0,-0.0482 -0.01378,-0.14469 -0.01378,-0.0999 -0.01378,-0.15159 0,-0.0276 0.1205783,-0.0654 0.096463,-0.031 0.1619195,-0.0551 0.1515842,-0.0551 0.3066135,-0.12058 0.1584744,-0.0689 0.1722547,-0.0689 0.051677,0 0.082682,0.0241 0.031006,0.0207 0.031006,0.0586 0,0.0413 -0.075792,0.11713 -0.072347,0.0758 -0.106798,0.13781 -0.082682,0.14124 -0.1205783,0.37551 -0.034451,0.23427 -0.034451,0.70969 0,0.65801 0.1584744,0.92329 0.1619195,0.26182 0.5477702,0.26182 0.1412489,0 0.3651801,-0.0654 0.2273763,-0.0655 0.4892035,-0.18604 v -1.5124 q 0,-0.40307 -0.1619194,-0.48575 -0.031006,-0.0138 -0.031006,-0.0276 0,-0.11025 0.082682,-0.13092 0.024116,-0.003 0.044786,-0.0103 0.1515842,-0.0551 0.323839,-0.14125 0.1722546,-0.0861 0.1998156,-0.0861 0.04479,0 0.103352,0.0551 0.05857,0.0551 0.05857,0.093 0,0.003 -0.0069,0.031 -0.04823,0.17914 -0.06546,0.43752 -0.01378,0.23771 -0.02067,0.63045 -0.0069,0.3893 -0.0069,0.86472 0,0.36863 0.02412,0.70625 0.0034,0.0517 0.0034,0.062 0,0.0792 -0.2377112,0.20671 -0.2377116,0.13091 -0.2962782,0.13091 -0.02067,0 -0.031006,-0.031 -0.00689,-0.0276 -0.00689,-0.0965 v -0.10335 q 0,-0.0758 0,-0.17226 0.00345,-0.0965 0.00689,-0.21015 z"
         style="font-style:normal;font-variant:normal;font-weight:normal;font-stretch:normal;font-family:'Calligraph421 BT';-inkscape-font-specification:'Calligraph421 BT';fill:#ffd700;fill-opacity:1;stroke-width:0.264583"
         id="path4614"
         inkscape:connector-curvature="0" />
      <path
         d="m 11.346421,291.48637 q 0.0034,-0.30661 0.0034,-0.60289 0.0034,-0.29628 0.0034,-0.65801 0,-0.21704 -0.0034,-0.46165 0,-0.2446 -0.0034,-0.51331 h -0.19637 q -0.04479,0 -0.05857,-0.0103 -0.01033,-0.0138 -0.01378,-0.0586 0.0034,-0.0723 0.06201,-0.11713 0.02067,-0.0172 0.02756,-0.0241 l 0.799263,-0.72002 q 0.05512,-0.0551 0.07924,-0.0689 0.02412,-0.0172 0.04823,-0.0172 0.02412,0 0.04479,0.0207 0.02067,0.0172 0.02067,0.0448 0,0.0103 -0.03445,0.0827 -0.120578,0.25494 -0.151584,0.50988 h 1.036973 q 0.04823,0 0.06546,0.0344 0.02067,0.0344 0.02067,0.12057 0,0.10336 -0.02412,0.13092 -0.02412,0.0241 -0.158474,0.0241 h -0.981852 q -0.02412,0.30317 -0.0379,0.58912 -0.01034,0.28249 -0.01034,0.53743 0,0.61323 0.16881,0.8785 0.172255,0.26527 0.558105,0.26527 0.199816,0 0.416857,-0.0861 0.217041,-0.0896 0.230821,-0.0896 0.01378,0 0.02412,0.0172 0.01033,0.0138 0.01033,0.031 v 0.0517 q 0,0.13436 -0.36518,0.2825 -0.36518,0.14814 -0.706244,0.14814 -0.268718,0 -0.499539,-0.0896 -0.230822,-0.0896 -0.375516,-0.25149 z"
         style="font-style:normal;font-variant:normal;font-weight:normal;font-stretch:normal;font-family:'Calligraph421 BT';-inkscape-font-specification:'Calligraph421 BT';fill:#ffd700;fill-opacity:1;stroke-width:0.264583"
         id="path4616"
         inkscape:connector-curvature="0" />
      <path
         d="m 14.677829,289.9223 v 1.55718 q 0,0.0482 -0.0069,0.10335 0,0.0138 0,0.0172 0,0.0482 -0.02412,0.0792 -0.02067,0.0276 -0.07579,0.0482 -0.124023,0.0413 -0.261827,0.0861 -0.137804,0.0482 -0.141249,0.0482 -0.02756,0 -0.04134,-0.062 -0.01378,-0.062 -0.01378,-0.31351 v -1.69843 q 0,-0.3893 -0.05512,-0.48576 -0.05512,-0.0999 -0.199816,-0.0999 -0.0379,0 -0.09991,0.0207 -0.05857,0.0207 -0.07579,0.0207 -0.0379,0 -0.06201,-0.0345 -0.02412,-0.0344 -0.02412,-0.093 0.0034,-0.0517 0.203261,-0.10336 0.141249,-0.0344 0.234266,-0.0654 0.16881,-0.0551 0.354845,-0.12747 0.186035,-0.0758 0.210151,-0.0758 0.03445,0 0.07235,0.0344 0.04134,0.0344 0.04134,0.0689 0,0.0138 -0.0034,0.0827 -0.03101,0.47887 -0.03101,0.99219 z m -0.347954,-3.00068 q 0.158474,0 0.268717,0.11369 0.113688,0.11369 0.113688,0.26872 0,0.15847 -0.110243,0.26527 -0.110243,0.1068 -0.272162,0.1068 -0.15503,0 -0.265273,-0.1068 -0.106798,-0.11024 -0.106798,-0.26527 0,-0.15848 0.106798,-0.26872 0.110243,-0.11369 0.265273,-0.11369 z"
         style="font-style:normal;font-variant:normal;font-weight:normal;font-stretch:normal;font-family:'Calligraph421 BT';-inkscape-font-specification:'Calligraph421 BT';fill:#ffd700;fill-opacity:1;stroke-width:0.264583"
         id="path4618"
         inkscape:connector-curvature="0" />
      <path
         d="m 16.014526,291.70686 v -1.5813 q 0,-0.48576 -0.106798,-0.7028 -0.103353,-0.22049 -0.33073,-0.22049 -0.03101,0 -0.07924,0.0103 -0.04479,0.0103 -0.06201,0.0103 -0.03445,0 -0.05512,-0.0276 -0.01722,-0.0276 -0.01722,-0.0792 0,-0.0344 0.130913,-0.0792 0.09646,-0.031 0.151584,-0.0551 0.210151,-0.0861 0.389296,-0.20671 0.04823,-0.031 0.05512,-0.031 0.07235,0 0.20326,0.14814 0.130914,0.14469 0.199816,0.3445 0.347954,-0.2067 0.689019,-0.32383 0.341064,-0.12058 0.575331,-0.12058 0.389296,0 0.56155,0.29628 0.172255,0.29283 0.172255,0.98874 0,0.32039 -0.02067,0.70624 -0.01723,0.38585 -0.01723,0.44097 0,0.0861 0.03101,0.11714 0.03101,0.031 0.110243,0.031 0.04134,0 0.120578,-0.031 0.08268,-0.031 0.120579,-0.031 0.02756,0 0.04479,0.031 0.01722,0.031 0.01722,0.0827 0,0.0724 -0.19637,0.12402 -0.165365,0.0448 -0.282498,0.0861 -0.16881,0.0655 -0.341064,0.15159 -0.16881,0.0896 -0.189481,0.0896 -0.03445,0 -0.05857,-0.0241 -0.02412,-0.0207 -0.02412,-0.0551 0,-0.007 0.01378,-0.0517 0.148139,-0.50987 0.148139,-1.25401 0,-0.68557 -0.18259,-1.00252 -0.18259,-0.31695 -0.571886,-0.31695 -0.1757,0 -0.3514,0.0827 -0.172255,0.0827 -0.327284,0.23771 0,0.0482 0.0034,0.20326 0.0034,0.15159 0.0034,0.25494 0,0.5271 -0.0069,0.97841 -0.0069,0.44786 -0.02067,0.75792 l -0.403076,0.14125 q -0.0034,0 -0.01378,0.003 -0.01033,0.003 -0.02756,0.003 -0.03101,0 -0.04479,-0.0276 -0.01034,-0.0276 -0.01034,-0.0999 z"
         style="font-style:normal;font-variant:normal;font-weight:normal;font-stretch:normal;font-family:'Calligraph421 BT';-inkscape-font-specification:'Calligraph421 BT';fill:#ffd700;fill-opacity:1;stroke-width:0.264583"
         id="path4620"
         inkscape:connector-curvature="0" />
      <path
         d="m 19.790351,291.70686 v -1.5813 q 0,-0.48576 -0.106798,-0.7028 -0.103353,-0.22049 -0.330729,-0.22049 -0.03101,0 -0.07924,0.0103 -0.04479,0.0103 -0.06201,0.0103 -0.03445,0 -0.05512,-0.0276 -0.01723,-0.0276 -0.01723,-0.0792 0,-0.0344 0.130914,-0.0792 0.09646,-0.031 0.151584,-0.0551 0.210151,-0.0861 0.389296,-0.20671 0.04823,-0.031 0.05512,-0.031 0.07235,0 0.203261,0.14814 0.130913,0.14469 0.199815,0.3445 0.347955,-0.2067 0.689019,-0.32383 0.341065,-0.12058 0.575331,-0.12058 0.389296,0 0.561551,0.29628 0.172255,0.29283 0.172255,0.98874 0,0.32039 -0.02067,0.70624 -0.01722,0.38585 -0.01722,0.44097 0,0.0861 0.03101,0.11714 0.03101,0.031 0.110244,0.031 0.04134,0 0.120578,-0.031 0.08268,-0.031 0.120578,-0.031 0.02756,0 0.04479,0.031 0.01723,0.031 0.01723,0.0827 0,0.0724 -0.196371,0.12402 -0.165364,0.0448 -0.282497,0.0861 -0.16881,0.0655 -0.341065,0.15159 -0.168809,0.0896 -0.18948,0.0896 -0.03445,0 -0.05857,-0.0241 -0.02412,-0.0207 -0.02412,-0.0551 0,-0.007 0.01378,-0.0517 0.148139,-0.50987 0.148139,-1.25401 0,-0.68557 -0.18259,-1.00252 -0.18259,-0.31695 -0.571886,-0.31695 -0.1757,0 -0.351399,0.0827 -0.172255,0.0827 -0.327285,0.23771 0,0.0482 0.0034,0.20326 0.0034,0.15159 0.0034,0.25494 0,0.5271 -0.0069,0.97841 -0.0069,0.44786 -0.02067,0.75792 l -0.403076,0.14125 q -0.0034,0 -0.01378,0.003 -0.01033,0.003 -0.02756,0.003 -0.03101,0 -0.04479,-0.0276 -0.01033,-0.0276 -0.01033,-0.0999 z"
         style="font-style:normal;font-variant:normal;font-weight:normal;font-stretch:normal;font-family:'Calligraph421 BT';-inkscape-font-specification:'Calligraph421 BT';fill:#ffd700;fill-opacity:1;stroke-width:0.264583"
         id="path4622"
         inkscape:connector-curvature="0" />
    </g>
    <g
       style="font-style:normal;font-weight:normal;font-size:3.52778px;line-height:1.25;font-family:sans-serif;letter-spacing:0px;word-spacing:0px;fill:#000000;fill-opacity:1;stroke:none;stroke-width:0.264583"
       id="text4707" />
    <g
       style="font-style:normal;font-weight:normal;font-size:13.3333px;line-height:1.25;font-family:sans-serif;letter-spacing:0px;word-spacing:0px;fill:#000000;fill-opacity:1;stroke:none"
       id="flowRoot4709" />
    <path
       d="m 34.762019,213.04328 q 0.07408,-0.0529 0.129117,-0.13335 0.05715,-0.0804 0.103717,-0.20108 l -0.3175,-0.0825 q -0.02328,0.0508 -0.04868,0.0931 -0.0254,0.0423 -0.05715,0.0741 -0.03175,0.0296 -0.0762,0.0466 -0.04233,0.0169 -0.103717,0.0169 -0.156633,0 -0.224367,-0.12488 -0.07408,-0.12912 -0.07408,-0.381 0,-0.0466 0.0021,-0.10372 0.0042,-0.0572 0.01482,-0.1143 0.01058,-0.0593 0.02963,-0.1143 0.02117,-0.055 0.05292,-0.0974 0.03175,-0.0444 0.07832,-0.0699 0.04868,-0.0275 0.112183,-0.0275 0.110067,0 0.169334,0.0635 0.05927,0.0635 0.09313,0.16087 l 0.309034,-0.0741 q -0.04022,-0.13758 -0.09525,-0.22225 -0.05292,-0.0868 -0.127,-0.13123 -0.14605,-0.0889 -0.338667,-0.0889 -0.177801,0 -0.300567,0.0677 -0.122767,0.0677 -0.198967,0.18204 -0.07408,0.11218 -0.10795,0.25823 -0.03175,0.14605 -0.03175,0.30057 0,0.15663 0.03175,0.30268 0.03387,0.14393 0.10795,0.25823 0.07408,0.11219 0.19685,0.17992 0.122767,0.0677 0.300567,0.0677 0.224367,0 0.370417,-0.10583 z m 1.227669,0.0847 h 0.376767 l -0.3429,-0.69215 q 0.131233,-0.0466 0.201083,-0.14817 0.07197,-0.10372 0.07197,-0.24342 0,-0.12065 -0.0381,-0.21166 -0.03598,-0.0931 -0.103717,-0.15452 -0.06562,-0.0614 -0.160867,-0.0931 -0.09525,-0.0318 -0.211667,-0.0318 H 35.14937 v 1.5748 h 0.336551 v -0.6223 h 0.2159 z m -0.09102,-1.24249 q 0.02752,0.0233 0.04233,0.0614 0.01482,0.0381 0.01482,0.0931 0,0.0614 -0.02328,0.0974 -0.02328,0.036 -0.06138,0.055 -0.0381,0.0191 -0.08678,0.0254 -0.04868,0.004 -0.09737,0.004 h -0.201083 v -0.38523 h 0.23495 q 0.122767,0 0.1778,0.0487 z m 1.722969,1.04775 q 0.169334,-0.20955 0.169334,-0.59266 0,-0.16299 -0.03598,-0.30904 -0.03387,-0.14816 -0.1143,-0.25823 -0.07832,-0.11218 -0.205317,-0.17568 -0.124883,-0.0656 -0.309034,-0.0656 -0.18415,0 -0.31115,0.0656 -0.127,0.0635 -0.207434,0.17568 -0.07832,0.11007 -0.1143,0.25823 -0.03387,0.14605 -0.03387,0.30904 0,0.16298 0.03387,0.31115 0.03598,0.14605 0.1143,0.25823 0.08043,0.11007 0.207434,0.17568 0.127,0.0635 0.31115,0.0635 0.323851,0 0.495301,-0.2159 z m -0.249767,-0.98213 q 0.08043,0.13123 0.08043,0.38947 0,0.25823 -0.08043,0.38946 -0.0762,0.127 -0.245534,0.127 -0.17145,0 -0.24765,-0.127 -0.08043,-0.13123 -0.08043,-0.38946 0,-0.25824 0.08043,-0.38947 0.0762,-0.127 0.24765,-0.127 0.169334,0 0.245534,0.127 z m 1.517652,1.07527 q 0.148167,-0.127 0.148167,-0.35772 0,-0.21378 -0.150284,-0.32597 -0.141816,-0.11006 -0.321733,-0.17145 -0.127001,-0.0445 -0.228601,-0.1016 -0.04868,-0.0275 -0.06985,-0.0571 -0.01905,-0.0296 -0.01905,-0.0614 0,-0.0402 0.01693,-0.0677 0.01905,-0.0296 0.04657,-0.0445 0.02963,-0.0169 0.0635,-0.0233 0.03598,-0.008 0.06985,-0.008 0.105834,0 0.162984,0.0571 0.05927,0.055 0.09737,0.14605 l 0.31115,-0.0952 q -0.04657,-0.10795 -0.103717,-0.1778 -0.05715,-0.0699 -0.131233,-0.1143 -0.148167,-0.091 -0.334434,-0.091 -0.22225,0 -0.370417,0.12277 -0.148167,0.12276 -0.148167,0.31115 0,0.1905 0.127,0.29845 0.12065,0.0995 0.366184,0.19261 0.124884,0.0466 0.213784,0.10584 0.08043,0.0529 0.08043,0.13123 0,0.0529 -0.01905,0.0889 -0.01905,0.0339 -0.05292,0.055 -0.03175,0.019 -0.07408,0.0275 -0.04233,0.008 -0.08678,0.008 -0.0635,0 -0.1143,-0.0169 -0.04868,-0.019 -0.08678,-0.0508 -0.0381,-0.0317 -0.06773,-0.0762 -0.02963,-0.0466 -0.05503,-0.1016 l -0.281517,0.12277 q 0.04868,0.1143 0.112183,0.18838 0.0635,0.072 0.150284,0.11854 0.162983,0.091 0.334434,0.091 0.2667,0 0.414867,-0.12276 z m 1.293285,0 q 0.148167,-0.127 0.148167,-0.35772 0,-0.21378 -0.150283,-0.32597 -0.141817,-0.11006 -0.321734,-0.17145 -0.127,-0.0445 -0.2286,-0.1016 -0.04868,-0.0275 -0.06985,-0.0571 -0.01905,-0.0296 -0.01905,-0.0614 0,-0.0402 0.01693,-0.0677 0.01905,-0.0296 0.04657,-0.0445 0.02963,-0.0169 0.0635,-0.0233 0.03598,-0.008 0.06985,-0.008 0.105833,0 0.162983,0.0571 0.05927,0.055 0.09737,0.14605 l 0.311151,-0.0952 q -0.04657,-0.10795 -0.103717,-0.1778 -0.05715,-0.0699 -0.131234,-0.1143 -0.148167,-0.091 -0.334434,-0.091 -0.22225,0 -0.370417,0.12277 -0.148167,0.12276 -0.148167,0.31115 0,0.1905 0.127,0.29845 0.120651,0.0995 0.366184,0.19261 0.124884,0.0466 0.213784,0.10584 0.08043,0.0529 0.08043,0.13123 0,0.0529 -0.01905,0.0889 -0.01905,0.0339 -0.05292,0.055 -0.03175,0.019 -0.07408,0.0275 -0.04233,0.008 -0.08678,0.008 -0.0635,0 -0.1143,-0.0169 -0.04868,-0.019 -0.08678,-0.0508 -0.0381,-0.0317 -0.06773,-0.0762 -0.02963,-0.0466 -0.05503,-0.1016 l -0.281517,0.12277 q 0.04868,0.1143 0.112184,0.18838 0.0635,0.072 0.150283,0.11854 0.162984,0.091 0.334434,0.091 0.266701,0 0.414867,-0.12276 z m 2.194988,0.1016 h 0.300567 v -1.5748 h -0.455084 l -0.281517,1.01176 -0.279401,-1.01176 h -0.45085 v 1.5748 h 0.300567 v -1.07104 l 0.302684,1.07104 h 0.256117 l 0.306917,-1.07315 z m 1.651003,-0.19474 q 0.169333,-0.20955 0.169333,-0.59266 0,-0.16299 -0.03598,-0.30904 -0.03387,-0.14816 -0.1143,-0.25823 -0.07832,-0.11218 -0.205317,-0.17568 -0.124884,-0.0656 -0.309034,-0.0656 -0.18415,0 -0.31115,0.0656 -0.127001,0.0635 -0.207434,0.17568 -0.07832,0.11007 -0.1143,0.25823 -0.03387,0.14605 -0.03387,0.30904 0,0.16298 0.03387,0.31115 0.03598,0.14605 0.1143,0.25823 0.08043,0.11007 0.207434,0.17568 0.127,0.0635 0.31115,0.0635 0.323851,0 0.495301,-0.2159 z m -0.249767,-0.98213 q 0.08043,0.13123 0.08043,0.38947 0,0.25823 -0.08043,0.38946 -0.0762,0.127 -0.245534,0.127 -0.17145,0 -0.24765,-0.127 -0.08043,-0.13123 -0.08043,-0.38946 0,-0.25824 0.08043,-0.38947 0.0762,-0.127 0.24765,-0.127 0.169334,0 0.245534,0.127 z m 1.657352,0.97155 q 0.09525,-0.1016 0.1397,-0.24553 0.04445,-0.14605 0.04445,-0.33444 0,-0.17991 -0.04233,-0.32385 -0.04233,-0.14605 -0.131234,-0.24976 -0.0889,-0.10372 -0.226483,-0.15875 -0.135467,-0.0572 -0.323851,-0.0572 h -0.516467 v 1.5748 h 0.520701 q 0.351367,0 0.535517,-0.20532 z m -0.251884,-0.95462 q 0.04657,0.0614 0.06985,0.15452 0.0254,0.091 0.0254,0.2159 0,0.1016 -0.01693,0.19262 -0.01693,0.0889 -0.06138,0.15875 -0.04233,0.0677 -0.118534,0.10795 -0.07408,0.0381 -0.1905,0.0381 h -0.173567 v -0.9906 h 0.1778 q 0.194734,0 0.287867,0.12276 z"
       id="text1"
       style="font-weight:500;font-size:2.11667px;font-family:OldSansBlack;-inkscape-font-specification:'OldSansBlack, Medium';fill:#ffffff;stroke-width:5.39988"
       aria-label="CROSS MOD" />
    <path
       d="m 12.720948,213.0261 q 0.148167,-0.127 0.148167,-0.35772 0,-0.21378 -0.150284,-0.32597 -0.141817,-0.11006 -0.321734,-0.17145 -0.127,-0.0444 -0.2286,-0.1016 -0.04868,-0.0275 -0.06985,-0.0572 -0.01905,-0.0296 -0.01905,-0.0614 0,-0.0402 0.01693,-0.0677 0.01905,-0.0296 0.04657,-0.0444 0.02963,-0.0169 0.0635,-0.0233 0.03598,-0.008 0.06985,-0.008 0.105834,0 0.162984,0.0572 0.05927,0.055 0.09737,0.14606 l 0.31115,-0.0953 q -0.04657,-0.10795 -0.103717,-0.1778 -0.05715,-0.0699 -0.131233,-0.1143 -0.148167,-0.091 -0.334434,-0.091 -0.22225,0 -0.370417,0.12276 -0.148167,0.12277 -0.148167,0.31115 0,0.19051 0.127,0.29846 0.12065,0.0995 0.366184,0.19261 0.124883,0.0466 0.213783,0.10584 0.08043,0.0529 0.08043,0.13123 0,0.0529 -0.01905,0.0889 -0.01905,0.0339 -0.05292,0.055 -0.03175,0.019 -0.07408,0.0275 -0.04233,0.008 -0.08678,0.008 -0.0635,0 -0.1143,-0.0169 -0.04868,-0.019 -0.08678,-0.0508 -0.0381,-0.0317 -0.06773,-0.0762 -0.02963,-0.0466 -0.05503,-0.1016 l -0.281517,0.12277 q 0.04868,0.1143 0.112183,0.18838 0.0635,0.072 0.150284,0.11854 0.162983,0.091 0.334434,0.091 0.2667,0 0.414867,-0.12276 z m 1.263652,0.1016 h 0.340784 v -1.57481 H 13.9846 v 0.60749 h -0.533401 v -0.60749 h -0.340784 v 1.57481 h 0.340784 v -0.65617 H 13.9846 Z m 1.456269,0 h 0.340784 l -0.448734,-1.57692 h -0.397934 l -0.455084,1.57692 h 0.338667 l 0.09102,-0.3302 h 0.446617 z m -0.302684,-1.17687 0.143934,0.5588 h -0.296334 z m 1.756837,0.43815 q 0.150283,-0.12277 0.150283,-0.3556 0,-0.13124 -0.04445,-0.22225 -0.04233,-0.0931 -0.118533,-0.15029 -0.0762,-0.0572 -0.179917,-0.0825 -0.1016,-0.0254 -0.222251,-0.0254 H 15.89807 v 1.57481 h 0.338667 v -0.61807 h 0.241301 q 0.270934,0 0.416984,-0.12065 z m -0.247651,-0.50589 q 0.02752,0.0212 0.04233,0.0593 0.01482,0.036 0.01482,0.0952 0,0.0593 -0.02117,0.0974 -0.02117,0.036 -0.05715,0.0572 -0.03387,0.019 -0.08043,0.0275 -0.04445,0.006 -0.09525,0.006 h -0.213784 v -0.38947 h 0.213784 q 0.137584,0 0.19685,0.0466 z m 0.577851,1.24461 h 1.081619 v -0.2921 h -0.745068 v -0.38312 l 0.524934,-0.002 v -0.28786 h -0.524934 v -0.31751 h 0.719668 v -0.2921 h -1.056219 z m 2.741089,0 h 0.340783 l -0.448734,-1.57692 h -0.397933 l -0.455084,1.57692 h 0.338667 l 0.09102,-0.3302 h 0.446618 z m -0.302684,-1.17687 0.143933,0.5588 h -0.296333 z"
       id="text2"
       style="font-weight:500;font-size:2.11667px;font-family:OldSansBlack;-inkscape-font-specification:'OldSansBlack, Medium';fill:#ffffff;stroke-width:5.39988"
       aria-label="SHAPE A" />
    <path
       d="m 60.137288,213.02621 q 0.148167,-0.127 0.148167,-0.35772 0,-0.21378 -0.150284,-0.32597 -0.141817,-0.11006 -0.321734,-0.17145 -0.127,-0.0445 -0.2286,-0.1016 -0.04868,-0.0275 -0.06985,-0.0572 -0.01905,-0.0296 -0.01905,-0.0614 0,-0.0402 0.01693,-0.0677 0.01905,-0.0296 0.04657,-0.0445 0.02963,-0.0169 0.0635,-0.0233 0.03598,-0.008 0.06985,-0.008 0.105834,0 0.162984,0.0572 0.05927,0.055 0.09737,0.14605 l 0.311151,-0.0953 q -0.04657,-0.10795 -0.103717,-0.1778 -0.05715,-0.0699 -0.131233,-0.1143 -0.148167,-0.091 -0.334434,-0.091 -0.222251,0 -0.370418,0.12276 -0.148166,0.12277 -0.148166,0.31115 0,0.1905 0.127,0.29846 0.12065,0.0995 0.366184,0.19261 0.124883,0.0466 0.213783,0.10584 0.08043,0.0529 0.08043,0.13123 0,0.0529 -0.01905,0.0889 -0.01905,0.0339 -0.05292,0.055 -0.03175,0.019 -0.07408,0.0275 -0.04233,0.008 -0.08678,0.008 -0.0635,0 -0.1143,-0.0169 -0.04868,-0.019 -0.08678,-0.0508 -0.0381,-0.0317 -0.06773,-0.0762 -0.02963,-0.0466 -0.05503,-0.1016 l -0.281517,0.12277 q 0.04868,0.1143 0.112183,0.18838 0.0635,0.072 0.150284,0.11854 0.162983,0.091 0.334433,0.091 0.266701,0 0.414868,-0.12276 z m 1.263652,0.1016 h 0.340784 V 211.553 H 61.40094 v 0.60749 H 60.867539 V 211.553 h -0.340784 v 1.57481 h 0.340784 v -0.65617 h 0.533401 z m 1.456269,0 h 0.340784 l -0.448734,-1.57692 h -0.397934 l -0.455084,1.57692 h 0.338667 l 0.09102,-0.3302 h 0.446617 z m -0.302684,-1.17687 0.143934,0.5588 h -0.296334 z m 1.756837,0.43815 q 0.150283,-0.12277 0.150283,-0.3556 0,-0.13124 -0.04445,-0.22225 -0.04233,-0.0931 -0.118533,-0.15029 -0.0762,-0.0572 -0.179917,-0.0825 -0.1016,-0.0254 -0.222251,-0.0254 H 63.31441 v 1.57481 h 0.338667 v -0.61807 h 0.241301 q 0.270933,0 0.416984,-0.12065 z m -0.247651,-0.50589 q 0.02752,0.0212 0.04233,0.0593 0.01482,0.036 0.01482,0.0952 0,0.0593 -0.02117,0.0974 -0.02117,0.036 -0.05715,0.0571 -0.03387,0.0191 -0.08043,0.0275 -0.04445,0.006 -0.09525,0.006 h -0.213784 v -0.38947 h 0.213784 q 0.137583,0 0.19685,0.0466 z m 0.577851,1.24461 h 1.081619 v -0.2921 h -0.745068 v -0.38312 l 0.524934,-0.002 v -0.28787 h -0.524934 v -0.3175 h 0.719667 v -0.2921 h -1.056218 z m 2.937939,-0.10795 q 0.154517,-0.10795 0.154517,-0.34079 0,-0.13758 -0.0508,-0.23283 -0.04868,-0.0889 -0.182034,-0.14817 0.09737,-0.0487 0.148167,-0.13547 0.0508,-0.0868 0.0508,-0.19473 0,-0.12065 -0.04657,-0.20108 -0.04445,-0.0804 -0.12065,-0.127 -0.0762,-0.0487 -0.175684,-0.0677 -0.09737,-0.019 -0.201083,-0.019 H 66.56773 v 1.57481 h 0.573617 q 0.289984,0 0.438151,-0.10795 z M 67.3128,211.88109 q 0.04868,0.0423 0.04868,0.127 0,0.0402 -0.01693,0.0699 -0.01482,0.0275 -0.04022,0.0466 -0.0254,0.019 -0.05927,0.0296 -0.03387,0.008 -0.06985,0.008 H 66.9064 v -0.32596 h 0.26035 q 0.09737,0 0.14605,0.0444 z m 0.02963,0.61172 q 0.05292,0.0466 0.05292,0.14816 0,0.11219 -0.05503,0.15875 -0.05503,0.0445 -0.162983,0.0445 H 66.9064 v -0.39793 h 0.2667 q 0.112184,0 0.169334,0.0466 z"
       id="text3"
       style="font-weight:500;font-size:2.11667px;font-family:OldSansBlack;-inkscape-font-specification:'OldSansBlack, Medium';fill:#ffffff;stroke-width:5.39988"
       aria-label="SHAPE B" />
    <path
       d="m 60.213486,225.7624 h 0.683685 v -0.2921 h -1.020235 v 1.5748 h 0.33655 v -0.67522 l 0.512234,-0.002 -0.0021,-0.28787 h -0.510118 z m 1.680636,1.2827 h 0.376767 l -0.342901,-0.69215 q 0.131234,-0.0466 0.201084,-0.14817 0.07197,-0.10371 0.07197,-0.24341 0,-0.12065 -0.0381,-0.21167 -0.03598,-0.0931 -0.103717,-0.15452 -0.06562,-0.0614 -0.160867,-0.0931 -0.09525,-0.0317 -0.211667,-0.0317 h -0.632884 v 1.5748 h 0.33655 v -0.6223 h 0.215901 z m -0.09102,-1.24248 q 0.02752,0.0233 0.04233,0.0614 0.01482,0.0381 0.01482,0.0931 0,0.0614 -0.02328,0.0974 -0.02328,0.036 -0.06138,0.055 -0.0381,0.019 -0.08678,0.0254 -0.04868,0.004 -0.09737,0.004 h -0.201084 v -0.38524 h 0.234951 q 0.122766,0 0.1778,0.0487 z m 0.675217,1.24248 h 1.081619 V 226.753 H 62.81487 v -0.38312 l 0.524934,-0.002 v -0.28787 H 62.81487 v -0.3175 h 0.719668 v -0.2921 h -1.056219 z m 2.194987,-0.0148 q 0.05503,0.0677 0.1397,0.0974 0.08678,0.0318 0.213784,0.0318 v -0.29008 q -0.07408,-0.006 -0.116417,-0.019 -0.04233,-0.0127 -0.06562,-0.0317 0.143934,-0.20743 0.143934,-0.56092 0,-0.16298 -0.03598,-0.30903 -0.03387,-0.14817 -0.1143,-0.25824 -0.07832,-0.11218 -0.205317,-0.17568 -0.124883,-0.0656 -0.309034,-0.0656 -0.18415,0 -0.31115,0.0656 -0.127,0.0635 -0.207434,0.17568 -0.07832,0.11007 -0.1143,0.25824 -0.03387,0.14605 -0.03387,0.30903 0,0.16299 0.03387,0.31115 0.03598,0.14605 0.1143,0.25824 0.08043,0.11006 0.207434,0.17568 0.127,0.0635 0.31115,0.0635 0.203201,0 0.321734,-0.0699 0.01058,0.0127 0.02752,0.0339 z m -0.04657,-0.5334 q -0.05503,-0.0741 -0.135467,-0.11642 -0.07832,-0.0423 -0.192617,-0.0529 v 0.3048 q 0.05927,0.0106 0.09948,0.0381 0.04233,0.0275 0.07408,0.072 -0.04868,0.0317 -0.148167,0.0317 -0.17145,0 -0.24765,-0.127 -0.08043,-0.13123 -0.08043,-0.38947 0,-0.25823 0.08043,-0.38947 0.0762,-0.127 0.24765,-0.127 0.169334,0 0.245534,0.127 0.08043,0.13124 0.08043,0.38947 0,0.14605 -0.02328,0.23919 z m 2.201337,0.44026 q 0.154517,-0.10795 0.154517,-0.34078 0,-0.13758 -0.0508,-0.23284 -0.04868,-0.0889 -0.182034,-0.14816 0.09737,-0.0487 0.148167,-0.13547 0.0508,-0.0868 0.0508,-0.19473 0,-0.12065 -0.04657,-0.20109 -0.04445,-0.0804 -0.12065,-0.127 -0.0762,-0.0487 -0.175683,-0.0677 -0.09737,-0.019 -0.201084,-0.019 h -0.588434 v 1.5748 h 0.573617 q 0.289984,0 0.438151,-0.10795 z m -0.266701,-1.13877 q 0.04868,0.0423 0.04868,0.127 0,0.0402 -0.01693,0.0699 -0.01482,0.0275 -0.04022,0.0466 -0.0254,0.019 -0.05927,0.0296 -0.03387,0.008 -0.06985,0.008 h -0.268817 v -0.32597 h 0.26035 q 0.09737,0 0.14605,0.0445 z m 0.02963,0.61172 q 0.05292,0.0466 0.05292,0.14817 0,0.11218 -0.05503,0.15875 -0.05503,0.0445 -0.162983,0.0445 h -0.270934 v -0.39794 h 0.2667 q 0.112184,0 0.169334,0.0466 z"
       id="text4"
       style="font-weight:500;font-size:2.11667px;font-family:OldSansBlack;-inkscape-font-specification:'OldSansBlack, Medium';fill:#ffffff;stroke-width:5.39988"
       aria-label="FREQ B" />
    <path
       d="m 12.79715,225.7624 h 0.683685 v -0.2921 H 12.4606 v 1.5748 h 0.33655 v -0.67522 l 0.512234,-0.002 -0.0021,-0.28787 H 12.79715 Z m 1.680636,1.2827 h 0.376767 l -0.342901,-0.69215 q 0.131234,-0.0466 0.201084,-0.14817 0.07197,-0.10371 0.07197,-0.24341 0,-0.12065 -0.0381,-0.21167 -0.03598,-0.0931 -0.103717,-0.15452 -0.06562,-0.0614 -0.160867,-0.0931 -0.09525,-0.0317 -0.211667,-0.0317 h -0.632884 v 1.5748 h 0.33655 v -0.6223 h 0.2159 z m -0.09102,-1.24248 q 0.02752,0.0233 0.04233,0.0614 0.01482,0.0381 0.01482,0.0931 0,0.0614 -0.02328,0.0974 -0.02328,0.036 -0.06138,0.055 -0.0381,0.019 -0.08678,0.0254 -0.04868,0.004 -0.09737,0.004 h -0.201084 v -0.38524 h 0.234951 q 0.122766,0 0.1778,0.0487 z m 0.675217,1.24248 h 1.081618 v -0.2921 h -0.745067 v -0.38312 l 0.524934,-0.002 v -0.28787 h -0.524934 v -0.3175 h 0.719667 v -0.2921 h -1.056218 z m 2.194987,-0.0148 q 0.05503,0.0677 0.1397,0.0974 0.08678,0.0318 0.213784,0.0318 v -0.29008 q -0.07408,-0.006 -0.116417,-0.019 -0.04233,-0.0127 -0.06562,-0.0317 0.143934,-0.20743 0.143934,-0.56092 0,-0.16298 -0.03598,-0.30903 -0.03387,-0.14817 -0.1143,-0.25824 -0.07832,-0.11218 -0.205317,-0.17568 -0.124883,-0.0656 -0.309034,-0.0656 -0.18415,0 -0.31115,0.0656 -0.127,0.0635 -0.207434,0.17568 -0.07832,0.11007 -0.1143,0.25824 -0.03387,0.14605 -0.03387,0.30903 0,0.16299 0.03387,0.31115 0.03598,0.14605 0.1143,0.25824 0.08043,0.11006 0.207434,0.17568 0.127,0.0635 0.31115,0.0635 0.203201,0 0.321734,-0.0699 0.01058,0.0127 0.02752,0.0339 z m -0.04657,-0.5334 q -0.05503,-0.0741 -0.135467,-0.11642 -0.07832,-0.0423 -0.192617,-0.0529 v 0.3048 q 0.05927,0.0106 0.09948,0.0381 0.04233,0.0275 0.07408,0.072 -0.04868,0.0317 -0.148167,0.0317 -0.17145,0 -0.24765,-0.127 -0.08043,-0.13123 -0.08043,-0.38947 0,-0.25823 0.08043,-0.38947 0.0762,-0.127 0.24765,-0.127 0.169334,0 0.245534,0.127 0.08043,0.13124 0.08043,0.38947 0,0.14605 -0.02328,0.23919 z m 2.004487,0.54821 h 0.340783 l -0.448734,-1.57692 h -0.397934 l -0.455084,1.57692 h 0.338668 l 0.09102,-0.3302 h 0.446618 z m -0.302684,-1.17687 0.143933,0.55881 h -0.296334 z"
       id="text8"
       style="font-weight:500;font-size:2.11667px;font-family:OldSansBlack;-inkscape-font-specification:'OldSansBlack, Medium';fill:#ffffff;stroke-width:5.39988"
       aria-label="FREQ A" />
    <path
       d="m 13.642758,241.69343 h 0.26035 v -0.81916 h -0.620184 v 0.29211 h 0.289984 q -0.01058,0.10371 -0.08043,0.17356 -0.08043,0.0825 -0.211667,0.0825 -0.09525,0 -0.156634,-0.0508 -0.05927,-0.0508 -0.09313,-0.127 -0.03175,-0.0762 -0.04445,-0.16298 -0.01058,-0.0889 -0.01058,-0.16087 0,-0.0699 0.0085,-0.16087 0.01058,-0.0931 0.04233,-0.17568 0.03175,-0.0825 0.0889,-0.13758 0.05927,-0.0572 0.156634,-0.0572 0.122767,0 0.18415,0.0572 0.0635,0.055 0.112184,0.16298 l 0.313267,-0.0825 q -0.04233,-0.127 -0.09948,-0.20743 -0.05715,-0.0804 -0.135467,-0.12912 -0.154516,-0.0931 -0.332317,-0.0931 -0.188383,0 -0.319617,0.0698 -0.129117,0.0677 -0.20955,0.18415 -0.07832,0.1143 -0.1143,0.2667 -0.03387,0.15028 -0.03387,0.3175 0,0.1524 0.03387,0.29422 0.03598,0.1397 0.112183,0.24765 0.0762,0.10795 0.19685,0.17356 0.120651,0.0635 0.292101,0.0635 0.1143,0 0.201083,-0.0317 0.08678,-0.0317 0.169334,-0.11218 z m 1.322918,0 h 0.340784 l -0.448734,-1.57692 h -0.397934 l -0.455084,1.57692 h 0.338667 l 0.09102,-0.3302 h 0.446618 z m -0.302683,-1.17687 0.143933,0.5588 h -0.296334 z m 0.821268,1.17687 h 0.338667 v -1.57481 h -0.338667 z m 1.488017,0 h 0.315384 v -1.57481 h -0.321734 v 0.98637 l -0.569384,-0.98637 H 16.05576 v 1.57481 h 0.321734 v -1.03294 z m 2.065871,0 h 0.340784 l -0.448734,-1.57692 h -0.397934 l -0.455084,1.57692 h 0.338667 l 0.09102,-0.3302 h 0.446617 z m -0.302684,-1.17687 0.143934,0.5588 h -0.296334 z"
       id="text9"
       style="font-weight:500;font-size:2.11667px;font-family:OldSansBlack;-inkscape-font-specification:'OldSansBlack, Medium';fill:#ffffff;stroke-width:5.39988"
       aria-label="GAIN A" />
    <path
       d="m 61.059097,241.69343 h 0.26035 v -0.81916 h -0.620184 v 0.29211 h 0.289984 q -0.01058,0.10371 -0.08043,0.17356 -0.08043,0.0825 -0.211667,0.0825 -0.09525,0 -0.156633,-0.0508 -0.05927,-0.0508 -0.09313,-0.127 -0.03175,-0.0762 -0.04445,-0.16298 -0.01058,-0.0889 -0.01058,-0.16087 0,-0.0699 0.0085,-0.16087 0.01058,-0.0931 0.04233,-0.17568 0.03175,-0.0825 0.0889,-0.13758 0.05927,-0.0572 0.156634,-0.0572 0.122767,0 0.18415,0.0572 0.0635,0.055 0.112184,0.16298 l 0.313267,-0.0825 q -0.04233,-0.127 -0.09948,-0.20743 -0.05715,-0.0804 -0.135467,-0.12912 -0.154517,-0.0931 -0.332317,-0.0931 -0.188383,0 -0.319617,0.0698 -0.129117,0.0677 -0.20955,0.18415 -0.07832,0.1143 -0.1143,0.2667 -0.03387,0.15028 -0.03387,0.3175 0,0.1524 0.03387,0.29422 0.03598,0.1397 0.112183,0.24765 0.0762,0.10795 0.19685,0.17356 0.120651,0.0635 0.292101,0.0635 0.1143,0 0.201083,-0.0317 0.08678,-0.0317 0.169334,-0.11218 z m 1.322918,0 h 0.340784 l -0.448734,-1.57692 h -0.397934 l -0.455084,1.57692 h 0.338667 l 0.09102,-0.3302 h 0.446617 z m -0.302684,-1.17687 0.143934,0.5588 h -0.296334 z m 0.821269,1.17687 h 0.338667 v -1.57481 H 62.9006 Z m 1.488017,0 h 0.315384 v -1.57481 h -0.321734 v 0.98637 l -0.569384,-0.98637 h -0.340784 v 1.57481 h 0.321734 v -1.03294 z m 2.262721,-0.10795 q 0.154517,-0.10795 0.154517,-0.34079 0,-0.13758 -0.0508,-0.23283 -0.04868,-0.0889 -0.182034,-0.14817 0.09737,-0.0487 0.148167,-0.13547 0.0508,-0.0868 0.0508,-0.19473 0,-0.12065 -0.04657,-0.20108 -0.04445,-0.0804 -0.120651,-0.127 -0.0762,-0.0487 -0.175683,-0.0677 -0.09737,-0.0191 -0.201084,-0.0191 h -0.58843 v 1.57481 h 0.573618 q 0.289983,0 0.43815,-0.10795 z m -0.2667,-1.13877 q 0.04868,0.0423 0.04868,0.127 0,0.0402 -0.01693,0.0699 -0.01482,0.0275 -0.04022,0.0466 -0.0254,0.019 -0.05927,0.0296 -0.03387,0.008 -0.06985,0.008 h -0.268817 v -0.32596 h 0.260351 q 0.09737,0 0.14605,0.0444 z m 0.02963,0.61172 q 0.05292,0.0466 0.05292,0.14816 0,0.11219 -0.05503,0.15875 -0.05503,0.0444 -0.162984,0.0444 H 65.97824 v -0.39793 h 0.266701 q 0.112183,0 0.169333,0.0466 z"
       id="text10"
       style="font-weight:500;font-size:2.11667px;font-family:OldSansBlack;-inkscape-font-specification:'OldSansBlack, Medium';fill:#ffffff;stroke-width:5.39988"
       aria-label="GAIN B" />
    <path
       d="m 13.642758,266.81673 h 0.26035 v -0.81915 h -0.620184 v 0.2921 h 0.289984 q -0.01058,0.10372 -0.08043,0.17357 -0.08043,0.0826 -0.211667,0.0826 -0.09525,0 -0.156634,-0.0508 -0.05927,-0.0508 -0.09313,-0.127 -0.03175,-0.0762 -0.04445,-0.16298 -0.01058,-0.0889 -0.01058,-0.16087 0,-0.0698 0.0085,-0.16087 0.01058,-0.0931 0.04233,-0.17568 0.03175,-0.0825 0.0889,-0.13758 0.05927,-0.0571 0.156634,-0.0571 0.122767,0 0.18415,0.0571 0.0635,0.055 0.112184,0.16298 l 0.313267,-0.0825 q -0.04233,-0.127 -0.09948,-0.20743 -0.05715,-0.0804 -0.135467,-0.12912 -0.154516,-0.0931 -0.332317,-0.0931 -0.188383,0 -0.319617,0.0698 -0.129117,0.0677 -0.20955,0.18415 -0.07832,0.1143 -0.1143,0.2667 -0.03387,0.15028 -0.03387,0.3175 0,0.1524 0.03387,0.29421 0.03598,0.1397 0.112183,0.24765 0.0762,0.10795 0.19685,0.17357 0.120651,0.0635 0.292101,0.0635 0.1143,0 0.201083,-0.0317 0.08678,-0.0317 0.169334,-0.11218 z m 1.322918,0 h 0.340784 l -0.448734,-1.57691 h -0.397934 l -0.455084,1.57691 h 0.338667 l 0.09102,-0.3302 h 0.446618 z m -0.302683,-1.17686 0.143933,0.5588 h -0.296334 z m 0.821268,1.17686 h 0.338667 v -1.5748 h -0.338667 z m 1.488017,0 h 0.315384 v -1.5748 h -0.321734 v 0.98637 l -0.569384,-0.98637 H 16.05576 v 1.5748 h 0.321734 v -1.03293 z m 2.065871,0 h 0.340784 l -0.448734,-1.57691 h -0.397934 l -0.455084,1.57691 h 0.338667 l 0.09102,-0.3302 h 0.446617 z m -0.302684,-1.17686 0.143934,0.5588 h -0.296334 z"
       id="text9-1"
       style="font-weight:500;font-size:2.11667px;font-family:OldSansBlack;-inkscape-font-specification:'OldSansBlack, Medium';fill:#ffffff;stroke-width:5.39988"
       aria-label="GAIN A" />
    <path
       d="m 61.059097,266.81673 h 0.26035 v -0.81915 h -0.620184 v 0.2921 h 0.289984 q -0.01058,0.10372 -0.08043,0.17357 -0.08043,0.0826 -0.211667,0.0826 -0.09525,0 -0.156633,-0.0508 -0.05927,-0.0508 -0.09313,-0.127 -0.03175,-0.0762 -0.04445,-0.16298 -0.01058,-0.0889 -0.01058,-0.16087 0,-0.0698 0.0085,-0.16087 0.01058,-0.0931 0.04233,-0.17568 0.03175,-0.0825 0.0889,-0.13758 0.05927,-0.0571 0.156634,-0.0571 0.122767,0 0.18415,0.0571 0.0635,0.055 0.112184,0.16298 l 0.313267,-0.0825 q -0.04233,-0.127 -0.09948,-0.20743 -0.05715,-0.0804 -0.135467,-0.12912 -0.154517,-0.0931 -0.332317,-0.0931 -0.188383,0 -0.319617,0.0698 -0.129117,0.0677 -0.20955,0.18415 -0.07832,0.1143 -0.1143,0.2667 -0.03387,0.15028 -0.03387,0.3175 0,0.1524 0.03387,0.29421 0.03598,0.1397 0.112183,0.24765 0.0762,0.10795 0.19685,0.17357 0.120651,0.0635 0.292101,0.0635 0.1143,0 0.201083,-0.0317 0.08678,-0.0317 0.169334,-0.11218 z m 1.322918,0 h 0.340784 l -0.448734,-1.57691 h -0.397934 l -0.455084,1.57691 h 0.338667 l 0.09102,-0.3302 h 0.446617 z m -0.302684,-1.17686 0.143934,0.5588 h -0.296334 z m 0.821269,1.17686 h 0.338667 v -1.5748 H 62.9006 Z m 1.488017,0 h 0.315384 v -1.5748 h -0.321734 v 0.98637 l -0.569384,-0.98637 h -0.340784 v 1.5748 h 0.321734 v -1.03293 z m 2.262721,-0.10795 q 0.154517,-0.10795 0.154517,-0.34078 0,-0.13758 -0.0508,-0.23283 -0.04868,-0.0889 -0.182034,-0.14817 0.09737,-0.0487 0.148167,-0.13547 0.0508,-0.0868 0.0508,-0.19473 0,-0.12065 -0.04657,-0.20108 -0.04445,-0.0804 -0.120651,-0.127 -0.0762,-0.0487 -0.175683,-0.0677 -0.09737,-0.019 -0.201084,-0.019 h -0.58843 v 1.5748 h 0.573618 q 0.289983,0 0.43815,-0.10795 z m -0.2667,-1.13876 q 0.04868,0.0423 0.04868,0.127 0,0.0402 -0.01693,0.0699 -0.01482,0.0275 -0.04022,0.0466 -0.0254,0.019 -0.05927,0.0296 -0.03387,0.008 -0.06985,0.008 h -0.268817 v -0.32596 h 0.260351 q 0.09737,0 0.14605,0.0444 z m 0.02963,0.61171 q 0.05292,0.0466 0.05292,0.14817 0,0.11218 -0.05503,0.15875 -0.05503,0.0444 -0.162984,0.0444 H 65.97824 v -0.39793 h 0.266701 q 0.112183,0 0.169333,0.0466 z"
       id="text10-2"
       style="font-weight:500;font-size:2.11667px;font-family:OldSansBlack;-inkscape-font-specification:'OldSansBlack, Medium';fill:#ffffff;stroke-width:5.39988"
       aria-label="GAIN B" />
    <path
       d="m 26.086594,241.59183 q 0.148166,-0.127 0.148166,-0.35772 0,-0.21378 -0.150283,-0.32597 -0.141817,-0.11007 -0.321734,-0.17145 -0.127,-0.0445 -0.2286,-0.1016 -0.04868,-0.0275 -0.06985,-0.0571 -0.01905,-0.0296 -0.01905,-0.0614 0,-0.0402 0.01693,-0.0677 0.01905,-0.0296 0.04657,-0.0445 0.02963,-0.0169 0.0635,-0.0233 0.03598,-0.008 0.06985,-0.008 0.105833,0 0.162983,0.0571 0.05927,0.055 0.09737,0.14605 l 0.311151,-0.0952 q -0.04657,-0.10795 -0.103717,-0.1778 -0.05715,-0.0699 -0.131234,-0.1143 -0.148166,-0.091 -0.334433,-0.091 -0.222251,0 -0.370418,0.12276 -0.148167,0.12277 -0.148167,0.31115 0,0.1905 0.127001,0.29845 0.12065,0.0995 0.366184,0.19262 0.124883,0.0466 0.213783,0.10584 0.08043,0.0529 0.08043,0.13123 0,0.0529 -0.01905,0.0889 -0.01905,0.0339 -0.05292,0.055 -0.03175,0.0191 -0.07408,0.0275 -0.04233,0.008 -0.08678,0.008 -0.0635,0 -0.1143,-0.0169 -0.04868,-0.0191 -0.08678,-0.0508 -0.0381,-0.0317 -0.06773,-0.0762 -0.02963,-0.0466 -0.05503,-0.1016 l -0.281517,0.12277 q 0.04868,0.1143 0.112183,0.18838 0.0635,0.072 0.150284,0.11854 0.162984,0.091 0.334434,0.091 0.266701,0 0.414868,-0.12276 z m 0.992718,-0.52917 0.433917,-0.94404 h -0.3556 l -0.247651,0.56939 -0.24765,-0.56939 h -0.355601 l 0.436034,0.95039 v 0.62442 h 0.336551 z m 1.483785,0.63077 h 0.315384 v -1.57481 h -0.321734 v 0.98637 l -0.569384,-0.98637 h -0.340784 v 1.57481 h 0.321734 v -1.03294 z m 1.511302,-0.0847 q 0.07408,-0.0529 0.129117,-0.13335 0.05715,-0.0804 0.103717,-0.20108 l -0.3175,-0.0825 q -0.02328,0.0508 -0.04868,0.0931 -0.0254,0.0423 -0.05715,0.0741 -0.03175,0.0296 -0.0762,0.0466 -0.04233,0.0169 -0.103717,0.0169 -0.156633,0 -0.224367,-0.12488 -0.07408,-0.12912 -0.07408,-0.381 0,-0.0466 0.0021,-0.10372 0.0042,-0.0572 0.01482,-0.1143 0.01058,-0.0593 0.02963,-0.1143 0.02117,-0.055 0.05292,-0.0974 0.03175,-0.0444 0.07832,-0.0699 0.04868,-0.0275 0.112184,-0.0275 0.110066,0 0.169333,0.0635 0.05927,0.0635 0.09313,0.16086 l 0.309033,-0.0741 q -0.04022,-0.13758 -0.09525,-0.22225 -0.05292,-0.0868 -0.127,-0.13123 -0.14605,-0.0889 -0.338667,-0.0889 -0.1778,0 -0.300567,0.0677 -0.122767,0.0677 -0.198967,0.18203 -0.07408,0.11219 -0.10795,0.25824 -0.03175,0.14605 -0.03175,0.30057 0,0.15663 0.03175,0.30268 0.03387,0.14393 0.10795,0.25823 0.07408,0.11219 0.19685,0.17992 0.122767,0.0677 0.300567,0.0677 0.224367,0 0.370417,-0.10583 z"
       id="text11"
       style="font-weight:500;font-size:2.11667px;font-family:OldSansBlack;-inkscape-font-specification:'OldSansBlack, Medium';fill:#ffffff;stroke-width:5.39988"
       aria-label="SYNC" />
    <path
       d="m 40.530207,241.69343 h 0.340784 v -1.57481 h -0.340784 v 0.60749 h -0.533401 v -0.60749 h -0.340784 v 1.57481 h 0.340784 v -0.65617 h 0.533401 z m 1.456269,0 h 0.340784 l -0.448734,-1.57692 h -0.397934 l -0.455084,1.57692 h 0.338667 l 0.09102,-0.3302 h 0.446617 z m -0.302684,-1.17687 0.143934,0.5588 h -0.296334 z m 1.62137,1.17687 h 0.376767 l -0.342901,-0.69215 q 0.131234,-0.0466 0.201084,-0.14817 0.07197,-0.10372 0.07197,-0.24342 0,-0.12065 -0.0381,-0.21167 -0.03598,-0.0931 -0.103717,-0.15451 -0.06562,-0.0614 -0.160867,-0.0931 -0.09525,-0.0318 -0.211667,-0.0318 h -0.632884 v 1.57481 h 0.33655 v -0.6223 h 0.2159 z m -0.09102,-1.24249 q 0.02752,0.0233 0.04233,0.0614 0.01482,0.0381 0.01482,0.0931 0,0.0614 -0.02328,0.0974 -0.02328,0.036 -0.06138,0.055 -0.0381,0.019 -0.08678,0.0254 -0.04868,0.004 -0.09737,0.004 h -0.201084 v -0.38523 h 0.23495 q 0.122767,0 0.177801,0.0487 z m 1.718735,1.03717 q 0.09525,-0.1016 0.139701,-0.24553 0.04445,-0.14605 0.04445,-0.33444 0,-0.17992 -0.04233,-0.32385 -0.04233,-0.14605 -0.131233,-0.24977 -0.0889,-0.10371 -0.226484,-0.15875 -0.135467,-0.0572 -0.32385,-0.0572 h -0.516468 v 1.57481 h 0.520701 q 0.351367,0 0.535517,-0.20532 z m -0.251883,-0.95462 q 0.04657,0.0614 0.06985,0.15452 0.0254,0.091 0.0254,0.2159 0,0.1016 -0.01693,0.19262 -0.01693,0.0889 -0.06138,0.15875 -0.04233,0.0677 -0.118533,0.10795 -0.07408,0.0381 -0.190501,0.0381 h -0.173567 v -0.99061 h 0.177801 q 0.194733,0 0.287867,0.12277 z m 2.169586,1.05834 q 0.148167,-0.127 0.148167,-0.35772 0,-0.21378 -0.150283,-0.32597 -0.141817,-0.11007 -0.321734,-0.17145 -0.127,-0.0445 -0.228601,-0.1016 -0.04868,-0.0275 -0.06985,-0.0571 -0.01905,-0.0296 -0.01905,-0.0614 0,-0.0402 0.01693,-0.0677 0.01905,-0.0296 0.04657,-0.0445 0.02963,-0.0169 0.0635,-0.0233 0.03598,-0.008 0.06985,-0.008 0.105833,0 0.162983,0.0571 0.05927,0.055 0.09737,0.14605 l 0.31115,-0.0952 q -0.04657,-0.10795 -0.103716,-0.1778 -0.05715,-0.0699 -0.131234,-0.1143 -0.148167,-0.091 -0.334434,-0.091 -0.22225,0 -0.370417,0.12276 -0.148167,0.12277 -0.148167,0.31115 0,0.1905 0.127,0.29845 0.120651,0.0995 0.366184,0.19262 0.124884,0.0466 0.213784,0.10584 0.08043,0.0529 0.08043,0.13123 0,0.0529 -0.01905,0.0889 -0.01905,0.0339 -0.05292,0.055 -0.03175,0.0191 -0.07408,0.0275 -0.04233,0.008 -0.08678,0.008 -0.0635,0 -0.114301,-0.0169 -0.04868,-0.0191 -0.08678,-0.0508 -0.0381,-0.0317 -0.06773,-0.0762 -0.02963,-0.0466 -0.05503,-0.1016 l -0.281517,0.12277 q 0.04868,0.1143 0.112184,0.18838 0.0635,0.072 0.150283,0.11854 0.162984,0.091 0.334434,0.091 0.2667,0 0.414867,-0.12276 z m 0.992719,-0.52917 0.433917,-0.94404 h -0.3556 l -0.247651,0.56939 -0.24765,-0.56939 h -0.355601 l 0.436034,0.95039 v 0.62442 h 0.336551 z m 1.483785,0.63077 h 0.315384 v -1.57481 h -0.321734 v 0.98637 l -0.569384,-0.98637 h -0.340784 v 1.57481 H 48.7323 v -1.03294 z m 1.511302,-0.0847 q 0.07408,-0.0529 0.129117,-0.13335 0.05715,-0.0804 0.103717,-0.20108 l -0.317501,-0.0825 q -0.02328,0.0508 -0.04868,0.0931 -0.0254,0.0423 -0.05715,0.0741 -0.03175,0.0296 -0.0762,0.0466 -0.04233,0.0169 -0.103717,0.0169 -0.156634,0 -0.224367,-0.12488 -0.07408,-0.12912 -0.07408,-0.381 0,-0.0466 0.0021,-0.10372 0.0042,-0.0572 0.01482,-0.1143 0.01058,-0.0593 0.02963,-0.1143 0.02117,-0.055 0.05292,-0.0974 0.03175,-0.0444 0.07832,-0.0699 0.04868,-0.0275 0.112183,-0.0275 0.110067,0 0.169334,0.0635 0.05927,0.0635 0.09313,0.16086 l 0.309034,-0.0741 q -0.04022,-0.13758 -0.09525,-0.22225 -0.05292,-0.0868 -0.127,-0.13123 -0.14605,-0.0889 -0.338667,-0.0889 -0.177801,0 -0.300568,0.0677 -0.122766,0.0677 -0.198967,0.18203 -0.07408,0.11219 -0.10795,0.25824 -0.03175,0.14605 -0.03175,0.30057 0,0.15663 0.03175,0.30268 0.03387,0.14393 0.10795,0.25823 0.07408,0.11219 0.196851,0.17992 0.122767,0.0677 0.300567,0.0677 0.224367,0 0.370417,-0.10583 z"
       id="text12"
       style="font-weight:500;font-size:2.11667px;font-family:OldSansBlack;-inkscape-font-specification:'OldSansBlack, Medium';fill:#ffffff;stroke-width:5.39988"
       aria-label="HARD SYNC" />
    <text
       xml:space="preserve"
       style="font-weight:500;font-size:2.11667px;font-family:OldSansBlack;-inkscape-font-specification:'OldSansBlack, Medium';writing-mode:lr-tb;direction:ltr;fill:#ffffff;stroke-width:5.39988"
       x="51.413204"
       y="237.36446"
       id="text13"><tspan
         sodipodi:role="line"
         id="tspan12"
         style="stroke-width:5.39988"
         x="51.413204"
         y="237.36446" /></text>
    <path
       d="m 61.576624,278.92547 q 0.169333,-0.20955 0.169333,-0.59266 0,-0.16299 -0.03598,-0.30904 -0.03387,-0.14816 -0.1143,-0.25823 -0.07832,-0.11219 -0.205317,-0.17569 -0.124884,-0.0656 -0.309034,-0.0656 -0.18415,0 -0.31115,0.0656 -0.127001,0.0635 -0.207434,0.17569 -0.07832,0.11007 -0.1143,0.25823 -0.03387,0.14605 -0.03387,0.30904 0,0.16298 0.03387,0.31115 0.03598,0.14605 0.1143,0.25823 0.08043,0.11007 0.207434,0.17568 0.127,0.0635 0.31115,0.0635 0.323851,0 0.495301,-0.2159 z m -0.249767,-0.98213 q 0.08043,0.13123 0.08043,0.38947 0,0.25823 -0.08043,0.38946 -0.0762,0.127 -0.245534,0.127 -0.17145,0 -0.24765,-0.127 -0.08043,-0.13123 -0.08043,-0.38946 0,-0.25824 0.08043,-0.38947 0.0762,-0.127 0.24765,-0.127 0.169334,0 0.245534,0.127 z m 1.674285,1.03928 q 0.156634,-0.15875 0.156634,-0.45931 v -0.97791 h -0.336551 v 0.97367 q 0,0.18204 -0.06138,0.25612 -0.02963,0.036 -0.08255,0.055 -0.0508,0.019 -0.131234,0.019 -0.150283,0 -0.207433,-0.0762 -0.06138,-0.0741 -0.06138,-0.25823 v -0.96944 h -0.33655 v 0.99272 q 0,0.2921 0.15875,0.44874 0.160867,0.15451 0.450851,0.15451 0.294217,0 0.45085,-0.15875 z m 1.068919,-1.14723 h 0.40005 v -0.28999 h -1.134535 v 0.28999 h 0.397934 v 1.28482 h 0.336551 z m 2.220387,1.17687 q 0.154517,-0.10795 0.154517,-0.34079 0,-0.13758 -0.0508,-0.23283 -0.04868,-0.0889 -0.182034,-0.14817 0.09737,-0.0487 0.148167,-0.13546 0.0508,-0.0868 0.0508,-0.19474 0,-0.12065 -0.04657,-0.20108 -0.04445,-0.0804 -0.12065,-0.127 -0.0762,-0.0487 -0.175683,-0.0677 -0.09737,-0.0191 -0.201084,-0.0191 H 65.27868 v 1.57481 h 0.573617 q 0.289984,0 0.438151,-0.10795 z m -0.266701,-1.13877 q 0.04868,0.0423 0.04868,0.127 0,0.0402 -0.01693,0.0698 -0.01482,0.0275 -0.04022,0.0466 -0.0254,0.019 -0.05927,0.0296 -0.03387,0.008 -0.06985,0.008 h -0.268817 v -0.32597 h 0.26035 q 0.09737,0 0.14605,0.0444 z m 0.02963,0.61172 q 0.05292,0.0466 0.05292,0.14816 0,0.11219 -0.05503,0.15875 -0.05503,0.0444 -0.162983,0.0444 h -0.270934 v -0.39793 h 0.2667 q 0.112184,0 0.169334,0.0466 z"
       id="text14"
       style="font-weight:500;font-size:2.11667px;font-family:OldSansBlack;-inkscape-font-specification:'OldSansBlack, Medium';fill:#ffffff;stroke-width:5.39988"
       aria-label="OUT B" />
    <path
       d="m 14.160286,278.92547 q 0.169333,-0.20955 0.169333,-0.59266 0,-0.16299 -0.03598,-0.30904 -0.03387,-0.14816 -0.1143,-0.25823 -0.07832,-0.11219 -0.205317,-0.17569 -0.124884,-0.0656 -0.309034,-0.0656 -0.18415,0 -0.31115,0.0656 -0.127001,0.0635 -0.207434,0.17569 -0.07832,0.11007 -0.1143,0.25823 -0.03387,0.14605 -0.03387,0.30904 0,0.16298 0.03387,0.31115 0.03598,0.14605 0.1143,0.25823 0.08043,0.11007 0.207434,0.17568 0.127,0.0635 0.31115,0.0635 0.323851,0 0.495301,-0.2159 z m -0.249767,-0.98213 q 0.08043,0.13123 0.08043,0.38947 0,0.25823 -0.08043,0.38946 -0.0762,0.127 -0.245534,0.127 -0.17145,0 -0.24765,-0.127 -0.08043,-0.13123 -0.08043,-0.38946 0,-0.25824 0.08043,-0.38947 0.0762,-0.127 0.24765,-0.127 0.169334,0 0.245534,0.127 z m 1.674285,1.03928 q 0.156634,-0.15875 0.156634,-0.45931 v -0.97791 h -0.336551 v 0.97367 q 0,0.18204 -0.06138,0.25612 -0.02963,0.036 -0.08255,0.055 -0.0508,0.019 -0.131234,0.019 -0.150283,0 -0.207433,-0.0762 -0.06138,-0.0741 -0.06138,-0.25823 v -0.96944 h -0.33655 v 0.99272 q 0,0.2921 0.15875,0.44874 0.160867,0.15451 0.450851,0.15451 0.294217,0 0.45085,-0.15875 z m 1.068919,-1.14723 h 0.400051 v -0.28999 h -1.134536 v 0.28999 h 0.397934 v 1.28482 h 0.336551 z m 2.023537,1.28482 h 0.340783 l -0.448734,-1.57692 h -0.397934 l -0.455084,1.57692 h 0.338668 l 0.09102,-0.3302 h 0.446618 z m -0.302684,-1.17687 0.143933,0.5588 h -0.296333 z"
       id="text15"
       style="font-weight:500;font-size:2.11667px;font-family:OldSansBlack;-inkscape-font-specification:'OldSansBlack, Medium';fill:#ffffff;stroke-width:5.39988"
       aria-label="OUT A" />
    <path
       d="m 24.644089,279.12021 h 0.376767 l -0.3429,-0.69215 q 0.131233,-0.0466 0.201083,-0.14817 0.07197,-0.10372 0.07197,-0.24342 0,-0.12065 -0.0381,-0.21166 -0.03598,-0.0931 -0.103717,-0.15452 -0.06562,-0.0614 -0.160867,-0.0931 -0.09525,-0.0318 -0.211667,-0.0318 h -0.632884 v 1.57481 h 0.336551 v -0.6223 h 0.2159 z m -0.09102,-1.24249 q 0.02752,0.0233 0.04233,0.0614 0.01482,0.0381 0.01482,0.0931 0,0.0614 -0.02328,0.0974 -0.02328,0.036 -0.06138,0.055 -0.0381,0.019 -0.08678,0.0254 -0.04868,0.004 -0.09737,0.004 h -0.201083 v -0.38523 h 0.23495 q 0.122767,0 0.1778,0.0487 z m 1.835153,1.24249 h 0.300567 v -1.57481 h -0.455081 l -0.281517,1.01177 -0.279401,-1.01177 h -0.450851 v 1.57481 h 0.300568 v -1.07104 l 0.302683,1.07104 h 0.256117 l 0.306918,-1.07315 z m 2.296587,-0.19474 q 0.169334,-0.20955 0.169334,-0.59266 0,-0.16299 -0.03598,-0.30904 -0.03387,-0.14816 -0.1143,-0.25823 -0.07832,-0.11219 -0.205317,-0.17569 -0.124884,-0.0656 -0.309034,-0.0656 -0.184151,0 -0.311151,0.0656 -0.127,0.0635 -0.207433,0.17569 -0.07832,0.11007 -0.114301,0.25823 -0.03387,0.14605 -0.03387,0.30904 0,0.16298 0.03387,0.31115 0.03598,0.14605 0.114301,0.25823 0.08043,0.11007 0.207433,0.17568 0.127,0.0635 0.311151,0.0635 0.32385,0 0.4953,-0.2159 z m -0.249767,-0.98213 q 0.08043,0.13123 0.08043,0.38947 0,0.25823 -0.08043,0.38946 -0.0762,0.127 -0.245533,0.127 -0.171451,0 -0.247651,-0.127 -0.08043,-0.13123 -0.08043,-0.38946 0,-0.25824 0.08043,-0.38947 0.0762,-0.127 0.247651,-0.127 0.169333,0 0.245533,0.127 z m 1.674286,1.03928 q 0.156633,-0.15875 0.156633,-0.45931 v -0.97791 h -0.33655 v 0.97367 q 0,0.18204 -0.06138,0.25612 -0.02963,0.036 -0.08255,0.055 -0.0508,0.019 -0.131233,0.019 -0.150284,0 -0.207434,-0.0762 -0.06138,-0.0741 -0.06138,-0.25823 v -0.96944 h -0.336551 v 0.99272 q 0,0.2921 0.15875,0.44874 0.160867,0.15451 0.450851,0.15451 0.294217,0 0.450851,-0.15875 z m 1.068918,-1.14723 h 0.400051 v -0.28999 h -1.134535 v 0.28999 h 0.397934 v 1.28482 h 0.33655 z"
       id="text16"
       style="font-weight:500;font-size:2.11667px;font-family:OldSansBlack;-inkscape-font-specification:'OldSansBlack, Medium';fill:#ffffff;stroke-width:5.39988"
       aria-label="RM OUT" />
    <path
       d="m 32.177926,206.57406 h 2.523772 v -0.68157 h -1.738489 v -0.89394 l 1.224845,-0.005 v -0.67169 h -1.224845 v -0.74083 h 1.679223 v -0.68157 h -2.464506 z m 4.588229,0 h 0.864305 l -0.992716,-1.88172 0.93345,-1.79282 h -0.864306 l -0.498828,1.03223 -0.498828,-1.03223 h -0.864306 l 0.933451,1.79282 -0.992717,1.88172 h 0.864306 l 0.558094,-1.14089 z m 3.259665,-0.19756 q 0.172862,-0.12347 0.301273,-0.31115 0.13335,-0.18768 0.242005,-0.46919 l -0.740833,-0.19262 q -0.05433,0.11853 -0.113595,0.21731 -0.05927,0.0988 -0.13335,0.17286 -0.07408,0.0692 -0.1778,0.10866 -0.09878,0.0395 -0.242005,0.0395 -0.365478,0 -0.523523,-0.2914 -0.172861,-0.30127 -0.172861,-0.889 0,-0.10865 0.0049,-0.242 0.0099,-0.13335 0.03457,-0.2667 0.0247,-0.13829 0.06915,-0.2667 0.04939,-0.12841 0.123472,-0.22719 0.07408,-0.10372 0.182739,-0.16298 0.113594,-0.0642 0.261761,-0.0642 0.256822,0 0.395111,0.14817 0.138289,0.14816 0.217312,0.37535 l 0.721077,-0.17286 q -0.09384,-0.32103 -0.22225,-0.51858 -0.123472,-0.2025 -0.296333,-0.30621 -0.340783,-0.20744 -0.790222,-0.20744 -0.414867,0 -0.701323,0.15805 -0.286455,0.15804 -0.464255,0.42474 -0.172862,0.26176 -0.251884,0.60255 -0.07408,0.34078 -0.07408,0.70132 0,0.36548 0.07408,0.70626 0.07902,0.33585 0.251884,0.60255 0.172861,0.26176 0.459316,0.4198 0.286456,0.15805 0.701323,0.15805 0.523522,0 0.864305,-0.24695 z m 2.80529,0.19756 h 0.795162 l -1.047045,-3.67948 h -0.928511 l -1.061862,3.67948 h 0.790223 l 0.212372,-0.77047 h 1.042106 z m -0.706261,-2.74603 0.335845,1.30387 h -0.691445 z m 2.904069,2.74603 0.9779,-3.67454 h -0.790222 l -0.6223,2.47439 -0.592667,-2.47439 h -0.785283 l 0.972961,3.67454 z m 1.37795,0 h 0.790222 v -3.67454 h -0.790222 z"
       id="text6"
       style="font-weight:500;font-size:4.93889px;font-family:OldSansBlack;-inkscape-font-specification:'OldSansBlack, Medium';fill:#ffffff;stroke-width:5.39988"
       aria-label="EXCAVI" />
  </g>
</svg>
