<?xml version="1.0" encoding="UTF-8" standalone="no"?>
<svg
   width="135"
   height="380"
   viewBox="0 0 35.718752 100.54167"
   version="1.1"
   id="svg8"
   sodipodi:docname="KickerModule.svg"
   inkscape:version="1.4.3 (0d15f75, 2025-12-25)"
   xmlns:inkscape="http://www.inkscape.org/namespaces/inkscape"
   xmlns:sodipodi="http://sodipodi.sourceforge.net/DTD/sodipodi-0.dtd"
   xmlns="http://www.w3.org/2000/svg"
   xmlns:svg="http://www.w3.org/2000/svg">
  <title
     id="title4886">Autinn Stomp</title>
  <sodipodi:namedview
     id="namedview14"
     pagecolor="#ffffff"
     bordercolor="#000000"
     borderopacity="0.25"
     inkscape:showpageshadow="2"
     inkscape:pageopacity="0.0"
     inkscape:pagecheckerboard="0"
     inkscape:deskcolor="#d1d1d1"
     inkscape:zoom="4.2473684"
     inkscape:cx="98.178439"
     inkscape:cy="92.645601"
     inkscape:window-width="1920"
     inkscape:window-height="1009"
     inkscape:window-x="-8"
     inkscape:window-y="-8"
     inkscape:window-maximized="1"
     inkscape:current-layer="layer1"
     showgrid="true">
    <inkscape:grid
       id="grid14"
       units="px"
       originx="0"
       originy="0"
       spacingx="0.26458335"
       spacingy="0.26458334"
       empcolor="#0099e5"
       empopacity="0.30196078"
       color="#0099e5"
       opacity="0.14901961"
       empspacing="5"
       enabled="true"
       visible="true" />
  </sodipodi:namedview>
  <defs
     id="defs2" />
  <g
     transform="translate(0,-196.45832)"
     id="layer1">
    <path
       id="rect817"
       d="M 2.5e-7,196.45831 H 35.71875 V 296.99999 H 2.5e-7 Z"
       style="fill:#202020;fill-opacity:1;stroke:none" />
    <path
       style="fill:none;stroke:#5e110a;stroke-width:4.23;stroke-linecap:butt;stroke-linejoin:miter;stroke-opacity:1"
       d="m -1.5,195.0 c 2.0,1.0 4.0,2.0 5.0,6.0 1.0,4.0 -1.0,8.0 -1.5,12.0 -0.5,4.0 1.0,7.0 3.0,10.0 2.5,3.5 5.0,3.0 7.0,6.0 2.0,3.0 0.0,7.0 -1.0,11.0 -1.0,4.0 -3.0,7.0 -3.0,11.0 0.0,4.0 3.0,7.0 5.0,10.0 2.0,3.0 4.0,6.0 4.0,10.0 0.0,4.0 -3.0,8.0 -5.0,12.0 -2.0,4.0 -2.0,8.0 0.0,12.0 2.0,4.0 5.0,7.0 6.0,11.0"
       id="path685_stomp" />
    <g
       transform="translate(5.95, 0)"
       style="fill:#ffd700"
       id="g6">
      <path
         d="m 5.05,289.42 q -0.17,-0.37 -0.38,-0.93 -0.21,-0.55 -0.44,-1.25 -0.11,0.32 -0.43,0.90 -0.31,0.58 -0.78,1.31 0.10,0.00 0.22,0.00 0.12,0 0.36,0 0.39,0 0.75,-0.01 0.36,-0.01 0.70,-0.03 z m 0.14,0.35 q -0.09,0 -0.24,0.00 -0.14,0.00 -0.19,0.00 -1.20,0 -1.64,0.13 -0.44,0.13 -0.71,0.50 -0.31,0.42 -0.69,1.01 -0.37,0.59 -0.47,0.59 -0.04,0 -0.06,-0.02 -0.02,-0.02 -0.02,-0.06 0,-0.04 0.44,-0.75 0.44,-0.71 0.83,-1.38 0.75,-1.30 1.13,-2.09 0.38,-0.79 0.38,-1.05 0,-0.03 -0.01,-0.07 -0.01,-0.04 -0.01,-0.05 0,-0.04 0.23,-0.16 0.23,-0.12 0.32,-0.12 0.03,0 0.23,0.65 0.19,0.65 0.46,1.33 0.75,1.93 1.06,2.43 0.30,0.49 0.60,0.49 0.08,0 0.17,-0.04 0.08,-0.04 0.10,-0.04 0.02,0 0.04,0.03 0.03,0.03 0.03,0.06 0,0.02 -0.15,0.11 -0.15,0.09 -0.29,0.19 -0.12,0.09 -0.29,0.24 -0.16,0.14 -0.20,0.14 -0.07,0 -0.29,-0.42 -0.21,-0.42 -0.75,-1.66 z"
         id="path1" />
      <path
         d="m 9.64,291.31 q -0.24,0.12 -0.60,0.31 -0.43,0.22 -0.51,0.22 -0.49,0 -0.72,-0.31 -0.22,-0.31 -0.22,-1.00 0,-0.16 0.01,-0.55 0.01,-0.39 0.01,-0.61 0,-0.04 -0.01,-0.14 -0.01,-0.09 -0.01,-0.15 0,-0.02 0.12,-0.06 0.09,-0.03 0.16,-0.05 0.15,-0.05 0.30,-0.12 0.15,-0.06 0.17,-0.06 0.05,0 0.08,0.02 0.03,0.02 0.03,0.05 0,0.04 -0.07,0.11 -0.07,0.07 -0.10,0.13 -0.08,0.14 -0.12,0.37 -0.03,0.23 -0.03,0.70 0,0.65 0.15,0.92 0.16,0.26 0.54,0.26 0.14,0 0.36,-0.06 0.22,-0.06 0.48,-0.18 v -1.51 q 0,-0.40 -0.16,-0.48 -0.03,-0.01 -0.03,-0.02 0,-0.11 0.08,-0.13 0.02,0.00 0.04,-0.01 0.15,-0.05 0.32,-0.14 0.17,-0.08 0.19,-0.08 0.04,0 0.10,0.05 0.05,0.05 0.05,0.09 0,0.00 -0.00,0.03 -0.04,0.17 -0.06,0.43 -0.01,0.23 -0.02,0.63 -0.00,0.38 -0.00,0.86 0,0.36 0.02,0.70 0.00,0.05 0.00,0.06 0,0.07 -0.23,0.20 -0.23,0.13 -0.29,0.13 -0.02,0 -0.03,-0.03 -0.00,-0.02 -0.00,-0.09 v -0.10 q 0,-0.07 0,-0.17 0.00,-0.09 0.00,-0.21 z"
         id="path2" />
      <path
         d="m 11.34,291.48 q 0.00,-0.30 0.00,-0.60 0.00,-0.29 0.00,-0.65 0,-0.21 -0.00,-0.46 0,-0.24 -0.00,-0.51 h -0.19 q -0.04,0 -0.05,-0.01 -0.01,-0.01 -0.01,-0.05 0.00,-0.07 0.06,-0.11 0.02,-0.01 0.02,-0.02 l 0.79,-0.72 q 0.05,-0.05 0.07,-0.06 0.02,-0.01 0.04,-0.01 0.02,0 0.04,0.02 0.02,0.01 0.02,0.04 0,0.01 -0.03,0.08 -0.12,0.25 -0.15,0.50 h 1.03 q 0.04,0 0.06,0.03 0.02,0.03 0.02,0.12 0,0.10 -0.02,0.13 -0.02,0.02 -0.15,0.02 h -0.98 q -0.02,0.30 -0.03,0.58 -0.01,0.28 -0.01,0.53 0,0.61 0.16,0.87 0.17,0.26 0.55,0.26 0.19,0 0.41,-0.08 0.21,-0.08 0.23,-0.08 0.01,0 0.02,0.01 0.01,0.01 0.01,0.03 v 0.05 q 0,0.13 -0.36,0.28 -0.36,0.14 -0.70,0.14 -0.26,0 -0.49,-0.08 -0.23,-0.08 -0.37,-0.25 z"
         id="path3" />
      <path
         d="m 14.67,289.92 v 1.55 q 0,0.04 -0.00,0.10 0,0.01 0,0.01 0,0.04 -0.02,0.07 -0.02,0.02 -0.07,0.04 -0.12,0.04 -0.26,0.08 -0.13,0.04 -0.14,0.04 -0.02,0 -0.04,-0.06 -0.01,-0.06 -0.01,-0.31 v -1.69 q 0,-0.38 -0.05,-0.48 -0.05,-0.09 -0.19,-0.09 -0.03,0 -0.09,0.02 -0.05,0.02 -0.07,0.02 -0.03,0 -0.06,-0.03 -0.02,-0.03 -0.02,-0.09 0.00,-0.05 0.20,-0.10 0.14,-0.03 0.23,-0.06 0.16,-0.05 0.35,-0.12 0.18,-0.07 0.21,-0.07 0.03,0 0.07,0.03 0.04,0.03 0.04,0.06 0,0.01 -0.00,0.08 -0.03,0.47 -0.03,0.99 z m -0.34,-3.00 q 0.15,0 0.26,0.11 0.11,0.11 0.11,0.26 0,0.15 -0.11,0.26 -0.11,0.10 -0.27,0.10 -0.15,0 -0.26,-0.10 -0.10,-0.11 -0.10,-0.26 0,-0.15 0.10,-0.26 0.11,-0.11 0.26,-0.11 z"
         id="path4" />
      <path
         d="m 16.01,291.70 v -1.58 q 0,-0.48 -0.10,-0.70 -0.10,-0.22 -0.33,-0.22 -0.03,0 -0.07,0.01 -0.04,0.01 -0.06,0.01 -0.03,0 -0.05,-0.02 -0.01,-0.02 -0.01,-0.07 0,-0.03 0.13,-0.07 0.09,-0.03 0.15,-0.05 0.21,-0.08 0.38,-0.20 0.04,-0.03 0.05,-0.03 0.07,0 0.20,0.14 0.13,0.14 0.19,0.34 0.34,-0.20 0.68,-0.32 0.34,-0.12 0.57,-0.12 0.38,0 0.56,0.29 0.17,0.29 0.17,0.98 0,0.32 -0.02,0.70 -0.01,0.38 -0.01,0.44 0,0.08 0.03,0.11 0.03,0.03 0.11,0.03 0.04,0 0.12,-0.03 0.08,-0.03 0.12,-0.03 0.02,0 0.04,0.03 0.01,0.03 0.01,0.08 0,0.07 -0.19,0.12 -0.16,0.04 -0.28,0.08 -0.16,0.06 -0.34,0.15 -0.16,0.08 -0.18,0.08 -0.03,0 -0.05,-0.02 -0.02,-0.02 -0.02,-0.05 0,-0.00 0.01,-0.05 0.14,-0.50 0.14,-1.25 0,-0.68 -0.18,-1.00 -0.18,-0.31 -0.57,-0.31 -0.17,0 -0.35,0.08 -0.17,0.08 -0.32,0.23 0,0.04 0.00,0.20 0.00,0.15 0.00,0.25 0,0.52 -0.00,0.97 -0.00,0.44 -0.02,0.75 l -0.40,0.14 q -0.00,0 -0.01,0.00 -0.01,0.00 -0.02,0.00 -0.03,0 -0.04,-0.02 -0.01,-0.02 -0.01,-0.09 z"
         id="path5" />
      <path
         d="m 19.79,291.70 v -1.58 q 0,-0.48 -0.10,-0.70 -0.10,-0.22 -0.33,-0.22 -0.03,0 -0.07,0.01 -0.04,0.01 -0.06,0.01 -0.03,0 -0.05,-0.02 -0.01,-0.02 -0.01,-0.07 0,-0.03 0.13,-0.07 0.09,-0.03 0.15,-0.05 0.21,-0.08 0.38,-0.20 0.04,-0.03 0.05,-0.03 0.07,0 0.20,0.14 0.13,0.14 0.19,0.34 0.34,-0.20 0.68,-0.32 0.34,-0.12 0.57,-0.12 0.38,0 0.56,0.29 0.17,0.29 0.17,0.98 0,0.32 -0.02,0.70 -0.01,0.38 -0.01,0.44 0,0.08 0.03,0.11 0.03,0.03 0.11,0.03 0.04,0 0.12,-0.03 0.08,-0.03 0.12,-0.03 0.02,0 0.04,0.03 0.01,0.03 0.01,0.08 0,0.07 -0.19,0.12 -0.16,0.04 -0.28,0.08 -0.16,0.06 -0.34,0.15 -0.16,0.08 -0.18,0.08 -0.03,0 -0.05,-0.02 -0.02,-0.02 -0.02,-0.05 0,-0.00 0.01,-0.05 0.14,-0.50 0.14,-1.25 0,-0.68 -0.18,-1.00 -0.18,-0.31 -0.57,-0.31 -0.17,0 -0.35,0.08 -0.17,0.08 -0.32,0.23 0,0.04 0.00,0.20 0.00,0.15 0.00,0.25 0,0.52 -0.00,0.97 -0.00,0.44 -0.02,0.75 l -0.40,0.14 q -0.00,0 -0.01,0.00 -0.01,0.00 -0.02,0.00 -0.03,0 -0.04,-0.02 -0.01,-0.02 -0.01,-0.09 z"
         id="path6" />
    </g>
    <path
       d="M 7.1765052,212.9286 H 6.6769935 v 1.29014 h -0.4125 V 212.9286 H 5.7649817 v -0.30937 h 1.4115235 z m 1.6489258,0.71114 q 0,0.29648 -0.1804688,0.45439 -0.1804687,0.15791 -0.5317383,0.15791 -0.3512695,0 -0.5317383,-0.15791 -0.1793945,-0.15791 -0.1793945,-0.45332 v -1.02158 h 0.4146484 v 0.99795 q 0,0.1665 0.069824,0.24814 0.069824,0.0816 0.2266601,0.0816 0.1546875,0 0.225586,-0.0784 0.071973,-0.0784 0.071973,-0.25136 v -0.99795 H 8.825431 Z m 1.840137,0.579 h -0.397461 l -0.6789066,-1.09785 v 1.09785 h -0.378125 v -1.59951 h 0.4930664 l 0.5833012,0.91631 v -0.91631 h 0.378125 z m 1.565136,0 h -1.156933 v -1.59951 h 1.156933 v 0.30937 h -0.746582 v 0.27608 h 0.692871 v 0.30937 h -0.692871 v 0.39531 h 0.746582 z"
       id="text7"
       style="font-weight:bold;font-size:2.2px;text-anchor:middle;fill:#ffffff"
       aria-label="TUNE" />
    <path
       d="m 24.290528,213.4206 q 0,0.22343 -0.102051,0.40068 -0.102051,0.17617 -0.257812,0.2707 -0.11709,0.0709 -0.256739,0.0988 -0.139648,0.028 -0.330859,0.028 h -0.563965 v -1.59951 h 0.580078 q 0.195508,0 0.337305,0.0333 0.141797,0.0322 0.238477,0.0924 0.165429,0.10098 0.259961,0.27285 0.0956,0.1708 0.0956,0.40284 z m -0.426465,-0.003 q 0,-0.15791 -0.05801,-0.26963 -0.05693,-0.11279 -0.181543,-0.17617 -0.06338,-0.0311 -0.12998,-0.0419 -0.06553,-0.0118 -0.198731,-0.0118 H 23.1916 v 1.00117 h 0.104199 q 0.147168,0 0.215918,-0.0129 0.06875,-0.014 0.134278,-0.0494 0.112793,-0.0644 0.165429,-0.17188 0.05264,-0.10849 0.05264,-0.26748 z m 1.898145,0.80114 h -1.156934 v -1.59951 h 1.156934 v 0.30937 h -0.746582 v 0.27608 h 0.692871 v 0.30937 h -0.692871 v 0.39531 h 0.746582 z m 1.068847,0.0311 q -0.17832,0 -0.329785,-0.0526 -0.150391,-0.0526 -0.258887,-0.15684 -0.108496,-0.1042 -0.168652,-0.25996 -0.05908,-0.15576 -0.05908,-0.35986 0,-0.19014 0.05693,-0.34483 0.05693,-0.15469 0.165429,-0.26533 0.1042,-0.10635 0.257813,-0.16436 0.154687,-0.058 0.337305,-0.058 0.100976,0 0.181542,0.0118 0.08164,0.0107 0.150391,0.029 0.07197,0.0204 0.129981,0.0462 0.05908,0.0247 0.103125,0.0462 v 0.38779 h -0.04727 q -0.03008,-0.0258 -0.07627,-0.0612 -0.04512,-0.0354 -0.103125,-0.0698 -0.05908,-0.0344 -0.127832,-0.058 -0.06875,-0.0236 -0.147168,-0.0236 -0.08701,0 -0.165429,0.0279 -0.07842,0.0268 -0.14502,0.0902 -0.06338,0.0612 -0.103125,0.16221 -0.03867,0.10097 -0.03867,0.24492 0,0.15039 0.0419,0.25137 0.04297,0.10097 0.107422,0.15898 0.06553,0.0591 0.146093,0.0849 0.08057,0.0247 0.158985,0.0247 0.0752,0 0.148242,-0.0226 0.07412,-0.0226 0.136426,-0.0612 0.05264,-0.0311 0.09775,-0.0666 0.04512,-0.0354 0.07412,-0.0612 h 0.04297 v 0.38242 q -0.06016,0.0269 -0.114942,0.0505 -0.05478,0.0236 -0.114941,0.0408 -0.07842,0.0226 -0.147168,0.0344 -0.06875,0.0118 -0.189063,0.0118 z m 2.347168,-0.0311 h -0.426464 l -0.110645,-0.32334 h -0.592969 l -0.110644,0.32334 h -0.415723 l 0.59082,-1.59951 h 0.474805 z m -0.637011,-0.6166 -0.196582,-0.57363 -0.196582,0.57363 z m 2.274121,-0.98291 -0.589746,0.98076 v 0.61875 h -0.4125 v -0.59941 l -0.599414,-1.0001 h 0.468359 l 0.345898,0.61875 0.334083,-0.61875 z"
       id="text8"
       style="font-weight:bold;font-size:2.2px;text-anchor:middle;fill:#ffffff"
       aria-label="DECAY" />
    <path
       d="m 6.1527831,229.71601 q 0,0.23632 -0.2008789,0.38457 -0.1998047,0.14716 -0.5435547,0.14716 -0.1987304,0 -0.3469726,-0.0344 -0.147168,-0.0354 -0.2760743,-0.0892 v -0.3835 h 0.045117 q 0.1278321,0.10205 0.2857422,0.15684 0.1589844,0.0548 0.3050782,0.0548 0.037598,0 0.098828,-0.006 0.06123,-0.006 0.099902,-0.0215 0.047266,-0.0193 0.077344,-0.0483 0.031152,-0.029 0.031152,-0.0859 0,-0.0526 -0.045117,-0.0902 -0.044043,-0.0387 -0.1299804,-0.0591 -0.090234,-0.0215 -0.191211,-0.0397 -0.099902,-0.0193 -0.1879883,-0.0483 -0.2019531,-0.0655 -0.2911132,-0.17724 -0.088086,-0.11279 -0.088086,-0.2793 0,-0.22344 0.1998047,-0.36416 0.2008789,-0.1418 0.515625,-0.1418 0.1579102,0 0.3115235,0.0312 0.1546875,0.0301 0.2674804,0.0763 v 0.36845 h -0.044043 q -0.09668,-0.0773 -0.2374024,-0.1289 -0.1396484,-0.0526 -0.2857422,-0.0526 -0.051563,0 -0.103125,0.008 -0.050488,0.006 -0.097754,0.0258 -0.041895,0.0161 -0.071973,0.0494 -0.030078,0.0322 -0.030078,0.0741 0,0.0634 0.04834,0.0977 0.04834,0.0333 0.1826172,0.0612 0.088086,0.0183 0.1686523,0.0354 0.081641,0.0172 0.1750977,0.0473 0.1836914,0.0601 0.2707031,0.16435 0.088086,0.10313 0.088086,0.26856 z m 2.4900391,-1.09678 -0.4307617,1.59951 h -0.456543 l -0.2868164,-1.04199 -0.2792969,1.04199 h -0.456543 l -0.4307617,-1.59951 h 0.4307617 l 0.2459961,1.10107 0.294336,-1.10107 h 0.4114258 l 0.2803711,1.10107 0.2578125,-1.10107 z m 1.4319338,1.59951 H 8.9178223 v -1.59951 h 1.1569337 v 0.30937 H 9.3281738 v 0.27608 h 0.6928712 v 0.30937 H 9.3281738 v 0.39531 h 0.7465822 z m 1.502832,0 h -1.156934 v -1.59951 h 1.156934 v 0.30937 h -0.746582 v 0.27608 h 0.692871 v 0.30937 h -0.692871 v 0.39531 h 0.746582 z m 1.666113,-1.09463 q 0,0.10742 -0.0376,0.21055 -0.0376,0.10205 -0.107422,0.17187 -0.09561,0.0945 -0.21377,0.14287 -0.117089,0.0483 -0.292187,0.0483 h -0.256735 v 0.52104 h -0.4125 v -1.59951 h 0.678906 q 0.152539,0 0.256738,0.0268 0.105274,0.0258 0.18584,0.0784 0.09668,0.0634 0.147168,0.16221 0.05156,0.0988 0.05156,0.2374 z m -0.426464,0.01 q 0,-0.0677 -0.03652,-0.11602 -0.03652,-0.0494 -0.08486,-0.0688 -0.06445,-0.0258 -0.125684,-0.0279 -0.06123,-0.003 -0.163281,-0.003 h -0.0709 v 0.4791 h 0.118164 q 0.105273,0 0.172949,-0.0129 0.06875,-0.0129 0.114941,-0.0516 0.03975,-0.0344 0.05693,-0.0816 0.01826,-0.0483 0.01826,-0.11709 z"
       id="text9"
       style="font-weight:bold;font-size:2.2px;text-anchor:middle;fill:#ffffff"
       aria-label="SWEEP" />
    <path
       d="m 23.885548,230.24989 q -0.178321,0 -0.329786,-0.0526 -0.15039,-0.0526 -0.258886,-0.15684 -0.108496,-0.1042 -0.168653,-0.25996 -0.05908,-0.15576 -0.05908,-0.35986 0,-0.19014 0.05693,-0.34483 0.05693,-0.15469 0.16543,-0.26533 0.104199,-0.10635 0.257812,-0.16436 0.154688,-0.058 0.337305,-0.058 0.100976,0 0.181543,0.0118 0.08164,0.0107 0.15039,0.029 0.07197,0.0204 0.129981,0.0462 0.05908,0.0247 0.103125,0.0462 v 0.38779 h -0.04727 q -0.03008,-0.0258 -0.07627,-0.0612 -0.04512,-0.0354 -0.103125,-0.0698 -0.05908,-0.0344 -0.127832,-0.058 -0.06875,-0.0236 -0.147168,-0.0236 -0.08701,0 -0.16543,0.0279 -0.07842,0.0268 -0.14502,0.0902 -0.06338,0.0612 -0.103125,0.16221 -0.03867,0.10097 -0.03867,0.24492 0,0.15039 0.04189,0.25137 0.04297,0.10097 0.107422,0.15898 0.06553,0.0591 0.146094,0.0849 0.08057,0.0247 0.158984,0.0247 0.0752,0 0.148242,-0.0226 0.07412,-0.0226 0.136426,-0.0612 0.05264,-0.0311 0.09775,-0.0666 0.04512,-0.0354 0.07412,-0.0612 h 0.04297 v 0.38242 q -0.06016,0.0269 -0.114942,0.0505 -0.05478,0.0236 -0.114941,0.0408 -0.07842,0.0226 -0.147168,0.0344 -0.06875,0.0118 -0.189062,0.0118 z m 2.022754,-0.0311 h -1.153711 v -1.59951 h 0.4125 v 1.29013 h 0.741211 z m 1.11289,0 h -0.936718 v -0.28359 h 0.262109 v -1.03233 h -0.262109 v -0.28359 h 0.936718 v 0.28359 h -0.262109 v 1.03233 h 0.262109 z m 1.05918,0.0311 q -0.178321,0 -0.329785,-0.0526 -0.150391,-0.0526 -0.258887,-0.15684 -0.108496,-0.1042 -0.168652,-0.25996 -0.05908,-0.15576 -0.05908,-0.35986 0,-0.19014 0.05693,-0.34483 0.05693,-0.15469 0.16543,-0.26533 0.104199,-0.10635 0.257812,-0.16436 0.154688,-0.058 0.337305,-0.058 0.100977,0 0.181543,0.0118 0.08164,0.0107 0.150391,0.029 0.07197,0.0204 0.12998,0.0462 0.05908,0.0247 0.103125,0.0462 v 0.38779 h -0.04727 q -0.03008,-0.0258 -0.07627,-0.0612 -0.04512,-0.0354 -0.103125,-0.0698 -0.05908,-0.0344 -0.127832,-0.058 -0.06875,-0.0236 -0.147168,-0.0236 -0.08701,0 -0.16543,0.0279 -0.07842,0.0268 -0.145019,0.0902 -0.06338,0.0612 -0.103125,0.16221 -0.03867,0.10097 -0.03867,0.24492 0,0.15039 0.04189,0.25137 0.04297,0.10097 0.107422,0.15898 0.06553,0.0591 0.146094,0.0849 0.08057,0.0247 0.158984,0.0247 0.0752,0 0.148243,-0.0226 0.07412,-0.0226 0.136425,-0.0612 0.05264,-0.0311 0.09775,-0.0666 0.04512,-0.0354 0.07412,-0.0612 h 0.04297 v 0.38242 q -0.06016,0.0269 -0.114941,0.0505 -0.05478,0.0236 -0.114942,0.0408 -0.07842,0.0226 -0.147168,0.0344 -0.06875,0.0118 -0.189062,0.0118 z m 2.362207,-0.0311 h -0.505957 l -0.478027,-0.64023 -0.09668,0.11709 v 0.52314 h -0.4125 v -1.59951 h 0.4125 v 0.72402 l 0.571484,-0.72402 h 0.478028 l -0.625196,0.74013 z"
       id="text10"
       style="font-weight:bold;font-size:2.2px;text-anchor:middle;fill:#ffffff"
       aria-label="CLICK" />
    <path
       d="m 24.066705,244.4206 q 0,0.22343 -0.102051,0.40068 -0.10205,0.17617 -0.257812,0.2707 -0.11709,0.0709 -0.256738,0.0988 -0.139649,0.028 -0.33086,0.028 h -0.563965 v -1.59951 h 0.580078 q 0.195508,0 0.337305,0.0333 0.141797,0.0322 0.238477,0.0924 0.165429,0.10098 0.259961,0.27285 0.09561,0.1708 0.09561,0.40284 z m -0.426465,-0.003 q 0,-0.15791 -0.05801,-0.26963 -0.05693,-0.11279 -0.181542,-0.17617 -0.06338,-0.0311 -0.129981,-0.0419 -0.06553,-0.0118 -0.19873,-0.0118 h -0.1042 v 1.00117 h 0.1042 q 0.147168,0 0.215918,-0.0129 0.06875,-0.014 0.134277,-0.0494 0.112793,-0.0644 0.16543,-0.17188 0.05264,-0.10849 0.05264,-0.26748 z m 1.638184,-0.3083 q 0,-0.0601 -0.02471,-0.10312 -0.02471,-0.043 -0.08486,-0.0677 -0.0419,-0.0172 -0.09775,-0.0204 -0.05586,-0.004 -0.129981,-0.004 h -0.149316 v 0.43077 h 0.126758 q 0.09883,0 0.165429,-0.01 0.0666,-0.01 0.111719,-0.044 0.04297,-0.0333 0.0623,-0.073 0.02041,-0.0408 0.02041,-0.1085 z m 0.643457,1.10944 h -0.503809 l -0.436132,-0.58652 h -0.190137 v 0.58652 h -0.410352 v -1.59951 h 0.691797 q 0.141797,0 0.243848,0.0161 0.102051,0.0161 0.191211,0.0698 0.09023,0.0537 0.142871,0.13964 0.05371,0.0849 0.05371,0.21377 0,0.17725 -0.08272,0.28897 -0.08164,0.11172 -0.23418,0.18584 z m 1.045215,0 h -0.936719 v -0.28359 h 0.26211 v -1.03233 h -0.26211 v -0.28359 h 0.936719 v 0.28359 h -0.262109 v 1.03233 h 0.262109 z m 1.786426,-1.59951 -0.583301,1.59951 h -0.461914 l -0.583301,-1.59951 h 0.43291 l 0.386719,1.12363 0.386719,-1.12363 z m 1.386816,1.59951 h -1.156933 v -1.59951 h 1.156933 v 0.30937 h -0.746582 v 0.27608 h 0.692871 v 0.30937 h -0.692871 v 0.39531 h 0.746582 z"
       id="text11"
       style="font-weight:bold;font-size:2.2px;text-anchor:middle;fill:#ffffff"
       aria-label="DRIVE" />
    <path
       d="M 4.3526855,280.20986 H 3.8531738 V 281.5 h -0.4125 v -1.29014 H 2.941162 v -0.30937 h 1.4115235 z m 1.1451172,0.18047 q 0,-0.0602 -0.024707,-0.10312 -0.024707,-0.043 -0.084863,-0.0677 -0.041895,-0.0172 -0.097754,-0.0204 -0.055859,-0.004 -0.1299804,-0.004 H 5.0111816 v 0.43077 h 0.1267578 q 0.098828,0 0.1654297,-0.01 0.066601,-0.01 0.1117187,-0.0441 0.042969,-0.0333 0.062305,-0.073 0.02041,-0.0408 0.02041,-0.1085 z M 6.1412597,281.5 H 5.6374511 L 5.2013183,280.91348 H 5.0111816 V 281.5 H 4.60083 v -1.59951 h 0.6917969 q 0.1417969,0 0.2438476,0.0161 0.1020508,0.0161 0.191211,0.0698 0.090234,0.0537 0.1428711,0.13964 0.053711,0.0849 0.053711,0.21377 0,0.17725 -0.082715,0.28897 -0.081641,0.11172 -0.2341797,0.18584 z m 1.0452149,0 H 6.2497558 v -0.28359 h 0.2621094 v -1.03233 H 6.2497558 v -0.28359 h 0.9367188 v 0.28359 H 6.9243652 v 1.03233 h 0.2621094 z m 1.7509766,-0.0913 q -0.1074218,0.0419 -0.2846679,0.0838 -0.1772461,0.0408 -0.353418,0.0408 -0.4082032,0 -0.6391602,-0.22129 -0.230957,-0.22236 -0.230957,-0.61338 0,-0.37275 0.2331055,-0.60049 0.2331054,-0.2288 0.6499023,-0.2288 0.1579102,0 0.3007813,0.029 0.1428711,0.0279 0.3179687,0.11279 v 0.37491 h -0.046191 q -0.030078,-0.0226 -0.088086,-0.0634 -0.058008,-0.0419 -0.1117188,-0.0709 -0.062305,-0.0344 -0.1460937,-0.0591 -0.082715,-0.0247 -0.1761719,-0.0247 -0.1095703,0 -0.1987305,0.0322 -0.08916,0.0322 -0.1600586,0.0988 -0.067676,0.0645 -0.1074219,0.16436 -0.038672,0.0988 -0.038672,0.22881 0,0.26533 0.1407226,0.40605 0.1407227,0.14072 0.4157227,0.14072 0.023633,0 0.051563,-0.001 0.029004,-0.001 0.052637,-0.003 V 280.921 h -0.319043 v -0.30186 h 0.7379883 z"
       id="text12"
       style="font-weight:bold;font-size:2.2px;text-anchor:middle;fill:#ffffff"
       aria-label="TRIG" />
    <path
       d="M 15.424952,279.90049 14.841651,281.5 h -0.461914 l -0.583301,-1.59951 h 0.43291 l 0.386719,1.12363 0.386719,-1.12363 z m 1.33955,-0.072 -0.851855,2.01953 h -0.329785 l 0.848632,-2.01953 z m 1.962598,0.87226 q 0,0.38242 -0.219141,0.60801 -0.21914,0.22451 -0.605859,0.22451 -0.385645,0 -0.604785,-0.22451 -0.219141,-0.22559 -0.219141,-0.60801 0,-0.38564 0.219141,-0.60908 0.21914,-0.22451 0.604785,-0.22451 0.38457,0 0.604785,0.22451 0.220215,0.22344 0.220215,0.60908 z m -0.546777,0.40498 q 0.06016,-0.073 0.08916,-0.17187 0.029,-0.0999 0.029,-0.23418 0,-0.14395 -0.0333,-0.24492 -0.0333,-0.10098 -0.08701,-0.16329 -0.05478,-0.0644 -0.126758,-0.0934 -0.0709,-0.029 -0.148242,-0.029 -0.07842,0 -0.148242,0.0279 -0.06875,0.0279 -0.126758,0.0924 -0.05371,0.0602 -0.08809,0.1665 -0.0333,0.10527 -0.0333,0.24492 0,0.14287 0.03223,0.24385 0.0333,0.0999 0.08701,0.16328 0.05371,0.0634 0.125683,0.0935 0.07197,0.0301 0.151465,0.0301 0.07949,0 0.151465,-0.0301 0.07197,-0.0312 0.125684,-0.0956 z m 1.584472,0.42539 q -0.17832,0 -0.329785,-0.0526 -0.15039,-0.0526 -0.258886,-0.15684 -0.108497,-0.1042 -0.168653,-0.25996 -0.05908,-0.15576 -0.05908,-0.35986 0,-0.19014 0.05693,-0.34483 0.05693,-0.15469 0.165429,-0.26533 0.1042,-0.10635 0.257813,-0.16436 0.154687,-0.058 0.337305,-0.058 0.100976,0 0.181543,0.0118 0.08164,0.0107 0.15039,0.029 0.07197,0.0204 0.129981,0.0462 0.05908,0.0247 0.103125,0.0462 v 0.38779 h -0.04727 q -0.03008,-0.0258 -0.07627,-0.0612 -0.04512,-0.0354 -0.103125,-0.0698 -0.05908,-0.0344 -0.127832,-0.058 -0.06875,-0.0236 -0.147168,-0.0236 -0.08701,0 -0.16543,0.0279 -0.07842,0.0268 -0.14502,0.0902 -0.06338,0.0612 -0.103125,0.16221 -0.03867,0.10097 -0.03867,0.24492 0,0.15039 0.0419,0.25137 0.04297,0.10097 0.107422,0.15898 0.06553,0.0591 0.146094,0.0849 0.08057,0.0247 0.158984,0.0247 0.0752,0 0.148242,-0.0226 0.07412,-0.0226 0.136426,-0.0612 0.05264,-0.0311 0.09775,-0.0666 0.04512,-0.0354 0.07412,-0.0612 h 0.04297 v 0.38242 q -0.06016,0.0269 -0.114942,0.0505 -0.05478,0.0236 -0.114941,0.0408 -0.07842,0.0226 -0.147168,0.0344 -0.06875,0.0118 -0.189063,0.0118 z m 2.120508,-1.32129 H 21.385792 V 281.5 h -0.4125 v -1.29014 H 20.47378 v -0.30937 h 1.411523 z"
       id="text13"
       style="font-weight:bold;font-size:2.2px;text-anchor:middle;fill:#ffffff"
       aria-label="V/OCT" />
    <path
       d="m 28.881446,280.70078 q 0,0.38242 -0.219141,0.60801 -0.21914,0.22451 -0.605859,0.22451 -0.385644,0 -0.604785,-0.22451 -0.219141,-0.22559 -0.219141,-0.60801 0,-0.38564 0.219141,-0.60908 0.219141,-0.22451 0.604785,-0.22451 0.38457,0 0.604785,0.22451 0.220215,0.22344 0.220215,0.60908 z m -0.546777,0.40498 q 0.06016,-0.073 0.08916,-0.17187 0.029,-0.0999 0.029,-0.23418 0,-0.14395 -0.0333,-0.24492 -0.0333,-0.10098 -0.08701,-0.16329 -0.05478,-0.0644 -0.126758,-0.0934 -0.0709,-0.029 -0.148242,-0.029 -0.07842,0 -0.148242,0.0279 -0.06875,0.0279 -0.126758,0.0924 -0.05371,0.0602 -0.08809,0.1665 -0.0333,0.10527 -0.0333,0.24492 0,0.14287 0.03223,0.24385 0.0333,0.0999 0.08701,0.16328 0.05371,0.0634 0.125683,0.0935 0.07197,0.0301 0.151465,0.0301 0.07949,0 0.151465,-0.0301 0.07197,-0.0312 0.125684,-0.0956 z m 2.262304,-0.18476 q 0,0.29648 -0.180468,0.45439 -0.180469,0.15791 -0.531739,0.15791 -0.351269,0 -0.531738,-0.15791 -0.179394,-0.15791 -0.179394,-0.45332 v -1.02158 h 0.414648 v 0.99795 q 0,0.1665 0.06982,0.24814 0.06983,0.0816 0.22666,0.0816 0.154688,0 0.225586,-0.0784 0.07197,-0.0784 0.07197,-0.25136 v -0.99795 h 0.414648 z m 1.63711,-0.71114 H 31.734571 V 281.5 h -0.4125 v -1.29014 h -0.499512 v -0.30937 h 1.411524 z"
       id="text14"
       style="font-weight:bold;font-size:2.2px;text-anchor:middle;fill:#ffffff"
       aria-label="OUT" />
    <path
       d="m 12.311819,206.49171 q 0.345723,-0.29634 0.345723,-0.83468 0,-0.49883 -0.350662,-0.76059 -0.330906,-0.25682 -0.750713,-0.40005 -0.296334,-0.10372 -0.533401,-0.23707 -0.113595,-0.0642 -0.162984,-0.13335 -0.04445,-0.0691 -0.04445,-0.14323 0,-0.0938 0.03951,-0.15804 0.04445,-0.0691 0.108656,-0.10372 0.06915,-0.0395 0.148167,-0.0543 0.08396,-0.0197 0.162984,-0.0197 0.246945,0 0.380295,0.13335 0.138289,0.12841 0.22719,0.34078 l 0.726018,-0.22225 q -0.108656,-0.25188 -0.242006,-0.41486 -0.13335,-0.16299 -0.306212,-0.26671 -0.345723,-0.21237 -0.780346,-0.21237 -0.518585,0 -0.864308,0.28646 -0.345723,0.28645 -0.345723,0.72602 0,0.4445 0.296334,0.69638 0.281518,0.23213 0.85443,0.44944 0.291395,0.10866 0.498829,0.24695 0.187678,0.12347 0.187678,0.30621 0,0.12347 -0.04445,0.20743 -0.04445,0.079 -0.123472,0.12841 -0.07408,0.0445 -0.172862,0.0642 -0.09878,0.0198 -0.202495,0.0198 -0.148167,0 -0.2667,-0.0395 -0.113595,-0.0445 -0.202495,-0.11853 -0.0889,-0.0741 -0.158045,-0.1778 -0.06914,-0.10866 -0.128412,-0.23707 l -0.656873,0.28646 q 0.113594,0.2667 0.261761,0.43956 0.148167,0.16792 0.350662,0.27658 0.380296,0.21237 0.780347,0.21237 0.622301,0 0.968024,-0.28645 z m 2.311406,-2.76085 h 0.933452 v -0.67663 h -2.647251 v 0.67663 h 0.928513 v 2.99791 h 0.785286 z m 3.788135,2.54353 q 0.395112,-0.48895 0.395112,-1.38289 0,-0.38029 -0.08396,-0.72108 -0.07902,-0.34572 -0.266701,-0.60254 -0.182739,-0.26177 -0.479073,-0.40993 -0.291395,-0.15311 -0.72108,-0.15311 -0.429684,0 -0.726018,0.15311 -0.296334,0.14816 -0.484012,0.40993 -0.18274,0.25682 -0.266701,0.60254 -0.07902,0.34079 -0.07902,0.72108 0,0.3803 0.07902,0.72602 0.08396,0.34078 0.266701,0.60255 0.187678,0.25682 0.484012,0.40992 0.296334,0.14817 0.726018,0.14817 0.755652,0 1.155702,-0.50377 z m -0.58279,-2.29165 q 0.187678,0.30622 0.187678,0.90876 0,0.60255 -0.187678,0.90876 -0.177801,0.29633 -0.572913,0.29633 -0.400051,0 -0.577851,-0.29633 -0.187678,-0.30621 -0.187678,-0.90876 0,-0.60254 0.187678,-0.90876 0.1778,-0.29633 0.577851,-0.29633 0.395112,0 0.572913,0.29633 z m 4.138797,2.74603 h 0.701324 v -3.67454 h -1.061863 l -0.656874,2.3608 -0.651935,-2.3608 h -1.051986 v 3.67454 h 0.701324 v -2.49908 l 0.706263,2.49908 h 0.597607 l 0.71614,-2.50402 z m 3.654787,-1.72367 q 0.350662,-0.28646 0.350662,-0.82974 0,-0.30621 -0.103717,-0.51858 -0.09878,-0.21731 -0.276579,-0.35067 -0.1778,-0.13335 -0.419806,-0.19261 -0.237067,-0.0593 -0.518585,-0.0593 h -1.358197 v 3.67454 h 0.790224 v -1.44216 h 0.563035 q 0.632179,0 0.972963,-0.28151 z m -0.577851,-1.1804 q 0.06421,0.0494 0.09878,0.13829 0.03457,0.084 0.03457,0.22225 0,0.13829 -0.04939,0.22719 -0.04939,0.084 -0.13335,0.13335 -0.07902,0.0445 -0.187679,0.0642 -0.103717,0.0148 -0.22225,0.0148 h -0.498829 v -0.90876 h 0.498829 q 0.321028,0 0.459318,0.10866 z"
       id="text1"
       style="font-size:4.9389px;font-family:OldSansBlack;-inkscape-font-specification:OldSansBlack;fill:#ffffff;stroke-width:5.564"
       aria-label="STOMP" />
    <path
       d="m 6.2234801,244.45638 q 0.1502835,-0.12277 0.1502835,-0.3556 0,-0.13123 -0.04445,-0.22225 -0.042333,-0.0931 -0.1185336,-0.15028 -0.0762,-0.0572 -0.1799169,-0.0826 -0.1016002,-0.0254 -0.2222503,-0.0254 H 5.2265285 v 1.57481 h 0.3386672 v -0.61807 h 0.2413004 q 0.2709337,0 0.416984,-0.12065 z M 5.9758297,243.9505 q 0.027517,0.0212 0.042333,0.0593 0.014817,0.036 0.014817,0.0952 0,0.0593 -0.021167,0.0974 -0.021167,0.036 -0.05715,0.0572 -0.033867,0.019 -0.080433,0.0275 -0.04445,0.006 -0.09525,0.006 H 5.5651957 v -0.38947 h 0.2137837 q 0.1375835,0 0.1968503,0.0466 z m 0.5757344,1.2446 h 0.3386672 v -0.34714 H 6.5515641 Z m 1.6912198,-0.20532 q 0.09525,-0.1016 0.1397003,-0.24553 0.04445,-0.14605 0.04445,-0.33444 0,-0.17991 -0.042333,-0.32385 -0.042333,-0.14605 -0.1312335,-0.24976 -0.0889,-0.10372 -0.2264837,-0.15875 -0.1354669,-0.0572 -0.3238505,-0.0572 H 7.1865657 v 1.57481 h 0.5207008 q 0.3513672,0 0.5355174,-0.20532 z m -0.2518837,-0.95462 q 0.046567,0.0614 0.06985,0.15452 0.0254,0.091 0.0254,0.2159 0,0.1016 -0.016933,0.19262 -0.016933,0.0889 -0.061383,0.15875 -0.042333,0.0677 -0.1185335,0.10795 -0.074083,0.0381 -0.1905003,0.0381 h -0.173567 v -0.9906 h 0.1778003 q 0.1947337,0 0.2878671,0.12276 z m 0.620184,1.15994 H 9.6927025 V 244.903 H 8.9476347 v -0.38312 l 0.5249341,-0.002 V 244.2299 H 8.9476347 v -0.3175 h 0.7196678 v -0.29211 H 8.6110842 Z m 2.1865198,-0.0847 q 0.07408,-0.0529 0.129117,-0.13335 0.05715,-0.0804 0.103717,-0.20108 l -0.317501,-0.0825 q -0.02328,0.0508 -0.04868,0.0931 -0.0254,0.0423 -0.05715,0.0741 -0.03175,0.0296 -0.0762,0.0466 -0.04233,0.0169 -0.103717,0.0169 -0.156634,0 -0.224367,-0.12488 -0.07408,-0.12912 -0.07408,-0.381 0,-0.0466 0.0021,-0.10372 0.0042,-0.0572 0.01482,-0.1143 0.01058,-0.0593 0.02963,-0.1143 0.02117,-0.055 0.05292,-0.0974 0.03175,-0.0444 0.07832,-0.0699 0.04868,-0.0275 0.112183,-0.0275 0.110067,0 0.169334,0.0635 0.05927,0.0635 0.09313,0.16087 l 0.309034,-0.0741 q -0.04022,-0.13758 -0.09525,-0.22225 -0.05292,-0.0868 -0.127,-0.13123 -0.14605,-0.0889 -0.338667,-0.0889 -0.177801,0 -0.300567,0.0677 -0.122767,0.0677 -0.1989674,0.18204 -0.074083,0.11218 -0.1079502,0.25823 -0.03175,0.14605 -0.03175,0.30057 0,0.15663 0.03175,0.30268 0.033867,0.14393 0.1079502,0.25823 0.074083,0.11219 0.1968504,0.17992 0.122767,0.0677 0.300567,0.0677 0.224367,0 0.370417,-0.10583 z m 1.202269,0.0847 h 0.340784 l -0.448734,-1.57692 h -0.397934 l -0.455084,1.57692 h 0.338667 l 0.09102,-0.3302 h 0.446617 z m -0.302684,-1.17687 0.143934,0.5588 h -0.296334 z m 1.212852,0.5461 0.433918,-0.94404 h -0.355601 l -0.24765,0.56939 -0.24765,-0.56939 h -0.355601 l 0.436034,0.95039 v 0.62442 h 0.33655 z"
       id="text2"
       style="font-weight:500;font-size:2.11667px;font-family:OldSansBlack;-inkscape-font-specification:'OldSansBlack Medium';fill:#ffffff;stroke-width:4.23333"
       aria-label="P.DECAY" />
  </g>
</svg>
