<?xml version="1.0" encoding="UTF-8" standalone="no"?>
<!-- Created with Inkscape (http://www.inkscape.org/) -->

<svg
   width="45"
   height="380"
   viewBox="0 0 11.906251 100.54167"
   version="1.1"
   id="svg8"
   inkscape:version="1.4.3 (0d15f75, 2025-12-25)"
   sodipodi:docname="RadModule.svg"
   xmlns:inkscape="http://www.inkscape.org/namespaces/inkscape"
   xmlns:sodipodi="http://sodipodi.sourceforge.net/DTD/sodipodi-0.dtd"
   xmlns="http://www.w3.org/2000/svg"
   xmlns:svg="http://www.w3.org/2000/svg"
   xmlns:rdf="http://www.w3.org/1999/02/22-rdf-syntax-ns#"
   xmlns:cc="http://creativecommons.org/ns#"
   xmlns:dc="http://purl.org/dc/elements/1.1/">
  <title
     id="title4816">Autinn Rad</title>
  <defs
     id="defs2">
    <inkscape:path-effect
       effect="spiro"
       id="path-effect4668"
       is_visible="true" />
    <inkscape:path-effect
       effect="spiro"
       id="path-effect2944"
       is_visible="true" />
  </defs>
  <sodipodi:namedview
     id="base"
     pagecolor="#ffffff"
     bordercolor="#666666"
     borderopacity="1.0"
     inkscape:pageopacity="0.0"
     inkscape:pageshadow="2"
     inkscape:zoom="5.3900332"
     inkscape:cx="11.502712"
     inkscape:cy="48.144416"
     inkscape:document-units="px"
     inkscape:current-layer="layer1"
     showgrid="true"
     units="px"
     inkscape:snap-bbox="true"
     inkscape:snap-page="true"
     inkscape:bbox-nodes="false"
     inkscape:snap-bbox-edge-midpoints="true"
     inkscape:window-width="1920"
     inkscape:window-height="1009"
     inkscape:window-x="-8"
     inkscape:window-y="-8"
     inkscape:window-maximized="1"
     inkscape:snap-grids="true"
     inkscape:snap-to-guides="false"
     inkscape:snap-global="false"
     inkscape:pagecheckerboard="true"
     inkscape:snap-nodes="false"
     inkscape:snap-others="false"
     inkscape:showpageshadow="2"
     inkscape:deskcolor="#d1d1d1">
    <inkscape:grid
       type="xygrid"
       id="grid4367"
       originx="0"
       originy="0"
       spacingy="1"
       spacingx="1"
       units="px" />
  </sodipodi:namedview>
  <metadata
     id="metadata5">
    <rdf:RDF>
      <cc:Work
         rdf:about="">
        <dc:format>image/svg+xml</dc:format>
        <dc:type
           rdf:resource="http://purl.org/dc/dcmitype/StillImage" />
        <dc:title>Autinn Amp</dc:title>
      </cc:Work>
    </rdf:RDF>
  </metadata>
  <g
     inkscape:label="Layer 1"
     inkscape:groupmode="layer"
     id="layer1"
     transform="translate(0,-196.45832)">
    <path
       style="opacity:1;vector-effect:none;fill:#202020;fill-opacity:1;fill-rule:evenodd;stroke:none;stroke-width:0.3437039;stroke-linecap:butt;stroke-linejoin:round;stroke-miterlimit:4;stroke-dasharray:none;stroke-dashoffset:0;stroke-opacity:1;paint-order:normal"
       d="M 0,196.45831 H 11.906251 V 296.99999 H 0 Z"
       id="rect817"
       inkscape:connector-curvature="0" />
    <path
       style="fill:none;stroke:#5e110a;stroke-width:4.23333;stroke-linecap:butt;stroke-linejoin:miter;stroke-miterlimit:4;stroke-dasharray:none;stroke-opacity:1"
       d="m 17.591873,286.53208 c -4.279799,-0.0796 -8.5197588,-1.60879 -11.86516,-4.27924 -1.8691941,-1.49208 -3.4924265,-3.38225 -4.2792383,-5.64081 -0.99039649,-2.84296 -0.56776149,-6.01279 0.4558036,-8.84397 1.0235649,-2.83119 2.6129497,-5.41591 4.0179456,-8.07848 1.8151388,-3.43982 3.3441214,-7.07022 4.0450823,-10.89589 0.7009608,-3.82567 0.5380418,-7.87238 -0.9329093,-11.47285 -0.7899621,-1.9336 -1.9382747,-3.70515 -2.7231514,-5.64082 -1.9281944,-4.75534 -1.5157594,-10.2005 0.076344,-15.07866 1.5921032,-4.87815 4.2839715,-9.31 6.9260455,-13.70894 0.194658,-0.3241 0.389168,-0.64828 0.583533,-0.97255"
       id="path4666" />
    <g
       aria-label="Autinn"
       style="font-style:normal;font-weight:normal;font-size:7.05555534px;line-height:1.25;font-family:sans-serif;letter-spacing:0px;word-spacing:0px;fill:#ffd700;fill-opacity:1;stroke:none;stroke-width:0.26458332"
       id="text3739"
       transform="matrix(0.476,0,0,0.476,0.28574709,151.50542)">
      <path
         d="m 5.0556776,289.41931 q -0.1756999,-0.37896 -0.3858507,-0.93706 -0.2101508,-0.55811 -0.4409722,-1.25057 -0.1171332,0.32728 -0.4375271,0.9095 -0.3169488,0.58223 -0.7820367,1.31948 0.106798,0.007 0.2239312,0.007 0.1205784,0 0.3617351,0 0.3927408,0 0.7544759,-0.0103 0.3651801,-0.0138 0.7062445,-0.0379 z m 0.1481391,0.35485 q -0.099908,0 -0.2480469,0.003 -0.144694,0.003 -0.1963704,0.003 -1.2057834,0 -1.6467556,0.13436 -0.4409722,0.13436 -0.7165798,0.50643 -0.3135037,0.4203 -0.6924642,1.01975 -0.3789605,0.596 -0.4719781,0.596 -0.041341,0 -0.065457,-0.0241 -0.027561,-0.0241 -0.027561,-0.0689 0,-0.0413 0.4478624,-0.75448 0.4478624,-0.71658 0.8371581,-1.38148 0.7544759,-1.30225 1.1368815,-2.09806 0.3858507,-0.79582 0.3858507,-1.05765 0,-0.0344 -0.010335,-0.0758 -0.010335,-0.0448 -0.010335,-0.0517 0,-0.0413 0.2342665,-0.1688 0.2377116,-0.12747 0.323839,-0.12747 0.037896,0 0.2308214,0.65801 0.1929253,0.65457 0.4616427,1.33325 0.757921,1.93615 1.0610894,2.43568 0.3066135,0.49954 0.6028917,0.49954 0.082682,0 0.1722548,-0.0448 0.089573,-0.0482 0.1033528,-0.0482 0.020671,0 0.048231,0.0379 0.031006,0.0379 0.031006,0.0689 0,0.0207 -0.1550293,0.11714 -0.1550292,0.0965 -0.2928331,0.19292 -0.1274685,0.0965 -0.2928331,0.24116 -0.1619195,0.14125 -0.2067057,0.14125 -0.075792,0 -0.2928331,-0.42375 -0.2135959,-0.42375 -0.7510308,-1.66398 z"
         style="font-style:normal;font-variant:normal;font-weight:normal;font-stretch:normal;font-family:'Calligraph421 BT';-inkscape-font-specification:'Calligraph421 BT';stroke-width:0.26458332;fill:#ffd700;fill-opacity:1"
         id="path4612"
         inkscape:connector-curvature="0" />
      <path
         d="m 9.6410995,291.31067 q -0.2446018,0.12058 -0.6097819,0.31006 -0.4306369,0.22738 -0.5167643,0.22738 -0.4960938,0 -0.7269151,-0.31695 -0.2273763,-0.31695 -0.2273763,-1.00941 0,-0.16881 0.01378,-0.55811 0.01378,-0.39274 0.01378,-0.61323 0,-0.0482 -0.01378,-0.14469 -0.01378,-0.0999 -0.01378,-0.15159 0,-0.0276 0.1205783,-0.0654 0.096463,-0.031 0.1619195,-0.0551 0.1515842,-0.0551 0.3066135,-0.12058 0.1584744,-0.0689 0.1722547,-0.0689 0.051677,0 0.082682,0.0241 0.031006,0.0207 0.031006,0.0586 0,0.0413 -0.075792,0.11713 -0.072347,0.0758 -0.106798,0.13781 -0.082682,0.14124 -0.1205783,0.37551 -0.034451,0.23427 -0.034451,0.70969 0,0.65801 0.1584744,0.92329 0.1619195,0.26182 0.5477702,0.26182 0.1412489,0 0.3651801,-0.0654 0.2273763,-0.0655 0.4892035,-0.18604 v -1.5124 q 0,-0.40307 -0.1619194,-0.48575 -0.031006,-0.0138 -0.031006,-0.0276 0,-0.11025 0.082682,-0.13092 0.024116,-0.003 0.044786,-0.0103 0.1515842,-0.0551 0.323839,-0.14125 0.1722546,-0.0861 0.1998156,-0.0861 0.04479,0 0.103352,0.0551 0.05857,0.0551 0.05857,0.093 0,0.003 -0.0069,0.031 -0.04823,0.17914 -0.06546,0.43752 -0.01378,0.23771 -0.02067,0.63045 -0.0069,0.3893 -0.0069,0.86472 0,0.36863 0.02412,0.70625 0.0034,0.0517 0.0034,0.062 0,0.0792 -0.2377112,0.20671 -0.2377116,0.13091 -0.2962782,0.13091 -0.02067,0 -0.031006,-0.031 -0.00689,-0.0276 -0.00689,-0.0965 v -0.10335 q 0,-0.0758 0,-0.17226 0.00345,-0.0965 0.00689,-0.21015 z"
         style="font-style:normal;font-variant:normal;font-weight:normal;font-stretch:normal;font-family:'Calligraph421 BT';-inkscape-font-specification:'Calligraph421 BT';stroke-width:0.26458332;fill:#ffd700;fill-opacity:1"
         id="path4614"
         inkscape:connector-curvature="0" />
      <path
         d="m 11.346421,291.48637 q 0.0034,-0.30661 0.0034,-0.60289 0.0034,-0.29628 0.0034,-0.65801 0,-0.21704 -0.0034,-0.46165 0,-0.2446 -0.0034,-0.51331 h -0.19637 q -0.04479,0 -0.05857,-0.0103 -0.01033,-0.0138 -0.01378,-0.0586 0.0034,-0.0723 0.06201,-0.11713 0.02067,-0.0172 0.02756,-0.0241 l 0.799263,-0.72002 q 0.05512,-0.0551 0.07924,-0.0689 0.02412,-0.0172 0.04823,-0.0172 0.02412,0 0.04479,0.0207 0.02067,0.0172 0.02067,0.0448 0,0.0103 -0.03445,0.0827 -0.120578,0.25494 -0.151584,0.50988 h 1.036973 q 0.04823,0 0.06546,0.0344 0.02067,0.0344 0.02067,0.12057 0,0.10336 -0.02412,0.13092 -0.02412,0.0241 -0.158474,0.0241 h -0.981852 q -0.02412,0.30317 -0.0379,0.58912 -0.01034,0.28249 -0.01034,0.53743 0,0.61323 0.16881,0.8785 0.172255,0.26527 0.558105,0.26527 0.199816,0 0.416857,-0.0861 0.217041,-0.0896 0.230821,-0.0896 0.01378,0 0.02412,0.0172 0.01033,0.0138 0.01033,0.031 v 0.0517 q 0,0.13436 -0.36518,0.2825 -0.36518,0.14814 -0.706244,0.14814 -0.268718,0 -0.499539,-0.0896 -0.230822,-0.0896 -0.375516,-0.25149 z"
         style="font-style:normal;font-variant:normal;font-weight:normal;font-stretch:normal;font-family:'Calligraph421 BT';-inkscape-font-specification:'Calligraph421 BT';stroke-width:0.26458332;fill:#ffd700;fill-opacity:1"
         id="path4616"
         inkscape:connector-curvature="0" />
      <path
         d="m 14.677829,289.9223 v 1.55718 q 0,0.0482 -0.0069,0.10335 0,0.0138 0,0.0172 0,0.0482 -0.02412,0.0792 -0.02067,0.0276 -0.07579,0.0482 -0.124023,0.0413 -0.261827,0.0861 -0.137804,0.0482 -0.141249,0.0482 -0.02756,0 -0.04134,-0.062 -0.01378,-0.062 -0.01378,-0.31351 v -1.69843 q 0,-0.3893 -0.05512,-0.48576 -0.05512,-0.0999 -0.199816,-0.0999 -0.0379,0 -0.09991,0.0207 -0.05857,0.0207 -0.07579,0.0207 -0.0379,0 -0.06201,-0.0345 -0.02412,-0.0344 -0.02412,-0.093 0.0034,-0.0517 0.203261,-0.10336 0.141249,-0.0344 0.234266,-0.0654 0.16881,-0.0551 0.354845,-0.12747 0.186035,-0.0758 0.210151,-0.0758 0.03445,0 0.07235,0.0344 0.04134,0.0344 0.04134,0.0689 0,0.0138 -0.0034,0.0827 -0.03101,0.47887 -0.03101,0.99219 z m -0.347954,-3.00068 q 0.158474,0 0.268717,0.11369 0.113688,0.11369 0.113688,0.26872 0,0.15847 -0.110243,0.26527 -0.110243,0.1068 -0.272162,0.1068 -0.15503,0 -0.265273,-0.1068 -0.106798,-0.11024 -0.106798,-0.26527 0,-0.15848 0.106798,-0.26872 0.110243,-0.11369 0.265273,-0.11369 z"
         style="font-style:normal;font-variant:normal;font-weight:normal;font-stretch:normal;font-family:'Calligraph421 BT';-inkscape-font-specification:'Calligraph421 BT';stroke-width:0.26458332;fill:#ffd700;fill-opacity:1"
         id="path4618"
         inkscape:connector-curvature="0" />
      <path
         d="m 16.014526,291.70686 v -1.5813 q 0,-0.48576 -0.106798,-0.7028 -0.103353,-0.22049 -0.33073,-0.22049 -0.03101,0 -0.07924,0.0103 -0.04479,0.0103 -0.06201,0.0103 -0.03445,0 -0.05512,-0.0276 -0.01722,-0.0276 -0.01722,-0.0792 0,-0.0344 0.130913,-0.0792 0.09646,-0.031 0.151584,-0.0551 0.210151,-0.0861 0.389296,-0.20671 0.04823,-0.031 0.05512,-0.031 0.07235,0 0.20326,0.14814 0.130914,0.14469 0.199816,0.3445 0.347954,-0.2067 0.689019,-0.32383 0.341064,-0.12058 0.575331,-0.12058 0.389296,0 0.56155,0.29628 0.172255,0.29283 0.172255,0.98874 0,0.32039 -0.02067,0.70624 -0.01723,0.38585 -0.01723,0.44097 0,0.0861 0.03101,0.11714 0.03101,0.031 0.110243,0.031 0.04134,0 0.120578,-0.031 0.08268,-0.031 0.120579,-0.031 0.02756,0 0.04479,0.031 0.01722,0.031 0.01722,0.0827 0,0.0724 -0.19637,0.12402 -0.165365,0.0448 -0.282498,0.0861 -0.16881,0.0655 -0.341064,0.15159 -0.16881,0.0896 -0.189481,0.0896 -0.03445,0 -0.05857,-0.0241 -0.02412,-0.0207 -0.02412,-0.0551 0,-0.007 0.01378,-0.0517 0.148139,-0.50987 0.148139,-1.25401 0,-0.68557 -0.18259,-1.00252 -0.18259,-0.31695 -0.571886,-0.31695 -0.1757,0 -0.3514,0.0827 -0.172255,0.0827 -0.327284,0.23771 0,0.0482 0.0034,0.20326 0.0034,0.15159 0.0034,0.25494 0,0.5271 -0.0069,0.97841 -0.0069,0.44786 -0.02067,0.75792 l -0.403076,0.14125 q -0.0034,0 -0.01378,0.003 -0.01033,0.003 -0.02756,0.003 -0.03101,0 -0.04479,-0.0276 -0.01034,-0.0276 -0.01034,-0.0999 z"
         style="font-style:normal;font-variant:normal;font-weight:normal;font-stretch:normal;font-family:'Calligraph421 BT';-inkscape-font-specification:'Calligraph421 BT';stroke-width:0.26458332;fill:#ffd700;fill-opacity:1"
         id="path4620"
         inkscape:connector-curvature="0" />
      <path
         d="m 19.790351,291.70686 v -1.5813 q 0,-0.48576 -0.106798,-0.7028 -0.103353,-0.22049 -0.330729,-0.22049 -0.03101,0 -0.07924,0.0103 -0.04479,0.0103 -0.06201,0.0103 -0.03445,0 -0.05512,-0.0276 -0.01723,-0.0276 -0.01723,-0.0792 0,-0.0344 0.130914,-0.0792 0.09646,-0.031 0.151584,-0.0551 0.210151,-0.0861 0.389296,-0.20671 0.04823,-0.031 0.05512,-0.031 0.07235,0 0.203261,0.14814 0.130913,0.14469 0.199815,0.3445 0.347955,-0.2067 0.689019,-0.32383 0.341065,-0.12058 0.575331,-0.12058 0.389296,0 0.561551,0.29628 0.172255,0.29283 0.172255,0.98874 0,0.32039 -0.02067,0.70624 -0.01722,0.38585 -0.01722,0.44097 0,0.0861 0.03101,0.11714 0.03101,0.031 0.110244,0.031 0.04134,0 0.120578,-0.031 0.08268,-0.031 0.120578,-0.031 0.02756,0 0.04479,0.031 0.01723,0.031 0.01723,0.0827 0,0.0724 -0.196371,0.12402 -0.165364,0.0448 -0.282497,0.0861 -0.16881,0.0655 -0.341065,0.15159 -0.168809,0.0896 -0.18948,0.0896 -0.03445,0 -0.05857,-0.0241 -0.02412,-0.0207 -0.02412,-0.0551 0,-0.007 0.01378,-0.0517 0.148139,-0.50987 0.148139,-1.25401 0,-0.68557 -0.18259,-1.00252 -0.18259,-0.31695 -0.571886,-0.31695 -0.1757,0 -0.351399,0.0827 -0.172255,0.0827 -0.327285,0.23771 0,0.0482 0.0034,0.20326 0.0034,0.15159 0.0034,0.25494 0,0.5271 -0.0069,0.97841 -0.0069,0.44786 -0.02067,0.75792 l -0.403076,0.14125 q -0.0034,0 -0.01378,0.003 -0.01033,0.003 -0.02756,0.003 -0.03101,0 -0.04479,-0.0276 -0.01033,-0.0276 -0.01033,-0.0999 z"
         style="font-style:normal;font-variant:normal;font-weight:normal;font-stretch:normal;font-family:'Calligraph421 BT';-inkscape-font-specification:'Calligraph421 BT';stroke-width:0.26458332;fill:#ffd700;fill-opacity:1"
         id="path4622"
         inkscape:connector-curvature="0" />
    </g>
    <g
       style="font-style:normal;font-weight:normal;font-size:3.52777767px;line-height:1.25;font-family:sans-serif;letter-spacing:0px;word-spacing:0px;fill:#000000;fill-opacity:1;stroke:none;stroke-width:0.26458332"
       id="text4707" />
    <g
       style="font-style:normal;font-weight:normal;font-size:13.33333302px;line-height:1.25;font-family:sans-serif;letter-spacing:0px;word-spacing:0px;fill:#000000;fill-opacity:1;stroke:none"
       id="flowRoot4709" />
    <g
       aria-label="CV"
       style="font-style:normal;font-variant:normal;font-weight:500;font-stretch:normal;font-size:2.11666679px;line-height:1.25;font-family:OldSansBlack;-inkscape-font-specification:'OldSansBlack, Medium';font-variant-ligatures:normal;font-variant-position:normal;font-variant-caps:normal;font-variant-numeric:normal;font-variant-alternates:normal;font-feature-settings:normal;text-indent:0;text-align:start;text-decoration:none;text-decoration-line:none;text-decoration-style:solid;text-decoration-color:#000000;letter-spacing:0px;word-spacing:0px;text-transform:none;writing-mode:lr-tb;direction:ltr;text-orientation:mixed;dominant-baseline:auto;baseline-shift:baseline;text-anchor:start;white-space:normal;shape-padding:0;opacity:1;vector-effect:none;fill:#ffffff;fill-opacity:1;stroke:none;stroke-width:0.26458335;stroke-linecap:butt;stroke-linejoin:miter;stroke-miterlimit:4;stroke-dasharray:none;stroke-dashoffset:0;stroke-opacity:1"
       id="text851">
      <path
         d="m 5.7045408,224.87017 q 0.086431,-0.0617 0.1506362,-0.15557 0.066675,-0.0938 0.1210027,-0.2346 l -0.3704166,-0.0963 q -0.027164,0.0593 -0.056797,0.10866 -0.029633,0.0494 -0.066675,0.0864 -0.037042,0.0346 -0.0889,0.0543 -0.049389,0.0198 -0.1210027,0.0198 -0.1827389,0 -0.2617612,-0.14569 -0.086431,-0.15064 -0.086431,-0.4445 0,-0.0543 0.00247,-0.12101 0.00494,-0.0667 0.017286,-0.13335 0.012347,-0.0691 0.034572,-0.13335 0.024694,-0.0642 0.061736,-0.11359 0.037042,-0.0519 0.091369,-0.0815 0.056797,-0.0321 0.1308806,-0.0321 0.1284111,0 0.1975555,0.0741 0.069145,0.0741 0.1086556,0.18767 l 0.3605389,-0.0864 q -0.046919,-0.16051 -0.111125,-0.25929 -0.061736,-0.10124 -0.1481667,-0.1531 -0.1703916,-0.10372 -0.3951111,-0.10372 -0.2074333,0 -0.3506611,0.079 -0.1432278,0.079 -0.2321278,0.21237 -0.086431,0.13089 -0.1259417,0.30128 -0.037042,0.17039 -0.037042,0.35066 0,0.18274 0.037042,0.35313 0.039511,0.16792 0.1259417,0.30127 0.086431,0.13088 0.2296583,0.2099 0.1432278,0.079 0.3506612,0.079 0.2617611,0 0.4321527,-0.12348 z"
         style="font-size:2.46944451px;stroke-width:0.26458335"
         id="path871" />
      <path
         d="m 6.8882151,224.96895 0.48895,-1.83727 H 6.982054 l -0.31115,1.2372 -0.2963334,-1.2372 H 5.981929 l 0.4864805,1.83727 z"
         style="font-size:2.46944451px;stroke-width:0.26458335"
         id="path873" />
    </g>
    <g
       aria-label="OUT"
       style="font-style:normal;font-variant:normal;font-weight:500;font-stretch:normal;font-size:2.11666679px;line-height:1.25;font-family:OldSansBlack;-inkscape-font-specification:'OldSansBlack, Medium';font-variant-ligatures:normal;font-variant-position:normal;font-variant-caps:normal;font-variant-numeric:normal;font-variant-alternates:normal;font-feature-settings:normal;text-indent:0;text-align:start;text-decoration:none;text-decoration-line:none;text-decoration-style:solid;text-decoration-color:#000000;letter-spacing:0px;word-spacing:0px;text-transform:none;writing-mode:lr-tb;direction:ltr;text-orientation:mixed;dominant-baseline:auto;baseline-shift:baseline;text-anchor:start;white-space:normal;shape-padding:0;opacity:1;vector-effect:none;fill:#ffffff;fill-opacity:1;stroke:none;stroke-width:0.26458335;stroke-linecap:butt;stroke-linejoin:miter;stroke-miterlimit:4;stroke-dasharray:none;stroke-dashoffset:0;stroke-opacity:1"
       id="text859">
      <path
         d="m 5.0856889,272.80914 q 0.1693333,-0.20955 0.1693333,-0.59267 0,-0.16298 -0.035983,-0.30903 -0.033867,-0.14817 -0.1143,-0.25823 -0.078317,-0.11219 -0.2053167,-0.17569 -0.1248833,-0.0656 -0.3090334,-0.0656 -0.18415,0 -0.31115,0.0656 -0.127,0.0635 -0.2074333,0.17569 -0.078317,0.11006 -0.1143,0.25823 -0.033867,0.14605 -0.033867,0.30903 0,0.16299 0.033867,0.31115 0.035983,0.14605 0.1143,0.25824 0.080433,0.11006 0.2074333,0.17568 0.127,0.0635 0.31115,0.0635 0.3238501,0 0.4953001,-0.2159 z m -0.2497667,-0.98213 q 0.080433,0.13123 0.080433,0.38946 0,0.25824 -0.080433,0.38947 -0.0762,0.127 -0.2455334,0.127 -0.17145,0 -0.24765,-0.127 -0.080433,-0.13123 -0.080433,-0.38947 0,-0.25823 0.080433,-0.38946 0.0762,-0.127 0.24765,-0.127 0.1693334,0 0.2455334,0.127 z"
         style="stroke-width:0.26458335"
         id="path881" />
      <path
         d="m 6.5122561,272.86629 q 0.1566334,-0.15875 0.1566334,-0.45932 v -0.9779 H 6.3323394 v 0.97367 q 0,0.18203 -0.061383,0.25612 -0.029633,0.036 -0.08255,0.055 -0.0508,0.019 -0.1312333,0.019 -0.1502834,0 -0.2074334,-0.0762 -0.061383,-0.0741 -0.061383,-0.25823 v -0.96944 H 5.451806 v 0.99272 q 0,0.2921 0.1587501,0.44873 0.1608666,0.15452 0.45085,0.15452 0.2942167,0 0.45085,-0.15875 z"
         style="stroke-width:0.26458335"
         id="path883" />
      <path
         d="m 7.5825617,271.71906 h 0.4000501 v -0.28999 H 6.8480784 v 0.28999 h 0.3979333 v 1.28481 h 0.33655 z"
         style="stroke-width:0.26458335"
         id="path885" />
    </g>
    <path
       style="font-weight:bold;font-size:2.11667px;font-family:Sans;-inkscape-font-specification:'Sans Bold';fill:#ffffff;stroke-width:5.564"
       d="M 4.5882319,258.32428 H 4.1076404 v 1.24127 H 3.7107648 v -1.24127 H 3.2301732 v -0.29765 h 1.3580587 z m 1.1017432,0.17364 q 0,-0.0579 -0.023771,-0.0992 -0.023771,-0.0414 -0.081649,-0.0651 -0.040308,-0.0165 -0.094051,-0.0196 -0.053744,-0.004 -0.1250572,-0.004 H 5.2217859 v 0.41445 h 0.1219566 q 0.095085,0 0.1591637,-0.009 0.064079,-0.009 0.1074871,-0.0424 0.041341,-0.032 0.059945,-0.0703 0.019637,-0.0393 0.019637,-0.10438 z m 0.6190846,1.06763 H 5.8243341 L 5.4047208,259.00124 H 5.2217859 v 0.56431 H 4.8269774 v -1.53892 h 0.6655935 q 0.1364259,0 0.2346113,0.0155 0.098185,0.0155 0.1839684,0.0672 0.086817,0.0517 0.1374595,0.13436 0.051676,0.0816 0.051676,0.20567 0,0.17053 -0.079582,0.27802 -0.078548,0.10749 -0.2253096,0.1788 z m 1.005625,0 H 6.4134463 v -0.27285 h 0.2521814 v -0.99322 H 6.4134463 v -0.27285 h 0.9012384 v 0.27285 H 7.0625033 v 0.99322 h 0.2521814 z m 1.684654,-0.0878 q -0.103353,0.0403 -0.2738855,0.0806 -0.1705325,0.0393 -0.3400314,0.0393 -0.3927415,0 -0.6149505,-0.21291 -0.222209,-0.21394 -0.222209,-0.59014 0,-0.35864 0.2242761,-0.57775 0.224276,-0.22014 0.6252858,-0.22014 0.1519289,0 0.2893884,0.0279 0.1374595,0.0269 0.305925,0.10852 v 0.3607 h -0.044442 q -0.028939,-0.0217 -0.084749,-0.061 -0.055811,-0.0403 -0.1074872,-0.0682 -0.059945,-0.0331 -0.1405601,-0.0568 -0.079582,-0.0238 -0.1694989,-0.0238 -0.1054201,0 -0.1912031,0.031 -0.085783,0.031 -0.153996,0.0951 -0.065112,0.062 -0.103353,0.15814 -0.037207,0.0951 -0.037207,0.22014 0,0.25528 0.1353924,0.39067 0.1353925,0.13539 0.3999762,0.13539 0.022738,0 0.04961,-0.001 0.027905,-0.001 0.050643,-0.003 v -0.30179 H 8.2893035 v -0.29042 h 0.7100352 z"
       id="text1"
       aria-label="TRIG" />
    <path
       d="M 3.4206626,206.42832 H 4.2997868 L 3.499685,204.8133 q 0.3062118,-0.10866 0.4691955,-0.34572 0.1679226,-0.24201 0.1679226,-0.56798 0,-0.28152 -0.0889,-0.49389 -0.083961,-0.21731 -0.2420061,-0.36054 -0.1531059,-0.14323 -0.3753564,-0.21731 -0.2222505,-0.0741 -0.49389,-0.0741 H 1.4599193 v 3.67454 h 0.7852851 v -1.45204 h 0.5037678 z m -0.2123727,-2.89914 q 0.064206,0.0543 0.098778,0.14323 0.034572,0.0889 0.034572,0.21731 0,0.14323 -0.054328,0.22719 -0.054328,0.084 -0.1432281,0.12842 -0.0889,0.0445 -0.2024949,0.0593 -0.1135947,0.01 -0.2271894,0.01 H 2.2452044 v -0.89888 h 0.5482179 q 0.2864562,0 0.4148676,0.11359 z m 3.4473514,2.89914 H 7.4508042 L 6.4037574,202.74884 H 5.4752442 l -1.0618635,3.67948 h 0.790224 l 0.2123727,-0.77047 h 1.0421079 z m -0.7062627,-2.74603 0.3358452,1.30387 h -0.691446 z m 4.2869654,2.26696 q 0.22225,-0.23707 0.325967,-0.57292 0.103717,-0.34078 0.103717,-0.78034 0,-0.41981 -0.09878,-0.75565 -0.09878,-0.34079 -0.306212,-0.58279 -0.207433,-0.24201 -0.528462,-0.37042 -0.316089,-0.13335 -0.755652,-0.13335 H 7.7718328 v 3.67454 H 8.986802 q 0.819858,0 1.249542,-0.47907 z M 9.648615,203.7218 q 0.108656,0.14323 0.162984,0.36054 0.05927,0.21237 0.05927,0.50377 0,0.23707 -0.03951,0.44944 -0.03951,0.20743 -0.143228,0.37042 -0.09878,0.15804 -0.276578,0.25188 -0.172862,0.0889 -0.444501,0.0889 H 8.5620568 v -2.3114 H 8.976924 q 0.454379,0 0.671691,0.28645 z"
       id="text3"
       style="font-size:4.9389px;font-family:OldSansBlack;-inkscape-font-specification:OldSansBlack;fill:#ffffff;stroke-width:5.564"
       aria-label="RAD" />
  </g>
</svg>
