<?xml version="1.0" encoding="UTF-8" standalone="no"?>
<!-- Created with Inkscape (http://www.inkscape.org/) -->

<svg
   width="203.2mm"
   height="128.5mm"
   viewBox="0 0 203.2 128.5"
   version="1.1"
   id="svg1"
   inkscape:version="1.4.3 (0d15f75, 2025-12-25)"
   sodipodi:docname="ScopeModule.svg"
   xmlns:inkscape="http://www.inkscape.org/namespaces/inkscape"
   xmlns:sodipodi="http://sodipodi.sourceforge.net/DTD/sodipodi-0.dtd"
   xmlns="http://www.w3.org/2000/svg"
   xmlns:svg="http://www.w3.org/2000/svg"
   xmlns:rdf="http://www.w3.org/1999/02/22-rdf-syntax-ns#"
   xmlns:cc="http://creativecommons.org/ns#"
   xmlns:dc="http://purl.org/dc/elements/1.1/">
  <sodipodi:namedview
     id="namedview1"
     pagecolor="#ffffff"
     bordercolor="#000000"
     borderopacity="0.25"
     inkscape:showpageshadow="2"
     inkscape:pageopacity="0.0"
     inkscape:pagecheckerboard="false"
     inkscape:deskcolor="#d1d1d1"
     inkscape:document-units="mm"
     labelstyle="default"
     inkscape:zoom="2.8756735"
     inkscape:cx="166.22193"
     inkscape:cy="340.61586"
     inkscape:window-width="1920"
     inkscape:window-height="1009"
     inkscape:window-x="-8"
     inkscape:window-y="-8"
     inkscape:window-maximized="1"
     inkscape:current-layer="layer1"
     showgrid="true">
    <inkscape:grid
       id="grid3"
       units="mm"
       originx="0"
       originy="0"
       spacingx="5.0800001"
       spacingy="128.5"
       empcolor="#0099e5"
       empopacity="0.30196078"
       color="#0099e5"
       opacity="0.14901961"
       empspacing="10"
       enabled="true"
       visible="true" />
    <inkscape:grid
       type="modular"
       id="grid4"
       units="mm"
       originx="0"
       originy="0"
       spacingx="40"
       spacingy="40.000001"
       empcolor="#0047cb"
       empopacity="0.30196078"
       color="#0099e5"
       opacity="0.14901961"
       empspacing="0"
       marginx="0"
       marginy="0"
       gapx="10"
       gapy="10"
       enabled="false"
       visible="true" />
    <inkscape:grid
       id="grid5"
       units="mm"
       originx="0"
       originy="0"
       spacingx="5.0800001"
       spacingy="1"
       empcolor="#0099e5"
       empopacity="0.30196078"
       color="#0099e5"
       opacity="0.14901961"
       empspacing="10"
       enabled="false"
       visible="true" />
  </sodipodi:namedview>
  <title
     id="title3">Autinn Scope</title>
  <defs
     id="defs1">
    <rect
       x="-115.45122"
       y="57.03012"
       width="2.7819571"
       height="15.300764"
       id="rect2" />
  </defs>
  <g
     inkscape:label="Panel"
     inkscape:groupmode="layer"
     id="layer1">
    <rect
       style="fill:#202020;stroke-width:4.23333;fill-opacity:1"
       id="rect1"
       width="203.2"
       height="128.5"
       x="0"
       y="0" />
    <path
       d="m 119.19939,99.463338 -0.91359,1.551152"
       style="display:inline;stroke:#ffffff;stroke-width:0.36"
       inkscape:label="tick_1"
       id="path1307-7" />
    <path
       d="m 116.65095,94.977289 -1.8,-0.0095"
       style="display:inline;stroke:#ffffff;stroke-width:0.36"
       inkscape:label="tick_2"
       id="path1308-9" />
    <path
       d="m 119.24619,90.518149 -0.8973,-1.56042"
       style="display:inline;stroke:#ffffff;stroke-width:0.36"
       inkscape:label="tick_3"
       id="path1309-5" />
    <path
       d="m 124.40553,90.518149 0.89712,-1.56042"
       style="display:inline;stroke:#ffffff;stroke-width:0.36"
       inkscape:label="tick_4"
       id="path1310-4" />
    <path
       d="m 127.00095,94.977289 1.8,-0.0095"
       style="display:inline;stroke:#ffffff;stroke-width:0.36;stroke-linecap:butt;stroke-dasharray:none"
       inkscape:label="tick_5"
       id="path1311-3" />
    <path
       d="m 124.45242,99.463338 0.91323,1.551152"
       style="display:inline;stroke:#ffffff;stroke-width:0.36"
       inkscape:label="tick_6"
       id="path1312-1" />
    <path
       d="m 139.58041,99.430338 -0.91359,1.551152"
       style="display:inline;stroke:#ffffff;stroke-width:0.36"
       inkscape:label="tick_1"
       id="path1307-7-1" />
    <path
       d="m 142.20238,89.790951 -0.003,-1.79992"
       style="display:inline;stroke:#ffffff;stroke-width:0.36"
       inkscape:label="tick_4"
       id="path1310-4-8" />
    <path
       d="m 144.83344,99.430338 0.91323,1.551152"
       style="display:inline;stroke:#ffffff;stroke-width:0.36"
       inkscape:label="tick_6"
       id="path1312-1-4" />
    <text
       xml:space="preserve"
       style="font-weight:500;font-size:2.11667px;font-family:OldSansBlack;-inkscape-font-specification:'OldSansBlack Medium';writing-mode:lr-tb;direction:ltr;fill:#202020;fill-opacity:1;stroke-width:4.23333"
       x="55.572491"
       y="52.62825"
       id="text1"><tspan
         sodipodi:role="line"
         id="tspan1"
         style="stroke-width:4.23333"
         x="55.572491"
         y="52.62825">Autinn</tspan></text>
    <text
       xml:space="preserve"
       transform="scale(0.26458333)"
       id="text2"
       style="font-weight:500;font-size:8px;font-family:OldSansBlack;-inkscape-font-specification:'OldSansBlack Medium';writing-mode:lr-tb;direction:ltr;white-space:pre;shape-inside:url(#rect2);display:inline;fill:#202020;fill-opacity:1;stroke-width:16" />
    <g
       transform="matrix(0.72038886,0,0,0.72038886,84.60649,-205.66995)"
       style="fill:#ffd700"
       id="g6">
      <path
         d="m 5.05,289.42 q -0.17,-0.37 -0.38,-0.93 -0.21,-0.55 -0.44,-1.25 -0.11,0.32 -0.43,0.9 -0.31,0.58 -0.78,1.31 0.1,0 0.22,0 0.12,0 0.36,0 0.39,0 0.75,-0.01 0.36,-0.01 0.7,-0.03 z m 0.14,0.35 q -0.09,0 -0.24,0 -0.14,0 -0.19,0 -1.2,0 -1.64,0.13 -0.44,0.13 -0.71,0.5 -0.31,0.42 -0.69,1.01 -0.37,0.59 -0.47,0.59 -0.04,0 -0.06,-0.02 -0.02,-0.02 -0.02,-0.06 0,-0.04 0.44,-0.75 0.44,-0.71 0.83,-1.38 0.75,-1.3 1.13,-2.09 0.38,-0.79 0.38,-1.05 0,-0.03 -0.01,-0.07 -0.01,-0.04 -0.01,-0.05 0,-0.04 0.23,-0.16 0.23,-0.12 0.32,-0.12 0.03,0 0.23,0.65 0.19,0.65 0.46,1.33 0.75,1.93 1.06,2.43 0.3,0.49 0.6,0.49 0.08,0 0.17,-0.04 0.08,-0.04 0.1,-0.04 0.02,0 0.04,0.03 0.03,0.03 0.03,0.06 0,0.02 -0.15,0.11 -0.15,0.09 -0.29,0.19 -0.12,0.09 -0.29,0.24 -0.16,0.14 -0.2,0.14 -0.07,0 -0.29,-0.42 Q 5.74,291 5.2,289.76 Z"
         id="path1" />
      <path
         d="m 9.64,291.31 q -0.24,0.12 -0.6,0.31 -0.43,0.22 -0.51,0.22 -0.49,0 -0.72,-0.31 -0.22,-0.31 -0.22,-1 0,-0.16 0.01,-0.55 0.01,-0.39 0.01,-0.61 0,-0.04 -0.01,-0.14 -0.01,-0.09 -0.01,-0.15 0,-0.02 0.12,-0.06 0.09,-0.03 0.16,-0.05 0.15,-0.05 0.3,-0.12 0.15,-0.06 0.17,-0.06 0.05,0 0.08,0.02 0.03,0.02 0.03,0.05 0,0.04 -0.07,0.11 -0.07,0.07 -0.1,0.13 -0.08,0.14 -0.12,0.37 -0.03,0.23 -0.03,0.7 0,0.65 0.15,0.92 0.16,0.26 0.54,0.26 0.14,0 0.36,-0.06 0.22,-0.06 0.48,-0.18 v -1.51 q 0,-0.4 -0.16,-0.48 -0.03,-0.01 -0.03,-0.02 0,-0.11 0.08,-0.13 0.02,0 0.04,-0.01 0.15,-0.05 0.32,-0.14 0.17,-0.08 0.19,-0.08 0.04,0 0.1,0.05 0.05,0.05 0.05,0.09 0,0 0,0.03 -0.04,0.17 -0.06,0.43 -0.01,0.23 -0.02,0.63 0,0.38 0,0.86 0,0.36 0.02,0.7 0,0.05 0,0.06 0,0.07 -0.23,0.2 -0.23,0.13 -0.29,0.13 -0.02,0 -0.03,-0.03 0,-0.02 0,-0.09 v -0.1 q 0,-0.07 0,-0.17 0,-0.09 0,-0.21 z"
         id="path2" />
      <path
         d="m 11.34,291.48 q 0,-0.3 0,-0.6 0,-0.29 0,-0.65 0,-0.21 0,-0.46 0,-0.24 0,-0.51 h -0.19 q -0.04,0 -0.05,-0.01 -0.01,-0.01 -0.01,-0.05 0,-0.07 0.06,-0.11 0.02,-0.01 0.02,-0.02 l 0.79,-0.72 q 0.05,-0.05 0.07,-0.06 0.02,-0.01 0.04,-0.01 0.02,0 0.04,0.02 0.02,0.01 0.02,0.04 0,0.01 -0.03,0.08 -0.12,0.25 -0.15,0.5 h 1.03 q 0.04,0 0.06,0.03 0.02,0.03 0.02,0.12 0,0.1 -0.02,0.13 -0.02,0.02 -0.15,0.02 h -0.98 q -0.02,0.3 -0.03,0.58 -0.01,0.28 -0.01,0.53 0,0.61 0.16,0.87 0.17,0.26 0.55,0.26 0.19,0 0.41,-0.08 0.21,-0.08 0.23,-0.08 0.01,0 0.02,0.01 0.01,0.01 0.01,0.03 v 0.05 q 0,0.13 -0.36,0.28 -0.36,0.14 -0.7,0.14 -0.26,0 -0.49,-0.08 -0.23,-0.08 -0.37,-0.25 z"
         id="path3" />
      <path
         d="m 14.67,289.92 v 1.55 q 0,0.04 0,0.1 0,0.01 0,0.01 0,0.04 -0.02,0.07 -0.02,0.02 -0.07,0.04 -0.12,0.04 -0.26,0.08 -0.13,0.04 -0.14,0.04 -0.02,0 -0.04,-0.06 -0.01,-0.06 -0.01,-0.31 v -1.69 q 0,-0.38 -0.05,-0.48 -0.05,-0.09 -0.19,-0.09 -0.03,0 -0.09,0.02 -0.05,0.02 -0.07,0.02 -0.03,0 -0.06,-0.03 -0.02,-0.03 -0.02,-0.09 0,-0.05 0.2,-0.1 0.14,-0.03 0.23,-0.06 0.16,-0.05 0.35,-0.12 0.18,-0.07 0.21,-0.07 0.03,0 0.07,0.03 0.04,0.03 0.04,0.06 0,0.01 0,0.08 -0.03,0.47 -0.03,0.99 z m -0.34,-3 q 0.15,0 0.26,0.11 0.11,0.11 0.11,0.26 0,0.15 -0.11,0.26 -0.11,0.1 -0.27,0.1 -0.15,0 -0.26,-0.1 -0.1,-0.11 -0.1,-0.26 0,-0.15 0.1,-0.26 0.11,-0.11 0.26,-0.11 z"
         id="path4" />
      <path
         d="m 16.01,291.7 v -1.58 q 0,-0.48 -0.1,-0.7 -0.1,-0.22 -0.33,-0.22 -0.03,0 -0.07,0.01 -0.04,0.01 -0.06,0.01 -0.03,0 -0.05,-0.02 -0.01,-0.02 -0.01,-0.07 0,-0.03 0.13,-0.07 0.09,-0.03 0.15,-0.05 0.21,-0.08 0.38,-0.2 0.04,-0.03 0.05,-0.03 0.07,0 0.2,0.14 0.13,0.14 0.19,0.34 0.34,-0.2 0.68,-0.32 0.34,-0.12 0.57,-0.12 0.38,0 0.56,0.29 0.17,0.29 0.17,0.98 0,0.32 -0.02,0.7 -0.01,0.38 -0.01,0.44 0,0.08 0.03,0.11 0.03,0.03 0.11,0.03 0.04,0 0.12,-0.03 0.08,-0.03 0.12,-0.03 0.02,0 0.04,0.03 0.01,0.03 0.01,0.08 0,0.07 -0.19,0.12 -0.16,0.04 -0.28,0.08 -0.16,0.06 -0.34,0.15 -0.16,0.08 -0.18,0.08 -0.03,0 -0.05,-0.02 -0.02,-0.02 -0.02,-0.05 0,0 0.01,-0.05 0.14,-0.5 0.14,-1.25 0,-0.68 -0.18,-1 -0.18,-0.31 -0.57,-0.31 -0.17,0 -0.35,0.08 -0.17,0.08 -0.32,0.23 0,0.04 0,0.2 0,0.15 0,0.25 0,0.52 0,0.97 0,0.44 -0.02,0.75 l -0.4,0.14 q 0,0 -0.01,0 -0.01,0 -0.02,0 -0.03,0 -0.04,-0.02 -0.01,-0.02 -0.01,-0.09 z"
         id="path5" />
      <path
         d="m 19.79,291.7 v -1.58 q 0,-0.48 -0.1,-0.7 -0.1,-0.22 -0.33,-0.22 -0.03,0 -0.07,0.01 -0.04,0.01 -0.06,0.01 -0.03,0 -0.05,-0.02 -0.01,-0.02 -0.01,-0.07 0,-0.03 0.13,-0.07 0.09,-0.03 0.15,-0.05 0.21,-0.08 0.38,-0.2 0.04,-0.03 0.05,-0.03 0.07,0 0.2,0.14 0.13,0.14 0.19,0.34 0.34,-0.2 0.68,-0.32 0.34,-0.12 0.57,-0.12 0.38,0 0.56,0.29 0.17,0.29 0.17,0.98 0,0.32 -0.02,0.7 -0.01,0.38 -0.01,0.44 0,0.08 0.03,0.11 0.03,0.03 0.11,0.03 0.04,0 0.12,-0.03 0.08,-0.03 0.12,-0.03 0.02,0 0.04,0.03 0.01,0.03 0.01,0.08 0,0.07 -0.19,0.12 -0.16,0.04 -0.28,0.08 -0.16,0.06 -0.34,0.15 -0.16,0.08 -0.18,0.08 -0.03,0 -0.05,-0.02 -0.02,-0.02 -0.02,-0.05 0,0 0.01,-0.05 0.14,-0.5 0.14,-1.25 0,-0.68 -0.18,-1 -0.18,-0.31 -0.57,-0.31 -0.17,0 -0.35,0.08 -0.17,0.08 -0.32,0.23 0,0.04 0,0.2 0,0.15 0,0.25 0,0.52 0,0.97 0,0.44 -0.02,0.75 l -0.4,0.14 q 0,0 -0.01,0 -0.01,0 -0.02,0 -0.03,0 -0.04,-0.02 -0.01,-0.02 -0.01,-0.09 z"
         id="path6" />
    </g>
    <rect
       style="fill:#ffe632;fill-opacity:0.64313728;stroke:none;stroke-width:4.233;stroke-dasharray:none"
       id="rect5"
       width="17.780001"
       height="35.880001"
       x="2.54"
       y="87.540001"
       rx="5.0799999"
       ry="5.0799999" />
    <rect
       style="fill:#3296ff;fill-opacity:0.63510847;stroke:none;stroke-width:4.233;stroke-dasharray:none"
       id="rect5-5"
       width="17.780001"
       height="35.880001"
       x="63.5"
       y="87.841667"
       rx="5.0799999"
       ry="5.0799999" />
    <rect
       style="fill:#32ff32;fill-opacity:0.63510847;stroke:none;stroke-width:4.233;stroke-dasharray:none"
       id="rect5-52"
       width="17.780001"
       height="35.880001"
       x="43.18"
       y="87.841667"
       rx="5.0799999"
       ry="5.0799999" />
    <rect
       style="fill:#ff3232;fill-opacity:0.63921571;stroke:none;stroke-width:4.233;stroke-dasharray:none"
       id="rect5-2"
       width="17.780001"
       height="35.880001"
       x="22.860001"
       y="87.841667"
       rx="5.0799999"
       ry="5.0799999" />
    <path
       d="m 93.891794,104.85559 h 0.66675 v -0.48331 h -1.89089 v 0.48331 h 0.663223 v 2.14136 h 0.560917 z m 1.005416,2.14136 h 0.564445 v -2.62467 H 94.89721 Z m 2.896305,0 h 0.500945 v -2.62467 h -0.758473 l -0.469194,1.68628 -0.465667,-1.68628 h -0.751418 v 2.62467 h 0.500945 v -1.78506 l 0.504473,1.78506 h 0.426861 l 0.511528,-1.78859 z m 0.888999,0 h 1.802706 v -0.48683 h -1.24178 v -0.63853 l 0.87489,-0.004 v -0.47978 h -0.87489 v -0.52917 h 1.19945 v -0.48683 h -1.760376 z"
       id="text7"
       style="font-weight:500;font-size:3.52778px;font-family:OldSansBlack;-inkscape-font-specification:'OldSansBlack Medium';fill:#ffffff;stroke-width:0.1"
       aria-label="TIME" />
    <path
       d="m 115.65297,106.99695 h 0.56798 v -2.62467 h -0.56798 v 1.01247 h -0.889 v -1.01247 H 114.196 v 2.62467 h 0.56797 v -1.09361 h 0.889 z m 2.83634,-0.32456 q 0.28222,-0.34925 0.28222,-0.98777 0,-0.27164 -0.06,-0.51506 -0.0564,-0.24695 -0.1905,-0.43039 -0.13053,-0.18697 -0.3422,-0.29281 -0.20814,-0.10936 -0.51505,-0.10936 -0.30692,0 -0.51859,0.10936 -0.21166,0.10584 -0.34572,0.29281 -0.13053,0.18344 -0.1905,0.43039 -0.0564,0.24342 -0.0564,0.51506 0,0.27163 0.0564,0.51858 0.06,0.24342 0.1905,0.43039 0.13406,0.18344 0.34572,0.2928 0.21167,0.10584 0.51859,0.10584 0.53975,0 0.8255,-0.35984 z m -0.41628,-1.63689 q 0.13406,0.21873 0.13406,0.64912 0,0.43038 -0.13406,0.64911 -0.127,0.21166 -0.40922,0.21166 -0.28575,0 -0.41275,-0.21166 -0.13406,-0.21873 -0.13406,-0.64911 0,-0.43039 0.13406,-0.64912 0.127,-0.21166 0.41275,-0.21166 0.28222,0 0.40922,0.21166 z m 1.00189,1.96145 h 1.66864 v -0.48683 h -1.10772 v -2.13784 h -0.56092 z m 3.72181,-0.3422 q 0.15875,-0.16933 0.23283,-0.40922 0.0741,-0.24341 0.0741,-0.55739 0,-0.29986 -0.0706,-0.53975 -0.0706,-0.24341 -0.21872,-0.41628 -0.14817,-0.17286 -0.37748,-0.26458 -0.22578,-0.0952 -0.53975,-0.0952 h -0.86078 v 2.62467 h 0.86784 q 0.58561,0 0.89253,-0.3422 z m -0.41981,-1.59102 q 0.0776,0.1023 0.11642,0.25752 0.0423,0.1517 0.0423,0.35984 0,0.16933 -0.0282,0.32103 -0.0282,0.14816 -0.10231,0.26458 -0.0705,0.11289 -0.19755,0.17992 -0.12348,0.0635 -0.3175,0.0635 h -0.28928 v -1.65101 h 0.29633 q 0.32456,0 0.47978,0.20462 z m 2.77989,1.60866 q 0.28222,-0.34925 0.28222,-0.98777 0,-0.27164 -0.06,-0.51506 -0.0564,-0.24695 -0.1905,-0.43039 -0.13053,-0.18697 -0.34219,-0.29281 -0.20814,-0.10936 -0.51506,-0.10936 -0.30692,0 -0.51858,0.10936 -0.21167,0.10584 -0.34573,0.29281 -0.13052,0.18344 -0.1905,0.43039 -0.0564,0.24342 -0.0564,0.51506 0,0.27163 0.0564,0.51858 0.06,0.24342 0.1905,0.43039 0.13406,0.18344 0.34573,0.2928 0.21166,0.10584 0.51858,0.10584 0.53975,0 0.8255,-0.35984 z m -0.41628,-1.63689 q 0.13406,0.21873 0.13406,0.64912 0,0.43038 -0.13406,0.64911 -0.127,0.21166 -0.40922,0.21166 -0.28575,0 -0.41275,-0.21166 -0.13406,-0.21873 -0.13406,-0.64911 0,-0.43039 0.13406,-0.64912 0.127,-0.21166 0.41275,-0.21166 0.28222,0 0.40922,0.21166 z m 1.56281,-0.17639 h 1.13947 v -0.48683 h -1.70039 v 2.62467 h 0.56092 v -1.12536 l 0.85372,-0.004 -0.004,-0.47978 h -0.85019 z m 1.96144,0 h 1.13948 v -0.48683 h -1.70039 v 2.62467 h 0.56091 v -1.12536 l 0.85373,-0.004 -0.004,-0.47978 h -0.8502 z"
       id="text8"
       style="font-weight:500;font-size:3.52778px;font-family:OldSansBlack;-inkscape-font-specification:'OldSansBlack Medium';fill:#ffffff;stroke-width:0.1"
       aria-label="HOLDOFF" />
    <path
       d="m 133.62913,104.85559 h 0.66675 v -0.4833 H 132.405 v 0.4833 h 0.66322 v 2.14136 h 0.56091 z m 2.41653,2.14136 h 0.56797 v -2.62466 h -0.56797 v 1.01247 h -0.889 v -1.01247 h -0.56797 v 2.62466 h 0.56797 v -1.09361 h 0.889 z m 2.35655,0 h 0.62794 l -0.5715,-1.15358 q 0.21872,-0.0776 0.33514,-0.24695 0.11994,-0.17286 0.11994,-0.40569 0,-0.20108 -0.0635,-0.35278 -0.06,-0.15522 -0.17286,-0.25752 -0.10936,-0.10231 -0.26811,-0.15523 -0.15875,-0.0529 -0.35277,-0.0529 h -1.05481 v 2.62466 h 0.56092 v -1.03717 h 0.35983 z m -0.1517,-2.0708 q 0.0459,0.0388 0.0706,0.1023 0.0247,0.0635 0.0247,0.15523 0,0.1023 -0.0388,0.16227 -0.0388,0.06 -0.10231,0.0917 -0.0635,0.0318 -0.14464,0.0423 -0.0811,0.007 -0.16227,0.007 h -0.33514 v -0.64205 h 0.39158 q 0.20461,0 0.29633,0.0811 z m 1.12536,2.0708 h 1.80269 v -0.48683 h -1.24177 v -0.63853 l 0.87488,-0.004 v -0.47977 h -0.87488 v -0.52917 h 1.19944 v -0.48683 h -1.76036 z m 3.66183,-0.16933 q 0.24694,-0.21167 0.24694,-0.5962 0,-0.3563 -0.25047,-0.54327 -0.23636,-0.18345 -0.53622,-0.28575 -0.21167,-0.0741 -0.381,-0.16934 -0.0811,-0.0459 -0.11642,-0.0953 -0.0318,-0.0494 -0.0318,-0.1023 0,-0.067 0.0282,-0.11289 0.0318,-0.0494 0.0776,-0.0741 0.0494,-0.0282 0.10583,-0.0388 0.06,-0.0141 0.11642,-0.0141 0.17638,0 0.27163,0.0953 0.0988,0.0917 0.16228,0.24342 l 0.51858,-0.15875 q -0.0776,-0.17992 -0.17286,-0.29634 -0.0952,-0.11641 -0.21872,-0.1905 -0.24694,-0.15169 -0.55739,-0.15169 -0.37041,0 -0.61736,0.20461 -0.24694,0.20461 -0.24694,0.51858 0,0.3175 0.21167,0.49742 0.20108,0.1658 0.6103,0.32103 0.20814,0.0776 0.3563,0.17638 0.13406,0.0882 0.13406,0.21873 0,0.0882 -0.0317,0.14816 -0.0317,0.0564 -0.0882,0.0917 -0.0529,0.0317 -0.12348,0.0459 -0.0705,0.0141 -0.14463,0.0141 -0.10584,0 -0.1905,-0.0282 -0.0811,-0.0317 -0.14464,-0.0847 -0.0635,-0.0529 -0.11289,-0.127 -0.0494,-0.0776 -0.0917,-0.16933 l -0.4692,0.20461 q 0.0811,0.1905 0.18697,0.31397 0.10584,0.11994 0.25048,0.19755 0.27163,0.1517 0.55738,0.1517 0.4445,0 0.69145,-0.20461 z m 2.10608,0.16933 h 0.56797 v -2.62466 h -0.56797 v 1.01247 h -0.889 v -1.01247 h -0.56797 v 2.62466 h 0.56797 v -1.09361 h 0.889 z m 2.83632,-0.32456 q 0.28223,-0.34924 0.28223,-0.98777 0,-0.27164 -0.06,-0.51506 -0.0564,-0.24694 -0.1905,-0.43038 -0.13052,-0.18698 -0.34219,-0.29281 -0.20814,-0.10936 -0.51505,-0.10936 -0.30692,0 -0.51859,0.10936 -0.21166,0.10583 -0.34572,0.29281 -0.13053,0.18344 -0.1905,0.43038 -0.0564,0.24342 -0.0564,0.51506 0,0.27164 0.0564,0.51858 0.06,0.24342 0.1905,0.43039 0.13406,0.18344 0.34572,0.2928 0.21167,0.10584 0.51859,0.10584 0.53974,0 0.82549,-0.35984 z m -0.41627,-1.63688 q 0.13405,0.21872 0.13405,0.64911 0,0.43039 -0.13405,0.64911 -0.127,0.21166 -0.40922,0.21166 -0.28575,0 -0.41275,-0.21166 -0.13406,-0.21872 -0.13406,-0.64911 0,-0.43039 0.13406,-0.64911 0.127,-0.21167 0.41275,-0.21167 0.28222,0 0.40922,0.21167 z m 1.00188,1.96144 h 1.66864 v -0.48683 h -1.10772 v -2.13783 h -0.56092 z m 3.7218,-0.34219 q 0.15875,-0.16934 0.23283,-0.40923 0.0741,-0.24341 0.0741,-0.55738 0,-0.29986 -0.0706,-0.53975 -0.0705,-0.24342 -0.21872,-0.41628 -0.14817,-0.17286 -0.37747,-0.26458 -0.22578,-0.0952 -0.53975,-0.0952 h -0.86078 v 2.62466 h 0.86783 q 0.58561,0 0.89253,-0.34219 z m -0.4198,-1.59103 q 0.0776,0.10231 0.11641,0.25753 0.0423,0.15169 0.0423,0.35983 0,0.16933 -0.0282,0.32103 -0.0282,0.14816 -0.1023,0.26458 -0.0706,0.11289 -0.19756,0.17992 -0.12347,0.0635 -0.3175,0.0635 h -0.28927 v -1.651 h 0.29633 q 0.32455,0 0.47978,0.20461 z"
       id="text9"
       style="font-weight:500;font-size:3.52777px;font-family:OldSansBlack;-inkscape-font-specification:'OldSansBlack Medium';fill:#ffffff;stroke-width:0.1"
       aria-label="THRESHOLD" />
    <path
       d="m 136.25527,119.9518 h 1.13947 v -0.48683 h -1.70038 v 2.62466 h 0.56091 v -1.12536 l 0.85372,-0.004 -0.004,-0.47978 h -0.8502 z m 2.80105,2.13783 h 0.62795 l -0.5715,-1.15358 q 0.21872,-0.0776 0.33514,-0.24694 0.11994,-0.17286 0.11994,-0.4057 0,-0.20108 -0.0635,-0.35277 -0.06,-0.15522 -0.17286,-0.25753 -0.10936,-0.10231 -0.26811,-0.15522 -0.15875,-0.0529 -0.35278,-0.0529 h -1.0548 v 2.62466 h 0.56091 v -1.03716 h 0.35984 z m -0.15169,-2.0708 q 0.0459,0.0388 0.0705,0.10231 0.0247,0.0635 0.0247,0.15522 0,0.1023 -0.0388,0.16228 -0.0388,0.06 -0.1023,0.0917 -0.0635,0.0318 -0.14464,0.0423 -0.0811,0.007 -0.16228,0.007 h -0.3351 v -0.64206 h 0.39159 q 0.20461,0 0.29633,0.0811 z m 1.12536,2.0708 h 1.80269 v -0.48683 h -1.24178 v -0.63853 l 0.87489,-0.004 v -0.47978 h -0.87489 v -0.52917 h 1.19944 v -0.48683 h -1.76035 z m 2.15546,0 h 1.8027 v -0.48683 h -1.24178 v -0.63853 l 0.87489,-0.004 v -0.47978 h -0.87489 v -0.52917 h 1.19944 v -0.48683 h -1.76036 z m 1.91558,0 h 1.89089 v -0.48683 h -1.2065 l 1.19239,-1.69686 v -0.44097 h -1.79564 v 0.48683 h 1.07244 l -1.15358,1.67217 z m 2.20133,0 h 1.80269 v -0.48683 h -1.24177 v -0.63853 l 0.87488,-0.004 v -0.47978 h -0.87488 v -0.52917 h 1.19944 v -0.48683 h -1.76036 z"
       id="text10"
       style="font-weight:500;font-size:3.52777px;font-family:OldSansBlack;-inkscape-font-specification:'OldSansBlack Medium';fill:#ffffff;stroke-width:0.1"
       aria-label="FREEZE" />
    <path
       d="m 173.43989,104.86196 h 0.39758 l -0.52352,-1.83974 h -0.46426 l -0.53093,1.83974 h 0.39511 l 0.10619,-0.38524 h 0.52105 z m -0.35313,-1.37301 0.16792,0.65193 h -0.34572 z m 2.16323,1.21249 q 0.18273,-0.1852 0.18273,-0.53587 v -1.14088 h -0.39264 v 1.13595 q 0,0.21237 -0.0716,0.2988 -0.0346,0.042 -0.0963,0.0642 -0.0593,0.0222 -0.1531,0.0222 -0.17533,0 -0.24201,-0.0889 -0.0716,-0.0864 -0.0716,-0.30127 v -1.13101 h -0.39264 v 1.15817 q 0,0.34078 0.1852,0.52352 0.18768,0.18027 0.526,0.18027 0.34325,0 0.52599,-0.18521 z m 1.24706,-1.33843 h 0.46673 v -0.33832 h -1.32362 v 0.33832 h 0.46425 v 1.49895 h 0.39264 z m 1.89406,1.27176 q 0.19756,-0.24448 0.19756,-0.69144 0,-0.19015 -0.042,-0.36054 -0.0395,-0.17286 -0.13335,-0.30127 -0.0914,-0.13088 -0.23954,-0.20497 Q 178.02811,103 177.81326,103 q -0.21484,0 -0.363,0.0765 -0.14817,0.0741 -0.24201,0.20497 -0.0914,0.12841 -0.13335,0.30127 -0.0395,0.17039 -0.0395,0.36054 0,0.19014 0.0395,0.363 0.042,0.17039 0.13335,0.30127 0.0938,0.12842 0.24201,0.20497 0.14816,0.0741 0.363,0.0741 0.37783,0 0.57785,-0.25188 z m -0.29139,-1.14582 q 0.0938,0.1531 0.0938,0.45438 0,0.30127 -0.0938,0.45437 -0.0889,0.14817 -0.28646,0.14817 -0.20002,0 -0.28892,-0.14817 -0.0938,-0.1531 -0.0938,-0.45437 0,-0.30128 0.0938,-0.45438 0.0889,-0.14817 0.28892,-0.14817 0.19756,0 0.28646,0.14817 z"
       id="text11"
       style="font-weight:500;font-size:2.46944px;font-family:OldSansBlack;-inkscape-font-specification:'OldSansBlack Medium';fill:#ffffff;stroke-width:0.1"
       aria-label="AUTO" />
    <path
       d="m 173.38803,108.36196 h 0.36795 v -1.83727 h -0.37536 v 1.15076 l -0.66427,-1.15076 h -0.39758 v 1.83727 h 0.37535 v -1.20509 z m 1.94345,-0.22719 q 0.19756,-0.24448 0.19756,-0.69144 0,-0.19015 -0.042,-0.36054 -0.0395,-0.17286 -0.13335,-0.30127 -0.0914,-0.13088 -0.23954,-0.20497 -0.1457,-0.0765 -0.36054,-0.0765 -0.21484,0 -0.363,0.0765 -0.14817,0.0741 -0.24201,0.20497 -0.0914,0.12841 -0.13335,0.30127 -0.0395,0.17039 -0.0395,0.36054 0,0.19014 0.0395,0.363 0.042,0.17039 0.13335,0.30127 0.0938,0.12842 0.24201,0.20497 0.14816,0.0741 0.363,0.0741 0.37783,0 0.57785,-0.25188 z m -0.29139,-1.14582 q 0.0938,0.1531 0.0938,0.45438 0,0.30127 -0.0938,0.45437 -0.0889,0.14817 -0.28646,0.14817 -0.20002,0 -0.28892,-0.14817 -0.0938,-0.1531 -0.0938,-0.45437 0,-0.30128 0.0938,-0.45438 0.0889,-0.14817 0.28892,-0.14817 0.19756,0 0.28646,0.14817 z m 1.68169,1.37301 h 0.43956 l -0.40005,-0.80751 q 0.1531,-0.0543 0.23459,-0.17286 0.084,-0.121 0.084,-0.28399 0,-0.14075 -0.0444,-0.24694 -0.042,-0.10866 -0.12101,-0.18027 -0.0765,-0.0716 -0.18767,-0.10865 -0.11113,-0.037 -0.24695,-0.037 h -0.73836 v 1.83727 h 0.39264 v -0.72602 h 0.25188 z m -0.10619,-1.44956 q 0.0321,0.0272 0.0494,0.0716 0.0173,0.0444 0.0173,0.10865 0,0.0716 -0.0272,0.1136 -0.0272,0.042 -0.0716,0.0642 -0.0445,0.0222 -0.10125,0.0296 -0.0568,0.005 -0.11359,0.005 h -0.2346 v -0.44944 h 0.27411 q 0.14323,0 0.20743,0.0568 z m 2.141,1.44956 h 0.35067 v -1.83727 h -0.53093 l -0.32844,1.1804 -0.32597,-1.1804 h -0.52599 v 1.83727 h 0.35066 v -1.24954 l 0.35313,1.24954 h 0.29881 l 0.35806,-1.25201 z"
       id="text12"
       style="font-weight:500;font-size:2.46944px;font-family:OldSansBlack;-inkscape-font-specification:'OldSansBlack Medium';fill:#ffffff;stroke-width:0.1"
       aria-label="NORM" />
    <path
       d="m 173.49915,111.74342 q 0.17287,-0.14816 0.17287,-0.41733 0,-0.24941 -0.17533,-0.3803 -0.16546,-0.12841 -0.37536,-0.20002 -0.14817,-0.0519 -0.2667,-0.11853 -0.0568,-0.0321 -0.0815,-0.0667 -0.0222,-0.0346 -0.0222,-0.0716 0,-0.0469 0.0198,-0.079 0.0222,-0.0346 0.0543,-0.0519 0.0346,-0.0198 0.0741,-0.0272 0.042,-0.01 0.0815,-0.01 0.12347,0 0.19015,0.0667 0.0691,0.0642 0.11359,0.17039 l 0.36301,-0.11112 q -0.0543,-0.12594 -0.121,-0.20744 -0.0667,-0.0815 -0.15311,-0.13334 Q 173.20035,110 172.98304,110 q -0.25929,0 -0.43215,0.14323 -0.17286,0.14322 -0.17286,0.363 0,0.22225 0.14817,0.3482 0.14075,0.11606 0.42721,0.22471 0.1457,0.0543 0.24941,0.12348 0.0938,0.0617 0.0938,0.1531 0,0.0617 -0.0222,0.10372 -0.0222,0.0395 -0.0617,0.0642 -0.037,0.0222 -0.0864,0.0321 -0.0494,0.01 -0.10125,0.01 -0.0741,0 -0.13335,-0.0198 -0.0568,-0.0222 -0.10124,-0.0593 -0.0444,-0.037 -0.079,-0.0889 -0.0346,-0.0543 -0.0642,-0.11853 l -0.32844,0.14323 q 0.0568,0.13335 0.13088,0.21978 0.0741,0.084 0.17533,0.13829 0.19015,0.10618 0.39017,0.10618 0.31115,0 0.48401,-0.14323 z m 0.48648,0.11854 h 0.39511 v -1.83727 h -0.39511 z m 1.73602,0 h 0.36795 v -1.83727 h -0.37536 v 1.15076 l -0.66428,-1.15076 h -0.39758 v 1.83727 h 0.37536 v -1.20509 z m 1.76071,0 h 0.30374 v -0.95568 h -0.72354 v 0.34079 h 0.33831 q -0.0123,0.121 -0.0938,0.20249 -0.0938,0.0963 -0.24694,0.0963 -0.11113,0 -0.18274,-0.0593 -0.0692,-0.0593 -0.10866,-0.14816 -0.037,-0.0889 -0.0519,-0.19015 -0.0123,-0.10372 -0.0123,-0.18768 0,-0.0815 0.01,-0.18768 0.0123,-0.10865 0.0494,-0.20496 0.037,-0.0963 0.10372,-0.16051 0.0691,-0.0667 0.18274,-0.0667 0.14323,0 0.21484,0.0667 0.0741,0.0642 0.13088,0.19014 l 0.36548,-0.0963 q -0.0494,-0.14817 -0.11607,-0.24201 -0.0667,-0.0938 -0.15804,-0.15064 Q 177.30703,110 177.0996,110 q -0.21978,0 -0.37289,0.0815 -0.15063,0.079 -0.24447,0.21484 -0.0914,0.13335 -0.13335,0.31115 -0.0395,0.17533 -0.0395,0.37042 0,0.1778 0.0395,0.34325 0.042,0.16298 0.13088,0.28892 0.0889,0.12595 0.22966,0.2025 0.14075,0.0741 0.34078,0.0741 0.13335,0 0.2346,-0.037 0.10124,-0.037 0.19755,-0.13088 z m 0.59267,0 h 1.16804 v -0.34079 h -0.7754 v -1.49648 h -0.39264 z m 1.38782,0 h 1.26188 v -0.34079 h -0.86924 v -0.44696 l 0.61242,-0.002 v -0.33585 h -0.61242 v -0.37041 h 0.83961 v -0.34079 h -1.23225 z"
       id="text13"
       style="font-weight:500;font-size:2.46944px;font-family:OldSansBlack;-inkscape-font-specification:'OldSansBlack Medium';fill:#ffffff;stroke-width:0.1"
       aria-label="SINGLE" />
    <path
       d="m 173.29914,119.86196 h 0.43956 l -0.40005,-0.80751 q 0.15311,-0.0543 0.2346,-0.17286 0.084,-0.121 0.084,-0.28399 0,-0.14075 -0.0444,-0.24694 -0.042,-0.10866 -0.121,-0.18027 -0.0766,-0.0716 -0.18768,-0.10865 -0.11113,-0.037 -0.24694,-0.037 h -0.73837 v 1.83727 h 0.39264 v -0.72602 h 0.25189 z m -0.10619,-1.44956 q 0.0321,0.0272 0.0494,0.0716 0.0173,0.0444 0.0173,0.10865 0,0.0716 -0.0272,0.1136 -0.0272,0.042 -0.0716,0.0642 -0.0445,0.0222 -0.10125,0.0296 -0.0568,0.005 -0.11359,0.005 h -0.2346 v -0.44944 h 0.27411 q 0.14323,0 0.20743,0.0568 z m 0.81986,1.44956 h 0.39511 v -1.83727 h -0.39511 z m 1.84467,-0.11854 q 0.17286,-0.14816 0.17286,-0.41733 0,-0.24941 -0.17533,-0.3803 -0.16545,-0.12841 -0.37535,-0.20002 -0.14817,-0.0519 -0.2667,-0.11853 -0.0568,-0.0321 -0.0815,-0.0667 -0.0222,-0.0346 -0.0222,-0.0716 0,-0.0469 0.0198,-0.079 0.0222,-0.0346 0.0543,-0.0519 0.0346,-0.0198 0.0741,-0.0272 0.042,-0.01 0.0815,-0.01 0.12347,0 0.19014,0.0667 0.0691,0.0642 0.1136,0.17039 l 0.36301,-0.11112 q -0.0543,-0.12594 -0.12101,-0.20744 -0.0667,-0.0815 -0.1531,-0.13334 Q 175.55868,118 175.34137,118 q -0.25929,0 -0.43215,0.14323 -0.17287,0.14322 -0.17287,0.363 0,0.22225 0.14817,0.3482 0.14076,0.11606 0.42721,0.22471 0.1457,0.0543 0.24942,0.12348 0.0938,0.0617 0.0938,0.1531 0,0.0617 -0.0222,0.10372 -0.0222,0.0395 -0.0617,0.0642 -0.037,0.0222 -0.0864,0.0321 -0.0494,0.01 -0.10124,0.01 -0.0741,0 -0.13335,-0.0198 -0.0568,-0.0222 -0.10125,-0.0593 -0.0445,-0.037 -0.079,-0.0889 -0.0346,-0.0543 -0.0642,-0.11853 l -0.32843,0.14323 q 0.0568,0.13335 0.13088,0.21978 0.0741,0.084 0.17533,0.13829 0.19015,0.10618 0.39017,0.10618 0.31115,0 0.48401,-0.14323 z m 0.45438,0.11854 h 1.26188 v -0.34079 h -0.86924 v -0.44696 l 0.61242,-0.002 v -0.33585 h -0.61242 v -0.37041 h 0.83961 v -0.34079 h -1.23225 z"
       id="text14"
       style="font-weight:500;font-size:2.46944px;font-family:OldSansBlack;-inkscape-font-specification:'OldSansBlack Medium';fill:#ffffff;stroke-width:0.1"
       aria-label="RISE" />
    <path
       d="m 172.71141,122.34325 h 0.79763 v -0.34078 h -1.19027 v 1.83726 h 0.39264 v -0.78775 l 0.59761,-0.002 -0.002,-0.33584 h -0.59514 z m 1.77306,1.49648 h 0.39758 L 174.35853,122 h -0.46425 l -0.53093,1.83973 h 0.39511 l 0.10618,-0.38523 h 0.52106 z m -0.35313,-1.37301 0.16793,0.65194 h -0.34573 z m 0.91123,1.37301 h 1.16804 v -0.34078 h -0.7754 v -1.49648 h -0.39264 z m 1.373,0 h 1.16805 v -0.34078 h -0.7754 v -1.49648 h -0.39265 z"
       id="text15"
       style="font-weight:500;font-size:2.46944px;font-family:OldSansBlack;-inkscape-font-specification:'OldSansBlack Medium';fill:#ffffff;stroke-width:0.1"
       aria-label="FALL" />
    <path
       d="m 173.66778,96.403924 q 0.19755,-0.169333 0.19755,-0.476955 0,-0.285044 -0.20037,-0.434622 -0.18909,-0.146755 -0.42898,-0.2286 -0.16933,-0.05927 -0.3048,-0.135466 -0.0649,-0.03669 -0.0931,-0.0762 -0.0254,-0.03951 -0.0254,-0.08184 0,-0.05362 0.0226,-0.09031 0.0254,-0.03951 0.0621,-0.05927 0.0395,-0.02258 0.0847,-0.03104 0.048,-0.01129 0.0931,-0.01129 0.14111,0 0.21731,0.0762 0.079,0.07338 0.12983,0.194733 l 0.41486,-0.127 q -0.0621,-0.143933 -0.13829,-0.237067 -0.0762,-0.09313 -0.17497,-0.1524 -0.19756,-0.121355 -0.44591,-0.121355 -0.29634,0 -0.49389,0.163689 -0.19756,0.163689 -0.19756,0.414866 0,0.254 0.16933,0.397933 0.16087,0.132645 0.48825,0.256822 0.16651,0.06209 0.28504,0.141111 0.10725,0.07056 0.10725,0.174978 0,0.07055 -0.0254,0.118533 -0.0254,0.04516 -0.0706,0.07338 -0.0423,0.0254 -0.0988,0.03669 -0.0564,0.01129 -0.11571,0.01129 -0.0847,0 -0.1524,-0.02258 -0.0649,-0.0254 -0.11571,-0.06773 -0.0508,-0.04233 -0.0903,-0.1016 -0.0395,-0.06209 -0.0734,-0.135467 l -0.37535,0.163689 q 0.0649,0.1524 0.14958,0.251177 0.0847,0.09596 0.20037,0.158045 0.21731,0.121355 0.44591,0.121355 0.3556,0 0.55316,-0.163689 z m 1.91629,-0.124177 q 0.22577,-0.2794 0.22577,-0.790222 0,-0.217311 -0.048,-0.412044 -0.0452,-0.197555 -0.1524,-0.344311 -0.10443,-0.149578 -0.27376,-0.234244 -0.16651,-0.08749 -0.41204,-0.08749 -0.24554,0 -0.41487,0.08749 -0.16933,0.08467 -0.27658,0.234244 -0.10442,0.146756 -0.1524,0.344311 -0.0452,0.194733 -0.0452,0.412044 0,0.217311 0.0452,0.414866 0.048,0.194734 0.1524,0.344311 0.10725,0.146756 0.27658,0.234245 0.16933,0.08467 0.41487,0.08467 0.4318,0 0.6604,-0.287866 z m -0.33302,-1.30951 q 0.10724,0.174977 0.10724,0.519288 0,0.344311 -0.10724,0.519289 -0.1016,0.169333 -0.32738,0.169333 -0.2286,0 -0.3302,-0.169333 -0.10725,-0.174978 -0.10725,-0.519289 0,-0.344311 0.10725,-0.519288 0.1016,-0.169334 0.3302,-0.169334 0.22578,0 0.32738,0.169334 z m 2.23237,1.38571 q 0.20884,-0.211667 0.20884,-0.612422 v -1.303866 h -0.44873 v 1.298221 q 0,0.242711 -0.0818,0.341489 -0.0395,0.04798 -0.11007,0.07338 -0.0677,0.0254 -0.17498,0.0254 -0.20037,0 -0.27657,-0.1016 -0.0819,-0.09878 -0.0819,-0.344311 v -1.292577 h -0.44873 v 1.323621 q 0,0.389467 0.21166,0.598311 0.21449,0.206022 0.60114,0.206022 0.39229,0 0.60113,-0.211666 z m 1.63971,0.183444 h 0.50236 l -0.4572,-0.922866 q 0.17497,-0.06209 0.26811,-0.197555 0.0959,-0.138289 0.0959,-0.324556 0,-0.160866 -0.0508,-0.282222 -0.048,-0.124177 -0.13829,-0.206022 -0.0875,-0.08184 -0.21449,-0.124177 -0.12699,-0.04233 -0.28222,-0.04233 h -0.84384 v 2.099732 h 0.44873 v -0.829733 h 0.28787 z m -0.12135,-1.656643 q 0.0367,0.03104 0.0564,0.08184 0.0198,0.0508 0.0198,0.124178 0,0.08184 -0.031,0.129822 -0.031,0.04798 -0.0818,0.07338 -0.0508,0.0254 -0.11571,0.03387 -0.0649,0.0056 -0.12983,0.0056 h -0.26811 v -0.513644 h 0.31327 q 0.16369,0 0.23707,0.06491 z m 2.09126,1.543754 q 0.0988,-0.07055 0.17215,-0.1778 0.0762,-0.107244 0.13829,-0.268111 l -0.42333,-0.110066 q -0.031,0.06773 -0.0649,0.124178 -0.0339,0.05644 -0.0762,0.09878 -0.0423,0.03951 -0.1016,0.06209 -0.0564,0.02258 -0.13829,0.02258 -0.20884,0 -0.29915,-0.166511 -0.0988,-0.172156 -0.0988,-0.508 0,-0.06209 0.003,-0.138289 0.006,-0.0762 0.0198,-0.152399 0.0141,-0.07902 0.0395,-0.1524 0.0282,-0.07338 0.0705,-0.129822 0.0423,-0.05927 0.10442,-0.09313 0.0649,-0.03669 0.14958,-0.03669 0.14676,0 0.22578,0.08467 0.079,0.08467 0.12418,0.214489 l 0.41204,-0.09878 q -0.0536,-0.183444 -0.127,-0.296333 -0.0706,-0.115711 -0.16933,-0.174978 -0.19473,-0.118533 -0.45156,-0.118533 -0.23706,0 -0.40075,0.09031 -0.16369,0.09031 -0.26529,0.242711 -0.0988,0.149578 -0.14393,0.344311 -0.0423,0.194733 -0.0423,0.400755 0,0.208844 0.0423,0.403578 0.0452,0.191911 0.14393,0.34431 0.0988,0.149578 0.26247,0.239889 0.16368,0.09031 0.40075,0.09031 0.29916,0 0.49389,-0.141111 z m 0.5334,0.112889 h 1.44215 v -0.389466 h -0.99342 v -0.510822 l 0.69991,-0.0028 v -0.383822 h -0.69991 v -0.423333 h 0.95956 v -0.389467 h -1.40829 z"
       id="text16"
       style="font-weight:500;font-size:2.82222px;font-family:OldSansBlack;-inkscape-font-specification:'OldSansBlack Medium';fill:#ffffff;stroke-width:0.1"
       aria-label="SOURCE" />
    <path
       d="m 186.5,108.49319 h 1.44216 v -0.38947 h -0.99343 v -0.51082 l 0.69992,-0.003 v -0.38382 h -0.69992 v -0.42334 h 0.95956 v -0.38947 H 186.5 Z m 2.62185,0 h 0.49389 l -0.56727,-1.07527 0.5334,-1.02447 h -0.49389 l -0.28504,0.58985 -0.28505,-0.58985 H 188.024 l 0.53341,1.02447 -0.56727,1.07527 h 0.49389 l 0.31891,-0.65193 z m 1.4732,-1.71309 h 0.53341 v -0.38665 h -1.51272 v 0.38665 h 0.53058 v 1.71309 h 0.44873 z m 0.76483,1.71309 h 0.45156 v -0.46284 h -0.45156 z m 2.5259,-1.71309 h 0.5334 v -0.38665 h -1.51272 v 0.38665 h 0.53058 v 1.71309 h 0.44874 z m 1.87113,1.71309 h 0.50236 l -0.4572,-0.92287 q 0.17498,-0.0621 0.26811,-0.19755 0.096,-0.13829 0.096,-0.32457 0,-0.16087 -0.0508,-0.28221 -0.048,-0.12418 -0.13829,-0.20602 -0.0875,-0.0819 -0.21449,-0.12418 -0.127,-0.0423 -0.28222,-0.0423 h -0.84385 v 2.09974 h 0.44873 v -0.82973 h 0.28787 z m -0.12135,-1.65665 q 0.0367,0.031 0.0564,0.0819 0.0198,0.0508 0.0198,0.12418 0,0.0818 -0.0311,0.12982 -0.031,0.048 -0.0818,0.0734 -0.0508,0.0254 -0.11571,0.0339 -0.0649,0.006 -0.12983,0.006 h -0.26811 v -0.51365 h 0.31327 q 0.16369,0 0.23707,0.0649 z m 0.93698,1.65665 h 0.45155 v -2.09974 h -0.45155 z m 2.09127,0 h 0.34714 v -1.0922 h -0.82692 v 0.38947 h 0.38665 q -0.0141,0.13829 -0.10725,0.23142 -0.10724,0.11007 -0.28222,0.11007 -0.127,0 -0.20885,-0.0677 -0.079,-0.0677 -0.12417,-0.16934 -0.0423,-0.1016 -0.0593,-0.2173 -0.0141,-0.11854 -0.0141,-0.21449 0,-0.0931 0.0113,-0.21449 0.0141,-0.12418 0.0564,-0.23425 0.0423,-0.11007 0.11854,-0.18345 0.079,-0.0762 0.20884,-0.0762 0.16369,0 0.24553,0.0762 0.0847,0.0734 0.14958,0.21731 l 0.41769,-0.11006 q -0.0564,-0.16933 -0.13264,-0.27658 -0.0762,-0.10724 -0.18062,-0.17216 -0.20603,-0.12418 -0.44309,-0.12418 -0.25118,0 -0.42616,0.0931 -0.17216,0.0903 -0.2794,0.24554 -0.10442,0.1524 -0.1524,0.3556 -0.0452,0.20037 -0.0452,0.42332 0,0.2032 0.0452,0.39229 0.048,0.18627 0.14958,0.33021 0.1016,0.14393 0.26246,0.23142 0.16087,0.0847 0.38947,0.0847 0.1524,0 0.26811,-0.0423 0.11571,-0.0423 0.22578,-0.14958 z"
       id="text17"
       style="font-weight:500;font-size:2.82223px;font-family:OldSansBlack;-inkscape-font-specification:'OldSansBlack Medium';fill:#ffffff;stroke-width:0.1"
       aria-label="EXT. TRIG" />
    <path
       d="m 89.201613,122.08939 h 0.567972 l -0.747889,-2.6282 H 88.358473 L 87.6,122.08939 h 0.564446 l 0.151695,-0.55034 h 0.744361 z m -0.504473,-1.96145 0.239889,0.93133 h -0.493888 z m 3.090339,1.73214 q 0.26105,-0.26458 0.26105,-0.76553 v -1.62983 h -0.56091 v 1.62278 q 0,0.30339 -0.10231,0.42686 -0.0494,0.06 -0.13758,0.0917 -0.08467,0.0318 -0.218726,0.0318 -0.250473,0 -0.345723,-0.127 -0.102305,-0.12347 -0.102305,-0.43039 v -1.61572 h -0.560917 v 1.65453 q 0,0.48683 0.264583,0.74789 0.268111,0.25752 0.751417,0.25752 0.490361,0 0.751421,-0.26458 z m 1.78153,-1.91206 h 0.66675 v -0.4833 h -1.89089 v 0.4833 h 0.66322 v 2.14137 h 0.56092 z m 2.7058,1.81681 q 0.28222,-0.34925 0.28222,-0.98778 0,-0.27164 -0.06,-0.51505 -0.0564,-0.24695 -0.1905,-0.43039 -0.13053,-0.18698 -0.34219,-0.29281 -0.20814,-0.10936 -0.51506,-0.10936 -0.30691,0 -0.51858,0.10936 -0.21167,0.10583 -0.34572,0.29281 -0.13053,0.18344 -0.1905,0.43039 -0.0564,0.24341 -0.0564,0.51505 0,0.27164 0.0564,0.51859 0.06,0.24341 0.1905,0.43038 0.13405,0.18345 0.34572,0.29281 0.21167,0.10583 0.51858,0.10583 0.53975,0 0.8255,-0.35983 z m -0.41628,-1.63689 q 0.13406,0.21873 0.13406,0.64911 0,0.43039 -0.13406,0.64911 -0.127,0.21167 -0.40922,0.21167 -0.28575,0 -0.41275,-0.21167 -0.13405,-0.21872 -0.13405,-0.64911 0,-0.43039 0.13405,-0.64911 0.127,-0.21166 0.41275,-0.21166 0.28222,0 0.40922,0.21166 z m 3.10092,-0.17991 H 99.6262 v -0.4833 h -1.890891 v 0.4833 h 0.66323 v 2.14136 h 0.56091 z m 1.005421,2.14136 h 0.56444 v -2.62466 h -0.56444 z m 2.8963,0 h 0.50095 v -2.62466 h -0.75847 l -0.4692,1.68627 -0.46567,-1.68627 h -0.75141 v 2.62466 h 0.50094 v -1.78506 l 0.50447,1.78506 h 0.42687 l 0.51152,-1.78859 z m 0.889,0 h 1.8027 v -0.48684 h -1.24178 v -0.63853 l 0.87489,-0.004 v -0.47978 h -0.87489 v -0.52917 h 1.19944 v -0.48683 h -1.76036 z"
       id="text18"
       style="font-weight:500;font-size:3.52778px;font-family:OldSansBlack;-inkscape-font-specification:'OldSansBlack Medium';fill:#ffffff;stroke-width:0.1"
       aria-label="AUTO TIME" />
    <path
       d="m 118.6516,121.92007 q 0.24695,-0.21167 0.24695,-0.5962 0,-0.3563 -0.25047,-0.54327 -0.23636,-0.18345 -0.53622,-0.28575 -0.21167,-0.0741 -0.381,-0.16934 -0.0811,-0.0459 -0.11642,-0.0953 -0.0318,-0.0494 -0.0318,-0.1023 0,-0.067 0.0282,-0.11289 0.0318,-0.0494 0.0776,-0.0741 0.0494,-0.0282 0.10585,-0.0388 0.06,-0.0141 0.11641,-0.0141 0.17639,0 0.27164,0.0953 0.0988,0.0917 0.16228,0.24342 l 0.51858,-0.15875 q -0.0776,-0.17991 -0.17286,-0.29634 -0.0952,-0.11641 -0.21873,-0.1905 -0.24694,-0.15169 -0.55738,-0.15169 -0.37042,0 -0.61737,0.20461 -0.24693,0.20461 -0.24693,0.51858 0,0.3175 0.21165,0.49743 0.20109,0.1658 0.61031,0.32102 0.20814,0.0776 0.3563,0.17638 0.13407,0.0882 0.13407,0.21873 0,0.0882 -0.0317,0.14816 -0.0318,0.0564 -0.0882,0.0917 -0.0529,0.0317 -0.12347,0.0459 -0.0705,0.0141 -0.14464,0.0141 -0.10583,0 -0.1905,-0.0282 -0.0811,-0.0317 -0.14464,-0.0847 -0.0635,-0.0529 -0.11288,-0.12699 -0.0494,-0.0776 -0.0917,-0.16933 l -0.46919,0.20461 q 0.0811,0.1905 0.18697,0.31397 0.10584,0.11993 0.25047,0.19755 0.27164,0.1517 0.55739,0.1517 0.4445,0 0.69144,-0.20461 z m 1.651,-1.97203 h 0.66675 v -0.4833 h -1.89089 v 0.4833 h 0.66323 v 2.14136 h 0.56091 z m 2.04258,2.14136 h 0.56797 l -0.74789,-2.62819 h -0.66322 l -0.75847,2.62819 h 0.56444 l 0.1517,-0.55033 h 0.74436 z m -0.50447,-1.96144 0.23988,0.93133 h -0.49388 z m 2.08138,-0.17992 h 0.66675 v -0.4833 h -1.89089 v 0.4833 h 0.66322 v 2.14137 h 0.56091 z m 2.46591,1.97203 q 0.24694,-0.21166 0.24694,-0.59619 0,-0.35631 -0.25048,-0.54328 -0.23636,-0.18344 -0.53622,-0.28574 -0.21166,-0.0741 -0.381,-0.16935 -0.0811,-0.0459 -0.11641,-0.0953 -0.0318,-0.0494 -0.0318,-0.1023 0,-0.067 0.0282,-0.11289 0.0318,-0.0494 0.0776,-0.0741 0.0494,-0.0282 0.10583,-0.0388 0.06,-0.0141 0.11642,-0.0141 0.17639,0 0.27164,0.0953 0.0988,0.0917 0.16228,0.24342 l 0.51859,-0.15875 q -0.0776,-0.17992 -0.17286,-0.29634 -0.0952,-0.11641 -0.21873,-0.1905 -0.24694,-0.15169 -0.55738,-0.15169 -0.37042,0 -0.61736,0.20461 -0.24695,0.20461 -0.24695,0.51858 0,0.3175 0.21167,0.49742 0.20108,0.1658 0.6103,0.32103 0.20814,0.0776 0.35631,0.17638 0.13405,0.0882 0.13405,0.21872 0,0.0882 -0.0318,0.14817 -0.0317,0.0564 -0.0882,0.0917 -0.0529,0.0317 -0.12346,0.0459 -0.0706,0.0141 -0.14464,0.0141 -0.10583,0 -0.1905,-0.0282 -0.0811,-0.0317 -0.14464,-0.0847 -0.0635,-0.0529 -0.11289,-0.127 -0.0494,-0.0776 -0.0917,-0.16933 l -0.46919,0.20461 q 0.0811,0.1905 0.18697,0.31397 0.10583,0.11994 0.25047,0.19755 0.27164,0.1517 0.55739,0.1517 0.4445,0 0.69144,-0.20461 z"
       id="text19"
       style="font-weight:500;font-size:3.52777px;font-family:OldSansBlack;-inkscape-font-specification:'OldSansBlack Medium';fill:#ffffff;stroke-width:0.1"
       aria-label="STATS" />
    <path
       d="m 79.543205,92.10233 q 0.250471,-0.204611 0.250471,-0.592666 0,-0.218722 -0.07408,-0.370416 -0.07055,-0.155221 -0.197555,-0.250471 -0.127,-0.09525 -0.29986,-0.137583 -0.169333,-0.04233 -0.370416,-0.04233 h -0.970137 v 2.624661 h 0.564443 v -1.030109 h 0.402166 q 0.451554,0 0.694971,-0.201082 z m -0.41275,-0.843137 q 0.04586,0.03528 0.07056,0.09878 0.02469,0.05997 0.02469,0.15875 0,0.09878 -0.03528,0.162277 -0.03528,0.05997 -0.09525,0.09525 -0.05645,0.03175 -0.134055,0.04586 -0.07408,0.01058 -0.15875,0.01058 h -0.356305 v -0.649109 h 0.356305 q 0.229305,0 0.328082,0.07761 z"
       id="text20"
       style="font-weight:500;font-size:3.52777px;font-family:OldSansBlack;-inkscape-font-specification:'OldSansBlack Medium';fill:#ffffff;stroke-width:0.1"
       aria-label="P" />
    <path
       d="m 79.557319,107.12761 q 0.246944,-0.21167 0.246944,-0.5962 0,-0.3563 -0.250472,-0.54327 -0.23636,-0.18345 -0.536221,-0.28575 -0.211666,-0.0741 -0.380999,-0.16934 -0.08114,-0.0459 -0.116416,-0.0953 -0.03175,-0.0494 -0.03175,-0.1023 0,-0.067 0.02822,-0.11289 0.03175,-0.0494 0.07761,-0.0741 0.04939,-0.0282 0.105833,-0.0388 0.05997,-0.0141 0.116416,-0.0141 0.176389,0 0.271639,0.0953 0.09878,0.0917 0.162277,0.24342 l 0.518582,-0.15875 q -0.07761,-0.17992 -0.17286,-0.29634 -0.09525,-0.11641 -0.218722,-0.1905 -0.246944,-0.15169 -0.557388,-0.15169 -0.370416,0 -0.61736,0.20461 -0.246943,0.20461 -0.246943,0.51858 0,0.3175 0.211666,0.49742 0.201083,0.1658 0.610304,0.32103 0.208138,0.0776 0.356305,0.17638 0.134055,0.0882 0.134055,0.21873 0,0.0882 -0.03175,0.14816 -0.03175,0.0564 -0.08819,0.0917 -0.05292,0.0317 -0.123472,0.0459 -0.07056,0.0141 -0.144639,0.0141 -0.105833,0 -0.190499,-0.0282 -0.08114,-0.0317 -0.144639,-0.0847 -0.0635,-0.0529 -0.112888,-0.127 -0.04939,-0.0776 -0.09172,-0.16933 l -0.469193,0.20461 q 0.08114,0.1905 0.186972,0.31397 0.105833,0.11994 0.250472,0.19755 0.271638,0.1517 0.557387,0.1517 0.444499,0 0.691443,-0.20461 z"
       id="text21"
       style="font-weight:500;font-size:3.52777px;font-family:OldSansBlack;-inkscape-font-specification:'OldSansBlack Medium';fill:#ffffff;stroke-width:0.1"
       aria-label="S" />
    <path
       d="m 59.128156,92.10233 q 0.250471,-0.204611 0.250471,-0.592666 0,-0.218722 -0.07408,-0.370416 -0.07055,-0.155221 -0.197555,-0.250471 -0.127,-0.09525 -0.29986,-0.137583 -0.169333,-0.04233 -0.370416,-0.04233 h -0.970137 v 2.624661 h 0.564443 v -1.030109 h 0.402166 q 0.451554,0 0.694971,-0.201082 z m -0.41275,-0.843137 q 0.04586,0.03528 0.07056,0.09878 0.02469,0.05997 0.02469,0.15875 0,0.09878 -0.03528,0.162277 -0.03528,0.05997 -0.09525,0.09525 -0.05645,0.03175 -0.134055,0.04586 -0.07408,0.01058 -0.15875,0.01058 h -0.356305 v -0.649109 h 0.356305 q 0.229305,0 0.328082,0.07761 z"
       id="text20-8"
       style="font-weight:500;font-size:3.52777px;font-family:OldSansBlack;-inkscape-font-specification:'OldSansBlack Medium';fill:#ffffff;stroke-width:0.1"
       aria-label="P" />
    <path
       d="m 59.14227,107.12761 q 0.246944,-0.21167 0.246944,-0.5962 0,-0.3563 -0.250472,-0.54327 -0.23636,-0.18345 -0.536221,-0.28575 -0.211666,-0.0741 -0.380999,-0.16934 -0.08114,-0.0459 -0.116416,-0.0953 -0.03175,-0.0494 -0.03175,-0.1023 0,-0.067 0.02822,-0.11289 0.03175,-0.0494 0.07761,-0.0741 0.04939,-0.0282 0.105833,-0.0388 0.05997,-0.0141 0.116416,-0.0141 0.176389,0 0.271639,0.0953 0.09878,0.0917 0.162277,0.24342 l 0.518582,-0.15875 q -0.07761,-0.17992 -0.17286,-0.29634 -0.09525,-0.11641 -0.218722,-0.1905 -0.246944,-0.15169 -0.557388,-0.15169 -0.370416,0 -0.61736,0.20461 -0.246943,0.20461 -0.246943,0.51858 0,0.3175 0.211666,0.49742 0.201083,0.1658 0.610304,0.32103 0.208138,0.0776 0.356305,0.17638 0.134055,0.0882 0.134055,0.21873 0,0.0882 -0.03175,0.14816 -0.03175,0.0564 -0.08819,0.0917 -0.05292,0.0317 -0.123472,0.0459 -0.07056,0.0141 -0.144639,0.0141 -0.105833,0 -0.190499,-0.0282 -0.08114,-0.0317 -0.144639,-0.0847 -0.0635,-0.0529 -0.112888,-0.127 -0.04939,-0.0776 -0.09172,-0.16933 L 57.456,106.66899 q 0.08114,0.1905 0.186972,0.31397 0.105833,0.11994 0.250472,0.19755 0.271638,0.1517 0.557387,0.1517 0.444499,0 0.691443,-0.20461 z"
       id="text21-6"
       style="font-weight:500;font-size:3.52777px;font-family:OldSansBlack;-inkscape-font-specification:'OldSansBlack Medium';fill:#ffffff;stroke-width:0.1"
       aria-label="S" />
    <path
       d="m 38.555156,92.10233 q 0.250471,-0.204611 0.250471,-0.592666 0,-0.218722 -0.07408,-0.370416 -0.07055,-0.155221 -0.197555,-0.250471 -0.127,-0.09525 -0.29986,-0.137583 -0.169333,-0.04233 -0.370416,-0.04233 h -0.970137 v 2.624661 h 0.564443 v -1.030109 h 0.402166 q 0.451554,0 0.694971,-0.201082 z m -0.41275,-0.843137 q 0.04586,0.03528 0.07056,0.09878 0.02469,0.05997 0.02469,0.15875 0,0.09878 -0.03528,0.162277 -0.03528,0.05997 -0.09525,0.09525 -0.05645,0.03175 -0.134055,0.04586 -0.07408,0.01058 -0.15875,0.01058 h -0.356305 v -0.649109 h 0.356305 q 0.229305,0 0.328082,0.07761 z"
       id="text20-0"
       style="font-weight:500;font-size:3.52777px;font-family:OldSansBlack;-inkscape-font-specification:'OldSansBlack Medium';fill:#ffffff;stroke-width:0.1"
       aria-label="P" />
    <path
       d="m 38.56927,107.12761 q 0.246944,-0.21167 0.246944,-0.5962 0,-0.3563 -0.250472,-0.54327 -0.23636,-0.18345 -0.536221,-0.28575 -0.211666,-0.0741 -0.380999,-0.16934 -0.08114,-0.0459 -0.116416,-0.0953 -0.03175,-0.0494 -0.03175,-0.1023 0,-0.067 0.02822,-0.11289 0.03175,-0.0494 0.07761,-0.0741 0.04939,-0.0282 0.105833,-0.0388 0.05997,-0.0141 0.116416,-0.0141 0.176389,0 0.271639,0.0953 0.09878,0.0917 0.162277,0.24342 l 0.518582,-0.15875 q -0.07761,-0.17992 -0.17286,-0.29634 -0.09525,-0.11641 -0.218722,-0.1905 -0.246944,-0.15169 -0.557388,-0.15169 -0.370416,0 -0.61736,0.20461 -0.246943,0.20461 -0.246943,0.51858 0,0.3175 0.211666,0.49742 0.201083,0.1658 0.610304,0.32103 0.208138,0.0776 0.356305,0.17638 0.134055,0.0882 0.134055,0.21873 0,0.0882 -0.03175,0.14816 -0.03175,0.0564 -0.08819,0.0917 -0.05292,0.0317 -0.123472,0.0459 -0.07056,0.0141 -0.144639,0.0141 -0.105833,0 -0.190499,-0.0282 -0.08114,-0.0317 -0.144639,-0.0847 -0.0635,-0.0529 -0.112888,-0.127 -0.04939,-0.0776 -0.09172,-0.16933 L 36.883,106.66899 q 0.08114,0.1905 0.186972,0.31397 0.105833,0.11994 0.250472,0.19755 0.271638,0.1517 0.557387,0.1517 0.444499,0 0.691443,-0.20461 z"
       id="text21-61"
       style="font-weight:500;font-size:3.52777px;font-family:OldSansBlack;-inkscape-font-specification:'OldSansBlack Medium';fill:#ffffff;stroke-width:0.1"
       aria-label="S" />
    <path
       d="m 18.547156,92.10233 q 0.250471,-0.204611 0.250471,-0.592666 0,-0.218722 -0.07408,-0.370416 -0.07055,-0.155221 -0.197555,-0.250471 -0.127,-0.09525 -0.29986,-0.137583 -0.169333,-0.04233 -0.370416,-0.04233 h -0.970137 v 2.624661 h 0.564443 v -1.030109 h 0.402166 q 0.451554,0 0.694971,-0.201082 z m -0.41275,-0.843137 q 0.04586,0.03528 0.07056,0.09878 0.02469,0.05997 0.02469,0.15875 0,0.09878 -0.03528,0.162277 -0.03528,0.05997 -0.09525,0.09525 -0.05645,0.03175 -0.134055,0.04586 -0.07408,0.01058 -0.15875,0.01058 h -0.356305 v -0.649109 h 0.356305 q 0.229305,0 0.328082,0.07761 z"
       id="text20-4"
       style="font-weight:500;font-size:3.52777px;font-family:OldSansBlack;-inkscape-font-specification:'OldSansBlack Medium';fill:#ffffff;stroke-width:0.1"
       aria-label="P" />
    <path
       d="m 18.56127,107.12761 q 0.246944,-0.21167 0.246944,-0.5962 0,-0.3563 -0.250472,-0.54327 -0.23636,-0.18345 -0.536221,-0.28575 -0.211666,-0.0741 -0.380999,-0.16934 -0.08114,-0.0459 -0.116416,-0.0953 -0.03175,-0.0494 -0.03175,-0.1023 0,-0.067 0.02822,-0.11289 0.03175,-0.0494 0.07761,-0.0741 0.04939,-0.0282 0.105833,-0.0388 0.05997,-0.0141 0.116416,-0.0141 0.176389,0 0.271639,0.0953 0.09878,0.0917 0.162277,0.24342 l 0.518582,-0.15875 q -0.07761,-0.17992 -0.17286,-0.29634 -0.09525,-0.11641 -0.218722,-0.1905 -0.246944,-0.15169 -0.557388,-0.15169 -0.370416,0 -0.61736,0.20461 -0.246943,0.20461 -0.246943,0.51858 0,0.3175 0.211666,0.49742 0.201083,0.1658 0.610304,0.32103 0.208138,0.0776 0.356305,0.17638 0.134055,0.0882 0.134055,0.21873 0,0.0882 -0.03175,0.14816 -0.03175,0.0564 -0.08819,0.0917 -0.05292,0.0317 -0.123472,0.0459 -0.07056,0.0141 -0.144639,0.0141 -0.105833,0 -0.190499,-0.0282 -0.08114,-0.0317 -0.144639,-0.0847 -0.0635,-0.0529 -0.112888,-0.127 -0.04939,-0.0776 -0.09172,-0.16933 L 16.875,106.66899 q 0.08114,0.1905 0.186972,0.31397 0.105833,0.11994 0.250472,0.19755 0.271638,0.1517 0.557387,0.1517 0.444499,0 0.691443,-0.20461 z"
       id="text21-4"
       style="font-weight:500;font-size:3.52777px;font-family:OldSansBlack;-inkscape-font-specification:'OldSansBlack Medium';fill:#ffffff;stroke-width:0.1"
       aria-label="S" />
    <path
       d="m 108.6349,3.9786059 q 0.24694,-0.2116662 0.24694,-0.5961931 0,-0.3563048 -0.25047,-0.5432766 -0.23636,-0.183444 -0.53622,-0.2857493 -0.21167,-0.074083 -0.381,-0.169333 -0.0811,-0.045861 -0.11642,-0.09525 -0.0318,-0.049389 -0.0318,-0.1023053 0,-0.067028 0.0282,-0.1128887 0.0318,-0.049389 0.0776,-0.074083 0.0494,-0.028222 0.10584,-0.038806 0.06,-0.014111 0.11641,-0.014111 0.17639,0 0.27164,0.09525 0.0988,0.091722 0.16228,0.2434161 l 0.51858,-0.1587496 Q 108.76888,1.9466101 108.67362,1.8301937 108.57842,1.7137773 108.4549,1.6396941 108.20796,1.488 107.89751,1.488 q -0.37041,0 -0.61736,0.2046107 -0.24694,0.2046106 -0.24694,0.5185822 0,0.3174993 0.21166,0.4974155 0.20109,0.1658052 0.61031,0.3210271 0.20814,0.077611 0.3563,0.1763885 0.13406,0.088194 0.13406,0.2187218 0,0.088194 -0.0318,0.1481663 -0.0317,0.056444 -0.0882,0.091722 -0.0529,0.03175 -0.12347,0.045861 -0.0705,0.014111 -0.14464,0.014111 -0.10583,0 -0.1905,-0.028222 -0.0811,-0.03175 -0.14463,-0.084666 -0.0635,-0.052917 -0.11289,-0.1269998 -0.0494,-0.077611 -0.0917,-0.1693329 l -0.4692,0.2046106 q 0.0811,0.1904996 0.18697,0.3139716 0.10584,0.1199442 0.25048,0.1975551 0.27163,0.1516941 0.55738,0.1516941 0.4445,0 0.69145,-0.2046107 z m 2.13782,0.028222 q 0.12348,-0.088194 0.2152,-0.2222495 0.0952,-0.1340553 0.17286,-0.3351382 l -0.52917,-0.137583 q -0.0388,0.084666 -0.0811,0.1552219 -0.0423,0.070555 -0.0953,0.1234719 -0.0529,0.049389 -0.127,0.077611 -0.0706,0.028222 -0.17286,0.028222 -0.26106,0 -0.37395,-0.2081384 -0.12347,-0.215194 -0.12347,-0.6349986 0,-0.077611 0.004,-0.1728607 0.007,-0.09525 0.0247,-0.1904996 0.0176,-0.098778 0.0494,-0.1904996 0.0353,-0.091722 0.0882,-0.1622774 0.0529,-0.074083 0.13053,-0.1164164 0.0811,-0.045861 0.18697,-0.045861 0.18345,0 0.28223,0.1058331 0.0988,0.1058331 0.15522,0.2681105 l 0.51505,-0.123472 q -0.067,-0.229305 -0.15875,-0.3704158 -0.0882,-0.1446386 -0.21166,-0.2187218 Q 110.4804,1.488 110.15937,1.488 q -0.29633,0 -0.50094,0.1128886 -0.20461,0.1128887 -0.33161,0.3033883 -0.12347,0.1869718 -0.17992,0.4303879 -0.0529,0.2434161 -0.0529,0.5009434 0,0.2610549 0.0529,0.5044711 0.0564,0.2398883 0.17992,0.4303879 0.12347,0.1869718 0.32808,0.2998605 0.20461,0.1128886 0.50095,0.1128886 0.37394,0 0.61735,-0.1763885 z m 2.413,-0.183444 q 0.28222,-0.3492493 0.28222,-0.9877756 0,-0.2716383 -0.06,-0.5150545 -0.0565,-0.2469439 -0.1905,-0.4303879 -0.13053,-0.1869718 -0.34219,-0.2928049 -0.20814,-0.1093609 -0.51506,-0.1093609 -0.30691,0 -0.51858,0.1093609 -0.21167,0.1058331 -0.34572,0.2928049 -0.13053,0.183444 -0.1905,0.4303879 -0.0564,0.2434162 -0.0564,0.5150545 0,0.2716382 0.0564,0.5185822 0.06,0.2434161 0.1905,0.4303879 0.13405,0.183444 0.34572,0.2928049 0.21167,0.1058331 0.51858,0.1058331 0.53975,0 0.8255,-0.3598325 z m -0.41628,-1.6368851 q 0.13406,0.2187217 0.13406,0.6491097 0,0.4303879 -0.13406,0.6491096 -0.127,0.2116662 -0.40922,0.2116662 -0.28575,0 -0.41275,-0.2116662 -0.13405,-0.2187217 -0.13405,-0.6491096 0,-0.430388 0.13405,-0.6491097 0.127,-0.2116662 0.41275,-0.2116662 0.28222,0 0.40922,0.2116662 z m 2.62819,0.7302484 q 0.25047,-0.2046107 0.25047,-0.5926654 0,-0.2187217 -0.0741,-0.3704159 -0.0706,-0.1552218 -0.19756,-0.2504716 -0.127,-0.09525 -0.29986,-0.1375831 -0.16933,-0.042333 -0.37041,-0.042333 h -0.97014 v 2.6246609 h 0.56444 v -1.030109 h 0.40217 q 0.45155,0 0.69497,-0.2010829 z m -0.41275,-0.8431371 q 0.0459,0.035278 0.0706,0.098778 0.0247,0.059972 0.0247,0.1587496 0,0.098778 -0.0353,0.1622775 -0.0353,0.059972 -0.0952,0.09525 -0.0564,0.03175 -0.13405,0.045861 -0.0741,0.010583 -0.15875,0.010583 h -0.35631 v -0.64911 h 0.35631 q 0.2293,0 0.32808,0.077611 z m 0.96308,2.0743288 h 1.80269 V 3.6611066 h -1.24177 V 3.0225803 l 0.87489,-0.00353 V 2.5392758 h -0.87489 V 2.0101103 h 1.19944 V 1.523278 h -1.76036 z"
       id="text22"
       style="font-weight:500;font-size:3.52777px;font-family:OldSansBlack;-inkscape-font-specification:'OldSansBlack Medium';fill:#ffffff;stroke-width:0.1"
       aria-label="SCOPE" />
    <path
       d="m 173.30909,115.1492 h 0.43215 l -0.49636,-0.94086 0.46673,-0.89641 h -0.43216 l -0.24941,0.51612 -0.24941,-0.51612 h -0.43215 l 0.46672,0.89641 -0.49636,0.94086 h 0.43215 l 0.27905,-0.57044 z m 0.48895,-0.50871 h 0.65934 v -0.32103 h -0.65934 z m 1.62489,-0.22719 0.50623,-1.10137 h -0.41486 l -0.28893,0.66428 -0.28892,-0.66428 h -0.41487 l 0.50871,1.10878 v 0.72849 h 0.39264 z"
       id="text23"
       style="font-weight:500;font-size:2.46944px;font-family:OldSansBlack;-inkscape-font-specification:'OldSansBlack Medium';fill:#ffffff;stroke-width:0.1"
       aria-label="X-Y" />
    <path
       style="font-weight:500;font-size:2.82222px;font-family:OldSansBlack;-inkscape-font-specification:'OldSansBlack Medium';fill:#ffffff;stroke-width:0.1"
       d="m 187.45111,87.888868 h 0.5334 v -0.386644 h -1.51271 v 0.386644 h 0.53057 v 1.713087 h 0.44874 z m 1.87113,1.713087 h 0.50235 l -0.4572,-0.922866 q 0.17498,-0.06209 0.26812,-0.197555 0.0959,-0.138289 0.0959,-0.324555 0,-0.160867 -0.0508,-0.282222 -0.048,-0.124178 -0.13829,-0.206022 -0.0875,-0.08184 -0.21449,-0.124178 -0.127,-0.04233 -0.28222,-0.04233 h -0.84384 v 2.099731 h 0.44873 v -0.829732 h 0.28787 z m -0.12136,-1.656643 q 0.0367,0.03105 0.0564,0.08185 0.0198,0.0508 0.0198,0.124177 0,0.08185 -0.031,0.129822 -0.031,0.04798 -0.0818,0.07338 -0.0508,0.0254 -0.11571,0.03387 -0.0649,0.0056 -0.12982,0.0056 h -0.26811 v -0.51361 h 0.31327 q 0.16369,0 0.23706,0.06491 z m 0.93698,1.656643 h 0.45155 v -2.099731 h -0.45155 z m 2.09127,0 h 0.34713 v -1.092199 h -0.82691 v 0.389467 h 0.38664 q -0.0141,0.138288 -0.10724,0.231422 -0.10725,0.110066 -0.28222,0.110066 -0.127,0 -0.20885,-0.06773 -0.079,-0.06773 -0.12418,-0.169333 -0.0423,-0.1016 -0.0593,-0.217311 -0.0141,-0.118533 -0.0141,-0.214489 0,-0.09313 0.0113,-0.214489 0.0141,-0.124177 0.0564,-0.234244 0.0423,-0.110067 0.11853,-0.183444 0.079,-0.0762 0.20885,-0.0762 0.16369,0 0.24553,0.0762 0.0847,0.07338 0.14958,0.217311 l 0.41769,-0.110067 q -0.0565,-0.169333 -0.13265,-0.276577 -0.0762,-0.107245 -0.18062,-0.172156 -0.20602,-0.124178 -0.44309,-0.124178 -0.25118,0 -0.42615,0.09313 -0.17216,0.09031 -0.2794,0.245533 -0.10443,0.1524 -0.1524,0.3556 -0.0452,0.200377 -0.0452,0.423333 0,0.203199 0.0452,0.392288 0.048,0.186267 0.14957,0.3302 0.1016,0.143933 0.26247,0.231422 0.16087,0.08467 0.38947,0.08467 0.1524,0 0.26811,-0.04233 0.11571,-0.04233 0.22578,-0.149577 z m 2.95204,-0.259644 q 0.22578,-0.2794 0.22578,-0.790222 0,-0.21731 -0.048,-0.412044 -0.0452,-0.197555 -0.1524,-0.344311 -0.10442,-0.149577 -0.27376,-0.234244 -0.16651,-0.08749 -0.41204,-0.08749 -0.24553,0 -0.41487,0.08749 -0.16933,0.08467 -0.27658,0.234244 -0.10442,0.146756 -0.1524,0.344311 -0.0451,0.194734 -0.0451,0.412044 0,0.217311 0.0451,0.414867 0.048,0.194733 0.1524,0.344311 0.10725,0.146755 0.27658,0.234244 0.16934,0.08467 0.41487,0.08467 0.4318,0 0.6604,-0.287867 z m -0.33302,-1.30951 q 0.10724,0.174978 0.10724,0.519288 0,0.344311 -0.10724,0.519289 -0.1016,0.169333 -0.32738,0.169333 -0.2286,0 -0.3302,-0.169333 -0.10725,-0.174978 -0.10725,-0.519289 0,-0.34431 0.10725,-0.519288 0.1016,-0.169333 0.3302,-0.169333 0.22578,0 0.32738,0.169333 z m 2.23237,1.38571 q 0.20885,-0.211666 0.20885,-0.612422 v -1.303865 h -0.44873 v 1.298221 q 0,0.242711 -0.0818,0.341488 -0.0395,0.04798 -0.11007,0.07338 -0.0677,0.0254 -0.17498,0.0254 -0.20037,0 -0.27657,-0.1016 -0.0819,-0.09878 -0.0819,-0.344311 v -1.292576 h -0.44873 v 1.323621 q 0,0.389466 0.21167,0.59831 0.21448,0.206023 0.60113,0.206023 0.39229,0 0.60113,-0.211667 z m 1.42522,-1.529643 h 0.5334 v -0.386644 h -1.51271 v 0.386644 h 0.53058 v 1.713087 h 0.44873 z"
       id="text3"
       aria-label="TRIG OUT" />
    <path
       d="m 111.14799,95.764967 h 0.79376 v -0.258233 h -0.23919 v -1.337736 h -0.24342 q -0.0677,0.0635 -0.16298,0.08467 -0.0953,0.01905 -0.18415,0.02117 v 0.224367 h 0.27305 v 1.007535 h -0.23707 z m 2.25426,0 h 0.30903 v -0.825501 q 0,-0.06773 -0.0191,-0.129117 -0.0169,-0.06138 -0.055,-0.10795 -0.036,-0.04868 -0.091,-0.0762 -0.055,-0.02963 -0.12912,-0.02963 -0.1143,0 -0.2032,0.03598 -0.0889,0.03387 -0.16933,0.110067 -0.0466,-0.07408 -0.12065,-0.110067 -0.0741,-0.03598 -0.16087,-0.03598 -0.091,0 -0.16298,0.0254 -0.0699,0.0254 -0.13759,0.08255 v -0.08678 h -0.28786 v 1.147235 h 0.30903 v -0.804334 q 0.0148,-0.0127 0.0381,-0.03175 0.0233,-0.01905 0.0487,-0.03387 0.0275,-0.01693 0.055,-0.02752 0.0275,-0.0127 0.0508,-0.0127 0.0593,0 0.0847,0.03175 0.0275,0.03175 0.0275,0.0889 v 0.789518 h 0.30904 v -0.804334 q 0.0148,-0.0127 0.0381,-0.03175 0.0233,-0.01905 0.0508,-0.03387 0.0275,-0.01693 0.0529,-0.02752 0.0275,-0.0127 0.0487,-0.0127 0.0593,0 0.0868,0.03175 0.0275,0.03175 0.0275,0.0889 z m 1.19592,-0.06985 q 0.12065,-0.09525 0.12065,-0.245533 0,-0.146051 -0.0783,-0.243418 -0.0402,-0.04657 -0.0931,-0.0762 -0.0508,-0.02963 -0.10796,-0.04868 -0.055,-0.02117 -0.11218,-0.04022 -0.0572,-0.01905 -0.11007,-0.04868 -0.0508,-0.02963 -0.0508,-0.06985 0,-0.05292 0.0402,-0.06773 0.0402,-0.01693 0.0847,-0.01693 0.0614,0 0.11218,0.04233 0.0529,0.04022 0.091,0.08467 l 0.20108,-0.175683 q -0.091,-0.101601 -0.18838,-0.146051 -0.0974,-0.04657 -0.23284,-0.04657 -0.0762,0 -0.14816,0.02328 -0.0699,0.02117 -0.12277,0.06562 -0.0529,0.04233 -0.0847,0.105833 -0.0318,0.0635 -0.0318,0.14605 0,0.165101 0.10372,0.243417 0.1016,0.07408 0.22225,0.118534 0.0656,0.0254 0.11007,0.04445 0.0466,0.01905 0.072,0.03387 0.0423,0.02328 0.0423,0.06773 0,0.02752 -0.0127,0.04657 -0.0127,0.01905 -0.0339,0.03175 -0.0191,0.01058 -0.0445,0.01693 -0.0233,0.0042 -0.0466,0.0042 -0.0402,0 -0.0762,-0.01482 -0.036,-0.01482 -0.0677,-0.0381 -0.0296,-0.0254 -0.0571,-0.05503 -0.0254,-0.02963 -0.0444,-0.06138 l -0.21378,0.160867 q 0.055,0.0762 0.10583,0.124884 0.0529,0.04657 0.11218,0.07408 0.1143,0.0508 0.23707,0.0508 0.18627,0 0.30269,-0.09102 z"
       id="text1329"
       style="font-weight:500;font-size:2.11667px;font-family:OldSansBlack;-inkscape-font-specification:'OldSansBlack, Medium';fill:#ffffff;stroke-width:0.4"
       aria-label="1ms" />
    <path
       d="m 115.33998,88.327971 h 0.79375 v -0.258234 h -0.23918 v -1.337735 h -0.24342 q -0.0677,0.0635 -0.16298,0.08467 -0.0953,0.01905 -0.18415,0.02117 v 0.224367 h 0.27305 v 1.007535 h -0.23707 z m 1.95157,-0.19685 q 0.14393,-0.213784 0.14393,-0.590551 0,-0.141817 -0.0254,-0.285751 -0.0254,-0.14605 -0.091,-0.26035 -0.0656,-0.116417 -0.1778,-0.188384 -0.11219,-0.07408 -0.28576,-0.07408 -0.17356,0 -0.28575,0.07408 -0.11218,0.07197 -0.1778,0.188384 -0.0656,0.1143 -0.091,0.26035 -0.0254,0.143934 -0.0254,0.285751 0,0.143933 0.0254,0.287867 0.0254,0.143933 0.091,0.26035 0.0656,0.1143 0.1778,0.188384 0.11219,0.07197 0.28575,0.07197 0.28999,0 0.43604,-0.218017 z m -0.2413,-0.990602 q 0.0635,0.137584 0.0635,0.400051 0,0.264583 -0.0635,0.40005 -0.0593,0.13335 -0.19474,0.13335 -0.13546,0 -0.19473,-0.13335 -0.0635,-0.135467 -0.0635,-0.40005 0,-0.262467 0.0635,-0.400051 0.0593,-0.13335 0.19473,-0.13335 0.13547,0 0.19474,0.13335 z m 1.79282,1.187452 h 0.30903 V 87.50247 q 0,-0.06773 -0.0191,-0.129117 -0.0169,-0.06138 -0.055,-0.10795 -0.036,-0.04868 -0.091,-0.0762 -0.055,-0.02963 -0.12912,-0.02963 -0.1143,0 -0.2032,0.03598 -0.0889,0.03387 -0.16933,0.110067 -0.0466,-0.07408 -0.12065,-0.110067 -0.0741,-0.03598 -0.16087,-0.03598 -0.091,0 -0.16298,0.0254 -0.0699,0.0254 -0.13758,0.08255 v -0.08678 h -0.28787 v 1.147235 h 0.30903 v -0.804335 q 0.0148,-0.0127 0.0381,-0.03175 0.0233,-0.01905 0.0487,-0.03387 0.0275,-0.01693 0.055,-0.02752 0.0275,-0.0127 0.0508,-0.0127 0.0593,0 0.0847,0.03175 0.0275,0.03175 0.0275,0.0889 v 0.789518 h 0.30904 v -0.804335 q 0.0148,-0.0127 0.0381,-0.03175 0.0233,-0.01905 0.0508,-0.03387 0.0275,-0.01693 0.0529,-0.02752 0.0275,-0.0127 0.0487,-0.0127 0.0593,0 0.0868,0.03175 0.0275,0.03175 0.0275,0.0889 z m 1.19592,-0.06985 q 0.12065,-0.09525 0.12065,-0.245534 0,-0.14605 -0.0783,-0.243417 -0.0402,-0.04657 -0.0931,-0.0762 -0.0508,-0.02963 -0.10795,-0.04868 -0.055,-0.02117 -0.11219,-0.04022 -0.0572,-0.01905 -0.11006,-0.04868 -0.0508,-0.02963 -0.0508,-0.06985 0,-0.05292 0.0402,-0.06773 0.0402,-0.01693 0.0847,-0.01693 0.0614,0 0.11218,0.04233 0.0529,0.04022 0.091,0.08467 l 0.20108,-0.175684 q -0.091,-0.1016 -0.18838,-0.14605 -0.0974,-0.04657 -0.23283,-0.04657 -0.0762,0 -0.14817,0.02328 -0.0699,0.02117 -0.12277,0.06562 -0.0529,0.04233 -0.0847,0.105834 -0.0318,0.0635 -0.0318,0.14605 0,0.1651 0.10371,0.243417 0.1016,0.07408 0.22225,0.118533 0.0656,0.0254 0.11007,0.04445 0.0466,0.01905 0.072,0.03387 0.0423,0.02328 0.0423,0.06773 0,0.02752 -0.0127,0.04657 -0.0127,0.01905 -0.0339,0.03175 -0.019,0.01058 -0.0444,0.01693 -0.0233,0.0042 -0.0466,0.0042 -0.0402,0 -0.0762,-0.01482 -0.036,-0.01482 -0.0677,-0.0381 -0.0296,-0.0254 -0.0571,-0.05503 -0.0254,-0.02963 -0.0444,-0.06138 l -0.21378,0.160867 q 0.055,0.0762 0.10583,0.124883 0.0529,0.04657 0.11219,0.07408 0.1143,0.0508 0.23706,0.0508 0.18627,0 0.30269,-0.09102 z"
       id="text1330"
       style="font-weight:500;font-size:2.11667px;font-family:OldSansBlack;-inkscape-font-specification:'OldSansBlack, Medium';fill:#ffffff;stroke-width:0.4"
       aria-label="10ms" />
    <path
       d="m 129.63898,95.764967 h 0.79375 v -0.258233 h -0.23919 v -1.337736 h -0.24341 q -0.0677,0.0635 -0.16299,0.08467 -0.0952,0.01905 -0.18415,0.02117 v 0.224367 h 0.27305 v 1.007535 h -0.23706 z m 1.78012,-0.06985 q 0.12065,-0.09525 0.12065,-0.245533 0,-0.146051 -0.0783,-0.243418 -0.0402,-0.04657 -0.0931,-0.0762 -0.0508,-0.02963 -0.10795,-0.04868 -0.055,-0.02117 -0.11219,-0.04022 -0.0571,-0.01905 -0.11006,-0.04868 -0.0508,-0.02963 -0.0508,-0.06985 0,-0.05292 0.0402,-0.06773 0.0402,-0.01693 0.0847,-0.01693 0.0614,0 0.11218,0.04233 0.0529,0.04022 0.091,0.08467 l 0.20108,-0.175683 q -0.091,-0.101601 -0.18838,-0.146051 -0.0974,-0.04657 -0.23283,-0.04657 -0.0762,0 -0.14817,0.02328 -0.0699,0.02117 -0.12277,0.06562 -0.0529,0.04233 -0.0847,0.105833 -0.0318,0.0635 -0.0318,0.14605 0,0.165101 0.10372,0.243417 0.1016,0.07408 0.22225,0.118534 0.0656,0.0254 0.11007,0.04445 0.0466,0.01905 0.072,0.03387 0.0423,0.02328 0.0423,0.06773 0,0.02752 -0.0127,0.04657 -0.0127,0.01905 -0.0339,0.03175 -0.019,0.01058 -0.0444,0.01693 -0.0233,0.0042 -0.0466,0.0042 -0.0402,0 -0.0762,-0.01482 -0.036,-0.01482 -0.0677,-0.0381 -0.0296,-0.0254 -0.0572,-0.05503 -0.0254,-0.02963 -0.0444,-0.06138 l -0.21378,0.160867 q 0.055,0.0762 0.10583,0.124884 0.0529,0.04657 0.11218,0.07408 0.11431,0.0508 0.23707,0.0508 0.18627,0 0.30269,-0.09102 z"
       id="text1332"
       style="font-weight:500;font-size:2.11667px;font-family:OldSansBlack;-inkscape-font-specification:'OldSansBlack, Medium';fill:#ffffff;stroke-width:0.4"
       aria-label="1s" />
    <path
       d="m 125.27498,103.07686 h 0.79375 v -0.25824 h -0.23918 v -1.33773 h -0.24342 q -0.0677,0.0635 -0.16299,0.0847 -0.0953,0.019 -0.18415,0.0212 v 0.22437 h 0.27305 v 1.00753 h -0.23706 z m 1.95157,-0.19685 q 0.14393,-0.21379 0.14393,-0.59055 0,-0.14182 -0.0254,-0.28575 -0.0254,-0.14605 -0.091,-0.26036 -0.0656,-0.11641 -0.1778,-0.18838 -0.11218,-0.0741 -0.28575,-0.0741 -0.17356,0 -0.28575,0.0741 -0.11218,0.072 -0.1778,0.18838 -0.0656,0.11431 -0.091,0.26036 -0.0254,0.14393 -0.0254,0.28575 0,0.14393 0.0254,0.28786 0.0254,0.14394 0.091,0.26035 0.0656,0.1143 0.1778,0.18839 0.11219,0.072 0.28575,0.072 0.28999,0 0.43604,-0.21801 z m -0.2413,-0.9906 q 0.0635,0.13758 0.0635,0.40005 0,0.26458 -0.0635,0.40005 -0.0593,0.13335 -0.19474,0.13335 -0.13546,0 -0.19473,-0.13335 -0.0635,-0.13547 -0.0635,-0.40005 0,-0.26247 0.0635,-0.40005 0.0593,-0.13336 0.19473,-0.13336 0.13547,0 0.19474,0.13336 z m 1.22555,1.1176 q 0.12065,-0.0952 0.12065,-0.24554 0,-0.14605 -0.0783,-0.24341 -0.0402,-0.0466 -0.0931,-0.0762 -0.0508,-0.0296 -0.10795,-0.0487 -0.055,-0.0212 -0.11219,-0.0402 -0.0571,-0.019 -0.11006,-0.0487 -0.0508,-0.0296 -0.0508,-0.0699 0,-0.0529 0.0402,-0.0677 0.0402,-0.0169 0.0847,-0.0169 0.0614,0 0.11218,0.0423 0.0529,0.0402 0.091,0.0847 l 0.20108,-0.17569 q -0.091,-0.1016 -0.18838,-0.14605 -0.0974,-0.0466 -0.23283,-0.0466 -0.0762,0 -0.14817,0.0233 -0.0699,0.0212 -0.12277,0.0656 -0.0529,0.0423 -0.0847,0.10583 -0.0318,0.0635 -0.0318,0.14605 0,0.1651 0.10371,0.24342 0.1016,0.0741 0.22225,0.11853 0.0656,0.0254 0.11007,0.0445 0.0466,0.019 0.072,0.0339 0.0423,0.0233 0.0423,0.0677 0,0.0275 -0.0127,0.0466 -0.0127,0.0191 -0.0339,0.0318 -0.019,0.0106 -0.0444,0.0169 -0.0233,0.004 -0.0466,0.004 -0.0402,0 -0.0762,-0.0148 -0.036,-0.0148 -0.0677,-0.0381 -0.0296,-0.0254 -0.0572,-0.055 -0.0254,-0.0296 -0.0444,-0.0614 l -0.21378,0.16087 q 0.055,0.0762 0.10583,0.12488 0.0529,0.0466 0.11219,0.0741 0.1143,0.0508 0.23706,0.0508 0.18627,0 0.30269,-0.091 z"
       id="text1333"
       style="font-weight:500;font-size:2.11667px;font-family:OldSansBlack;-inkscape-font-specification:'OldSansBlack, Medium';fill:#ffffff;stroke-width:0.4"
       aria-label="10s" />
    <path
       d="m 142.02247,87.205118 q 0.14393,-0.213784 0.14393,-0.590551 0,-0.141817 -0.0254,-0.28575 -0.0254,-0.14605 -0.091,-0.260351 -0.0656,-0.116417 -0.1778,-0.188383 -0.11219,-0.07408 -0.28575,-0.07408 -0.17357,0 -0.28575,0.07408 -0.11219,0.07197 -0.1778,0.188383 -0.0656,0.114301 -0.091,0.260351 -0.0254,0.143933 -0.0254,0.28575 0,0.143934 0.0254,0.287867 0.0254,0.143934 0.091,0.260351 0.0656,0.1143 0.1778,0.188383 0.11218,0.07197 0.28575,0.07197 0.28998,0 0.43603,-0.218017 z m -0.2413,-0.990601 q 0.0635,0.137583 0.0635,0.40005 0,0.264584 -0.0635,0.400051 -0.0593,0.13335 -0.19473,0.13335 -0.13547,0 -0.19474,-0.13335 -0.0635,-0.135467 -0.0635,-0.400051 0,-0.262467 0.0635,-0.40005 0.0593,-0.133351 0.19474,-0.133351 0.13546,0 0.19473,0.133351 z m 1.22132,1.187451 0.4191,-1.574802 h -0.33867 l -0.2667,1.060452 -0.254,-1.060452 h -0.33655 l 0.41699,1.574802 z"
       id="text1334"
       style="font-weight:500;font-size:2.11667px;font-family:OldSansBlack;-inkscape-font-specification:'OldSansBlack, Medium';fill:#ffffff;stroke-width:0.4"
       aria-label="0V" />
    <path
       d="m 144.86099,103.1094 h 0.79375 v -0.25824 h -0.23919 v -1.33773 h -0.24341 q -0.0677,0.0635 -0.16299,0.0847 -0.0952,0.0191 -0.18415,0.0212 v 0.22437 h 0.27305 v 1.00753 h -0.23706 z m 1.95157,-0.19685 q 0.14393,-0.21379 0.14393,-0.59055 0,-0.14182 -0.0254,-0.28576 -0.0254,-0.14605 -0.091,-0.26035 -0.0656,-0.11641 -0.1778,-0.18838 -0.11218,-0.0741 -0.28575,-0.0741 -0.17357,0 -0.28575,0.0741 -0.11218,0.072 -0.1778,0.18838 -0.0656,0.1143 -0.091,0.26035 -0.0254,0.14394 -0.0254,0.28576 0,0.14393 0.0254,0.28786 0.0254,0.14394 0.091,0.26035 0.0656,0.1143 0.1778,0.18839 0.11218,0.072 0.28575,0.072 0.28999,0 0.43604,-0.21801 z m -0.2413,-0.99061 q 0.0635,0.13759 0.0635,0.40006 0,0.26458 -0.0635,0.40005 -0.0593,0.13335 -0.19474,0.13335 -0.13547,0 -0.19473,-0.13335 -0.0635,-0.13547 -0.0635,-0.40005 0,-0.26247 0.0635,-0.40006 0.0593,-0.13335 0.19473,-0.13335 0.13547,0 0.19474,0.13335 z m 1.22131,1.18746 0.4191,-1.57481 h -0.33866 l -0.2667,1.06046 -0.254,-1.06046 h -0.33655 l 0.41698,1.57481 z"
       id="text1335"
       style="font-weight:500;font-size:2.11667px;font-family:OldSansBlack;-inkscape-font-specification:'OldSansBlack, Medium';fill:#ffffff;stroke-width:0.4"
       aria-label="10V" />
    <path
       d="m 135.439,102.67336 h 0.56515 V 102.3982 H 135.439 Z m 0.92075,0.43604 h 0.79375 v -0.25824 h -0.23918 v -1.33773 h -0.24342 q -0.0677,0.0635 -0.16298,0.0847 -0.0952,0.0191 -0.18415,0.0212 v 0.22437 h 0.27305 v 1.00753 h -0.23707 z m 1.95157,-0.19685 q 0.14394,-0.21379 0.14394,-0.59055 0,-0.14182 -0.0254,-0.28576 -0.0254,-0.14605 -0.091,-0.26035 -0.0656,-0.11641 -0.1778,-0.18838 -0.11219,-0.0741 -0.28575,-0.0741 -0.17357,0 -0.28575,0.0741 -0.11219,0.072 -0.1778,0.18838 -0.0656,0.1143 -0.091,0.26035 -0.0254,0.14394 -0.0254,0.28576 0,0.14393 0.0254,0.28786 0.0254,0.14394 0.091,0.26035 0.0656,0.1143 0.1778,0.18839 0.11218,0.072 0.28575,0.072 0.28998,0 0.43603,-0.21801 z m -0.2413,-0.99061 q 0.0635,0.13759 0.0635,0.40006 0,0.26458 -0.0635,0.40005 -0.0593,0.13335 -0.19473,0.13335 -0.13547,0 -0.19474,-0.13335 -0.0635,-0.13547 -0.0635,-0.40005 0,-0.26247 0.0635,-0.40006 0.0593,-0.13335 0.19474,-0.13335 0.13546,0 0.19473,0.13335 z m 1.22132,1.18746 0.4191,-1.57481 h -0.33867 l -0.2667,1.06046 -0.254,-1.06046 h -0.33655 l 0.41699,1.57481 z"
       id="text1336"
       style="font-weight:500;font-size:2.11667px;font-family:OldSansBlack;-inkscape-font-specification:'OldSansBlack, Medium';fill:#ffffff;stroke-width:0.4"
       aria-label="-10V" />
    <path
       d="m 105.95685,95.569119 q 0.14394,-0.213784 0.14394,-0.590551 0,-0.141817 -0.0254,-0.28575 -0.0254,-0.146051 -0.091,-0.260351 -0.0656,-0.116417 -0.1778,-0.188383 -0.11218,-0.07408 -0.28575,-0.07408 -0.17357,0 -0.28575,0.07408 -0.11218,0.07197 -0.1778,0.188383 -0.0656,0.1143 -0.091,0.260351 -0.0254,0.143933 -0.0254,0.28575 0,0.143934 0.0254,0.287867 0.0254,0.143934 0.091,0.26035 0.0656,0.114301 0.1778,0.188384 0.11218,0.07197 0.28575,0.07197 0.28998,0 0.43603,-0.218017 z m -0.2413,-0.990602 q 0.0635,0.137584 0.0635,0.400051 0,0.264584 -0.0635,0.400051 -0.0593,0.13335 -0.19473,0.13335 -0.13547,0 -0.19473,-0.13335 -0.0635,-0.135467 -0.0635,-0.400051 0,-0.262467 0.0635,-0.400051 0.0593,-0.13335 0.19473,-0.13335 0.13547,0 0.19473,0.13335 z m 0.60537,1.187452 h 0.33867 v -0.347134 h -0.33867 z m 0.77894,0 h 0.79375 v -0.258234 h -0.23919 V 94.17 h -0.24341 q -0.0677,0.0635 -0.16299,0.08467 -0.0952,0.01905 -0.18415,0.02117 v 0.224367 h 0.27305 v 1.007534 h -0.23706 z m 1.78012,-0.06985 q 0.12065,-0.09525 0.12065,-0.245534 0,-0.14605 -0.0783,-0.243417 -0.0402,-0.04657 -0.0931,-0.0762 -0.0508,-0.02963 -0.10795,-0.04868 -0.055,-0.02117 -0.11219,-0.04022 -0.0571,-0.01905 -0.11006,-0.04868 -0.0508,-0.02963 -0.0508,-0.06985 0,-0.05292 0.0402,-0.06773 0.0402,-0.01693 0.0847,-0.01693 0.0614,0 0.11218,0.04233 0.0529,0.04022 0.091,0.08467 l 0.20108,-0.175684 q -0.091,-0.1016 -0.18838,-0.14605 -0.0974,-0.04657 -0.23283,-0.04657 -0.0762,0 -0.14817,0.02328 -0.0699,0.02117 -0.12277,0.06562 -0.0529,0.04233 -0.0847,0.105833 -0.0318,0.0635 -0.0318,0.14605 0,0.165101 0.10371,0.243417 0.1016,0.07408 0.22225,0.118534 0.0656,0.0254 0.11007,0.04445 0.0466,0.01905 0.072,0.03387 0.0423,0.02328 0.0423,0.06773 0,0.02752 -0.0127,0.04657 -0.0127,0.01905 -0.0339,0.03175 -0.019,0.01058 -0.0444,0.01693 -0.0233,0.0042 -0.0466,0.0042 -0.0402,0 -0.0762,-0.01482 -0.036,-0.01482 -0.0677,-0.0381 -0.0296,-0.0254 -0.0572,-0.05503 -0.0254,-0.02963 -0.0444,-0.06138 l -0.21378,0.160867 q 0.055,0.0762 0.10583,0.124883 0.0529,0.04657 0.11219,0.07408 0.1143,0.0508 0.23706,0.0508 0.18627,0 0.30269,-0.09102 z"
       id="text1337"
       style="font-weight:500;font-size:2.11667px;font-family:OldSansBlack;-inkscape-font-specification:'OldSansBlack, Medium';fill:#ffffff;stroke-width:0.4"
       aria-label="0.1s" />
    <path
       d="m 125.13455,88.131121 q 0.14394,-0.213784 0.14394,-0.590551 0,-0.141817 -0.0254,-0.28575 -0.0254,-0.146051 -0.091,-0.260351 -0.0656,-0.116417 -0.1778,-0.188383 -0.11218,-0.07408 -0.28575,-0.07408 -0.17357,0 -0.28575,0.07408 -0.11218,0.07197 -0.1778,0.188383 -0.0656,0.1143 -0.091,0.260351 -0.0254,0.143933 -0.0254,0.28575 0,0.143934 0.0254,0.287867 0.0254,0.143934 0.091,0.26035 0.0656,0.114301 0.1778,0.188384 0.11218,0.07197 0.28575,0.07197 0.28998,0 0.43603,-0.218017 z m -0.2413,-0.990602 q 0.0635,0.137584 0.0635,0.400051 0,0.264584 -0.0635,0.400051 -0.0593,0.13335 -0.19473,0.13335 -0.13547,0 -0.19473,-0.13335 -0.0635,-0.135467 -0.0635,-0.400051 0,-0.262467 0.0635,-0.400051 0.0593,-0.13335 0.19473,-0.13335 0.13547,0 0.19473,0.13335 z m 0.60537,1.187452 h 0.33867 v -0.347134 h -0.33867 z m 0.77894,0 h 0.79375 v -0.258234 h -0.23919 v -1.337735 h -0.24341 q -0.0677,0.0635 -0.16299,0.08467 -0.0952,0.01905 -0.18415,0.02117 v 0.224367 h 0.27305 v 1.007534 h -0.23706 z m 1.78012,-0.06985 q 0.12065,-0.09525 0.12065,-0.245534 0,-0.14605 -0.0783,-0.243417 -0.0402,-0.04657 -0.0931,-0.0762 -0.0508,-0.02963 -0.10795,-0.04868 -0.055,-0.02117 -0.11219,-0.04022 -0.0571,-0.01905 -0.11006,-0.04868 -0.0508,-0.02963 -0.0508,-0.06985 0,-0.05292 0.0402,-0.06773 0.0402,-0.01693 0.0847,-0.01693 0.0614,0 0.11218,0.04233 0.0529,0.04022 0.091,0.08467 l 0.20108,-0.175684 q -0.091,-0.1016 -0.18838,-0.14605 -0.0974,-0.04657 -0.23283,-0.04657 -0.0762,0 -0.14817,0.02328 -0.0699,0.02117 -0.12277,0.06562 -0.0529,0.04233 -0.0847,0.105833 -0.0318,0.0635 -0.0318,0.14605 0,0.165101 0.10371,0.243417 0.1016,0.07408 0.22225,0.118534 0.0656,0.0254 0.11007,0.04445 0.0466,0.01905 0.072,0.03387 0.0423,0.02328 0.0423,0.06773 0,0.02752 -0.0127,0.04657 -0.0127,0.01905 -0.0339,0.03175 -0.019,0.01058 -0.0444,0.01693 -0.0233,0.0042 -0.0466,0.0042 -0.0402,0 -0.0762,-0.01482 -0.036,-0.01482 -0.0677,-0.0381 -0.0296,-0.0254 -0.0572,-0.05503 -0.0254,-0.02963 -0.0444,-0.06138 l -0.21378,0.160867 q 0.055,0.0762 0.10583,0.124883 0.0529,0.04657 0.11219,0.07408 0.1143,0.0508 0.23706,0.0508 0.18627,0 0.30269,-0.09102 z"
       id="text1337-0"
       style="font-weight:500;font-size:2.11667px;font-family:OldSansBlack;-inkscape-font-specification:'OldSansBlack, Medium';fill:#ffffff;stroke-width:0.4"
       aria-label="0.1s" />
    <path
       d="m 116.71177,102.88209 q 0.16933,-0.20955 0.16933,-0.59267 0,-0.16298 -0.036,-0.30904 -0.0339,-0.14816 -0.1143,-0.25823 -0.0783,-0.11218 -0.20532,-0.17568 -0.12488,-0.0656 -0.30903,-0.0656 -0.18415,0 -0.31115,0.0656 -0.127,0.0635 -0.20743,0.17568 -0.0783,0.11007 -0.11431,0.25823 -0.0339,0.14606 -0.0339,0.30904 0,0.16298 0.0339,0.31115 0.036,0.14605 0.11431,0.25823 0.0804,0.11007 0.20743,0.17569 0.127,0.0635 0.31115,0.0635 0.32385,0 0.4953,-0.2159 z m -0.24977,-0.98214 q 0.0804,0.13123 0.0804,0.38947 0,0.25823 -0.0804,0.38947 -0.0762,0.127 -0.24553,0.127 -0.17145,0 -0.24765,-0.127 -0.0804,-0.13124 -0.0804,-0.38947 0,-0.25824 0.0804,-0.38947 0.0762,-0.127 0.24765,-0.127 0.16933,0 0.24553,0.127 z m 0.93769,-0.10583 h 0.68368 v -0.2921 h -1.02023 v 1.5748 h 0.33655 v -0.67522 l 0.51223,-0.002 -0.002,-0.28787 h -0.51011 z m 1.17687,0 h 0.68368 v -0.2921 H 118.24 v 1.5748 h 0.33656 v -0.67522 l 0.51223,-0.002 -0.002,-0.28787 h -0.51011 z"
       id="text1338"
       style="font-weight:500;font-size:2.11667px;font-family:OldSansBlack;-inkscape-font-specification:'OldSansBlack, Medium';fill:#ffffff;stroke-width:0.4"
       aria-label="OFF" />
    <path
       style="display:inline;fill:none;fill-opacity:1;stroke:#5e110a;stroke-width:5.4;stroke-linecap:butt;stroke-dasharray:none;stroke-opacity:1"
       d="m 153.4684,-16.561338 c 19.73503,69.648493 5.2015,57.1733 10.30484,85.382898 0.74155,4.099051 2.98783,7.979622 2.94423,12.144981 -0.0452,4.314422 -1.9719,8.411826 -3.31226,12.513011 -1.88248,5.759961 -5.99594,10.902278 -6.62454,16.929368 -0.77407,7.42187 3.6803,22.08178 3.6803,22.08178"
       id="path1338"
       sodipodi:nodetypes="caaaac" />
  </g>
  <g
     inkscape:groupmode="layer"
     id="layer2"
     inkscape:label="Outlines"
     style="display:none">
    <rect
       style="fill:#808080;fill-opacity:1;stroke-width:4.21374"
       id="rect3"
       width="193.2"
       height="80"
       x="5"
       y="5" />
    <rect
       style="fill:none;fill-opacity:0.635108;stroke:#ffffff;stroke-width:1;stroke-dasharray:4, 2;stroke-dashoffset:0;stroke-opacity:1"
       id="rect6"
       width="2"
       height="2"
       x="140.8997"
       y="112" />
    <circle
       style="fill:none;fill-opacity:0.635108;stroke:#ffffff;stroke-width:1;stroke-dasharray:4, 2;stroke-dashoffset:0;stroke-opacity:1"
       id="path7"
       cx="96.576485"
       cy="95.479012"
       r="5" />
    <circle
       style="fill:none;fill-opacity:0.635108;stroke:#ffffff;stroke-width:1;stroke-dasharray:4, 2;stroke-dashoffset:0;stroke-opacity:1"
       id="path7-6"
       cx="142.39975"
       cy="95.479012"
       r="5" />
    <circle
       style="fill:none;fill-opacity:0.635108;stroke:#ffffff;stroke-width:1;stroke-dasharray:4, 2;stroke-dashoffset:0;stroke-opacity:1"
       id="path7-1"
       cx="121.80016"
       cy="95.479012"
       r="5" />
    <circle
       style="fill:none;fill-opacity:0.635108;stroke:#ffffff;stroke-width:0.0917253;stroke-dasharray:0.366903, 0.183454;stroke-dashoffset:0;stroke-opacity:1"
       id="path7-9"
       cx="168.50455"
       cy="104.50237"
       r="0.45862705" />
    <circle
       style="fill:none;fill-opacity:0.635108;stroke:#ffffff;stroke-width:0.0917253;stroke-dasharray:0.366903, 0.183454;stroke-dashoffset:0;stroke-opacity:1"
       id="path7-9-1"
       cx="168.50455"
       cy="123.50237"
       r="0.45862705" />
    <circle
       style="fill:none;fill-opacity:0.635108;stroke:#ffffff;stroke-width:0.0917253;stroke-dasharray:0.366903, 0.183454;stroke-dashoffset:0;stroke-opacity:1"
       id="path7-9-2"
       cx="168.50455"
       cy="108.00237"
       r="0.45862705" />
    <circle
       style="fill:none;fill-opacity:0.635108;stroke:#ffffff;stroke-width:0.0917253;stroke-dasharray:0.366903, 0.183454;stroke-dashoffset:0;stroke-opacity:1"
       id="path7-9-19"
       cx="168.50455"
       cy="119.50237"
       r="0.45862705" />
    <circle
       style="fill:none;fill-opacity:0.635108;stroke:#ffffff;stroke-width:0.0917253;stroke-dasharray:0.366903, 0.183454;stroke-dashoffset:0;stroke-opacity:1"
       id="path7-9-28"
       cx="168.50455"
       cy="111.50237"
       r="0.45862705" />
  </g>
  <metadata
     id="metadata3">
    <rdf:RDF>
      <cc:Work
         rdf:about="">
        <dc:title>Autinn Scope</dc:title>
      </cc:Work>
    </rdf:RDF>
  </metadata>
  <g
     inkscape:groupmode="layer"
     inkscape:label="Knobs Group"
     id="knobs-group"
     style="display:none">
    <g
       inkscape:groupmode="layer"
       inkscape:label="Time"
       id="g64">
      <g
         inkscape:groupmode="layer"
         inkscape:label="Main color"
         id="g63">
        <circle
           cx="96.5"
           cy="95"
           r="5.75"
           inkscape:label="Main"
           style="fill:#ffffff;stroke:#9a9996;stroke-width:0.5"
           id="circle63" />
      </g>
    </g>
  </g>
  <g
     inkscape:groupmode="layer"
     inkscape:label="Knob Scales Group"
     id="knob-scales-group"
     style="display:inline">
    <g
       inkscape:groupmode="layer"
       inkscape:label="Time"
       id="g1319">
      <g
         inkscape:groupmode="layer"
         inkscape:label="Ticks"
         id="g1313">
        <g
           inkscape:groupmode="layer"
           inkscape:label="Main ticks"
           id="g1312">
          <path
             d="m 93.5816,99.9545 -1.0151,1.7235"
             style="stroke:#ffffff;stroke-width:0.4"
             inkscape:label="tick_1"
             id="path1307" />
          <path
             d="m 90.75,94.97 -2,-0.0105"
             style="stroke:#ffffff;stroke-width:0.4"
             inkscape:label="tick_2"
             id="path1308" />
          <path
             d="m 93.6336,90.0154 -0.997,-1.7338"
             style="stroke:#ffffff;stroke-width:0.4"
             inkscape:label="tick_3"
             id="path1309" />
          <path
             d="m 99.3662,90.0154 0.9968,-1.7338"
             style="stroke:#ffffff;stroke-width:0.4"
             inkscape:label="tick_4"
             id="path1310" />
          <path
             d="m 102.25,94.97 2,-0.0105"
             style="stroke:#ffffff;stroke-width:0.4;stroke-linecap:butt;stroke-dasharray:none"
             inkscape:label="tick_5"
             id="path1311" />
          <path
             d="m 99.4183,99.9545 1.0147,1.7235"
             style="stroke:#ffffff;stroke-width:0.4"
             inkscape:label="tick_6"
             id="path1312" />
        </g>
      </g>
      <g
         inkscape:groupmode="layer"
         inkscape:label="Labels"
         id="g1318">
        <path
           d="m 88.919918,104.00099 h 0.79375 v -0.25824 h -0.239184 v -1.33773 h -0.243416 q -0.06773,0.0635 -0.162984,0.0847 -0.09525,0.019 -0.18415,0.0212 v 0.22437 h 0.27305 v 1.00753 h -0.237066 z m 1.951565,-0.19685 q 0.143934,-0.21379 0.143934,-0.59055 0,-0.14182 -0.0254,-0.28575 -0.0254,-0.14605 -0.09102,-0.26035 -0.06562,-0.11642 -0.1778,-0.18839 -0.112183,-0.0741 -0.28575,-0.0741 -0.173567,0 -0.28575,0.0741 -0.112183,0.072 -0.1778,0.18839 -0.06562,0.1143 -0.09102,0.26035 -0.0254,0.14393 -0.0254,0.28575 0,0.14393 0.0254,0.28786 0.0254,0.14394 0.09102,0.26035 0.06562,0.1143 0.1778,0.18839 0.112183,0.072 0.28575,0.072 0.289983,0 0.436033,-0.21801 z m -0.2413,-0.9906 q 0.0635,0.13758 0.0635,0.40005 0,0.26458 -0.0635,0.40005 -0.05927,0.13335 -0.194733,0.13335 -0.135467,0 -0.194733,-0.13335 -0.0635,-0.13547 -0.0635,-0.40005 0,-0.26247 0.0635,-0.40005 0.05927,-0.13335 0.194733,-0.13335 0.135467,0 0.194733,0.13335 z m 1.229784,1.18745 h 0.28575 v -1.14724 h -0.309034 v 0.81069 q -0.04022,0.0423 -0.09737,0.072 -0.05715,0.0275 -0.118534,0.0275 -0.06773,0 -0.0889,-0.036 -0.02752,-0.0381 -0.02752,-0.13335 v -0.74084 h -0.309034 v 1.5494 h 0.309034 v -0.38311 l 0.03387,0.002 q 0.0889,0.006 0.169334,-0.0339 0.08255,-0.0381 0.1524,-0.0847 z m 1.172632,-0.0699 q 0.12065,-0.0952 0.12065,-0.24554 0,-0.14605 -0.07832,-0.24341 -0.04022,-0.0466 -0.09313,-0.0762 -0.0508,-0.0296 -0.10795,-0.0487 -0.05503,-0.0212 -0.112183,-0.0402 -0.05715,-0.019 -0.110067,-0.0487 -0.0508,-0.0296 -0.0508,-0.0699 0,-0.0529 0.04022,-0.0677 0.04022,-0.0169 0.08467,-0.0169 0.06138,0 0.112183,0.0423 0.05292,0.0402 0.09102,0.0847 l 0.201083,-0.17569 q -0.09102,-0.1016 -0.188383,-0.14605 -0.09737,-0.0466 -0.232834,-0.0466 -0.0762,0 -0.148166,0.0233 -0.06985,0.0212 -0.122767,0.0656 -0.05292,0.0423 -0.08467,0.10583 -0.03175,0.0635 -0.03175,0.14605 0,0.1651 0.103717,0.24342 0.1016,0.0741 0.22225,0.11853 0.06562,0.0254 0.110067,0.0445 0.04657,0.019 0.07197,0.0339 0.04233,0.0233 0.04233,0.0677 0,0.0275 -0.0127,0.0466 -0.0127,0.0191 -0.03387,0.0318 -0.01905,0.0106 -0.04445,0.0169 -0.02328,0.004 -0.04657,0.004 -0.04022,0 -0.0762,-0.0148 -0.03598,-0.0148 -0.06773,-0.0381 -0.02963,-0.0254 -0.05715,-0.055 -0.0254,-0.0296 -0.04445,-0.0614 l -0.213783,0.16087 q 0.05503,0.0762 0.105833,0.12488 0.05292,0.0466 0.112183,0.0741 0.1143,0.0508 0.237067,0.0508 0.186267,0 0.302683,-0.091 z"
           id="text1313"
           style="font-weight:500;font-size:2.11667px;font-family:OldSansBlack;-inkscape-font-specification:'OldSansBlack, Medium';text-anchor:middle;fill:#ffffff"
           aria-label="10µs" />
        <path
           d="m 82.856353,95.565967 h 0.793749 V 95.307734 H 83.410919 V 93.97 h -0.243417 q -0.06773,0.0635 -0.162983,0.08467 -0.09525,0.01905 -0.18415,0.02117 v 0.224366 h 0.27305 v 1.007534 h -0.237066 z m 1.951565,-0.19685 q 0.143933,-0.213783 0.143933,-0.59055 0,-0.141817 -0.0254,-0.28575 -0.0254,-0.14605 -0.09102,-0.26035 -0.06562,-0.116417 -0.1778,-0.188383 -0.112184,-0.07408 -0.28575,-0.07408 -0.173567,0 -0.28575,0.07408 -0.112184,0.07197 -0.1778,0.188383 -0.06562,0.1143 -0.09102,0.26035 -0.0254,0.143933 -0.0254,0.28575 0,0.143933 0.0254,0.287867 0.0254,0.143933 0.09102,0.26035 0.06562,0.1143 0.1778,0.188383 0.112183,0.07197 0.28575,0.07197 0.289983,0 0.436033,-0.218017 z m -0.2413,-0.9906 q 0.0635,0.137583 0.0635,0.40005 0,0.264583 -0.0635,0.40005 -0.05927,0.13335 -0.194733,0.13335 -0.135467,0 -0.194734,-0.13335 -0.0635,-0.135467 -0.0635,-0.40005 0,-0.262467 0.0635,-0.40005 0.05927,-0.13335 0.194734,-0.13335 0.135466,0 0.194733,0.13335 z m 1.534583,0.9906 q 0.143934,-0.213783 0.143934,-0.59055 0,-0.141817 -0.0254,-0.28575 -0.0254,-0.14605 -0.09102,-0.26035 -0.06562,-0.116417 -0.1778,-0.188383 -0.112183,-0.07408 -0.28575,-0.07408 -0.173567,0 -0.28575,0.07408 -0.112183,0.07197 -0.1778,0.188383 -0.06562,0.1143 -0.09102,0.26035 -0.0254,0.143933 -0.0254,0.28575 0,0.143933 0.0254,0.287867 0.0254,0.143933 0.09102,0.26035 0.06562,0.1143 0.1778,0.188383 0.112183,0.07197 0.28575,0.07197 0.289983,0 0.436033,-0.218017 z m -0.2413,-0.9906 q 0.0635,0.137583 0.0635,0.40005 0,0.264583 -0.0635,0.40005 -0.05927,0.13335 -0.194733,0.13335 -0.135467,0 -0.194733,-0.13335 -0.0635,-0.135467 -0.0635,-0.40005 0,-0.262467 0.0635,-0.40005 0.05927,-0.13335 0.194733,-0.13335 0.135467,0 0.194733,0.13335 z m 1.229784,1.18745 h 0.28575 v -1.147233 h -0.309033 v 0.810683 q -0.04022,0.04233 -0.09737,0.07197 -0.05715,0.02752 -0.118533,0.02752 -0.06773,0 -0.0889,-0.03598 -0.02752,-0.0381 -0.02752,-0.13335 v -0.740843 h -0.309033 v 1.5494 h 0.309033 v -0.383117 l 0.03387,0.0021 q 0.0889,0.0063 0.169333,-0.03387 0.08255,-0.0381 0.1524,-0.08467 z m 1.172633,-0.06985 q 0.12065,-0.09525 0.12065,-0.245533 0,-0.14605 -0.07832,-0.243417 -0.04022,-0.04657 -0.09313,-0.0762 -0.0508,-0.02963 -0.10795,-0.04868 -0.05503,-0.02117 -0.112184,-0.04022 -0.05715,-0.01905 -0.110066,-0.04868 -0.0508,-0.02963 -0.0508,-0.06985 0,-0.05292 0.04022,-0.06773 0.04022,-0.01693 0.08467,-0.01693 0.06138,0 0.112183,0.04233 0.05292,0.04022 0.09102,0.08467 l 0.201083,-0.175683 q -0.09102,-0.1016 -0.188383,-0.14605 -0.09737,-0.04657 -0.232833,-0.04657 -0.0762,0 -0.148167,0.02328 -0.06985,0.02117 -0.122767,0.06562 -0.05292,0.04233 -0.08467,0.105833 -0.03175,0.0635 -0.03175,0.14605 0,0.1651 0.103716,0.243417 0.1016,0.07408 0.22225,0.118533 0.06562,0.0254 0.110067,0.04445 0.04657,0.01905 0.07197,0.03387 0.04233,0.02328 0.04233,0.06773 0,0.02752 -0.0127,0.04657 -0.0127,0.01905 -0.03387,0.03175 -0.01905,0.01058 -0.04445,0.01693 -0.02328,0.0042 -0.04657,0.0042 -0.04022,0 -0.0762,-0.01482 -0.03598,-0.01482 -0.06773,-0.0381 -0.02963,-0.0254 -0.05715,-0.05503 -0.0254,-0.02963 -0.04445,-0.06138 l -0.213783,0.160867 q 0.05503,0.0762 0.105833,0.124883 0.05292,0.04657 0.112184,0.07408 0.1143,0.0508 0.237066,0.0508 0.186267,0 0.302684,-0.09102 z"
           id="text1314"
           style="font-weight:500;font-size:2.11667px;font-family:OldSansBlack;-inkscape-font-specification:'OldSansBlack, Medium';text-anchor:middle;fill:#ffffff"
           aria-label="100µs" />
        <path
           d="m 89.350732,87.187966 h 0.79375 V 86.929733 H 89.905298 V 85.592 h -0.243416 q -0.06773,0.0635 -0.162984,0.08467 -0.09525,0.01905 -0.18415,0.02117 v 0.224367 h 0.27305 v 1.007533 h -0.237066 z m 2.254248,0 h 0.309034 v -0.825499 q 0,-0.06773 -0.01905,-0.129117 -0.01693,-0.06138 -0.05503,-0.10795 -0.03598,-0.04868 -0.09102,-0.0762 -0.05503,-0.02963 -0.129117,-0.02963 -0.1143,0 -0.2032,0.03598 -0.0889,0.03387 -0.169333,0.110067 -0.04657,-0.07408 -0.12065,-0.110067 -0.07408,-0.03598 -0.160867,-0.03598 -0.09102,0 -0.162983,0.0254 -0.06985,0.0254 -0.137584,0.08255 v -0.08678 h -0.287866 v 1.147233 h 0.309033 V 86.38364 q 0.01482,-0.0127 0.0381,-0.03175 0.02328,-0.01905 0.04868,-0.03387 0.02752,-0.01693 0.05503,-0.02752 0.02752,-0.0127 0.0508,-0.0127 0.05927,0 0.08467,0.03175 0.02752,0.03175 0.02752,0.0889 v 0.789516 h 0.309033 v -0.804333 q 0.01482,-0.0127 0.0381,-0.03175 0.02328,-0.01905 0.0508,-0.03387 0.02752,-0.01693 0.05292,-0.02752 0.02752,-0.0127 0.04868,-0.0127 0.05927,0 0.08678,0.03175 0.02752,0.03175 0.02752,0.0889 z m 1.195917,-0.06985 q 0.12065,-0.09525 0.12065,-0.245533 0,-0.14605 -0.07832,-0.243416 -0.04022,-0.04657 -0.09313,-0.0762 -0.0508,-0.02963 -0.10795,-0.04868 -0.05503,-0.02117 -0.112183,-0.04022 -0.05715,-0.01905 -0.110067,-0.04868 -0.0508,-0.02963 -0.0508,-0.06985 0,-0.05292 0.04022,-0.06773 0.04022,-0.01693 0.08467,-0.01693 0.06138,0 0.112183,0.04233 0.05292,0.04022 0.09102,0.08467 l 0.201083,-0.175684 q -0.09102,-0.1016 -0.188383,-0.14605 -0.09737,-0.04657 -0.232834,-0.04657 -0.0762,0 -0.148166,0.02328 -0.06985,0.02117 -0.122767,0.06562 -0.05292,0.04233 -0.08467,0.105833 -0.03175,0.0635 -0.03175,0.14605 0,0.1651 0.103717,0.243417 0.1016,0.07408 0.22225,0.118533 0.06562,0.0254 0.110067,0.04445 0.04657,0.01905 0.07197,0.03387 0.04233,0.02328 0.04233,0.06773 0,0.02752 -0.0127,0.04657 -0.0127,0.01905 -0.03387,0.03175 -0.01905,0.01058 -0.04445,0.01693 -0.02328,0.0042 -0.04657,0.0042 -0.04022,0 -0.0762,-0.01482 -0.03598,-0.01482 -0.06773,-0.0381 -0.02963,-0.0254 -0.05715,-0.05503 -0.0254,-0.02963 -0.04445,-0.06138 l -0.213783,0.160866 q 0.05503,0.0762 0.105833,0.124884 0.05292,0.04657 0.112183,0.07408 0.1143,0.0508 0.237067,0.0508 0.186267,0 0.302683,-0.09102 z"
           id="text1315"
           style="font-weight:500;font-size:2.11667px;font-family:OldSansBlack;-inkscape-font-specification:'OldSansBlack, Medium';text-anchor:middle;fill:#ffffff"
           aria-label="1ms" />
        <path
           d="m 99.693051,87.187966 h 0.793749 v -0.258233 h -0.23918 V 85.592 h -0.24342 q -0.06773,0.0635 -0.162983,0.08467 -0.09525,0.01905 -0.18415,0.02117 v 0.224367 h 0.27305 v 1.007533 h -0.237066 z m 1.951569,-0.19685 q 0.14393,-0.213783 0.14393,-0.590549 0,-0.141817 -0.0254,-0.28575 -0.0254,-0.14605 -0.091,-0.26035 -0.0656,-0.116417 -0.1778,-0.188384 -0.11218,-0.07408 -0.28575,-0.07408 -0.17356,0 -0.28575,0.07408 -0.11218,0.07197 -0.1778,0.188384 -0.0656,0.1143 -0.091,0.26035 -0.0254,0.143933 -0.0254,0.28575 0,0.143933 0.0254,0.287866 0.0254,0.143933 0.091,0.26035 0.0656,0.1143 0.1778,0.188383 0.11219,0.07197 0.28575,0.07197 0.28999,0 0.43604,-0.218017 z m -0.2413,-0.990599 q 0.0635,0.137583 0.0635,0.40005 0,0.264583 -0.0635,0.400049 -0.0593,0.13335 -0.19474,0.13335 -0.13546,0 -0.19473,-0.13335 -0.0635,-0.135466 -0.0635,-0.400049 0,-0.262467 0.0635,-0.40005 0.0593,-0.13335 0.19473,-0.13335 0.13547,0 0.19474,0.13335 z m 1.79281,1.187449 h 0.30904 v -0.825499 q 0,-0.06773 -0.0191,-0.129117 -0.0169,-0.06138 -0.055,-0.10795 -0.036,-0.04868 -0.091,-0.0762 -0.055,-0.02963 -0.12912,-0.02963 -0.1143,0 -0.2032,0.03598 -0.0889,0.03387 -0.16933,0.110067 -0.0466,-0.07408 -0.12065,-0.110067 -0.0741,-0.03598 -0.16087,-0.03598 -0.091,0 -0.16298,0.0254 -0.0698,0.0254 -0.13759,0.08255 v -0.08678 h -0.28786 v 1.147233 h 0.30903 V 86.38364 q 0.0148,-0.0127 0.0381,-0.03175 0.0233,-0.01905 0.0487,-0.03387 0.0275,-0.01693 0.055,-0.02752 0.0275,-0.0127 0.0508,-0.0127 0.0593,0 0.0847,0.03175 0.0275,0.03175 0.0275,0.0889 v 0.789516 h 0.30903 v -0.804333 q 0.0148,-0.0127 0.0381,-0.03175 0.0233,-0.01905 0.0508,-0.03387 0.0275,-0.01693 0.0529,-0.02752 0.0275,-0.0127 0.0487,-0.0127 0.0593,0 0.0868,0.03175 0.0275,0.03175 0.0275,0.0889 z m 1.19592,-0.06985 q 0.12065,-0.09525 0.12065,-0.245533 0,-0.14605 -0.0783,-0.243416 -0.0402,-0.04657 -0.0931,-0.0762 -0.0508,-0.02963 -0.10795,-0.04868 -0.055,-0.02117 -0.11218,-0.04022 -0.0572,-0.01905 -0.11007,-0.04868 -0.0508,-0.02963 -0.0508,-0.06985 0,-0.05292 0.0402,-0.06773 0.0402,-0.01693 0.0847,-0.01693 0.0614,0 0.11219,0.04233 0.0529,0.04022 0.091,0.08467 l 0.20109,-0.175684 q -0.091,-0.1016 -0.18839,-0.14605 -0.0974,-0.04657 -0.23283,-0.04657 -0.0762,0 -0.14817,0.02328 -0.0699,0.02117 -0.12276,0.06562 -0.0529,0.04233 -0.0847,0.105833 -0.0317,0.0635 -0.0317,0.14605 0,0.1651 0.10372,0.243417 0.1016,0.07408 0.22225,0.118533 0.0656,0.0254 0.11006,0.04445 0.0466,0.01905 0.072,0.03387 0.0423,0.02328 0.0423,0.06773 0,0.02752 -0.0127,0.04657 -0.0127,0.01905 -0.0339,0.03175 -0.019,0.01058 -0.0444,0.01693 -0.0233,0.0042 -0.0466,0.0042 -0.0402,0 -0.0762,-0.01482 -0.036,-0.01482 -0.0677,-0.0381 -0.0296,-0.0254 -0.0571,-0.05503 -0.0254,-0.02963 -0.0444,-0.06138 l -0.21379,0.160866 q 0.055,0.0762 0.10584,0.124884 0.0529,0.04657 0.11218,0.07408 0.1143,0.0508 0.23707,0.0508 0.18626,0 0.30268,-0.09102 z"
           id="text1316"
           style="font-weight:500;font-size:2.11667px;font-family:OldSansBlack;-inkscape-font-specification:'OldSansBlack, Medium';text-anchor:middle;fill:#ffffff"
           aria-label="10ms" />
        <path
           d="m 101.25205,104.00099 h 0.79375 v -0.25824 h -0.23919 v -1.33773 h -0.24341 q -0.0677,0.0635 -0.16299,0.0847 -0.0953,0.019 -0.18415,0.0212 v 0.22437 h 0.27305 v 1.00753 h -0.23706 z m 1.78011,-0.0699 q 0.12065,-0.0952 0.12065,-0.24554 0,-0.14605 -0.0783,-0.24341 -0.0402,-0.0466 -0.0931,-0.0762 -0.0508,-0.0296 -0.10795,-0.0487 -0.055,-0.0212 -0.11218,-0.0402 -0.0571,-0.019 -0.11007,-0.0487 -0.0508,-0.0296 -0.0508,-0.0699 0,-0.0529 0.0402,-0.0677 0.0402,-0.0169 0.0847,-0.0169 0.0614,0 0.11218,0.0423 0.0529,0.0402 0.091,0.0847 l 0.20108,-0.17569 q -0.091,-0.1016 -0.18838,-0.14605 -0.0974,-0.0466 -0.23284,-0.0466 -0.0762,0 -0.14816,0.0233 -0.0698,0.0212 -0.12277,0.0656 -0.0529,0.0423 -0.0847,0.10583 -0.0318,0.0635 -0.0318,0.14605 0,0.1651 0.10372,0.24342 0.1016,0.0741 0.22225,0.11853 0.0656,0.0254 0.11007,0.0445 0.0466,0.019 0.072,0.0339 0.0423,0.0233 0.0423,0.0677 0,0.0275 -0.0127,0.0466 -0.0127,0.0191 -0.0339,0.0318 -0.0191,0.0106 -0.0444,0.0169 -0.0233,0.004 -0.0466,0.004 -0.0402,0 -0.0762,-0.0148 -0.036,-0.0148 -0.0677,-0.0381 -0.0296,-0.0254 -0.0572,-0.055 -0.0254,-0.0296 -0.0444,-0.0614 l -0.21378,0.16087 q 0.055,0.0762 0.10583,0.12488 0.0529,0.0466 0.11218,0.0741 0.1143,0.0508 0.23707,0.0508 0.18627,0 0.30268,-0.091 z"
           id="text1318"
           style="font-weight:500;font-size:2.11667px;font-family:OldSansBlack;-inkscape-font-specification:'OldSansBlack, Medium';text-anchor:middle;fill:#ffffff"
           aria-label="1s" />
      </g>
    </g>
  </g>
</svg>
