<?xml version="1.0" encoding="UTF-8" standalone="no"?>
<svg
   width="45.720001mm"
   height="128.5mm"
   viewBox="0 0 35.788651 100.58709"
   version="1.1"
   id="svg8"
   sodipodi:docname="SnareModule.svg"
   inkscape:version="1.4.3 (0d15f75, 2025-12-25)"
   xmlns:inkscape="http://www.inkscape.org/namespaces/inkscape"
   xmlns:sodipodi="http://sodipodi.sourceforge.net/DTD/sodipodi-0.dtd"
   xmlns="http://www.w3.org/2000/svg"
   xmlns:svg="http://www.w3.org/2000/svg"
   xmlns:rdf="http://www.w3.org/1999/02/22-rdf-syntax-ns#"
   xmlns:cc="http://creativecommons.org/ns#"
   xmlns:dc="http://purl.org/dc/elements/1.1/">
  <title
     id="title4896">Autinn Punch</title>
  <sodipodi:namedview
     id="namedview14"
     pagecolor="#ffffff"
     bordercolor="#000000"
     borderopacity="0.25"
     inkscape:showpageshadow="2"
     inkscape:pageopacity="0.0"
     inkscape:pagecheckerboard="0"
     inkscape:deskcolor="#d1d1d1"
     inkscape:zoom="1"
     inkscape:cx="-139.5"
     inkscape:cy="208.5"
     inkscape:window-width="1920"
     inkscape:window-height="1009"
     inkscape:window-x="-8"
     inkscape:window-y="-8"
     inkscape:window-maximized="1"
     inkscape:current-layer="layer1"
     showgrid="true"
     showguides="true"
     inkscape:document-units="px"
     inkscape:lockguides="true">
    <inkscape:grid
       id="grid14"
       units="mm"
       originx="0"
       originy="0"
       spacingx="3.9765167"
       spacingy="10.058709"
       empcolor="#0099e5"
       empopacity="0.14901961"
       color="#0099e5"
       opacity="0.14901961"
       empspacing="10"
       enabled="true"
       visible="true" />
    <sodipodi:guide
       position="36.221035,50.289067"
       orientation="0,135"
       id="guide4"
       inkscape:locked="true" />
    <sodipodi:guide
       position="17.894325,49.487797"
       orientation="-1,0"
       id="guide5"
       inkscape:locked="true"
       inkscape:label=""
       inkscape:color="rgb(0,134,229)" />
    <sodipodi:guide
       position="35.718754,0.00036892664"
       orientation="0,-135"
       id="guide6"
       inkscape:locked="true" />
    <sodipodi:guide
       position="-2.5000001e-07,0.00036892664"
       orientation="-380,0"
       id="guide7"
       inkscape:locked="true" />
  </sodipodi:namedview>
  <defs
     id="defs2" />
  <g
     transform="translate(-2.5e-7,-196.45831)"
     id="layer1">
    <path
       id="rect817"
       d="M 2.5e-7,196.45831 H 35.788653 v 100.5868 H 2.5e-7 Z"
       style="fill:#202020;fill-opacity:1;stroke:none;stroke-width:1.0012" />
    <path
       style="display:inline;fill:none;stroke:#5e110a;stroke-width:4.23;stroke-linecap:butt;stroke-linejoin:miter;stroke-opacity:1"
       d="m 32.312212,305.49336 c -2,-1 -4,-2 -5,-6 -1,-4 1,-8 1.5,-12 0.5,-4 -1,-7 -3,-10 -2.5,-3.5 -5,-3 -7,-6 -2,-3 0,-7 1,-11 1,-4 3,-7 3,-11 0,-4 -3,-7 -5,-10 -2,-3 -4,-6 -4,-10 0,-4 3,-8 5,-12 2,-4 2,-8 0,-12 -2,-4 -5,-7 -6,-11"
       id="path685_stomp" />
    <g
       transform="translate(5.9843265)"
       style="fill:#ffd700"
       id="g6">
      <path
         d="m 5.05,289.42 q -0.17,-0.37 -0.38,-0.93 -0.21,-0.55 -0.44,-1.25 -0.11,0.32 -0.43,0.9 -0.31,0.58 -0.78,1.31 0.1,0 0.22,0 0.12,0 0.36,0 0.39,0 0.75,-0.01 0.36,-0.01 0.7,-0.03 z m 0.14,0.35 q -0.09,0 -0.24,0 -0.14,0 -0.19,0 -1.2,0 -1.64,0.13 -0.44,0.13 -0.71,0.5 -0.31,0.42 -0.69,1.01 -0.37,0.59 -0.47,0.59 -0.04,0 -0.06,-0.02 -0.02,-0.02 -0.02,-0.06 0,-0.04 0.44,-0.75 0.44,-0.71 0.83,-1.38 0.75,-1.3 1.13,-2.09 0.38,-0.79 0.38,-1.05 0,-0.03 -0.01,-0.07 -0.01,-0.04 -0.01,-0.05 0,-0.04 0.23,-0.16 0.23,-0.12 0.32,-0.12 0.03,0 0.23,0.65 0.19,0.65 0.46,1.33 0.75,1.93 1.06,2.43 0.3,0.49 0.6,0.49 0.08,0 0.17,-0.04 0.08,-0.04 0.1,-0.04 0.02,0 0.04,0.03 0.03,0.03 0.03,0.06 0,0.02 -0.15,0.11 -0.15,0.09 -0.29,0.19 -0.12,0.09 -0.29,0.24 -0.16,0.14 -0.2,0.14 -0.07,0 -0.29,-0.42 Q 5.74,291 5.2,289.76 Z"
         id="path1" />
      <path
         d="m 9.64,291.31 q -0.24,0.12 -0.6,0.31 -0.43,0.22 -0.51,0.22 -0.49,0 -0.72,-0.31 -0.22,-0.31 -0.22,-1 0,-0.16 0.01,-0.55 0.01,-0.39 0.01,-0.61 0,-0.04 -0.01,-0.14 -0.01,-0.09 -0.01,-0.15 0,-0.02 0.12,-0.06 0.09,-0.03 0.16,-0.05 0.15,-0.05 0.3,-0.12 0.15,-0.06 0.17,-0.06 0.05,0 0.08,0.02 0.03,0.02 0.03,0.05 0,0.04 -0.07,0.11 -0.07,0.07 -0.1,0.13 -0.08,0.14 -0.12,0.37 -0.03,0.23 -0.03,0.7 0,0.65 0.15,0.92 0.16,0.26 0.54,0.26 0.14,0 0.36,-0.06 0.22,-0.06 0.48,-0.18 v -1.51 q 0,-0.4 -0.16,-0.48 -0.03,-0.01 -0.03,-0.02 0,-0.11 0.08,-0.13 0.02,0 0.04,-0.01 0.15,-0.05 0.32,-0.14 0.17,-0.08 0.19,-0.08 0.04,0 0.1,0.05 0.05,0.05 0.05,0.09 0,0 0,0.03 -0.04,0.17 -0.06,0.43 -0.01,0.23 -0.02,0.63 0,0.38 0,0.86 0,0.36 0.02,0.7 0,0.05 0,0.06 0,0.07 -0.23,0.2 -0.23,0.13 -0.29,0.13 -0.02,0 -0.03,-0.03 0,-0.02 0,-0.09 v -0.1 q 0,-0.07 0,-0.17 0,-0.09 0,-0.21 z"
         id="path2" />
      <path
         d="m 11.34,291.48 q 0,-0.3 0,-0.6 0,-0.29 0,-0.65 0,-0.21 0,-0.46 0,-0.24 0,-0.51 h -0.19 q -0.04,0 -0.05,-0.01 -0.01,-0.01 -0.01,-0.05 0,-0.07 0.06,-0.11 0.02,-0.01 0.02,-0.02 l 0.79,-0.72 q 0.05,-0.05 0.07,-0.06 0.02,-0.01 0.04,-0.01 0.02,0 0.04,0.02 0.02,0.01 0.02,0.04 0,0.01 -0.03,0.08 -0.12,0.25 -0.15,0.5 h 1.03 q 0.04,0 0.06,0.03 0.02,0.03 0.02,0.12 0,0.1 -0.02,0.13 -0.02,0.02 -0.15,0.02 h -0.98 q -0.02,0.3 -0.03,0.58 -0.01,0.28 -0.01,0.53 0,0.61 0.16,0.87 0.17,0.26 0.55,0.26 0.19,0 0.41,-0.08 0.21,-0.08 0.23,-0.08 0.01,0 0.02,0.01 0.01,0.01 0.01,0.03 v 0.05 q 0,0.13 -0.36,0.28 -0.36,0.14 -0.7,0.14 -0.26,0 -0.49,-0.08 -0.23,-0.08 -0.37,-0.25 z"
         id="path3" />
      <path
         d="m 14.67,289.92 v 1.55 q 0,0.04 0,0.1 0,0.01 0,0.01 0,0.04 -0.02,0.07 -0.02,0.02 -0.07,0.04 -0.12,0.04 -0.26,0.08 -0.13,0.04 -0.14,0.04 -0.02,0 -0.04,-0.06 -0.01,-0.06 -0.01,-0.31 v -1.69 q 0,-0.38 -0.05,-0.48 -0.05,-0.09 -0.19,-0.09 -0.03,0 -0.09,0.02 -0.05,0.02 -0.07,0.02 -0.03,0 -0.06,-0.03 -0.02,-0.03 -0.02,-0.09 0,-0.05 0.2,-0.1 0.14,-0.03 0.23,-0.06 0.16,-0.05 0.35,-0.12 0.18,-0.07 0.21,-0.07 0.03,0 0.07,0.03 0.04,0.03 0.04,0.06 0,0.01 0,0.08 -0.03,0.47 -0.03,0.99 z m -0.34,-3 q 0.15,0 0.26,0.11 0.11,0.11 0.11,0.26 0,0.15 -0.11,0.26 -0.11,0.1 -0.27,0.1 -0.15,0 -0.26,-0.1 -0.1,-0.11 -0.1,-0.26 0,-0.15 0.1,-0.26 0.11,-0.11 0.26,-0.11 z"
         id="path4" />
      <path
         d="m 16.01,291.7 v -1.58 q 0,-0.48 -0.1,-0.7 -0.1,-0.22 -0.33,-0.22 -0.03,0 -0.07,0.01 -0.04,0.01 -0.06,0.01 -0.03,0 -0.05,-0.02 -0.01,-0.02 -0.01,-0.07 0,-0.03 0.13,-0.07 0.09,-0.03 0.15,-0.05 0.21,-0.08 0.38,-0.2 0.04,-0.03 0.05,-0.03 0.07,0 0.2,0.14 0.13,0.14 0.19,0.34 0.34,-0.2 0.68,-0.32 0.34,-0.12 0.57,-0.12 0.38,0 0.56,0.29 0.17,0.29 0.17,0.98 0,0.32 -0.02,0.7 -0.01,0.38 -0.01,0.44 0,0.08 0.03,0.11 0.03,0.03 0.11,0.03 0.04,0 0.12,-0.03 0.08,-0.03 0.12,-0.03 0.02,0 0.04,0.03 0.01,0.03 0.01,0.08 0,0.07 -0.19,0.12 -0.16,0.04 -0.28,0.08 -0.16,0.06 -0.34,0.15 -0.16,0.08 -0.18,0.08 -0.03,0 -0.05,-0.02 -0.02,-0.02 -0.02,-0.05 0,0 0.01,-0.05 0.14,-0.5 0.14,-1.25 0,-0.68 -0.18,-1 -0.18,-0.31 -0.57,-0.31 -0.17,0 -0.35,0.08 -0.17,0.08 -0.32,0.23 0,0.04 0,0.2 0,0.15 0,0.25 0,0.52 0,0.97 0,0.44 -0.02,0.75 l -0.4,0.14 q 0,0 -0.01,0 -0.01,0 -0.02,0 -0.03,0 -0.04,-0.02 -0.01,-0.02 -0.01,-0.09 z"
         id="path5" />
      <path
         d="m 19.79,291.7 v -1.58 q 0,-0.48 -0.1,-0.7 -0.1,-0.22 -0.33,-0.22 -0.03,0 -0.07,0.01 -0.04,0.01 -0.06,0.01 -0.03,0 -0.05,-0.02 -0.01,-0.02 -0.01,-0.07 0,-0.03 0.13,-0.07 0.09,-0.03 0.15,-0.05 0.21,-0.08 0.38,-0.2 0.04,-0.03 0.05,-0.03 0.07,0 0.2,0.14 0.13,0.14 0.19,0.34 0.34,-0.2 0.68,-0.32 0.34,-0.12 0.57,-0.12 0.38,0 0.56,0.29 0.17,0.29 0.17,0.98 0,0.32 -0.02,0.7 -0.01,0.38 -0.01,0.44 0,0.08 0.03,0.11 0.03,0.03 0.11,0.03 0.04,0 0.12,-0.03 0.08,-0.03 0.12,-0.03 0.02,0 0.04,0.03 0.01,0.03 0.01,0.08 0,0.07 -0.19,0.12 -0.16,0.04 -0.28,0.08 -0.16,0.06 -0.34,0.15 -0.16,0.08 -0.18,0.08 -0.03,0 -0.05,-0.02 -0.02,-0.02 -0.02,-0.05 0,0 0.01,-0.05 0.14,-0.5 0.14,-1.25 0,-0.68 -0.18,-1 -0.18,-0.31 -0.57,-0.31 -0.17,0 -0.35,0.08 -0.17,0.08 -0.32,0.23 0,0.04 0,0.2 0,0.15 0,0.25 0,0.52 0,0.97 0,0.44 -0.02,0.75 l -0.4,0.14 q 0,0 -0.01,0 -0.01,0 -0.02,0 -0.03,0 -0.04,-0.02 -0.01,-0.02 -0.01,-0.09 z"
         id="path6" />
    </g>
    <path
       d="M 7.1297851,212.9286 H 6.6302734 v 1.29014 h -0.4125 V 212.9286 H 5.7182616 v -0.30937 h 1.4115235 z m 1.6489258,0.71114 q 0,0.29648 -0.1804688,0.45439 -0.1804687,0.15791 -0.5317383,0.15791 -0.3512695,0 -0.5317383,-0.15791 -0.1793945,-0.15791 -0.1793945,-0.45332 v -1.02158 h 0.4146484 v 0.99795 q 0,0.1665 0.069824,0.24814 0.069824,0.0816 0.2266601,0.0816 0.1546875,0 0.225586,-0.0784 0.071973,-0.0784 0.071973,-0.25136 v -0.99795 h 0.4146484 z m 1.8401371,0.579 h -0.397461 l -0.6789067,-1.09785 v 1.09785 h -0.378125 v -1.59951 h 0.4930664 l 0.5833013,0.91631 v -0.91631 h 0.378125 z m 1.565136,0 h -1.156933 v -1.59951 h 1.156933 v 0.30937 h -0.746582 v 0.27608 h 0.692871 v 0.30937 h -0.692871 v 0.39531 h 0.746582 z"
       id="text7"
       style="font-weight:bold;font-size:2.2px;text-anchor:middle;fill:#ffffff"
       aria-label="TUNE" />
    <path
       d="m 24.290528,213.4206 q 0,0.22343 -0.102051,0.40068 -0.102051,0.17617 -0.257812,0.2707 -0.11709,0.0709 -0.256739,0.0988 -0.139648,0.028 -0.330859,0.028 h -0.563965 v -1.59951 h 0.580078 q 0.195508,0 0.337305,0.0333 0.141797,0.0322 0.238477,0.0924 0.165429,0.10098 0.259961,0.27285 0.0956,0.1708 0.0956,0.40284 z m -0.426465,-0.003 q 0,-0.15791 -0.05801,-0.26963 -0.05693,-0.11279 -0.181543,-0.17617 -0.06338,-0.0311 -0.12998,-0.0419 -0.06553,-0.0118 -0.198731,-0.0118 H 23.1916 v 1.00117 h 0.104199 q 0.147168,0 0.215918,-0.0129 0.06875,-0.014 0.134278,-0.0494 0.112793,-0.0644 0.165429,-0.17188 0.05264,-0.10849 0.05264,-0.26748 z m 1.898145,0.80114 h -1.156934 v -1.59951 h 1.156934 v 0.30937 h -0.746582 v 0.27608 h 0.692871 v 0.30937 h -0.692871 v 0.39531 h 0.746582 z m 1.068847,0.0311 q -0.17832,0 -0.329785,-0.0526 -0.150391,-0.0526 -0.258887,-0.15684 -0.108496,-0.1042 -0.168652,-0.25996 -0.05908,-0.15576 -0.05908,-0.35986 0,-0.19014 0.05693,-0.34483 0.05693,-0.15469 0.165429,-0.26533 0.1042,-0.10635 0.257813,-0.16436 0.154687,-0.058 0.337305,-0.058 0.100976,0 0.181542,0.0118 0.08164,0.0107 0.150391,0.029 0.07197,0.0204 0.129981,0.0462 0.05908,0.0247 0.103125,0.0462 v 0.38779 h -0.04727 q -0.03008,-0.0258 -0.07627,-0.0612 -0.04512,-0.0354 -0.103125,-0.0698 -0.05908,-0.0344 -0.127832,-0.058 -0.06875,-0.0236 -0.147168,-0.0236 -0.08701,0 -0.165429,0.0279 -0.07842,0.0268 -0.14502,0.0902 -0.06338,0.0612 -0.103125,0.16221 -0.03867,0.10097 -0.03867,0.24492 0,0.15039 0.0419,0.25137 0.04297,0.10097 0.107422,0.15898 0.06553,0.0591 0.146093,0.0849 0.08057,0.0247 0.158985,0.0247 0.0752,0 0.148242,-0.0226 0.07412,-0.0226 0.136426,-0.0612 0.05264,-0.0311 0.09775,-0.0666 0.04512,-0.0354 0.07412,-0.0612 h 0.04297 v 0.38242 q -0.06016,0.0269 -0.114942,0.0505 -0.05478,0.0236 -0.114941,0.0408 -0.07842,0.0226 -0.147168,0.0344 -0.06875,0.0118 -0.189063,0.0118 z m 2.347168,-0.0311 h -0.426464 l -0.110645,-0.32334 h -0.592969 l -0.110644,0.32334 h -0.415723 l 0.59082,-1.59951 h 0.474805 z m -0.637011,-0.6166 -0.196582,-0.57363 -0.196582,0.57363 z m 2.274121,-0.98291 -0.589746,0.98076 v 0.61875 h -0.4125 v -0.59941 l -0.599414,-1.0001 h 0.468359 l 0.345898,0.61875 0.334083,-0.61875 z"
       id="text8"
       style="font-weight:bold;font-size:2.2px;text-anchor:middle;fill:#ffffff"
       aria-label="DECAY" />
    <path
       d="m 6.0904896,229.71601 q 0,0.23632 -0.2008789,0.38457 -0.1998047,0.14716 -0.5435547,0.14716 -0.1987304,0 -0.3469726,-0.0344 -0.147168,-0.0354 -0.2760743,-0.0892 v -0.3835 h 0.045117 q 0.1278321,0.10205 0.2857422,0.15684 0.1589844,0.0548 0.3050782,0.0548 0.037598,0 0.098828,-0.006 0.06123,-0.006 0.099902,-0.0215 0.047266,-0.0193 0.077344,-0.0483 0.031152,-0.029 0.031152,-0.0859 0,-0.0526 -0.045117,-0.0902 -0.044043,-0.0387 -0.1299804,-0.0591 -0.090234,-0.0215 -0.191211,-0.0397 -0.099902,-0.0193 -0.1879883,-0.0483 -0.2019531,-0.0655 -0.2911132,-0.17724 -0.088086,-0.11279 -0.088086,-0.2793 0,-0.22344 0.1998047,-0.36416 0.2008789,-0.1418 0.515625,-0.1418 0.1579102,0 0.3115235,0.0312 0.1546875,0.0301 0.2674804,0.0763 v 0.36845 h -0.044043 q -0.09668,-0.0773 -0.2374024,-0.1289 -0.1396484,-0.0526 -0.2857422,-0.0526 -0.051563,0 -0.103125,0.008 -0.050488,0.006 -0.097754,0.0258 -0.041895,0.0161 -0.071973,0.0494 -0.030078,0.0322 -0.030078,0.0741 0,0.0634 0.04834,0.0977 0.04834,0.0333 0.1826172,0.0612 0.088086,0.0183 0.1686523,0.0354 0.081641,0.0172 0.1750977,0.0473 0.1836914,0.0601 0.2707031,0.16435 0.088086,0.10313 0.088086,0.26856 z m 2.4900391,-1.09678 -0.4307617,1.59951 H 7.693224 l -0.2868164,-1.04199 -0.2792969,1.04199 H 6.6705677 L 6.239806,228.61923 h 0.4307617 l 0.2459961,1.10107 0.294336,-1.10107 h 0.4114258 l 0.2803711,1.10107 0.2578125,-1.10107 z m 1.4319343,1.59951 H 8.8555288 v -1.59951 h 1.1569342 v 0.30937 H 9.2658803 v 0.27608 h 0.6928712 v 0.30937 H 9.2658803 v 0.39531 h 0.7465827 z m 1.502832,0 h -1.156934 v -1.59951 h 1.156934 v 0.30937 h -0.746582 v 0.27608 h 0.692871 v 0.30937 h -0.692871 v 0.39531 h 0.746582 z m 1.666113,-1.09463 q 0,0.10742 -0.0376,0.21055 -0.0376,0.10205 -0.107422,0.17187 -0.09561,0.0945 -0.21377,0.14287 -0.117089,0.0483 -0.292187,0.0483 h -0.256735 v 0.52104 h -0.4125 v -1.59951 H 12.5401 q 0.152539,0 0.256738,0.0268 0.105274,0.0258 0.18584,0.0784 0.09668,0.0634 0.147168,0.16221 0.05156,0.0988 0.05156,0.2374 z m -0.426464,0.01 q 0,-0.0677 -0.03652,-0.11602 -0.03652,-0.0494 -0.08486,-0.0688 -0.06445,-0.0258 -0.125684,-0.0279 -0.06123,-0.003 -0.163281,-0.003 h -0.0709 v 0.4791 h 0.118164 q 0.105273,0 0.172949,-0.0129 0.06875,-0.0129 0.114941,-0.0516 0.03975,-0.0344 0.05693,-0.0816 0.01826,-0.0483 0.01826,-0.11709 z"
       id="text9"
       style="font-weight:bold;font-size:2.2px;text-anchor:middle;fill:#ffffff"
       aria-label="SWEEP" />
    <path
       d="M 4.3526855,280.20986 H 3.8531738 V 281.5 h -0.4125 v -1.29014 H 2.941162 v -0.30937 h 1.4115235 z m 1.1451172,0.18047 q 0,-0.0602 -0.024707,-0.10312 -0.024707,-0.043 -0.084863,-0.0677 -0.041895,-0.0172 -0.097754,-0.0204 -0.055859,-0.004 -0.1299804,-0.004 H 5.0111816 v 0.43077 h 0.1267578 q 0.098828,0 0.1654297,-0.01 0.066601,-0.01 0.1117187,-0.0441 0.042969,-0.0333 0.062305,-0.073 0.02041,-0.0408 0.02041,-0.1085 z M 6.1412597,281.5 H 5.6374511 L 5.2013183,280.91348 H 5.0111816 V 281.5 H 4.60083 v -1.59951 h 0.6917969 q 0.1417969,0 0.2438476,0.0161 0.1020508,0.0161 0.191211,0.0698 0.090234,0.0537 0.1428711,0.13964 0.053711,0.0849 0.053711,0.21377 0,0.17725 -0.082715,0.28897 -0.081641,0.11172 -0.2341797,0.18584 z m 1.0452149,0 H 6.2497558 v -0.28359 h 0.2621094 v -1.03233 H 6.2497558 v -0.28359 h 0.9367188 v 0.28359 H 6.9243652 v 1.03233 h 0.2621094 z m 1.7509766,-0.0913 q -0.1074218,0.0419 -0.2846679,0.0838 -0.1772461,0.0408 -0.353418,0.0408 -0.4082032,0 -0.6391602,-0.22129 -0.230957,-0.22236 -0.230957,-0.61338 0,-0.37275 0.2331055,-0.60049 0.2331054,-0.2288 0.6499023,-0.2288 0.1579102,0 0.3007813,0.029 0.1428711,0.0279 0.3179687,0.11279 v 0.37491 h -0.046191 q -0.030078,-0.0226 -0.088086,-0.0634 -0.058008,-0.0419 -0.1117188,-0.0709 -0.062305,-0.0344 -0.1460937,-0.0591 -0.082715,-0.0247 -0.1761719,-0.0247 -0.1095703,0 -0.1987305,0.0322 -0.08916,0.0322 -0.1600586,0.0988 -0.067676,0.0645 -0.1074219,0.16436 -0.038672,0.0988 -0.038672,0.22881 0,0.26533 0.1407226,0.40605 0.1407227,0.14072 0.4157227,0.14072 0.023633,0 0.051563,-10e-4 0.029004,-0.001 0.052637,-0.003 V 280.921 h -0.319043 v -0.30186 h 0.7379883 z"
       id="text12"
       style="font-weight:bold;font-size:2.2px;text-anchor:middle;fill:#ffffff"
       aria-label="TRIG" />
    <path
       d="M 15.669069,279.90049 15.085768,281.5 h -0.461914 l -0.583301,-1.59951 h 0.43291 l 0.386719,1.12363 0.386719,-1.12363 z m 1.33955,-0.072 -0.851855,2.01953 h -0.329785 l 0.848632,-2.01953 z m 1.962598,0.87226 q 0,0.38242 -0.219141,0.60801 -0.21914,0.22451 -0.605859,0.22451 -0.385645,0 -0.604785,-0.22451 -0.219141,-0.22559 -0.219141,-0.60801 0,-0.38564 0.219141,-0.60908 0.21914,-0.22451 0.604785,-0.22451 0.38457,0 0.604785,0.22451 0.220215,0.22344 0.220215,0.60908 z m -0.546777,0.40498 q 0.06016,-0.073 0.08916,-0.17187 0.029,-0.0999 0.029,-0.23418 0,-0.14395 -0.0333,-0.24492 -0.0333,-0.10098 -0.08701,-0.16329 -0.05478,-0.0644 -0.126758,-0.0934 -0.0709,-0.029 -0.148242,-0.029 -0.07842,0 -0.148242,0.0279 -0.06875,0.0279 -0.126758,0.0924 -0.05371,0.0602 -0.08809,0.1665 -0.0333,0.10527 -0.0333,0.24492 0,0.14287 0.03223,0.24385 0.0333,0.0999 0.08701,0.16328 0.05371,0.0634 0.125683,0.0935 0.07197,0.0301 0.151465,0.0301 0.07949,0 0.151465,-0.0301 0.07197,-0.0312 0.125684,-0.0956 z m 1.584472,0.42539 q -0.17832,0 -0.329785,-0.0526 -0.15039,-0.0526 -0.258886,-0.15684 -0.108497,-0.1042 -0.168653,-0.25996 -0.05908,-0.15576 -0.05908,-0.35986 0,-0.19014 0.05693,-0.34483 0.05693,-0.15469 0.165429,-0.26533 0.1042,-0.10635 0.257813,-0.16436 0.154687,-0.058 0.337305,-0.058 0.100976,0 0.181543,0.0118 0.08164,0.0107 0.15039,0.029 0.07197,0.0204 0.129981,0.0462 0.05908,0.0247 0.103125,0.0462 v 0.38779 h -0.04727 q -0.03008,-0.0258 -0.07627,-0.0612 -0.04512,-0.0354 -0.103125,-0.0698 -0.05908,-0.0344 -0.127832,-0.058 -0.06875,-0.0236 -0.147168,-0.0236 -0.08701,0 -0.16543,0.0279 -0.07842,0.0268 -0.14502,0.0902 -0.06338,0.0612 -0.103125,0.16221 -0.03867,0.10097 -0.03867,0.24492 0,0.15039 0.0419,0.25137 0.04297,0.10097 0.107422,0.15898 0.06553,0.0591 0.146094,0.0849 0.08057,0.0247 0.158984,0.0247 0.0752,0 0.148242,-0.0226 0.07412,-0.0226 0.136426,-0.0612 0.05264,-0.0311 0.09775,-0.0666 0.04512,-0.0354 0.07412,-0.0612 h 0.04297 v 0.38242 q -0.06016,0.0269 -0.114942,0.0505 -0.05478,0.0236 -0.114941,0.0408 -0.07842,0.0226 -0.147168,0.0344 -0.06875,0.0118 -0.189063,0.0118 z m 2.120508,-1.32129 H 21.629909 V 281.5 h -0.4125 v -1.29014 h -0.499512 v -0.30937 h 1.411523 z"
       id="text13"
       style="font-weight:bold;font-size:2.2px;text-anchor:middle;fill:#ffffff"
       aria-label="V/OCT" />
    <path
       d="m 28.881446,280.70078 q 0,0.38242 -0.219141,0.60801 -0.21914,0.22451 -0.605859,0.22451 -0.385644,0 -0.604785,-0.22451 -0.219141,-0.22559 -0.219141,-0.60801 0,-0.38564 0.219141,-0.60908 0.219141,-0.22451 0.604785,-0.22451 0.38457,0 0.604785,0.22451 0.220215,0.22344 0.220215,0.60908 z m -0.546777,0.40498 q 0.06016,-0.073 0.08916,-0.17187 0.029,-0.0999 0.029,-0.23418 0,-0.14395 -0.0333,-0.24492 -0.0333,-0.10098 -0.08701,-0.16329 -0.05478,-0.0644 -0.126758,-0.0934 -0.0709,-0.029 -0.148242,-0.029 -0.07842,0 -0.148242,0.0279 -0.06875,0.0279 -0.126758,0.0924 -0.05371,0.0602 -0.08809,0.1665 -0.0333,0.10527 -0.0333,0.24492 0,0.14287 0.03223,0.24385 0.0333,0.0999 0.08701,0.16328 0.05371,0.0634 0.125683,0.0935 0.07197,0.0301 0.151465,0.0301 0.07949,0 0.151465,-0.0301 0.07197,-0.0312 0.125684,-0.0956 z m 2.262304,-0.18476 q 0,0.29648 -0.180468,0.45439 -0.180469,0.15791 -0.531739,0.15791 -0.351269,0 -0.531738,-0.15791 -0.179394,-0.15791 -0.179394,-0.45332 v -1.02158 h 0.414648 v 0.99795 q 0,0.1665 0.06982,0.24814 0.06983,0.0816 0.22666,0.0816 0.154688,0 0.225586,-0.0784 0.07197,-0.0784 0.07197,-0.25136 v -0.99795 h 0.414648 z m 1.63711,-0.71114 H 31.734571 V 281.5 h -0.4125 v -1.29014 h -0.499512 v -0.30937 h 1.411524 z"
       id="text14"
       style="font-weight:bold;font-size:2.2px;text-anchor:middle;fill:#ffffff"
       aria-label="OUT" />
    <path
       style="font-weight:bold;font-size:2.11667px;-inkscape-font-specification:'sans-serif Bold';fill:#ffffff;stroke-width:0.264583"
       d="m 24.975271,229.7377 q 0,0.22737 -0.19327,0.37 -0.192237,0.1416 -0.522967,0.1416 -0.191203,0 -0.33383,-0.0331 -0.141593,-0.0341 -0.265617,-0.0858 v -0.36897 h 0.04341 q 0.12299,0.0982 0.274919,0.15089 0.152963,0.0527 0.293523,0.0527 0.03617,0 0.09508,-0.006 0.05891,-0.006 0.09612,-0.0207 0.04547,-0.0186 0.07441,-0.0465 0.02997,-0.0279 0.02997,-0.0827 0,-0.0506 -0.04341,-0.0868 -0.04237,-0.0372 -0.125057,-0.0568 -0.08682,-0.0207 -0.183968,-0.0382 -0.09612,-0.0186 -0.180868,-0.0465 -0.194304,-0.063 -0.280087,-0.17053 -0.08475,-0.10852 -0.08475,-0.26872 0,-0.21497 0.192236,-0.35037 0.19327,-0.13642 0.496095,-0.13642 0.151929,0 0.299724,0.03 0.148828,0.0289 0.257349,0.0734 v 0.3545 h -0.04237 q -0.09302,-0.0744 -0.22841,-0.12402 -0.134359,-0.0506 -0.274919,-0.0506 -0.04961,0 -0.09922,0.007 -0.04858,0.006 -0.09405,0.0248 -0.04031,0.0155 -0.06925,0.0476 -0.02894,0.031 -0.02894,0.0713 0,0.061 0.04651,0.0941 0.04651,0.032 0.1757,0.0589 0.08475,0.0176 0.162264,0.0341 0.07855,0.0165 0.168466,0.0455 0.176733,0.0579 0.260449,0.15814 0.08475,0.0992 0.08475,0.25838 z m 1.671218,0.48369 h -0.382406 l -0.653191,-1.05627 v 1.05627 h -0.363803 v -1.53893 h 0.474391 l 0.561207,0.8816 v -0.8816 h 0.363802 z m 1.814879,0 h -0.410311 l -0.106454,-0.31109 h -0.570508 l -0.106454,0.31109 h -0.399976 l 0.568441,-1.53893 h 0.456821 z m -0.612883,-0.59325 -0.189136,-0.5519 -0.189136,0.5519 z m 2.104267,-0.45992 q 0,0.10336 -0.03617,0.20257 -0.03617,0.0982 -0.103353,0.16537 -0.09198,0.0909 -0.205673,0.13746 -0.112654,0.0465 -0.28112,0.0465 h -0.247014 v 0.50126 h -0.396875 v -1.53893 h 0.653191 q 0.146761,0 0.247014,0.0258 0.101286,0.0248 0.1788,0.0754 0.09302,0.061 0.141594,0.15606 0.04961,0.0951 0.04961,0.22841 z m -0.410311,0.009 q 0,-0.0651 -0.03514,-0.11162 -0.03514,-0.0475 -0.08165,-0.0661 -0.06201,-0.0248 -0.120923,-0.0269 -0.05891,-0.003 -0.157097,-0.003 h -0.06821 v 0.46096 h 0.113689 q 0.101286,0 0.166398,-0.0124 0.06615,-0.0124 0.110588,-0.0496 0.03824,-0.0331 0.05478,-0.0786 0.01757,-0.0465 0.01757,-0.11266 z"
       id="text1"
       aria-label="SNAP" />
    <text
       xml:space="preserve"
       style="font-style:normal;font-variant:normal;font-weight:bold;font-stretch:normal;font-size:2.11667px;font-family:sans-serif;-inkscape-font-specification:'sans-serif Bold';writing-mode:lr-tb;direction:ltr;fill:#ffffff;stroke-width:0.264583;stroke-dasharray:none"
       x="16.819239"
       y="252.39786"
       id="text2"><tspan
         id="tspan2"
         style="stroke-width:0.264583"
         sodipodi:role="line"
         x="16.819239"
         y="252.39786" /></text>
    <path
       d="m 12.263981,205.00512 q 0.350661,-0.28646 0.350661,-0.82974 0,-0.30621 -0.103716,-0.51858 -0.09878,-0.21731 -0.276579,-0.35066 -0.1778,-0.13335 -0.419806,-0.19262 -0.237068,-0.0593 -0.518585,-0.0593 H 9.9377591 v 3.67454 h 0.7902239 v -1.44216 h 0.563034 q 0.632179,0 0.972964,-0.28151 z m -0.577852,-1.1804 q 0.06421,0.0494 0.09878,0.13829 0.03457,0.084 0.03457,0.22225 0,0.13829 -0.04939,0.22719 -0.04939,0.084 -0.133351,0.13335 -0.07902,0.0445 -0.187678,0.0642 -0.103717,0.0148 -0.22225,0.0148 h -0.498827 v -0.90876 h 0.498829 q 0.321028,0 0.459317,0.10866 z m 3.822709,2.58305 q 0.365479,-0.37042 0.365479,-1.07175 v -2.28177 h -0.785285 v 2.2719 q 0,0.42474 -0.143228,0.5976 -0.06915,0.084 -0.192617,0.12841 -0.118534,0.0444 -0.306212,0.0444 -0.350662,0 -0.484012,-0.1778 -0.143229,-0.17286 -0.143229,-0.60254 v -2.26202 h -0.785285 v 2.31635 q 0,0.68156 0.370418,1.04704 0.375356,0.36054 1.051986,0.36054 0.686507,0 1.051985,-0.37041 z m 3.0473,0.32102 h 0.735896 v -3.67454 h -0.750713 v 2.30153 l -1.328564,-2.30153 h -0.795163 v 3.67454 h 0.750713 v -2.41018 z m 3.526375,-0.19755 q 0.172861,-0.12347 0.301273,-0.31115 0.13335,-0.18768 0.242006,-0.4692 l -0.740835,-0.19262 q -0.05433,0.11854 -0.113595,0.21732 -0.05927,0.0988 -0.13335,0.17286 -0.07408,0.0691 -0.177801,0.10865 -0.09878,0.0395 -0.242006,0.0395 -0.365478,0 -0.523523,-0.29139 -0.172862,-0.30127 -0.172862,-0.889 0,-0.10866 0.0049,-0.24201 0.0099,-0.13335 0.03457,-0.2667 0.02469,-0.13829 0.06914,-0.2667 0.04939,-0.12841 0.123473,-0.22719 0.07408,-0.10372 0.182739,-0.16298 0.113595,-0.0642 0.261762,-0.0642 0.256822,0 0.395112,0.14817 0.138289,0.14817 0.217311,0.37535 l 0.72108,-0.17286 q -0.09384,-0.32103 -0.222251,-0.51858 -0.123472,-0.2025 -0.296334,-0.30621 -0.340784,-0.20744 -0.790224,-0.20744 -0.414867,0 -0.701324,0.15805 -0.286456,0.15804 -0.464256,0.42474 -0.172862,0.26176 -0.251884,0.60255 -0.07408,0.34078 -0.07408,0.70132 0,0.36548 0.07408,0.70627 0.07902,0.33584 0.251884,0.60254 0.172861,0.26176 0.459317,0.41981 0.286457,0.15804 0.701324,0.15804 0.523524,0 0.864308,-0.24694 z m 2.973218,0.19755 h 0.795163 v -3.67454 h -0.795163 v 1.41747 h -1.244602 v -1.41747 h -0.795163 v 3.67454 h 0.795163 v -1.53106 h 1.244602 z"
       id="text4"
       style="font-size:4.9389px;font-family:OldSansBlack;-inkscape-font-specification:OldSansBlack;fill:#ffffff;stroke-width:5.564"
       aria-label="PUNCH" />
    <path
       d="m 24.526914,244.43996 q 0,0.22343 -0.102051,0.40068 -0.10205,0.17617 -0.257812,0.2707 -0.11709,0.0709 -0.256738,0.0988 -0.139649,0.028 -0.33086,0.028 h -0.563965 v -1.59951 h 0.580078 q 0.195508,0 0.337305,0.0333 0.141797,0.0322 0.238477,0.0924 0.165429,0.10098 0.259961,0.27285 0.09561,0.1708 0.09561,0.40284 z m -0.426465,-0.003 q 0,-0.15791 -0.05801,-0.26963 -0.05693,-0.11279 -0.181542,-0.17617 -0.06338,-0.0311 -0.129981,-0.0419 -0.06553,-0.0118 -0.19873,-0.0118 h -0.1042 v 1.00117 h 0.1042 q 0.147168,0 0.215918,-0.0129 0.06875,-0.014 0.134277,-0.0494 0.112793,-0.0644 0.16543,-0.17188 0.05264,-0.10849 0.05264,-0.26748 z m 1.638184,-0.3083 q 0,-0.0601 -0.02471,-0.10312 -0.02471,-0.043 -0.08486,-0.0677 -0.0419,-0.0172 -0.09775,-0.0204 -0.05586,-0.004 -0.129981,-0.004 h -0.149316 v 0.43077 h 0.126758 q 0.09883,0 0.165429,-0.01 0.0666,-0.01 0.111719,-0.044 0.04297,-0.0333 0.0623,-0.073 0.02041,-0.0408 0.02041,-0.1085 z m 0.643457,1.10944 h -0.503809 l -0.436132,-0.58652 h -0.190137 v 0.58652 H 24.84166 v -1.59951 h 0.691797 q 0.141797,0 0.243848,0.0161 0.102051,0.0161 0.191211,0.0698 0.09023,0.0537 0.142871,0.13964 0.05371,0.0849 0.05371,0.21377 0,0.17725 -0.08272,0.28897 -0.08164,0.11172 -0.23418,0.18584 z m 1.045215,0 h -0.936719 v -0.28359 h 0.26211 v -1.03233 h -0.26211 v -0.28359 h 0.936719 v 0.28359 h -0.262109 v 1.03233 h 0.262109 z m 1.786426,-1.59951 -0.583301,1.59951 h -0.461914 l -0.583301,-1.59951 h 0.43291 l 0.386719,1.12363 0.386719,-1.12363 z m 1.386816,1.59951 h -1.156933 v -1.59951 h 1.156933 v 0.30937 h -0.746582 v 0.27608 h 0.692871 v 0.30937 h -0.692871 v 0.39531 h 0.746582 z"
       id="text11-9"
       style="font-weight:bold;font-size:2.2px;text-anchor:middle;fill:#ffffff"
       aria-label="DRIVE" />
    <path
       d="m 5.9361683,244.47574 q 0.150284,-0.12277 0.150284,-0.3556 0,-0.13123 -0.04445,-0.22225 -0.04233,-0.0931 -0.118534,-0.15028 -0.0762,-0.0572 -0.179917,-0.0826 -0.1016,-0.0254 -0.22225,-0.0254 h -0.582084 v 1.57481 h 0.338667 v -0.61807 h 0.2413 q 0.270934,0 0.416984,-0.12065 z m -0.24765,-0.50588 q 0.02752,0.0212 0.04233,0.0593 0.01482,0.036 0.01482,0.0952 0,0.0593 -0.02117,0.0974 -0.02117,0.036 -0.05715,0.0572 -0.03387,0.019 -0.08043,0.0275 -0.04445,0.006 -0.09525,0.006 h -0.213784 v -0.38947 h 0.213783 q 0.137584,0 0.196851,0.0466 z m 0.575734,1.2446 h 0.338667 v -0.34714 h -0.338667 z m 1.69122,-0.20532 q 0.09525,-0.1016 0.1397,-0.24553 0.04445,-0.14605 0.04445,-0.33444 0,-0.17991 -0.04233,-0.32385 -0.04233,-0.14605 -0.131233,-0.24976 -0.0889,-0.10372 -0.226484,-0.15875 -0.135467,-0.0572 -0.32385,-0.0572 h -0.516468 v 1.57481 h 0.520701 q 0.351367,0 0.535517,-0.20532 z m -0.251884,-0.95462 q 0.04657,0.0614 0.06985,0.15452 0.0254,0.091 0.0254,0.2159 0,0.1016 -0.01693,0.19262 -0.01693,0.0889 -0.06138,0.15875 -0.04233,0.0677 -0.118533,0.10795 -0.07408,0.0381 -0.190501,0.0381 h -0.173573 v -0.9906 h 0.177801 q 0.194733,0 0.287866,0.12276 z m 0.620184,1.15994 h 1.081618 v -0.2921 h -0.745067 v -0.38312 l 0.524934,-0.002 v -0.28798 h -0.524934 v -0.3175 h 0.719668 v -0.29211 h -1.056219 z m 2.1865207,-0.0847 q 0.07408,-0.0529 0.129117,-0.13335 0.05715,-0.0804 0.103717,-0.20108 l -0.317501,-0.0825 q -0.02328,0.0508 -0.04868,0.0931 -0.0254,0.0423 -0.05715,0.0741 -0.03175,0.0296 -0.0762,0.0466 -0.04233,0.0169 -0.103717,0.0169 -0.1566345,0 -0.224368,-0.12488 -0.07408,-0.12912 -0.07408,-0.381 0,-0.0466 0.0021,-0.10372 0.0042,-0.0572 0.01482,-0.1143 0.01058,-0.0593 0.02963,-0.1143 0.02117,-0.055 0.05292,-0.0974 0.03175,-0.0444 0.07832,-0.0699 0.04868,-0.0275 0.112183,-0.0275 0.110067,0 0.169334,0.0635 0.05927,0.0635 0.09313,0.16087 l 0.309034,-0.0741 q -0.04022,-0.13758 -0.09525,-0.22225 -0.05292,-0.0868 -0.127,-0.13123 -0.14605,-0.0889 -0.338667,-0.0889 -0.177801,0 -0.3005675,0.0677 -0.1227667,0.0677 -0.1989667,0.18204 -0.07408,0.11218 -0.107951,0.25823 -0.03175,0.14605 -0.03175,0.30057 0,0.15663 0.03175,0.30268 0.03387,0.14393 0.107951,0.25823 0.07408,0.11219 0.1968497,0.17992 0.1227675,0.0677 0.3005675,0.0677 0.224367,0 0.370417,-0.10583 z m 1.202269,0.0847 h 0.340784 l -0.448734,-1.57692 h -0.397934 l -0.455084,1.57692 h 0.338667 l 0.09102,-0.3302 h 0.446617 z m -0.302684,-1.17687 0.143934,0.5588 h -0.296334 z m 1.212852,0.5461 0.433918,-0.94404 h -0.355601 l -0.24765,0.56939 -0.24765,-0.56939 h -0.355601 l 0.436034,0.95039 v 0.62442 h 0.33655 z"
       id="text2-4"
       style="font-weight:500;font-size:2.11667px;font-family:OldSansBlack;-inkscape-font-specification:'OldSansBlack Medium';fill:#ffffff;stroke-width:4.23333"
       aria-label="P.DECAY" />
  </g>
  <metadata
     id="metadata1">
    <rdf:RDF>
      <cc:Work
         rdf:about="">
        <dc:title>Autinn Punch</dc:title>
      </cc:Work>
    </rdf:RDF>
  </metadata>
</svg>
