<?xml version="1.0" encoding="UTF-8" standalone="no"?>
<svg
   width="135px"
   height="380px"
   viewBox="0 0 135 380"
   version="1.1"
   id="svg176"
   sodipodi:docname="OpenHH.svg"
   inkscape:version="1.4 (e7c3feb1, 2024-10-09)"
   xmlns:inkscape="http://www.inkscape.org/namespaces/inkscape"
   xmlns:sodipodi="http://sodipodi.sourceforge.net/DTD/sodipodi-0.dtd"
   xmlns="http://www.w3.org/2000/svg"
   xmlns:svg="http://www.w3.org/2000/svg">
  <defs
     id="defs176" />
  <sodipodi:namedview
     id="namedview176"
     pagecolor="#ffffff"
     bordercolor="#000000"
     borderopacity="0.25"
     inkscape:showpageshadow="2"
     inkscape:pageopacity="0.0"
     inkscape:pagecheckerboard="0"
     inkscape:deskcolor="#d1d1d1"
     inkscape:zoom="2.6552632"
     inkscape:cx="67.601586"
     inkscape:cy="189.81169"
     inkscape:window-width="1848"
     inkscape:window-height="1339"
     inkscape:window-x="682"
     inkscape:window-y="25"
     inkscape:window-maximized="0"
     inkscape:current-layer="OHH" />
  <title
     id="title1">OHH</title>
  <g
     id="OHH"
     stroke="none"
     stroke-width="1"
     fill="none"
     fill-rule="evenodd">
    <polygon
       id="module-background"
       fill="#1D0911"
       fill-rule="nonzero"
       points="0 0 135 0 135 380 0 380" />
    <rect
       id="Rectangle"
       fill="#4F4F4F"
       x="92"
       y="26.9"
       width="40.6658535"
       height="140.1"
       rx="2" />
    <rect
       id="Rectangle-Copy"
       fill="#4F4F4F"
       x="92"
       y="216.9"
       width="40.6658535"
       height="140.1"
       rx="2" />
    <path
       d="m 59.67334,365.52295 h 1.637695 l 0.679199,6.95703 0.818848,-4.50049 h 1.555176 l 0.952148,4.50049 0.533203,-6.95703 H 67.5 L 66.408203,375 H 64.662598 L 63.583496,370.02344 62.574219,375 h -1.73291 z m 10.568847,1.68848 v 6.10009 H 70.75 q 1.104492,0 1.574219,-0.69189 0.469726,-0.69824 0.469726,-2.36768 0,-1.65674 -0.469726,-2.34863 -0.469727,-0.69189 -1.574219,-0.69189 z m -1.872558,-1.68848 h 2.005859 q 2.323242,0 3.345215,1.11084 1.021973,1.10449 1.021973,3.61816 0,2.52002 -1.021973,3.63721 Q 72.69873,375 70.375488,375 h -2.005859 z"
       id="WD"
       style="font-weight:bold;font-size:13px;font-family:BitstreamVeraSansMono-Bold, 'Bitstream Vera Sans Mono';fill:#787878;fill-rule:nonzero"
       aria-label="WD" />
    <path
       d="m 16.273437,340.94531 v -1.11328 h -0.789062 v -0.96875 h 1.796875 v 2.67188 q -0.332031,0.28515 -0.734375,0.43359 -0.398438,0.14453 -0.855469,0.14453 -1.132812,0 -1.75,-0.78516 -0.617187,-0.78906 -0.617187,-2.23828 0,-1.47265 0.621094,-2.25 0.625,-0.77734 1.800781,-0.77734 0.351562,0 0.691406,0.10156 0.339844,0.0977 0.636719,0.28516 v 1.27734 q -0.242188,-0.3125 -0.558594,-0.46875 -0.3125,-0.16015 -0.6875,-0.16015 -0.65625,0 -0.980469,0.49609 -0.324218,0.49219 -0.324218,1.49609 0,0.97266 0.3125,1.48047 0.3125,0.50781 0.910156,0.50781 0.179687,0 0.3125,-0.0312 0.132812,-0.0351 0.214843,-0.10156 z m 3.816407,-3.72265 -0.542969,2.38671 h 1.089844 z m -0.703125,-1.05469 h 1.410156 L 22.371094,342 H 21.21875 l -0.359375,-1.44141 H 19.316406 L 18.964844,342 H 17.8125 Z M 25.484375,342 h -1.152344 v -4.82422 h -1.480469 v -1.00781 h 4.113282 v 1.00781 h -1.480469 z m 6.121094,0 h -3.632813 v -5.83203 h 3.632813 v 1.01562 H 29.125 v 1.25782 h 2.246094 v 1.01562 H 29.125 v 1.52734 h 2.480469 z"
       id="GATE"
       style="font-weight:bold;font-size:8px;font-family:BitstreamVeraSansMono-Bold, 'Bitstream Vera Sans Mono';fill:#ffffff;fill-rule:nonzero"
       aria-label="GATE" />
    <path
       d="m 62.681641,337.09766 q -0.441407,0 -0.644532,0.47265 -0.203125,0.46875 -0.203125,1.51953 0,1.04688 0.203125,1.51953 0.203125,0.46875 0.644532,0.46875 0.445312,0 0.648437,-0.46875 0.203125,-0.47265 0.203125,-1.51953 0,-1.05078 -0.203125,-1.51953 -0.203125,-0.47265 -0.648437,-0.47265 z m -2.046875,1.99218 q 0,-1.49609 0.515625,-2.26172 0.519531,-0.76562 1.53125,-0.76562 1.015625,0 1.53125,0.76562 0.519531,0.76563 0.519531,2.26172 0,1.49219 -0.519531,2.25782 -0.515625,0.76562 -1.53125,0.76562 -1.011719,0 -1.53125,-0.76562 -0.515625,-0.76563 -0.515625,-2.25782 z m 4.871093,0.75782 v -3.67969 h 1.152344 v 3.96875 q 0,0.4375 0.222656,0.6875 0.222657,0.24609 0.617188,0.24609 0.394531,0 0.617187,-0.24609 0.222657,-0.25 0.222657,-0.6875 v -3.96875 h 1.152343 v 3.67969 q 0,1.1875 -0.472656,1.72656 -0.472656,0.53906 -1.519531,0.53906 -1.042969,0 -1.519531,-0.53906 -0.472657,-0.53906 -0.472657,-1.72656 z M 72.892578,342 h -1.152344 v -4.82422 h -1.480468 v -1.00781 h 4.113281 v 1.00781 h -1.480469 z"
       id="OUT"
       style="font-weight:bold;font-size:8px;font-family:BitstreamVeraSansMono-Bold, 'Bitstream Vera Sans Mono';fill:#ffffff;fill-rule:nonzero"
       aria-label="OUT" />
    <g
       id="choke-copy"
       transform="translate(92.0808, 246)">
      <path
         d="m 19.773003,5.8530273 q -0.239258,0.1230469 -0.502442,0.1845704 -0.263183,0.061523 -0.553711,0.061523 -1.032226,0 -1.575683,-0.6801758 -0.543457,-0.6801758 -0.543457,-1.965332 0,-1.2885742 0.543457,-1.96875 0.543457,-0.6801758 1.575683,-0.6801758 0.290528,0 0.557129,0.0615234 0.266602,0.0615234 0.499024,0.18457026 V 2.171875 q -0.259766,-0.2392578 -0.50586,-0.3486328 -0.242676,-0.112793 -0.502441,-0.112793 -0.553711,0 -0.837403,0.440918 -0.280273,0.4375 -0.280273,1.3022461 0,0.8613281 0.280273,1.3022461 0.283692,0.4375 0.837403,0.4375 0.259765,0 0.502441,-0.109375 0.246094,-0.112793 0.50586,-0.3520508 z m 2.625,-0.6938476 0.898925,-4.26220704 h 1.015137 L 23.098686,6 H 21.700737 L 20.487358,0.89697266 h 1.015137 z"
         id="CV"
         style="font-weight:bold;font-size:7px;font-family:BitstreamVeraSansMono-Bold, 'Bitstream Vera Sans Mono';fill:#ffffff;fill-rule:nonzero"
         aria-label="CV" />
      <path
         d="m 13.644096,56 h -1.152343 v -4.824219 h -1.480469 v -1.007812 h 4.113281 v 1.007812 h -1.480469 z m 2.503907,-4.816406 v -1.015625 h 3.472656 v 1.015625 h -1.160156 v 3.800781 h 1.160156 V 56 h -3.472656 v -1.015625 h 1.160156 v -3.800781 z m 4.480468,-1.015625 h 1.375 l 0.695313,2.558593 0.691406,-2.558593 h 1.382813 V 56 h -0.992188 v -4.671875 l -0.617187,2.550781 h -0.917969 l -0.625,-2.550781 V 56 H 20.628471 Z M 29.398003,56 H 25.76519 v -5.832031 h 3.632813 v 1.015625 h -2.480469 v 1.257812 h 2.246094 v 1.015625 h -2.246094 v 1.527344 h 2.480469 z"
         id="TIME"
         style="font-weight:bold;font-size:8px;font-family:BitstreamVeraSansMono-Bold, 'Bitstream Vera Sans Mono';fill:#ffffff;fill-rule:nonzero"
         aria-label="TIME" />
      <path
         d="m 12.474174,95.832031 q -0.273437,0.140625 -0.574218,0.210938 -0.300782,0.07031 -0.632813,0.07031 -1.179687,0 -1.800781,-0.777344 -0.6210938,-0.777343 -0.6210938,-2.246093 0,-1.472657 0.6210938,-2.25 0.621094,-0.777344 1.800781,-0.777344 0.332031,0 0.636719,0.07031 0.304687,0.07031 0.570312,0.210938 V 91.625 q -0.296875,-0.273438 -0.578125,-0.398438 -0.277343,-0.128906 -0.574218,-0.128906 -0.632813,0 -0.957032,0.503906 -0.320312,0.5 -0.320312,1.488282 0,0.984375 0.320312,1.488281 0.324219,0.5 0.957032,0.5 0.296875,0 0.574218,-0.125 0.28125,-0.128906 0.578125,-0.402344 z m 1.128907,-5.664062 h 1.152343 v 2.222656 h 1.441407 v -2.222656 h 1.152343 V 96 H 16.196831 V 93.40625 H 14.755424 V 96 h -1.152343 z m 6.6875,0.929687 q -0.441407,0 -0.644532,0.472656 -0.203125,0.46875 -0.203125,1.519532 0,1.046875 0.203125,1.519531 0.203125,0.46875 0.644532,0.46875 0.445312,0 0.648437,-0.46875 0.203125,-0.472656 0.203125,-1.519531 0,-1.050782 -0.203125,-1.519532 -0.203125,-0.472656 -0.648437,-0.472656 z m -2.046875,1.992188 q 0,-1.496094 0.515625,-2.261719 0.519531,-0.765625 1.53125,-0.765625 1.015625,0 1.53125,0.765625 0.519531,0.765625 0.519531,2.261719 0,1.492187 -0.519531,2.257812 -0.515625,0.765625 -1.53125,0.765625 -1.011719,0 -1.53125,-0.765625 -0.515625,-0.765625 -0.515625,-2.257812 z m 4.914062,-2.921875 h 1.152344 v 2.304687 l 1.804687,-2.304687 h 1.304688 L 25.579643,92.464844 27.485893,96 h -1.28125 l -1.382812,-2.625 -0.511719,0.648437 V 96 H 23.157768 Z M 31.806206,96 h -3.632813 v -5.832031 h 3.632813 v 1.015625 h -2.480469 v 1.257812 h 2.246094 v 1.015625 h -2.246094 v 1.527344 h 2.480469 z"
         id="CHOKE"
         style="font-weight:bold;font-size:8px;font-family:BitstreamVeraSansMono-Bold, 'Bitstream Vera Sans Mono';fill:#ffffff;fill-rule:nonzero"
         aria-label="CHOKE" />
      <g
         id="tune-cv-1"
         transform="translate(4.9733, 13.8902)">
        <g
           id="g171"
           stroke-linecap="square"
           stroke="#FFFFFF">
          <line
             x1="29.658301"
             y1="9.09094963"
             x2="1.73376015"
             y2="22.5528747"
             id="line134" />
          <g
             id="g138"
             transform="translate(1.2601, 15.6345)">
            <line
               x1="2.47319257"
               y1="4.45201695"
               x2="1.04269377"
               y2="5.02606315"
               id="line135" />
            <line
               x1="1.98198707"
               y1="3.19660775"
               x2="0.53608627"
               y2="3.63675185"
               id="line136" />
            <line
               x1="1.65575347"
               y1="1.93463315"
               x2="0.16741538"
               y2="2.18088475"
               id="line137" />
            <line
               x1="1.55466977"
               y1="0.44842175"
               x2="2.22044605e-16"
               y2="0.55157825"
               id="line138" />
          </g>
          <line
             x1="-1.22124533e-15"
             y1="14.7618631"
             x2="31.1520242"
             y2="15.436476"
             id="line139" />
          <g
             id="g143"
             transform="translate(2.681, 11.1975) rotate(32) translate(-2.681, -11.1975)translate(1.4444, 8.578)">
            <line
               x1="2.47319257"
               y1="4.45201695"
               x2="1.04269377"
               y2="5.02606315"
               id="line140" />
            <line
               x1="1.98198707"
               y1="3.19660775"
               x2="0.53608627"
               y2="3.63675185"
               id="line141" />
            <line
               x1="1.65575347"
               y1="1.93463315"
               x2="0.16741538"
               y2="2.18088475"
               id="line142" />
            <line
               x1="1.55466977"
               y1="0.44842175"
               x2="2.22044605e-16"
               y2="0.55157825"
               id="line143" />
          </g>
          <line
             x1="2.53225343"
             y1="6.85252956"
             x2="29.0043477"
             y2="23.4402493"
             id="line144" />
          <g
             id="g148"
             transform="translate(6.5627, 5.171) rotate(62) translate(-6.5627, -5.171)translate(5.3261, 2.5514)">
            <line
               x1="2.47319254"
               y1="4.45201684"
               x2="1.0426937"
               y2="5.0260631"
               id="line145" />
            <line
               x1="1.98198709"
               y1="3.19660765"
               x2="0.536086272"
               y2="3.63675173"
               id="line146" />
            <line
               x1="1.65575353"
               y1="1.93463319"
               x2="0.167415398"
               y2="2.1808848"
               id="line147" />
            <line
               x1="1.55466977"
               y1="0.448421775"
               x2="0"
               y2="0.551578225"
               id="line148" />
          </g>
          <line
             x1="8.8106677"
             y1="1.40066909"
             x2="10.6234699"
             y2="5.09475774"
             id="line149" />
          <g
             id="g153"
             transform="translate(13.0503, 2.1023) rotate(92) translate(-13.0503, -2.1023)translate(11.8137, -0.5172)">
            <line
               x1="2.47319254"
               y1="4.45201684"
               x2="1.0426937"
               y2="5.0260631"
               id="line150" />
            <line
               x1="1.98198709"
               y1="3.19660765"
               x2="0.536086272"
               y2="3.63675173"
               id="line151" />
            <line
               x1="1.65575353"
               y1="1.93463319"
               x2="0.167415398"
               y2="2.1808848"
               id="line152" />
            <line
               x1="1.55466977"
               y1="0.448421775"
               x2="0"
               y2="0.551578225"
               id="line153" />
          </g>
          <line
             x1="16.4371588"
             y1="2.57657148"
             x2="16.6961187"
             y2="-5.55111512e-16"
             id="line154" />
          <g
             id="g158"
             transform="translate(20.1897, 2.5822) rotate(123) translate(-20.1897, -2.5822)translate(18.9531, -0.0373)">
            <line
               x1="2.47319254"
               y1="4.45201684"
               x2="1.0426937"
               y2="5.0260631"
               id="line155" />
            <line
               x1="1.98198709"
               y1="3.19660765"
               x2="0.536086272"
               y2="3.63675173"
               id="line156" />
            <line
               x1="1.65575353"
               y1="1.93463319"
               x2="0.167415398"
               y2="2.1808848"
               id="line157" />
            <line
               x1="1.55466977"
               y1="0.448421775"
               x2="0"
               y2="0.551578225"
               id="line158" />
          </g>
          <line
             x1="24.4672037"
             y1="2.78686002"
             x2="22.7560333"
             y2="5.09475774"
             id="line159" />
          <g
             id="g163"
             transform="translate(26.1671, 6.8017) rotate(152) translate(-26.1671, -6.8017)translate(24.9305, 4.1822)">
            <line
               x1="2.47319254"
               y1="4.45201684"
               x2="1.0426937"
               y2="5.0260631"
               id="line160" />
            <line
               x1="1.98198709"
               y1="3.19660765"
               x2="0.536086272"
               y2="3.63675173"
               id="line161" />
            <line
               x1="1.65575353"
               y1="1.93463319"
               x2="0.167415398"
               y2="2.1808848"
               id="line162" />
            <line
               x1="1.55466977"
               y1="0.448421775"
               x2="0"
               y2="0.551578225"
               id="line163" />
          </g>
          <g
             id="g166"
             transform="translate(29.0536, 12.5353) rotate(-175) translate(-29.0536, -12.5353)translate(27.9007, 10.6782)">
            <line
               x1="2.30577714"
               y1="2.92726911"
               x2="0.875278301"
               y2="3.50131537"
               id="line164" />
            <line
               x1="1.8145717"
               y1="1.67185992"
               x2="0.368670871"
               y2="2.112004"
               id="line165" />
            <line
               x1="1.48448767"
               y1="0.343862925"
               x2="0"
               y2="0.656137076"
               id="line166" />
          </g>
          <g
             id="g170"
             transform="translate(28.6957, 19.0779) rotate(-152) translate(-28.6957, -19.0779)translate(27.4591, 16.4584)">
            <line
               x1="2.47319254"
               y1="4.45201684"
               x2="1.0426937"
               y2="5.0260631"
               id="line167" />
            <line
               x1="1.98198709"
               y1="3.19660765"
               x2="0.536086272"
               y2="3.63675173"
               id="line168" />
            <line
               x1="1.65575353"
               y1="1.93463319"
               x2="0.167415398"
               y2="2.1808848"
               id="line169" />
            <line
               x1="1.55466977"
               y1="0.448421775"
               x2="0"
               y2="0.551578225"
               id="line170" />
          </g>
        </g>
        <circle
           id="circle171"
           fill="#FFFFFF"
           fill-rule="nonzero"
           cx="15.6656454"
           cy="15.1282005"
           r="12.561" />
      </g>
    </g>
    <g
       id="tune-cv-2"
       transform="translate(45, 246)">
      <path
         d="M 10.361084,6 H 9.3527832 V 1.7788086 H 8.057373 V 0.89697266 h 3.599121 V 1.7788086 h -1.29541 z M 12.326416,4.1166992 V 0.89697266 h 1.008301 V 4.3696289 q 0,0.3828125 0.194824,0.6015625 0.194824,0.215332 0.540039,0.215332 0.345215,0 0.540039,-0.215332 0.194824,-0.21875 0.194824,-0.6015625 V 0.89697266 h 1.008301 V 4.1166992 q 0,1.0390625 -0.413574,1.5107422 -0.413574,0.4716797 -1.32959,0.4716797 -0.912598,0 -1.32959,-0.4716797 -0.413574,-0.4716797 -0.413574,-1.5107422 z m 4.258789,-3.21972654 h 1.083496 L 19.090576,4.6054687 V 0.89697266 h 0.888672 V 6 h -1.07666 L 17.473877,2.2915039 V 6 H 16.585205 Z M 24.145752,6 H 20.967041 V 0.89697266 h 3.178711 V 1.7856445 h -2.17041 v 1.100586 h 1.965332 v 0.8886718 h -1.965332 v 1.3364258 h 2.17041 z m 8.370605,-0.1469727 q -0.239257,0.1230469 -0.502441,0.1845704 -0.263184,0.061523 -0.553711,0.061523 -1.032226,0 -1.575684,-0.6801758 -0.543457,-0.6801758 -0.543457,-1.965332 0,-1.2885742 0.543457,-1.96875 0.543458,-0.6801758 1.575684,-0.6801758 0.290527,0 0.557129,0.0615234 0.266602,0.0615234 0.499023,0.18457026 V 2.171875 q -0.259765,-0.2392578 -0.505859,-0.3486328 -0.242676,-0.112793 -0.502441,-0.112793 -0.553711,0 -0.837403,0.440918 -0.280273,0.4375 -0.280273,1.3022461 0,0.8613281 0.280273,1.3022461 0.283692,0.4375 0.837403,0.4375 0.259765,0 0.502441,-0.109375 0.246094,-0.112793 0.505859,-0.3520508 z m 2.625,-0.6938476 0.898926,-4.26220704 H 37.05542 L 35.842041,6 H 34.444092 L 33.230713,0.89697266 h 1.015137 z"
         id="TUNE-CV"
         style="font-weight:bold;font-size:7px;font-family:BitstreamVeraSansMono-Bold, 'Bitstream Vera Sans Mono';fill:#ffffff;fill-rule:nonzero"
         aria-label="TUNE CV" />
      <path
         d="M 15.851563,56 H 14.699219 V 51.175781 H 13.21875 v -1.007812 h 4.113281 v 1.007812 h -1.480468 z m 2.246093,-2.152344 V 50.167969 H 19.25 v 3.96875 q 0,0.4375 0.222656,0.6875 0.222656,0.246093 0.617188,0.246093 0.394531,0 0.617187,-0.246093 0.222656,-0.25 0.222656,-0.6875 v -3.96875 h 1.152344 v 3.679687 q 0,1.1875 -0.472656,1.726563 -0.472656,0.539062 -1.519531,0.539062 -1.042969,0 -1.519532,-0.539062 -0.472656,-0.539063 -0.472656,-1.726563 z m 4.867188,-3.679687 h 1.238281 l 1.625,4.238281 V 50.167969 H 26.84375 V 56 H 25.613281 L 23.980469,51.761719 V 56 H 22.964844 Z M 31.605469,56 h -3.632813 v -5.832031 h 3.632813 v 1.015625 H 29.125 v 1.257812 h 2.246094 v 1.015625 H 29.125 v 1.527344 h 2.480469 z"
         id="TUNE"
         style="font-weight:bold;font-size:8px;font-family:BitstreamVeraSansMono-Bold, 'Bitstream Vera Sans Mono';fill:#ffffff;fill-rule:nonzero"
         aria-label="TUNE" />
      <g
         id="g171-copy-2"
         stroke-linecap="square"
         transform="translate(7.0541, 13.8902)"
         stroke="#FFFFFF">
        <line
           x1="29.658301"
           y1="9.09094963"
           x2="1.73376015"
           y2="22.5528747"
           id="line8" />
        <g
           id="g12"
           transform="translate(1.2601, 15.6345)">
          <line
             x1="2.47319257"
             y1="4.45201695"
             x2="1.04269377"
             y2="5.02606315"
             id="line9" />
          <line
             x1="1.98198707"
             y1="3.19660775"
             x2="0.53608627"
             y2="3.63675185"
             id="line10" />
          <line
             x1="1.65575347"
             y1="1.93463315"
             x2="0.16741538"
             y2="2.18088475"
             id="line11" />
          <line
             x1="1.55466977"
             y1="0.44842175"
             x2="2.22044605e-16"
             y2="0.55157825"
             id="line12" />
        </g>
        <line
           x1="-1.22124533e-15"
           y1="14.7618631"
           x2="31.1520242"
           y2="15.436476"
           id="line13" />
        <g
           id="g17"
           transform="translate(2.681, 11.1975) rotate(32) translate(-2.681, -11.1975)translate(1.4444, 8.578)">
          <line
             x1="2.47319257"
             y1="4.45201695"
             x2="1.04269377"
             y2="5.02606315"
             id="line14" />
          <line
             x1="1.98198707"
             y1="3.19660775"
             x2="0.53608627"
             y2="3.63675185"
             id="line15" />
          <line
             x1="1.65575347"
             y1="1.93463315"
             x2="0.16741538"
             y2="2.18088475"
             id="line16" />
          <line
             x1="1.55466977"
             y1="0.44842175"
             x2="2.22044605e-16"
             y2="0.55157825"
             id="line17" />
        </g>
        <line
           x1="2.53225343"
           y1="6.85252956"
           x2="29.0043477"
           y2="23.4402493"
           id="line18" />
        <g
           id="g22"
           transform="translate(6.5627, 5.171) rotate(62) translate(-6.5627, -5.171)translate(5.3261, 2.5514)">
          <line
             x1="2.47319254"
             y1="4.45201684"
             x2="1.0426937"
             y2="5.0260631"
             id="line19" />
          <line
             x1="1.98198709"
             y1="3.19660765"
             x2="0.536086272"
             y2="3.63675173"
             id="line20" />
          <line
             x1="1.65575353"
             y1="1.93463319"
             x2="0.167415398"
             y2="2.1808848"
             id="line21" />
          <line
             x1="1.55466977"
             y1="0.448421775"
             x2="0"
             y2="0.551578225"
             id="line22" />
        </g>
        <line
           x1="8.8106677"
           y1="1.40066909"
           x2="10.6234699"
           y2="5.09475774"
           id="line23" />
        <g
           id="g27"
           transform="translate(13.0503, 2.1023) rotate(92) translate(-13.0503, -2.1023)translate(11.8137, -0.5172)">
          <line
             x1="2.47319254"
             y1="4.45201684"
             x2="1.0426937"
             y2="5.0260631"
             id="line24" />
          <line
             x1="1.98198709"
             y1="3.19660765"
             x2="0.536086272"
             y2="3.63675173"
             id="line25" />
          <line
             x1="1.65575353"
             y1="1.93463319"
             x2="0.167415398"
             y2="2.1808848"
             id="line26" />
          <line
             x1="1.55466977"
             y1="0.448421775"
             x2="0"
             y2="0.551578225"
             id="line27" />
        </g>
        <line
           x1="16.4371588"
           y1="2.57657148"
           x2="16.6961187"
           y2="-5.55111512e-16"
           id="line28" />
        <g
           id="g32"
           transform="translate(20.1897, 2.5822) rotate(123) translate(-20.1897, -2.5822)translate(18.9531, -0.0373)">
          <line
             x1="2.47319254"
             y1="4.45201684"
             x2="1.0426937"
             y2="5.0260631"
             id="line29" />
          <line
             x1="1.98198709"
             y1="3.19660765"
             x2="0.536086272"
             y2="3.63675173"
             id="line30" />
          <line
             x1="1.65575353"
             y1="1.93463319"
             x2="0.167415398"
             y2="2.1808848"
             id="line31" />
          <line
             x1="1.55466977"
             y1="0.448421775"
             x2="0"
             y2="0.551578225"
             id="line32" />
        </g>
        <line
           x1="24.4672037"
           y1="2.78686002"
           x2="22.7560333"
           y2="5.09475774"
           id="line33" />
        <g
           id="g37"
           transform="translate(26.1671, 6.8017) rotate(152) translate(-26.1671, -6.8017)translate(24.9305, 4.1822)">
          <line
             x1="2.47319254"
             y1="4.45201684"
             x2="1.0426937"
             y2="5.0260631"
             id="line34" />
          <line
             x1="1.98198709"
             y1="3.19660765"
             x2="0.536086272"
             y2="3.63675173"
             id="line35" />
          <line
             x1="1.65575353"
             y1="1.93463319"
             x2="0.167415398"
             y2="2.1808848"
             id="line36" />
          <line
             x1="1.55466977"
             y1="0.448421775"
             x2="0"
             y2="0.551578225"
             id="line37" />
        </g>
        <g
           id="g40"
           transform="translate(29.0536, 12.5353) rotate(-175) translate(-29.0536, -12.5353)translate(27.9007, 10.6782)">
          <line
             x1="2.30577714"
             y1="2.92726911"
             x2="0.875278301"
             y2="3.50131537"
             id="line38" />
          <line
             x1="1.8145717"
             y1="1.67185992"
             x2="0.368670871"
             y2="2.112004"
             id="line39" />
          <line
             x1="1.48448767"
             y1="0.343862925"
             x2="0"
             y2="0.656137076"
             id="line40" />
        </g>
        <g
           id="g44"
           transform="translate(28.6957, 19.0779) rotate(-152) translate(-28.6957, -19.0779)translate(27.4591, 16.4584)">
          <line
             x1="2.47319254"
             y1="4.45201684"
             x2="1.0426937"
             y2="5.0260631"
             id="line41" />
          <line
             x1="1.98198709"
             y1="3.19660765"
             x2="0.536086272"
             y2="3.63675173"
             id="line42" />
          <line
             x1="1.65575353"
             y1="1.93463319"
             x2="0.167415398"
             y2="2.1808848"
             id="line43" />
          <line
             x1="1.55466977"
             y1="0.448421775"
             x2="0"
             y2="0.551578225"
             id="line44" />
        </g>
      </g>
      <circle
         id="circle171-copy-2"
         fill="#FFFFFF"
         fill-rule="nonzero"
         cx="22.7197169"
         cy="29.0183935"
         r="12.561" />
    </g>
    <g
       id="select-cv-2"
       transform="translate(0, 246)">
      <path
         d="M 5.2785645,3.7612305 Q 4.5163574,3.4707031 4.2463379,3.152832 3.9763184,2.831543 3.9763184,2.2915039 q 0,-0.6938477 0.4443359,-1.090332 0.4443359,-0.3964844 1.2202148,-0.3964844 0.3520508,0 0.7041016,0.0820313 0.3520508,0.0786133 0.6972656,0.23583985 v 0.984375 Q 6.7175293,1.8779297 6.3825684,1.7583008 6.0476074,1.6386719 5.7194824,1.6386719 q -0.3657226,0 -0.5605469,0.1469726 -0.1948242,0.1469727 -0.1948242,0.4204102 0,0.2119141 0.1401367,0.3520508 0.1435547,0.1367187 0.5947266,0.3041992 l 0.434082,0.1640625 q 0.6152344,0.2255859 0.9057618,0.5981445 0.2905273,0.3725586 0.2905273,0.9399414 0,0.772461 -0.4580078,1.1552735 -0.4545899,0.3793945 -1.3774414,0.3793945 -0.3793945,0 -0.762207,-0.092285 Q 4.3522949,5.9179687 3.9968262,5.7402344 V 4.6977539 Q 4.4001465,4.9848633 4.776123,5.125 q 0.3793946,0.1401367 0.7485352,0.1401367 0.3725586,0 0.5776367,-0.1674805 Q 6.307373,4.9267578 6.307373,4.6225586 6.307373,4.3935547 6.1706543,4.2226562 6.0339355,4.0483398 5.7741699,3.9492188 Z M 11.502686,6 H 8.3239746 V 0.89697266 H 11.502686 V 1.7856445 H 9.3322754 v 1.100586 H 11.297607 V 3.7749023 H 9.3322754 v 1.3364258 h 2.1704106 z m 1.230468,0 V 0.89697266 h 1.008301 V 5.1113281 h 2.156738 V 6 Z m 7.198242,0 h -3.17871 V 0.89697266 h 3.17871 V 1.7856445 h -2.17041 v 1.100586 h 1.965332 v 0.8886718 h -1.965332 v 1.3364258 h 2.17041 z m 4.15625,-0.1469727 q -0.239257,0.1230469 -0.502441,0.1845704 -0.263184,0.061523 -0.553711,0.061523 -1.032226,0 -1.575683,-0.6801758 -0.543457,-0.6801758 -0.543457,-1.965332 0,-1.2885742 0.543457,-1.96875 0.543457,-0.6801758 1.575683,-0.6801758 0.290527,0 0.557129,0.0615234 0.266602,0.0615234 0.499023,0.18457026 V 2.171875 q -0.259765,-0.2392578 -0.505859,-0.3486328 -0.242676,-0.112793 -0.502441,-0.112793 -0.553711,0 -0.837403,0.440918 -0.280273,0.4375 -0.280273,1.3022461 0,0.8613281 0.280273,1.3022461 0.283692,0.4375 0.837403,0.4375 0.259765,0 0.502441,-0.109375 0.246094,-0.112793 0.505859,-0.3520508 z M 27.218506,6 H 26.210205 V 1.7788086 h -1.29541 V 0.89697266 h 3.599121 V 1.7788086 h -1.29541 z m 9.512207,-0.1469727 q -0.239258,0.1230469 -0.502442,0.1845704 -0.263183,0.061523 -0.55371,0.061523 -1.032227,0 -1.575684,-0.6801758 -0.543457,-0.6801758 -0.543457,-1.965332 0,-1.2885742 0.543457,-1.96875 0.543457,-0.6801758 1.575684,-0.6801758 0.290527,0 0.557128,0.0615234 0.266602,0.0615234 0.499024,0.18457026 V 2.171875 q -0.259766,-0.2392578 -0.505859,-0.3486328 -0.242676,-0.112793 -0.502442,-0.112793 -0.553711,0 -0.837402,0.440918 -0.280274,0.4375 -0.280274,1.3022461 0,0.8613281 0.280274,1.3022461 0.283691,0.4375 0.837402,0.4375 0.259766,0 0.502442,-0.109375 0.246093,-0.112793 0.505859,-0.3520508 z m 2.625,-0.6938476 0.898926,-4.26220704 h 1.015136 L 40.056396,6 H 38.658447 L 37.445068,0.89697266 h 1.015137 z"
         id="SELECT-CV"
         style="font-weight:bold;font-size:7px;font-family:BitstreamVeraSansMono-Bold, 'Bitstream Vera Sans Mono';fill:#ffffff;fill-rule:nonzero"
         aria-label="SELECT CV" />
      <path
         d="M 10.042969,53.441406 Q 9.171875,53.109375 8.8632813,52.746094 8.5546875,52.378906 8.5546875,51.761719 q 0,-0.792969 0.5078125,-1.246094 0.5078125,-0.453125 1.394531,-0.453125 0.402344,0 0.804688,0.09375 0.402344,0.08984 0.796875,0.269531 v 1.125 q -0.371094,-0.261719 -0.753906,-0.398437 -0.382813,-0.136719 -0.757813,-0.136719 -0.417969,0 -0.640625,0.167969 -0.2226562,0.167968 -0.2226562,0.480468 0,0.242188 0.1601562,0.402344 0.164063,0.15625 0.679688,0.347656 l 0.496093,0.1875 q 0.703125,0.257813 1.035157,0.683594 0.332031,0.425781 0.332031,1.074219 0,0.882812 -0.523438,1.320312 -0.519531,0.433594 -1.574218,0.433594 -0.4335942,0 -0.8710942,-0.105469 Q 8.984375,55.90625 8.578125,55.703125 V 54.511719 Q 9.0390625,54.839844 9.46875,55 q 0.4335938,0.160156 0.855469,0.160156 0.425781,0 0.660156,-0.191406 0.234375,-0.195313 0.234375,-0.542969 0,-0.261719 -0.15625,-0.457031 -0.15625,-0.199219 -0.453125,-0.3125 z M 17.15625,56 h -3.632812 v -5.832031 h 3.632812 v 1.015625 h -2.480469 v 1.257812 h 2.246094 v 1.015625 h -2.246094 v 1.527344 h 2.480469 z m 1.40625,0 v -5.832031 h 1.152344 v 4.816406 h 2.464843 V 56 Z m 8.226562,0 H 23.15625 v -5.832031 h 3.632812 v 1.015625 h -2.480468 v 1.257812 h 2.246093 v 1.015625 h -2.246093 v 1.527344 h 2.480468 z m 4.75,-0.167969 q -0.273437,0.140625 -0.574218,0.210938 -0.300782,0.07031 -0.632813,0.07031 -1.179687,0 -1.800781,-0.777344 -0.621094,-0.777343 -0.621094,-2.246093 0,-1.472657 0.621094,-2.25 0.621094,-0.777344 1.800781,-0.777344 0.332031,0 0.636719,0.07031 0.304687,0.07031 0.570312,0.210938 V 51.625 q -0.296875,-0.273438 -0.578125,-0.398438 -0.277343,-0.128906 -0.574218,-0.128906 -0.632813,0 -0.957032,0.503906 -0.320312,0.5 -0.320312,1.488282 0,0.984375 0.320312,1.488281 0.324219,0.5 0.957032,0.5 0.296875,0 0.574218,-0.125 0.28125,-0.128906 0.578125,-0.402344 z M 35.117187,56 h -1.152343 v -4.824219 h -1.480469 v -1.007812 h 4.113281 v 1.007812 h -1.480469 z"
         id="SELECT"
         style="font-weight:bold;font-size:8px;font-family:BitstreamVeraSansMono-Bold, 'Bitstream Vera Sans Mono';fill:#ffffff;fill-rule:nonzero"
         aria-label="SELECT" />
      <g
         id="g211-copy"
         stroke-linecap="square"
         transform="translate(7.8686, 14.5106)"
         stroke="#FFFFFF">
        <line
           x1="-6.3512021e-16"
           y1="12.7884789"
           x2="29.6608486"
           y2="16.6060844"
           id="line200" />
        <line
           x1="0.946263213"
           y1="9.25697656"
           x2="28.7617788"
           y2="20.4951744"
           id="line201" />
        <line
           x1="3.0068755"
           y1="5.61416931"
           x2="24.563576"
           y2="21.1756258"
           id="line202"
           stroke-width="0.961562" />
        <line
           x1="5.8069263"
           y1="2.87667371"
           x2="22.204426"
           y2="23.5362518"
           id="line203"
           stroke-width="0.971604" />
        <line
           x1="23.909262"
           y1="2.86852791"
           x2="7.3294683"
           y2="23.2641098"
           id="line204"
           stroke-width="0.960013" />
        <line
           x1="26.679623"
           y1="5.55223771"
           x2="5.0068092"
           y2="20.9306768"
           id="line205"
           stroke-width="0.944838" />
        <line
           x1="28.6615938"
           y1="9.01510853"
           x2="0.821367052"
           y2="20.5672819"
           id="line206" />
        <line
           x1="29.7080421"
           y1="12.7884789"
           x2="3.84447308e-14"
           y2="16.7916995"
           id="line207" />
        <line
           x1="19.745462"
           y1="25.2724848"
           x2="9.0795755"
           y2="1.01198681"
           id="line208"
           stroke-width="0.979232" />
        <line
           x1="16.781647"
           y1="26.1754968"
           x2="12.926396"
           y2="-8.70831185e-16"
           id="line209"
           stroke-width="0.982013" />
        <line
           x1="12.930611"
           y1="26.6373128"
           x2="16.777431"
           y2="0.0042145928"
           id="line210"
           stroke-width="0.989476" />
        <line
           x1="10.084656"
           y1="25.3738188"
           x2="20.390083"
           y2="0.916457341"
           id="line211"
           stroke-width="0.978248" />
      </g>
      <ellipse
         id="circle211-copy"
         fill="#FFFFFF"
         fill-rule="nonzero"
         cx="22.6456289"
         cy="28.9978685"
         rx="12.635"
         ry="12.775771" />
    </g>
    <rect
       id="title-bg-2"
       fill="#65263C"
       x="0"
       y="190"
       width="135"
       height="20" />
    <path
       d="m 24.148437,196.19531 q -0.882812,0 -1.289062,0.94531 -0.40625,0.9375 -0.40625,3.03907 0,2.09375 0.40625,3.03906 0.40625,0.9375 1.289062,0.9375 0.890625,0 1.296875,-0.9375 0.40625,-0.94531 0.40625,-3.03906 0,-2.10157 -0.40625,-3.03907 -0.40625,-0.94531 -1.296875,-0.94531 z m -4.09375,3.98438 q 0,-2.99219 1.03125,-4.52344 1.039063,-1.53125 3.0625,-1.53125 2.03125,0 3.0625,1.53125 1.039063,1.53125 1.039063,4.52344 0,2.98437 -1.039063,4.51562 -1.03125,1.53125 -3.0625,1.53125 -2.023437,0 -3.0625,-1.53125 -1.03125,-1.53125 -1.03125,-4.51562 z m 12.484375,-3.90625 v 3.42187 h 0.945313 q 1.132812,0 1.585937,-0.38281 0.460938,-0.38281 0.460938,-1.32813 0,-0.94531 -0.460938,-1.32812 -0.453125,-0.38281 -1.585937,-0.38281 z m -2.304687,-1.9375 h 3.164062 q 2.414063,0 3.46875,0.85937 1.0625,0.85938 1.0625,2.78906 0,1.92969 -1.0625,2.78907 -1.054687,0.85937 -3.46875,0.85937 H 32.539062 V 206 H 30.234375 Z M 47.179687,206 h -7.265625 v -11.66406 h 7.265625 v 2.03125 H 42.21875 v 2.51562 h 4.492187 v 2.03125 H 42.21875 v 3.05469 h 4.960937 z m 1.984375,-11.66406 h 2.476563 l 3.25,8.47656 v -8.47656 h 2.03125 V 206 h -2.460938 l -3.265625,-8.47656 V 206 h -2.03125 z m 19.40625,0 H 70.875 v 4.44531 h 2.882812 v -4.44531 H 76.0625 V 206 h -2.304688 v -5.1875 H 70.875 V 206 h -2.304688 z m 9.90625,2.03125 v -2.03125 h 6.945313 v 2.03125 h -2.320313 v 7.60156 h 2.320313 V 206 h -6.945313 v -2.03125 h 2.320313 v -7.60156 z m 9.359375,-2.03125 h 2.304688 v 4.44531 h 2.882812 v -4.44531 h 2.304688 V 206 h -2.304688 v -5.1875 H 90.140625 V 206 h -2.304688 z m 13.375003,2.10937 -1.08594,4.77344 h 2.17969 z m -1.406253,-2.10937 H 102.625 L 105.77344,206 h -2.30469 L 102.75,203.11719 H 99.664062 L 98.960937,206 H 96.65625 Z M 112,206 h -2.30469 v -9.64844 h -2.96093 v -2.01562 h 8.22656 v 2.01562 H 112 Z"
       id="OPEN-HIHAT"
       style="font-weight:bold;font-size:16px;font-family:BitstreamVeraSansMono-Bold, 'Bitstream Vera Sans Mono';fill:#ffffff;fill-rule:nonzero"
       aria-label="OPEN HIHAT" />
    <path
       d="m 16.273437,150.94531 v -1.11328 h -0.789062 v -0.96875 h 1.796875 v 2.67188 q -0.332031,0.28515 -0.734375,0.43359 -0.398438,0.14453 -0.855469,0.14453 -1.132812,0 -1.75,-0.78516 -0.617187,-0.78906 -0.617187,-2.23828 0,-1.47265 0.621094,-2.25 0.625,-0.77734 1.800781,-0.77734 0.351562,0 0.691406,0.10156 0.339844,0.0977 0.636719,0.28516 v 1.27734 q -0.242188,-0.3125 -0.558594,-0.46875 -0.3125,-0.16015 -0.6875,-0.16015 -0.65625,0 -0.980469,0.49609 -0.324218,0.49219 -0.324218,1.49609 0,0.97266 0.3125,1.48047 0.3125,0.50781 0.910156,0.50781 0.179687,0 0.3125,-0.0312 0.132812,-0.0352 0.214843,-0.10156 z m 3.816407,-3.72265 -0.542969,2.38671 h 1.089844 z m -0.703125,-1.05469 h 1.410156 L 22.371094,152 H 21.21875 l -0.359375,-1.44141 H 19.316406 L 18.964844,152 H 17.8125 Z M 25.484375,152 h -1.152344 v -4.82422 h -1.480469 v -1.00781 h 4.113282 v 1.00781 h -1.480469 z m 6.121094,0 h -3.632813 v -5.83203 h 3.632813 v 1.01562 H 29.125 v 1.25782 h 2.246094 v 1.01562 H 29.125 v 1.52734 h 2.480469 z"
       id="text47"
       style="font-weight:bold;font-size:8px;font-family:BitstreamVeraSansMono-Bold, 'Bitstream Vera Sans Mono';fill:#ffffff;fill-rule:nonzero"
       aria-label="GATE" />
    <path
       d="m 62.681641,147.09766 q -0.441407,0 -0.644532,0.47265 -0.203125,0.46875 -0.203125,1.51953 0,1.04688 0.203125,1.51953 0.203125,0.46875 0.644532,0.46875 0.445312,0 0.648437,-0.46875 0.203125,-0.47265 0.203125,-1.51953 0,-1.05078 -0.203125,-1.51953 -0.203125,-0.47265 -0.648437,-0.47265 z m -2.046875,1.99218 q 0,-1.49609 0.515625,-2.26172 0.519531,-0.76562 1.53125,-0.76562 1.015625,0 1.53125,0.76562 0.519531,0.76563 0.519531,2.26172 0,1.49219 -0.519531,2.25782 -0.515625,0.76562 -1.53125,0.76562 -1.011719,0 -1.53125,-0.76562 -0.515625,-0.76563 -0.515625,-2.25782 z m 4.871093,0.75782 v -3.67969 h 1.152344 v 3.96875 q 0,0.4375 0.222656,0.6875 0.222657,0.24609 0.617188,0.24609 0.394531,0 0.617187,-0.24609 0.222657,-0.25 0.222657,-0.6875 v -3.96875 h 1.152343 v 3.67969 q 0,1.1875 -0.472656,1.72656 -0.472656,0.53906 -1.519531,0.53906 -1.042969,0 -1.519531,-0.53906 -0.472657,-0.53906 -0.472657,-1.72656 z M 72.892578,152 h -1.152344 v -4.82422 h -1.480468 v -1.00781 h 4.113281 v 1.00781 h -1.480469 z"
       id="text48"
       style="font-weight:bold;font-size:8px;font-family:BitstreamVeraSansMono-Bold, 'Bitstream Vera Sans Mono';fill:#ffffff;fill-rule:nonzero"
       aria-label="OUT" />
    <g
       id="g87"
       transform="translate(45, 56)">
      <path
         d="M 10.361084,6 H 9.3527832 V 1.7788086 H 8.057373 V 0.89697266 h 3.599121 V 1.7788086 h -1.29541 z M 12.326416,4.1166992 V 0.89697266 h 1.008301 V 4.3696289 q 0,0.3828125 0.194824,0.6015625 0.194824,0.215332 0.540039,0.215332 0.345215,0 0.540039,-0.215332 0.194824,-0.21875 0.194824,-0.6015625 V 0.89697266 h 1.008301 V 4.1166992 q 0,1.0390625 -0.413574,1.5107422 -0.413574,0.4716797 -1.32959,0.4716797 -0.912598,0 -1.32959,-0.4716797 -0.413574,-0.4716797 -0.413574,-1.5107422 z m 4.258789,-3.21972654 h 1.083496 L 19.090576,4.6054687 V 0.89697266 h 0.888672 V 6 h -1.07666 L 17.473877,2.2915039 V 6 H 16.585205 Z M 24.145752,6 H 20.967041 V 0.89697266 h 3.178711 V 1.7856445 h -2.17041 v 1.100586 h 1.965332 v 0.8886718 h -1.965332 v 1.3364258 h 2.17041 z m 8.370605,-0.1469727 q -0.239257,0.1230469 -0.502441,0.1845704 -0.263184,0.061523 -0.553711,0.061523 -1.032226,0 -1.575684,-0.6801758 -0.543457,-0.6801758 -0.543457,-1.965332 0,-1.2885742 0.543457,-1.96875 0.543458,-0.6801758 1.575684,-0.6801758 0.290527,0 0.557129,0.0615234 0.266602,0.0615234 0.499023,0.18457026 V 2.171875 q -0.259765,-0.2392578 -0.505859,-0.3486328 -0.242676,-0.112793 -0.502441,-0.112793 -0.553711,0 -0.837403,0.440918 -0.280273,0.4375 -0.280273,1.3022461 0,0.8613281 0.280273,1.3022461 0.283692,0.4375 0.837403,0.4375 0.259765,0 0.502441,-0.109375 0.246094,-0.112793 0.505859,-0.3520508 z m 2.625,-0.6938476 0.898926,-4.26220704 H 37.05542 L 35.842041,6 H 34.444092 L 33.230713,0.89697266 h 1.015137 z"
         id="text49"
         style="font-weight:bold;font-size:7px;font-family:BitstreamVeraSansMono-Bold, 'Bitstream Vera Sans Mono';fill:#ffffff;fill-rule:nonzero"
         aria-label="TUNE CV" />
      <path
         d="M 15.851563,56 H 14.699219 V 51.175781 H 13.21875 v -1.007812 h 4.113281 v 1.007812 h -1.480468 z m 2.246093,-2.152344 V 50.167969 H 19.25 v 3.96875 q 0,0.4375 0.222656,0.6875 0.222656,0.246093 0.617188,0.246093 0.394531,0 0.617187,-0.246093 0.222656,-0.25 0.222656,-0.6875 v -3.96875 h 1.152344 v 3.679687 q 0,1.1875 -0.472656,1.726563 -0.472656,0.539062 -1.519531,0.539062 -1.042969,0 -1.519532,-0.539062 -0.472656,-0.539063 -0.472656,-1.726563 z m 4.867188,-3.679687 h 1.238281 l 1.625,4.238281 V 50.167969 H 26.84375 V 56 H 25.613281 L 23.980469,51.761719 V 56 H 22.964844 Z M 31.605469,56 h -3.632813 v -5.832031 h 3.632813 v 1.015625 H 29.125 v 1.257812 h 2.246094 v 1.015625 H 29.125 v 1.527344 h 2.480469 z"
         id="text50"
         style="font-weight:bold;font-size:8px;font-family:BitstreamVeraSansMono-Bold, 'Bitstream Vera Sans Mono';fill:#ffffff;fill-rule:nonzero"
         aria-label="TUNE" />
      <g
         id="g171-copy"
         stroke-linecap="square"
         transform="translate(7.0541, 13.8902)"
         stroke="#FFFFFF">
        <line
           x1="29.658301"
           y1="9.09094963"
           x2="1.73376015"
           y2="22.5528747"
           id="line50" />
        <g
           id="g54"
           transform="translate(1.2601, 15.6345)">
          <line
             x1="2.47319257"
             y1="4.45201695"
             x2="1.04269377"
             y2="5.02606315"
             id="line51" />
          <line
             x1="1.98198707"
             y1="3.19660775"
             x2="0.53608627"
             y2="3.63675185"
             id="line52" />
          <line
             x1="1.65575347"
             y1="1.93463315"
             x2="0.16741538"
             y2="2.18088475"
             id="line53" />
          <line
             x1="1.55466977"
             y1="0.44842175"
             x2="2.22044605e-16"
             y2="0.55157825"
             id="line54" />
        </g>
        <line
           x1="-1.22124533e-15"
           y1="14.7618631"
           x2="31.1520242"
           y2="15.436476"
           id="line55" />
        <g
           id="g59"
           transform="translate(2.681, 11.1975) rotate(32) translate(-2.681, -11.1975)translate(1.4444, 8.578)">
          <line
             x1="2.47319257"
             y1="4.45201695"
             x2="1.04269377"
             y2="5.02606315"
             id="line56" />
          <line
             x1="1.98198707"
             y1="3.19660775"
             x2="0.53608627"
             y2="3.63675185"
             id="line57" />
          <line
             x1="1.65575347"
             y1="1.93463315"
             x2="0.16741538"
             y2="2.18088475"
             id="line58" />
          <line
             x1="1.55466977"
             y1="0.44842175"
             x2="2.22044605e-16"
             y2="0.55157825"
             id="line59" />
        </g>
        <line
           x1="2.53225343"
           y1="6.85252956"
           x2="29.0043477"
           y2="23.4402493"
           id="line60" />
        <g
           id="g64"
           transform="translate(6.5627, 5.171) rotate(62) translate(-6.5627, -5.171)translate(5.3261, 2.5514)">
          <line
             x1="2.47319254"
             y1="4.45201684"
             x2="1.0426937"
             y2="5.0260631"
             id="line61" />
          <line
             x1="1.98198709"
             y1="3.19660765"
             x2="0.536086272"
             y2="3.63675173"
             id="line62" />
          <line
             x1="1.65575353"
             y1="1.93463319"
             x2="0.167415398"
             y2="2.1808848"
             id="line63" />
          <line
             x1="1.55466977"
             y1="0.448421775"
             x2="0"
             y2="0.551578225"
             id="line64" />
        </g>
        <line
           x1="8.8106677"
           y1="1.40066909"
           x2="10.6234699"
           y2="5.09475774"
           id="line65" />
        <g
           id="g69"
           transform="translate(13.0503, 2.1023) rotate(92) translate(-13.0503, -2.1023)translate(11.8137, -0.5172)">
          <line
             x1="2.47319254"
             y1="4.45201684"
             x2="1.0426937"
             y2="5.0260631"
             id="line66" />
          <line
             x1="1.98198709"
             y1="3.19660765"
             x2="0.536086272"
             y2="3.63675173"
             id="line67" />
          <line
             x1="1.65575353"
             y1="1.93463319"
             x2="0.167415398"
             y2="2.1808848"
             id="line68" />
          <line
             x1="1.55466977"
             y1="0.448421775"
             x2="0"
             y2="0.551578225"
             id="line69" />
        </g>
        <line
           x1="16.4371588"
           y1="2.57657148"
           x2="16.6961187"
           y2="-5.55111512e-16"
           id="line70" />
        <g
           id="g74"
           transform="translate(20.1897, 2.5822) rotate(123) translate(-20.1897, -2.5822)translate(18.9531, -0.0373)">
          <line
             x1="2.47319254"
             y1="4.45201684"
             x2="1.0426937"
             y2="5.0260631"
             id="line71" />
          <line
             x1="1.98198709"
             y1="3.19660765"
             x2="0.536086272"
             y2="3.63675173"
             id="line72" />
          <line
             x1="1.65575353"
             y1="1.93463319"
             x2="0.167415398"
             y2="2.1808848"
             id="line73" />
          <line
             x1="1.55466977"
             y1="0.448421775"
             x2="0"
             y2="0.551578225"
             id="line74" />
        </g>
        <line
           x1="24.4672037"
           y1="2.78686002"
           x2="22.7560333"
           y2="5.09475774"
           id="line75" />
        <g
           id="g79"
           transform="translate(26.1671, 6.8017) rotate(152) translate(-26.1671, -6.8017)translate(24.9305, 4.1822)">
          <line
             x1="2.47319254"
             y1="4.45201684"
             x2="1.0426937"
             y2="5.0260631"
             id="line76" />
          <line
             x1="1.98198709"
             y1="3.19660765"
             x2="0.536086272"
             y2="3.63675173"
             id="line77" />
          <line
             x1="1.65575353"
             y1="1.93463319"
             x2="0.167415398"
             y2="2.1808848"
             id="line78" />
          <line
             x1="1.55466977"
             y1="0.448421775"
             x2="0"
             y2="0.551578225"
             id="line79" />
        </g>
        <g
           id="g82"
           transform="translate(29.0536, 12.5353) rotate(-175) translate(-29.0536, -12.5353)translate(27.9007, 10.6782)">
          <line
             x1="2.30577714"
             y1="2.92726911"
             x2="0.875278301"
             y2="3.50131537"
             id="line80" />
          <line
             x1="1.8145717"
             y1="1.67185992"
             x2="0.368670871"
             y2="2.112004"
             id="line81" />
          <line
             x1="1.48448767"
             y1="0.343862925"
             x2="0"
             y2="0.656137076"
             id="line82" />
        </g>
        <g
           id="g86"
           transform="translate(28.6957, 19.0779) rotate(-152) translate(-28.6957, -19.0779)translate(27.4591, 16.4584)">
          <line
             x1="2.47319254"
             y1="4.45201684"
             x2="1.0426937"
             y2="5.0260631"
             id="line83" />
          <line
             x1="1.98198709"
             y1="3.19660765"
             x2="0.536086272"
             y2="3.63675173"
             id="line84" />
          <line
             x1="1.65575353"
             y1="1.93463319"
             x2="0.167415398"
             y2="2.1808848"
             id="line85" />
          <line
             x1="1.55466977"
             y1="0.448421775"
             x2="0"
             y2="0.551578225"
             id="line86" />
        </g>
      </g>
      <circle
         id="circle171-copy"
         fill="#FFFFFF"
         fill-rule="nonzero"
         cx="22.7197169"
         cy="29.0183935"
         r="12.561" />
    </g>
    <g
       id="select-cv-1"
       transform="translate(0, 56)">
      <path
         d="M 5.2785645,3.7612305 Q 4.5163574,3.4707031 4.2463379,3.152832 3.9763184,2.831543 3.9763184,2.2915039 q 0,-0.6938477 0.4443359,-1.090332 0.4443359,-0.3964844 1.2202148,-0.3964844 0.3520508,0 0.7041016,0.0820313 0.3520508,0.0786133 0.6972656,0.23583985 v 0.984375 Q 6.7175293,1.8779297 6.3825684,1.7583008 6.0476074,1.6386719 5.7194824,1.6386719 q -0.3657226,0 -0.5605469,0.1469726 -0.1948242,0.1469727 -0.1948242,0.4204102 0,0.2119141 0.1401367,0.3520508 0.1435547,0.1367187 0.5947266,0.3041992 l 0.434082,0.1640625 q 0.6152344,0.2255859 0.9057618,0.5981445 0.2905273,0.3725586 0.2905273,0.9399414 0,0.772461 -0.4580078,1.1552735 -0.4545899,0.3793945 -1.3774414,0.3793945 -0.3793945,0 -0.762207,-0.092285 Q 4.3522949,5.9179687 3.9968262,5.7402344 V 4.6977539 Q 4.4001465,4.9848633 4.776123,5.125 q 0.3793946,0.1401367 0.7485352,0.1401367 0.3725586,0 0.5776367,-0.1674805 Q 6.307373,4.9267578 6.307373,4.6225586 6.307373,4.3935547 6.1706543,4.2226562 6.0339355,4.0483398 5.7741699,3.9492188 Z M 11.502686,6 H 8.3239746 V 0.89697266 H 11.502686 V 1.7856445 H 9.3322754 v 1.100586 H 11.297607 V 3.7749023 H 9.3322754 v 1.3364258 h 2.1704106 z m 1.230468,0 V 0.89697266 h 1.008301 V 5.1113281 h 2.156738 V 6 Z m 7.198242,0 h -3.17871 V 0.89697266 h 3.17871 V 1.7856445 h -2.17041 v 1.100586 h 1.965332 v 0.8886718 h -1.965332 v 1.3364258 h 2.17041 z m 4.15625,-0.1469727 q -0.239257,0.1230469 -0.502441,0.1845704 -0.263184,0.061523 -0.553711,0.061523 -1.032226,0 -1.575683,-0.6801758 -0.543457,-0.6801758 -0.543457,-1.965332 0,-1.2885742 0.543457,-1.96875 0.543457,-0.6801758 1.575683,-0.6801758 0.290527,0 0.557129,0.0615234 0.266602,0.0615234 0.499023,0.18457026 V 2.171875 q -0.259765,-0.2392578 -0.505859,-0.3486328 -0.242676,-0.112793 -0.502441,-0.112793 -0.553711,0 -0.837403,0.440918 -0.280273,0.4375 -0.280273,1.3022461 0,0.8613281 0.280273,1.3022461 0.283692,0.4375 0.837403,0.4375 0.259765,0 0.502441,-0.109375 0.246094,-0.112793 0.505859,-0.3520508 z M 27.218506,6 H 26.210205 V 1.7788086 h -1.29541 V 0.89697266 h 3.599121 V 1.7788086 h -1.29541 z m 9.512207,-0.1469727 q -0.239258,0.1230469 -0.502442,0.1845704 -0.263183,0.061523 -0.55371,0.061523 -1.032227,0 -1.575684,-0.6801758 -0.543457,-0.6801758 -0.543457,-1.965332 0,-1.2885742 0.543457,-1.96875 0.543457,-0.6801758 1.575684,-0.6801758 0.290527,0 0.557128,0.0615234 0.266602,0.0615234 0.499024,0.18457026 V 2.171875 q -0.259766,-0.2392578 -0.505859,-0.3486328 -0.242676,-0.112793 -0.502442,-0.112793 -0.553711,0 -0.837402,0.440918 -0.280274,0.4375 -0.280274,1.3022461 0,0.8613281 0.280274,1.3022461 0.283691,0.4375 0.837402,0.4375 0.259766,0 0.502442,-0.109375 0.246093,-0.112793 0.505859,-0.3520508 z m 2.625,-0.6938476 0.898926,-4.26220704 h 1.015136 L 40.056396,6 H 38.658447 L 37.445068,0.89697266 h 1.015137 z"
         id="text87"
         style="font-weight:bold;font-size:7px;font-family:BitstreamVeraSansMono-Bold, 'Bitstream Vera Sans Mono';fill:#ffffff;fill-rule:nonzero"
         aria-label="SELECT CV" />
      <path
         d="M 10.042969,53.441406 Q 9.171875,53.109375 8.8632813,52.746094 8.5546875,52.378906 8.5546875,51.761719 q 0,-0.792969 0.5078125,-1.246094 0.5078125,-0.453125 1.394531,-0.453125 0.402344,0 0.804688,0.09375 0.402344,0.08984 0.796875,0.269531 v 1.125 q -0.371094,-0.261719 -0.753906,-0.398437 -0.382813,-0.136719 -0.757813,-0.136719 -0.417969,0 -0.640625,0.167969 -0.2226562,0.167968 -0.2226562,0.480468 0,0.242188 0.1601562,0.402344 0.164063,0.15625 0.679688,0.347656 l 0.496093,0.1875 q 0.703125,0.257813 1.035157,0.683594 0.332031,0.425781 0.332031,1.074219 0,0.882812 -0.523438,1.320312 -0.519531,0.433594 -1.574218,0.433594 -0.4335942,0 -0.8710942,-0.105469 Q 8.984375,55.90625 8.578125,55.703125 V 54.511719 Q 9.0390625,54.839844 9.46875,55 q 0.4335938,0.160156 0.855469,0.160156 0.425781,0 0.660156,-0.191406 0.234375,-0.195313 0.234375,-0.542969 0,-0.261719 -0.15625,-0.457031 -0.15625,-0.199219 -0.453125,-0.3125 z M 17.15625,56 h -3.632812 v -5.832031 h 3.632812 v 1.015625 h -2.480469 v 1.257812 h 2.246094 v 1.015625 h -2.246094 v 1.527344 h 2.480469 z m 1.40625,0 v -5.832031 h 1.152344 v 4.816406 h 2.464843 V 56 Z m 8.226562,0 H 23.15625 v -5.832031 h 3.632812 v 1.015625 h -2.480468 v 1.257812 h 2.246093 v 1.015625 h -2.246093 v 1.527344 h 2.480468 z m 4.75,-0.167969 q -0.273437,0.140625 -0.574218,0.210938 -0.300782,0.07031 -0.632813,0.07031 -1.179687,0 -1.800781,-0.777344 -0.621094,-0.777343 -0.621094,-2.246093 0,-1.472657 0.621094,-2.25 0.621094,-0.777344 1.800781,-0.777344 0.332031,0 0.636719,0.07031 0.304687,0.07031 0.570312,0.210938 V 51.625 q -0.296875,-0.273438 -0.578125,-0.398438 -0.277343,-0.128906 -0.574218,-0.128906 -0.632813,0 -0.957032,0.503906 -0.320312,0.5 -0.320312,1.488282 0,0.984375 0.320312,1.488281 0.324219,0.5 0.957032,0.5 0.296875,0 0.574218,-0.125 0.28125,-0.128906 0.578125,-0.402344 z M 35.117187,56 h -1.152343 v -4.824219 h -1.480469 v -1.007812 h 4.113281 v 1.007812 h -1.480469 z"
         id="text88"
         style="font-weight:bold;font-size:8px;font-family:BitstreamVeraSansMono-Bold, 'Bitstream Vera Sans Mono';fill:#ffffff;fill-rule:nonzero"
         aria-label="SELECT" />
      <g
         id="g211"
         stroke-linecap="square"
         transform="translate(7.8686, 14.5106)"
         stroke="#FFFFFF">
        <line
           x1="-6.3512021e-16"
           y1="12.7884789"
           x2="29.6608486"
           y2="16.6060844"
           id="line88" />
        <line
           x1="0.946263213"
           y1="9.25697656"
           x2="28.7617788"
           y2="20.4951744"
           id="line89" />
        <line
           x1="3.0068755"
           y1="5.61416931"
           x2="24.563576"
           y2="21.1756258"
           id="line90"
           stroke-width="0.961562" />
        <line
           x1="5.8069263"
           y1="2.87667371"
           x2="22.204426"
           y2="23.5362518"
           id="line91"
           stroke-width="0.971604" />
        <line
           x1="23.909262"
           y1="2.86852791"
           x2="7.3294683"
           y2="23.2641098"
           id="line92"
           stroke-width="0.960013" />
        <line
           x1="26.679623"
           y1="5.55223771"
           x2="5.0068092"
           y2="20.9306768"
           id="line93"
           stroke-width="0.944838" />
        <line
           x1="28.6615938"
           y1="9.01510853"
           x2="0.821367052"
           y2="20.5672819"
           id="line94" />
        <line
           x1="29.7080421"
           y1="12.7884789"
           x2="3.84447308e-14"
           y2="16.7916995"
           id="line95" />
        <line
           x1="19.745462"
           y1="25.2724848"
           x2="9.0795755"
           y2="1.01198681"
           id="line96"
           stroke-width="0.979232" />
        <line
           x1="16.781647"
           y1="26.1754968"
           x2="12.926396"
           y2="-8.70831185e-16"
           id="line97"
           stroke-width="0.982013" />
        <line
           x1="12.930611"
           y1="26.6373128"
           x2="16.777431"
           y2="0.0042145928"
           id="line98"
           stroke-width="0.989476" />
        <line
           x1="10.084656"
           y1="25.3738188"
           x2="20.390083"
           y2="0.916457341"
           id="line99"
           stroke-width="0.978248" />
      </g>
      <ellipse
         id="circle211"
         fill="#FFFFFF"
         fill-rule="nonzero"
         cx="22.6456289"
         cy="28.9978685"
         rx="12.635"
         ry="12.775771" />
    </g>
    <g
       id="choke"
       transform="translate(92.0808, 56)">
      <path
         d="m 19.773003,5.8530273 q -0.239258,0.1230469 -0.502442,0.1845704 -0.263183,0.061523 -0.553711,0.061523 -1.032226,0 -1.575683,-0.6801758 -0.543457,-0.6801758 -0.543457,-1.965332 0,-1.2885742 0.543457,-1.96875 0.543457,-0.6801758 1.575683,-0.6801758 0.290528,0 0.557129,0.0615234 0.266602,0.0615234 0.499024,0.18457026 V 2.171875 q -0.259766,-0.2392578 -0.50586,-0.3486328 -0.242676,-0.112793 -0.502441,-0.112793 -0.553711,0 -0.837403,0.440918 -0.280273,0.4375 -0.280273,1.3022461 0,0.8613281 0.280273,1.3022461 0.283692,0.4375 0.837403,0.4375 0.259765,0 0.502441,-0.109375 0.246094,-0.112793 0.50586,-0.3520508 z m 2.625,-0.6938476 0.898925,-4.26220704 h 1.015137 L 23.098686,6 H 21.700737 L 20.487358,0.89697266 h 1.015137 z"
         id="text99"
         style="font-weight:bold;font-size:7px;font-family:BitstreamVeraSansMono-Bold, 'Bitstream Vera Sans Mono';fill:#ffffff;fill-rule:nonzero"
         aria-label="CV" />
      <path
         d="m 13.644096,56 h -1.152343 v -4.824219 h -1.480469 v -1.007812 h 4.113281 v 1.007812 h -1.480469 z m 2.503907,-4.816406 v -1.015625 h 3.472656 v 1.015625 h -1.160156 v 3.800781 h 1.160156 V 56 h -3.472656 v -1.015625 h 1.160156 v -3.800781 z m 4.480468,-1.015625 h 1.375 l 0.695313,2.558593 0.691406,-2.558593 h 1.382813 V 56 h -0.992188 v -4.671875 l -0.617187,2.550781 h -0.917969 l -0.625,-2.550781 V 56 H 20.628471 Z M 29.398003,56 H 25.76519 v -5.832031 h 3.632813 v 1.015625 h -2.480469 v 1.257812 h 2.246094 v 1.015625 h -2.246094 v 1.527344 h 2.480469 z"
         id="text100"
         style="font-weight:bold;font-size:8px;font-family:BitstreamVeraSansMono-Bold, 'Bitstream Vera Sans Mono';fill:#ffffff;fill-rule:nonzero"
         aria-label="TIME" />
      <path
         d="m 12.474174,95.832031 q -0.273437,0.140625 -0.574218,0.210938 -0.300782,0.07031 -0.632813,0.07031 -1.179687,0 -1.800781,-0.777344 -0.6210938,-0.777343 -0.6210938,-2.246093 0,-1.472657 0.6210938,-2.25 0.621094,-0.777344 1.800781,-0.777344 0.332031,0 0.636719,0.07031 0.304687,0.07031 0.570312,0.210938 V 91.625 q -0.296875,-0.273438 -0.578125,-0.398438 -0.277343,-0.128906 -0.574218,-0.128906 -0.632813,0 -0.957032,0.503906 -0.320312,0.5 -0.320312,1.488282 0,0.984375 0.320312,1.488281 0.324219,0.5 0.957032,0.5 0.296875,0 0.574218,-0.125 0.28125,-0.128906 0.578125,-0.402344 z m 1.128907,-5.664062 h 1.152343 v 2.222656 h 1.441407 v -2.222656 h 1.152343 V 96 H 16.196831 V 93.40625 H 14.755424 V 96 h -1.152343 z m 6.6875,0.929687 q -0.441407,0 -0.644532,0.472656 -0.203125,0.46875 -0.203125,1.519532 0,1.046875 0.203125,1.519531 0.203125,0.46875 0.644532,0.46875 0.445312,0 0.648437,-0.46875 0.203125,-0.472656 0.203125,-1.519531 0,-1.050782 -0.203125,-1.519532 -0.203125,-0.472656 -0.648437,-0.472656 z m -2.046875,1.992188 q 0,-1.496094 0.515625,-2.261719 0.519531,-0.765625 1.53125,-0.765625 1.015625,0 1.53125,0.765625 0.519531,0.765625 0.519531,2.261719 0,1.492187 -0.519531,2.257812 -0.515625,0.765625 -1.53125,0.765625 -1.011719,0 -1.53125,-0.765625 -0.515625,-0.765625 -0.515625,-2.257812 z m 4.914062,-2.921875 h 1.152344 v 2.304687 l 1.804687,-2.304687 h 1.304688 L 25.579643,92.464844 27.485893,96 h -1.28125 l -1.382812,-2.625 -0.511719,0.648437 V 96 H 23.157768 Z M 31.806206,96 h -3.632813 v -5.832031 h 3.632813 v 1.015625 h -2.480469 v 1.257812 h 2.246094 v 1.015625 h -2.246094 v 1.527344 h 2.480469 z"
         id="text101"
         style="font-weight:bold;font-size:8px;font-family:BitstreamVeraSansMono-Bold, 'Bitstream Vera Sans Mono';fill:#ffffff;fill-rule:nonzero"
         aria-label="CHOKE" />
      <g
         id="g176"
         transform="translate(4.9733, 13.8902)">
        <g
           id="g175"
           stroke-linecap="square"
           stroke="#FFFFFF">
          <line
             x1="29.658301"
             y1="9.09094963"
             x2="1.73376015"
             y2="22.5528747"
             id="line101" />
          <g
             id="g105"
             transform="translate(1.2601, 15.6345)">
            <line
               x1="2.47319257"
               y1="4.45201695"
               x2="1.04269377"
               y2="5.02606315"
               id="line102" />
            <line
               x1="1.98198707"
               y1="3.19660775"
               x2="0.53608627"
               y2="3.63675185"
               id="line103" />
            <line
               x1="1.65575347"
               y1="1.93463315"
               x2="0.16741538"
               y2="2.18088475"
               id="line104" />
            <line
               x1="1.55466977"
               y1="0.44842175"
               x2="2.22044605e-16"
               y2="0.55157825"
               id="line105" />
          </g>
          <line
             x1="-1.22124533e-15"
             y1="14.7618631"
             x2="31.1520242"
             y2="15.436476"
             id="line106" />
          <g
             id="g110"
             transform="translate(2.681, 11.1975) rotate(32) translate(-2.681, -11.1975)translate(1.4444, 8.578)">
            <line
               x1="2.47319257"
               y1="4.45201695"
               x2="1.04269377"
               y2="5.02606315"
               id="line107" />
            <line
               x1="1.98198707"
               y1="3.19660775"
               x2="0.53608627"
               y2="3.63675185"
               id="line108" />
            <line
               x1="1.65575347"
               y1="1.93463315"
               x2="0.16741538"
               y2="2.18088475"
               id="line109" />
            <line
               x1="1.55466977"
               y1="0.44842175"
               x2="2.22044605e-16"
               y2="0.55157825"
               id="line110" />
          </g>
          <line
             x1="2.53225343"
             y1="6.85252956"
             x2="29.0043477"
             y2="23.4402493"
             id="line111" />
          <g
             id="g115"
             transform="translate(6.5627, 5.171) rotate(62) translate(-6.5627, -5.171)translate(5.3261, 2.5514)">
            <line
               x1="2.47319254"
               y1="4.45201684"
               x2="1.0426937"
               y2="5.0260631"
               id="line112" />
            <line
               x1="1.98198709"
               y1="3.19660765"
               x2="0.536086272"
               y2="3.63675173"
               id="line113" />
            <line
               x1="1.65575353"
               y1="1.93463319"
               x2="0.167415398"
               y2="2.1808848"
               id="line114" />
            <line
               x1="1.55466977"
               y1="0.448421775"
               x2="0"
               y2="0.551578225"
               id="line115" />
          </g>
          <line
             x1="8.8106677"
             y1="1.40066909"
             x2="10.6234699"
             y2="5.09475774"
             id="line116" />
          <g
             id="g120"
             transform="translate(13.0503, 2.1023) rotate(92) translate(-13.0503, -2.1023)translate(11.8137, -0.5172)">
            <line
               x1="2.47319254"
               y1="4.45201684"
               x2="1.0426937"
               y2="5.0260631"
               id="line117" />
            <line
               x1="1.98198709"
               y1="3.19660765"
               x2="0.536086272"
               y2="3.63675173"
               id="line118" />
            <line
               x1="1.65575353"
               y1="1.93463319"
               x2="0.167415398"
               y2="2.1808848"
               id="line119" />
            <line
               x1="1.55466977"
               y1="0.448421775"
               x2="0"
               y2="0.551578225"
               id="line120" />
          </g>
          <line
             x1="16.4371588"
             y1="2.57657148"
             x2="16.6961187"
             y2="-5.55111512e-16"
             id="line121" />
          <g
             id="g125"
             transform="translate(20.1897, 2.5822) rotate(123) translate(-20.1897, -2.5822)translate(18.9531, -0.0373)">
            <line
               x1="2.47319254"
               y1="4.45201684"
               x2="1.0426937"
               y2="5.0260631"
               id="line122" />
            <line
               x1="1.98198709"
               y1="3.19660765"
               x2="0.536086272"
               y2="3.63675173"
               id="line123" />
            <line
               x1="1.65575353"
               y1="1.93463319"
               x2="0.167415398"
               y2="2.1808848"
               id="line124" />
            <line
               x1="1.55466977"
               y1="0.448421775"
               x2="0"
               y2="0.551578225"
               id="line125" />
          </g>
          <line
             x1="24.4672037"
             y1="2.78686002"
             x2="22.7560333"
             y2="5.09475774"
             id="line126" />
          <g
             id="g130"
             transform="translate(26.1671, 6.8017) rotate(152) translate(-26.1671, -6.8017)translate(24.9305, 4.1822)">
            <line
               x1="2.47319254"
               y1="4.45201684"
               x2="1.0426937"
               y2="5.0260631"
               id="line127" />
            <line
               x1="1.98198709"
               y1="3.19660765"
               x2="0.536086272"
               y2="3.63675173"
               id="line128" />
            <line
               x1="1.65575353"
               y1="1.93463319"
               x2="0.167415398"
               y2="2.1808848"
               id="line129" />
            <line
               x1="1.55466977"
               y1="0.448421775"
               x2="0"
               y2="0.551578225"
               id="line130" />
          </g>
          <g
             id="g133"
             transform="translate(29.0536, 12.5353) rotate(-175) translate(-29.0536, -12.5353)translate(27.9007, 10.6782)">
            <line
               x1="2.30577714"
               y1="2.92726911"
               x2="0.875278301"
               y2="3.50131537"
               id="line131" />
            <line
               x1="1.8145717"
               y1="1.67185992"
               x2="0.368670871"
               y2="2.112004"
               id="line132" />
            <line
               x1="1.48448767"
               y1="0.343862925"
               x2="0"
               y2="0.656137076"
               id="line133" />
          </g>
          <g
             id="g174"
             transform="translate(28.6957, 19.0779) rotate(-152) translate(-28.6957, -19.0779)translate(27.4591, 16.4584)">
            <line
               x1="2.47319254"
               y1="4.45201684"
               x2="1.0426937"
               y2="5.0260631"
               id="line171" />
            <line
               x1="1.98198709"
               y1="3.19660765"
               x2="0.536086272"
               y2="3.63675173"
               id="line172" />
            <line
               x1="1.65575353"
               y1="1.93463319"
               x2="0.167415398"
               y2="2.1808848"
               id="line173" />
            <line
               x1="1.55466977"
               y1="0.448421775"
               x2="0"
               y2="0.551578225"
               id="line174" />
          </g>
        </g>
        <circle
           id="circle175"
           fill="#FFFFFF"
           fill-rule="nonzero"
           cx="15.6656454"
           cy="15.1282005"
           r="12.561" />
      </g>
    </g>
    <rect
       id="title-bg"
       fill="#65263C"
       x="0"
       y="0"
       width="135"
       height="20" />
    <path
       d="m 24.148437,6.1953125 q -0.882812,0 -1.289062,0.9453125 -0.40625,0.9375 -0.40625,3.039063 0,2.09375 0.40625,3.039062 0.40625,0.9375 1.289062,0.9375 0.890625,0 1.296875,-0.9375 0.40625,-0.945312 0.40625,-3.039062 0,-2.101563 -0.40625,-3.039063 -0.40625,-0.9453125 -1.296875,-0.9453125 z m -4.09375,3.9843755 q 0,-2.992188 1.03125,-4.523438 Q 22.125,4.125 24.148437,4.125 q 2.03125,0 3.0625,1.53125 Q 28.25,7.1875 28.25,10.179688 q 0,2.984375 -1.039063,4.515625 -1.03125,1.531249 -3.0625,1.531249 -2.023437,0 -3.0625,-1.531249 -1.03125,-1.53125 -1.03125,-4.515625 z M 32.539062,6.2734375 v 3.421875 h 0.945313 q 1.132812,0 1.585937,-0.3828125 0.460938,-0.3828125 0.460938,-1.328125 0,-0.9453125 -0.460938,-1.328125 -0.453125,-0.3828125 -1.585937,-0.3828125 z m -2.304687,-1.9375 h 3.164062 q 2.414063,0 3.46875,0.859375 1.0625,0.859375 1.0625,2.7890625 0,1.9296875 -1.0625,2.789063 -1.054687,0.859375 -3.46875,0.859375 H 32.539062 V 16 H 30.234375 Z M 47.179687,16 H 39.914062 V 4.3359375 h 7.265625 v 2.03125 H 42.21875 v 2.515625 h 4.492187 V 10.914063 H 42.21875 v 3.054687 h 4.960937 z M 49.164062,4.3359375 h 2.476563 l 3.25,8.4765625 V 4.3359375 h 2.03125 V 16 H 54.460937 L 51.195312,7.5234375 V 16 h -2.03125 z m 19.40625,0 H 70.875 V 8.78125 h 2.882812 V 4.3359375 H 76.0625 V 16 H 73.757812 V 10.8125 H 70.875 V 16 h -2.304688 z m 9.90625,2.03125 v -2.03125 h 6.945313 v 2.03125 H 83.101562 V 13.96875 h 2.320313 V 16 h -6.945313 v -2.03125 h 2.320313 V 6.3671875 Z m 9.359375,-2.03125 h 2.304688 V 8.78125 h 2.882812 V 4.3359375 h 2.304688 V 16 H 93.023437 V 10.8125 H 90.140625 V 16 H 87.835937 Z M 101.21094,6.4453125 100.125,11.21875 h 2.17969 z M 99.804687,4.3359375 H 102.625 L 105.77344,16 h -2.30469 L 102.75,13.117188 H 99.664062 L 98.960937,16 H 96.65625 Z M 112,16 h -2.30469 V 6.3515625 h -2.96093 v -2.015625 h 8.22656 v 2.015625 H 112 Z"
       id="text176"
       style="font-weight:bold;font-size:16px;font-family:BitstreamVeraSansMono-Bold, 'Bitstream Vera Sans Mono';fill:#ffffff;fill-rule:nonzero"
       aria-label="OPEN HIHAT" />
  </g>
</svg>
